G04 ================== begin FILE IDENTIFICATION RECORD ==================*
G04 Layout Name:  C:/Users/GuoJin/Desktop/ÃðÎÃµÆ/Ö÷°å/ble-Ö÷°å-v04/ble-mosquito.brd*
G04 Film Name:    drill*
G04 File Format:  Gerber RS274X*
G04 File Origin:  Cadence Allegro 16.6-2015-S108*
G04 Origin Date:  Fri Dec 31 10:12:04 2021*
G04 *
G04 Layer:  MANUFACTURING/NCLEGEND-1-2*
G04 Layer:  MANUFACTURING/NCDRILL_LEGEND*
G04 Layer:  MANUFACTURING/NCDRILL_FIGURE*
G04 Layer:  BOARD GEOMETRY/OUTLINE*
G04 *
G04 Offset:    (0.0000 0.0000)*
G04 Mirror:    No*
G04 Mode:      Positive*
G04 Rotation:  0*
G04 FullContactRelief:  No*
G04 UndefLineWidth:     0.1000*
G04 ================== end FILE IDENTIFICATION RECORD ====================*
%FSLAX55Y55*MOMM*%
%IR0*IPPOS*OFA0.00000B0.00000*MIA0B0*SFA1.00000B1.00000*%
%AMMACRO10*
1,1,.1,-.35,-.4*
20,1,.1,-.35,-.4,-.35,.4,0.0*
1,1,.1,-.35,.4*
20,1,.1,-.35,.4,-.344683,.460777,0.0*
1,1,.1,-.344683,.460777*
20,1,.1,-.344683,.460777,-.328892,.519707,0.0*
1,1,.1,-.328892,.519707*
20,1,.1,-.328892,.519707,-.303109,.575,0.0*
1,1,.1,-.303109,.575*
20,1,.1,-.303109,.575,-.268116,.624976,0.0*
1,1,.1,-.268116,.624976*
20,1,.1,-.268116,.624976,-.224976,.668116,0.0*
1,1,.1,-.224976,.668116*
20,1,.1,-.224976,.668116,-.175,.703109,0.0*
1,1,.1,-.175,.703109*
20,1,.1,-.175,.703109,-.119707,.728892,0.0*
1,1,.1,-.119707,.728892*
20,1,.1,-.119707,.728892,-.060777,.744683,0.0*
1,1,.1,-.060777,.744683*
20,1,.1,-.060777,.744683,0.0,.75,0.0*
1,1,.1,0.0,.75*
20,1,.1,0.0,.75,.060777,.744683,0.0*
1,1,.1,.060777,.744683*
20,1,.1,.060777,.744683,.119707,.728892,0.0*
1,1,.1,.119707,.728892*
20,1,.1,.119707,.728892,.175,.703109,0.0*
1,1,.1,.175,.703109*
20,1,.1,.175,.703109,.224976,.668116,0.0*
1,1,.1,.224976,.668116*
20,1,.1,.224976,.668116,.268116,.624976,0.0*
1,1,.1,.268116,.624976*
20,1,.1,.268116,.624976,.303109,.575,0.0*
1,1,.1,.303109,.575*
20,1,.1,.303109,.575,.328892,.519707,0.0*
1,1,.1,.328892,.519707*
20,1,.1,.328892,.519707,.344683,.460777,0.0*
1,1,.1,.344683,.460777*
20,1,.1,.344683,.460777,.35,.4,0.0*
1,1,.1,.35,.4*
20,1,.1,.35,.4,.35,-.4,0.0*
1,1,.1,.35,-.4*
20,1,.1,.35,-.4,.344683,-.460777,0.0*
1,1,.1,.344683,-.460777*
20,1,.1,.344683,-.460777,.328892,-.519707,0.0*
1,1,.1,.328892,-.519707*
20,1,.1,.328892,-.519707,.303109,-.575,0.0*
1,1,.1,.303109,-.575*
20,1,.1,.303109,-.575,.268116,-.624976,0.0*
1,1,.1,.268116,-.624976*
20,1,.1,.268116,-.624976,.224976,-.668116,0.0*
1,1,.1,.224976,-.668116*
20,1,.1,.224976,-.668116,.175,-.703109,0.0*
1,1,.1,.175,-.703109*
20,1,.1,.175,-.703109,.119707,-.728892,0.0*
1,1,.1,.119707,-.728892*
20,1,.1,.119707,-.728892,.060777,-.744683,0.0*
1,1,.1,.060777,-.744683*
20,1,.1,.060777,-.744683,0.0,-.75,0.0*
1,1,.1,0.0,-.75*
20,1,.1,0.0,-.75,-.060777,-.744683,0.0*
1,1,.1,-.060777,-.744683*
20,1,.1,-.060777,-.744683,-.119707,-.728892,0.0*
1,1,.1,-.119707,-.728892*
20,1,.1,-.119707,-.728892,-.175,-.703109,0.0*
1,1,.1,-.175,-.703109*
20,1,.1,-.175,-.703109,-.224976,-.668116,0.0*
1,1,.1,-.224976,-.668116*
20,1,.1,-.224976,-.668116,-.268116,-.624976,0.0*
1,1,.1,-.268116,-.624976*
20,1,.1,-.268116,-.624976,-.303109,-.575,0.0*
1,1,.1,-.303109,-.575*
20,1,.1,-.303109,-.575,-.328892,-.519707,0.0*
1,1,.1,-.328892,-.519707*
20,1,.1,-.328892,-.519707,-.344683,-.460777,0.0*
1,1,.1,-.344683,-.460777*
20,1,.1,-.344683,-.460777,-.35,-.4,0.0*
1,1,.1,-.35,-.4*
1,1,.1,-.1283,.175*
20,1,.1,-.1283,.175,-.1283,-.0758,0.0*
1,1,.1,-.1283,-.0758*
20,1,.1,-.1283,-.0758,-.105,-.1283,0.0*
1,1,.1,-.105,-.1283*
20,1,.1,-.105,-.1283,-.0583,-.1633,0.0*
1,1,.1,-.0583,-.1633*
20,1,.1,-.0583,-.1633,0.0,-.175,0.0*
1,1,.1,0.0,-.175*
20,1,.1,0.0,-.175,.0583,-.1633,0.0*
1,1,.1,.0583,-.1633*
20,1,.1,.0583,-.1633,.105,-.1283,0.0*
1,1,.1,.105,-.1283*
20,1,.1,.105,-.1283,.1283,-.0758,0.0*
1,1,.1,.1283,-.0758*
20,1,.1,.1283,-.0758,.1283,.175,0.0*
1,1,.1,.1283,.175*
%
%ADD10MACRO10*%
%AMMACRO11*
1,1,.1,.051777,-.125*
20,1,.1,.051777,-.125,-.051777,-.125,0.0*
1,1,.1,-.051777,-.125*
20,1,.1,-.051777,-.125,-.125,-.051777,0.0*
1,1,.1,-.125,-.051777*
20,1,.1,-.125,-.051777,-.125,.051777,0.0*
1,1,.1,-.125,.051777*
20,1,.1,-.125,.051777,-.051777,.125,0.0*
1,1,.1,-.051777,.125*
20,1,.1,-.051777,.125,.051777,.125,0.0*
1,1,.1,.051777,.125*
20,1,.1,.051777,.125,.125,.051777,0.0*
1,1,.1,.125,.051777*
20,1,.1,.125,.051777,.125,-.051777,0.0*
1,1,.1,.125,-.051777*
20,1,.1,.125,-.051777,.051777,-.125,0.0*
1,1,.1,.051777,-.125*
1,1,.1,.0375,-.0625*
20,1,.1,.0375,-.0625,.0375,.0208,0.0*
1,1,.1,.0375,.0208*
1,1,.1,.0375,.0063*
20,1,.1,.0375,.0063,.0292,.0146,0.0*
1,1,.1,.0292,.0146*
20,1,.1,.0292,.0146,.0167,.0187,0.0*
1,1,.1,.0167,.0187*
20,1,.1,.0167,.0187,.0021,.0208,0.0*
1,1,.1,.0021,.0208*
20,1,.1,.0021,.0208,-.0125,.0167,0.0*
1,1,.1,-.0125,.0167*
20,1,.1,-.0125,.0167,-.025,.0083,0.0*
1,1,.1,-.025,.0083*
20,1,.1,-.025,.0083,-.0333,-.0042,0.0*
1,1,.1,-.0333,-.0042*
20,1,.1,-.0333,-.0042,-.0375,-.0208,0.0*
1,1,.1,-.0375,-.0208*
20,1,.1,-.0375,-.0208,-.0333,-.0375,0.0*
1,1,.1,-.0333,-.0375*
20,1,.1,-.0333,-.0375,-.025,-.05,0.0*
1,1,.1,-.025,-.05*
20,1,.1,-.025,-.05,-.0125,-.0583,0.0*
1,1,.1,-.0125,-.0583*
20,1,.1,-.0125,-.0583,.0021,-.0625,0.0*
1,1,.1,.0021,-.0625*
20,1,.1,.0021,-.0625,.0167,-.0604,0.0*
1,1,.1,.0167,-.0604*
20,1,.1,.0167,-.0604,.0292,-.0542,0.0*
1,1,.1,.0292,-.0542*
20,1,.1,.0292,-.0542,.0375,-.0458,0.0*
1,1,.1,.0375,-.0458*
%
%ADD11MACRO11*%
%ADD12C,.1*%
G75*
%LPD*%
G75*
G54D10*
X3040820Y-2943310D03*
X9770910Y6570630D03*
Y6950630D03*
X10634910Y6570630D03*
Y6950630D03*
G54D11*
X3040820Y-2308310D03*
X3520530Y1871110D03*
X3623420Y1574610D03*
X3468200Y2038570D03*
X3457730Y1948560D03*
X4040540Y1363940D03*
X4164380Y1811170D03*
X4134560Y1670360D03*
X4078220Y1519890D03*
X4064620Y1428830D03*
X3749190Y1594760D03*
X3725120Y1504750D03*
X4217040Y1955890D03*
X4097220Y2183070D03*
X4131230Y2329460D03*
X4168200Y2475850D03*
X4097660Y2286010D03*
X3931780Y2298040D03*
X3998690Y2045270D03*
X4015430Y2162490D03*
X4007060Y2306930D03*
X3799070Y1996320D03*
X4109680Y2971340D03*
X3723040Y2934460D03*
X4121200Y2551310D03*
X4154640Y2775920D03*
X4246870Y3233410D03*
X4048500Y3404410D03*
X3982230Y3297190D03*
X4147750Y3508180D03*
X4077100Y3481930D03*
X4141350Y3383500D03*
X4135070Y3299770D03*
X4347120Y2455150D03*
X4325840Y2307270D03*
X4289850Y2157540D03*
X4398500Y2398020D03*
X4417340Y2482800D03*
X4283840Y2992870D03*
X4329100Y3058670D03*
X4380050Y2609930D03*
X4416290Y2752820D03*
X4453970Y2566530D03*
X4492690Y2643970D03*
X4527230Y2697350D03*
X4320300Y3200510D03*
X4611870Y3531860D03*
X4339620Y3589850D03*
X4571450Y3180290D03*
X4375630Y3631970D03*
X4581960Y3487910D03*
X4639950Y3587410D03*
X4364030Y3536750D03*
X4812540Y3341240D03*
X4640920Y3236090D03*
X4700240Y3275180D03*
X4360990Y4054210D03*
X4576460Y4245030D03*
X4556930Y3686300D03*
X4460480Y3743680D03*
X4792660Y4106560D03*
X4740330Y4139010D03*
X4516030Y3721100D03*
X4671150Y4061190D03*
X4509270Y4054210D03*
X4643610Y4202860D03*
X4490070Y4150270D03*
X4825510Y3762600D03*
X4830240Y3904300D03*
X4763360Y3942580D03*
X4880590Y3318800D03*
X4883830Y3510220D03*
X5054900Y3668320D03*
X4847000Y3627230D03*
X4908830Y4059470D03*
X4839750Y4077260D03*
X4871910Y3697900D03*
X4868900Y3841400D03*
X4988290Y4017600D03*
X5059880Y4747080D03*
X4927450Y4771620D03*
X5015580Y4324250D03*
X4986270Y4266690D03*
X5135930Y4375530D03*
X5082560Y4341000D03*
X5383980Y4671720D03*
X5154340Y4267520D03*
X5239290Y5095710D03*
X5681160Y4613600D03*
X5581860Y4607870D03*
X5778760Y5330080D03*
X5667600Y5244720D03*
X5687760Y5050360D03*
X5752540Y5145380D03*
X5646000Y5090670D03*
X5837490Y5359900D03*
X5656080Y5158340D03*
X5720550Y5292550D03*
X5964800Y5244270D03*
X5807300Y5087280D03*
X5783000Y4842160D03*
X5747400Y4884460D03*
X5710180Y4926760D03*
X5820230Y5586240D03*
X6526490Y5298400D03*
X6377240Y5208830D03*
X6038210Y5283860D03*
X6231190Y4894690D03*
X6334660Y4949330D03*
X6266090Y4995060D03*
X6387520Y5881250D03*
X6467950Y5483930D03*
X6579180Y5332130D03*
X6635090Y5708940D03*
X6847510Y5681070D03*
X6730470Y5786210D03*
X6827850Y5565990D03*
X6955610Y6259460D03*
X7137390Y6343930D03*
X6795310Y6113620D03*
X6860090Y6080310D03*
X7572040Y5708890D03*
X7526690Y5678660D03*
X7619550Y5740920D03*
X7568080Y5782320D03*
X7453980Y5700250D03*
X7522010Y5739840D03*
X7685340Y6038220D03*
X8087920Y5906350D03*
X8066000Y5959280D03*
X7942490Y5837910D03*
X7926450Y5891910D03*
X7740810Y5998450D03*
X8240620Y6158050D03*
X8190460Y6141000D03*
X7856980Y6040310D03*
X7744990Y6061250D03*
X7813020Y6081130D03*
X7796280Y6009960D03*
X7876530Y6412110D03*
X7857070Y6339730D03*
X7824380Y6384870D03*
X7926920Y6376070D03*
X8242580Y6021440D03*
X7921740Y6665740D03*
X8269910Y6722200D03*
X8233640Y6779580D03*
X8615260Y6513910D03*
X8629910Y6456870D03*
X8669200Y6540740D03*
X8684340Y6473620D03*
X8642290Y6241640D03*
X8308090Y6014960D03*
X8813230Y6287570D03*
X8833930Y6932570D03*
X8853350Y6866420D03*
X8394140Y6667570D03*
X8329660Y6732280D03*
X8350530Y6798510D03*
X8295820Y6790590D03*
X8604360Y6860880D03*
X9261580Y6364000D03*
X9172630Y6530400D03*
X9232280Y6445630D03*
X9422840Y6185010D03*
X9410800Y6238900D03*
X9400340Y6292280D03*
X9226560Y6642890D03*
X9186790Y6594750D03*
X8922410Y6822480D03*
X8900440Y6660260D03*
X9581830Y6457140D03*
X9847630Y6434160D03*
X9506040Y6258260D03*
X9517550Y6204370D03*
X9666740Y6291910D03*
X9491390Y6315830D03*
X9477260Y6171400D03*
X9450050Y6274490D03*
X9464180Y6222160D03*
X9658960Y6376500D03*
X9952110Y6654050D03*
X9896600Y6656100D03*
X9874560Y6925410D03*
X9690830Y6771930D03*
X9709930Y6705850D03*
X9749900Y6758600D03*
X9559320Y6767980D03*
X9562980Y6714080D03*
X9511700Y6749140D03*
X9615610Y6856830D03*
X10530810Y6275580D03*
X10498040Y6340080D03*
X10569650Y6358760D03*
X10052560Y6351470D03*
X10502710Y6877150D03*
X10168010Y6964330D03*
X10152410Y6824320D03*
X10306180Y6653780D03*
X10153730Y6651640D03*
G54D12*
G01X3008520Y828950D02*
X3654820Y484800D01*
G01X8902860Y7015510D02*
G03X3008520Y828950I1299998J-7139835D01*
G01X3654820Y484800D02*
X3991120Y659040D01*
G01X3812860Y1105680D02*
G03I-109999J-2D01*
G01X11351590Y6030330D02*
G03X3991120Y659040I-1148731J-6154655D01*
G01X9512860Y6575680D02*
G03I-109999J-2D01*
G01X9095360D02*
G03I-67499J-2D01*
G01X9445560Y7106620D02*
G03X9402860Y7100790I757851J-5709926D01*
G01X8902860Y7015510D02*
Y6915510D01*
G01X9402860D02*
Y7100790D01*
G01X8902860Y6915510D02*
X9402860D01*
G01X9445560Y7106620D02*
X9585850D01*
G01D02*
X9755860D01*
G01D02*
X10649860D01*
G01X11112860Y6575680D02*
G03I-109999J-2D01*
G01X10819870Y7106620D02*
X10960160D01*
G01X11340110Y7043240D02*
G03X10960160Y7106620I-1137184J-5646630D01*
G01X10819870D02*
X10649860D01*
G01X11450810Y6575680D02*
G03I-67504J-2D01*
G01X11351590Y6030340D02*
X11610800Y6720030D01*
G01D02*
X11434540Y7027610D01*
G01Y7027620D02*
G03X11340100Y7043240I-1231421J-7151984D01*
G01X1899090Y-3260810D02*
Y-70810D01*
X14182530D01*
Y-3260810D01*
X1899090D01*
G01Y-2625810D02*
X14182530D01*
G01X1899090Y-1990810D02*
X14182530D01*
G01X1899090Y-1355810D02*
X14182530D01*
G01X1899090Y-720810D02*
X14182530D01*
G01X2178610Y-1832060D02*
Y-1514560D01*
X2328230D01*
G01X2273100Y-1668010D02*
X2178610D01*
G01X2521140Y-1514560D02*
X2615620D01*
G01X2568380D02*
Y-1832060D01*
G01X2521140D02*
X2615620D01*
G01X2906960Y-1673310D02*
X2985710D01*
Y-1768560D01*
X2962080Y-1800320D01*
X2934520Y-1821480D01*
X2895150Y-1832060D01*
X2855780Y-1821480D01*
X2828220Y-1800320D01*
X2804600Y-1768560D01*
X2788850Y-1731520D01*
X2780970Y-1689190D01*
Y-1652140D01*
X2788850Y-1620400D01*
X2804600Y-1583350D01*
X2828220Y-1551600D01*
X2851840Y-1530440D01*
X2883340Y-1514560D01*
X2910900D01*
X2942390Y-1525140D01*
X2966020Y-1546310D01*
G01X3111690Y-1514560D02*
Y-1742100D01*
X3127430Y-1789740D01*
X3158930Y-1821480D01*
X3198300Y-1832060D01*
X3237670Y-1821480D01*
X3269170Y-1789740D01*
X3284910Y-1742100D01*
Y-1514560D01*
G01X3434520Y-1832060D02*
Y-1514560D01*
X3532940D01*
X3564440Y-1530440D01*
X3584130Y-1551600D01*
X3592000Y-1593940D01*
X3584130Y-1636270D01*
X3560500Y-1662720D01*
X3532940Y-1678610D01*
X3434520D01*
G01X3532940D02*
X3592000Y-1832060D01*
G01X3906960D02*
X3749480D01*
Y-1514560D01*
X3906960D01*
G01X3843970Y-1668010D02*
X3749480D01*
G01X3655060Y485140D02*
X3008630Y829310D01*
G01D02*
X3006030Y830610D01*
G01D02*
X3006020D01*
G01D02*
X3005980Y830630D01*
G01D02*
G02X8902270Y7018550I7196976J-954628D01*
G01X3655060Y485140D02*
X3008630Y829310D01*
G01D02*
X3006030Y830610D01*
G01D02*
X3006020D01*
G01D02*
X3005980Y830630D01*
G01D02*
G02X8902270Y7018550I7196976J-954628D01*
G01X3655060Y485140D02*
X3008630Y829310D01*
G01D02*
X3006030Y830610D01*
G01D02*
X3006020D01*
G01D02*
X3005980Y830630D01*
G01D02*
G02X8902270Y7018550I7196976J-954628D01*
G01X4182550Y-1355810D02*
Y-3260810D01*
G01X3690420Y-1197060D02*
X3788850Y-879560D01*
X3887280Y-1197060D01*
G01X3851840Y-1085940D02*
X3725850D01*
G01X4025070Y-879560D02*
Y-1197060D01*
X4182550D01*
G01X4340030Y-879560D02*
Y-1197060D01*
X4497510D01*
G01X4962080Y-879560D02*
Y-1107100D01*
X4977820Y-1154740D01*
X5009320Y-1186480D01*
X5048690Y-1197060D01*
X5088060Y-1186480D01*
X5119560Y-1154740D01*
X5135300Y-1107100D01*
Y-879560D01*
G01X5273100Y-1197060D02*
Y-879560D01*
X5454200Y-1197060D01*
Y-879560D01*
G01X5631370D02*
X5725850D01*
G01X5678610D02*
Y-1197060D01*
G01X5631370D02*
X5725850D01*
G01X5993570Y-879560D02*
Y-1197060D01*
G01X5903020Y-879560D02*
X6084120D01*
G01X6225850Y-1154740D02*
X6257350Y-1181190D01*
X6292780Y-1197060D01*
X6324280D01*
X6355770Y-1181190D01*
X6379400Y-1154740D01*
X6391210Y-1117680D01*
X6383340Y-1080650D01*
X6363650Y-1048900D01*
X6328210Y-1027720D01*
X6280970Y-1017140D01*
X6253410Y-995980D01*
X6241600Y-958940D01*
X6249480Y-921890D01*
X6269160Y-895440D01*
X6296720Y-879560D01*
X6324280D01*
X6351840Y-890140D01*
X6375460Y-916600D01*
G01X6840020Y-1197060D02*
X6938450Y-879560D01*
X7036880Y-1197060D01*
G01X7001440Y-1085940D02*
X6875450D01*
G01X7174670Y-1197060D02*
Y-879560D01*
X7273090D01*
X7304590Y-895440D01*
X7324280Y-916600D01*
X7332150Y-958940D01*
X7324280Y-1001270D01*
X7300650Y-1027720D01*
X7273090Y-1043610D01*
X7174670D01*
G01X7273090D02*
X7332150Y-1197060D01*
G01X7647110D02*
X7489630D01*
Y-879560D01*
X7647110D01*
G01X7584120Y-1033010D02*
X7489630D01*
G01X8151050Y-879560D02*
X8245530D01*
G01X8198290D02*
Y-1197060D01*
G01X8151050D02*
X8245530D01*
G01X8422700D02*
Y-879560D01*
X8603800Y-1197060D01*
Y-879560D01*
G01X9040800Y-1197060D02*
Y-879560D01*
X9143170Y-1144140D01*
X9245540Y-879560D01*
Y-1197060D01*
G01X9410890Y-879560D02*
X9505370D01*
G01X9458130D02*
Y-1197060D01*
G01X9410890D02*
X9505370D01*
G01X9694350Y-879560D02*
Y-1197060D01*
X9851830D01*
G01X10009310Y-879560D02*
Y-1197060D01*
X10166790D01*
G01X10355770Y-879560D02*
X10450250D01*
G01X10403010D02*
Y-1197060D01*
G01X10355770D02*
X10450250D01*
G01X10615600D02*
Y-879560D01*
X10717970Y-1144140D01*
X10820340Y-879560D01*
Y-1197060D01*
G01X11111670D02*
X10954190D01*
Y-879560D01*
X11111670D01*
G01X11048680Y-1033010D02*
X10954190D01*
G01X11347890Y-879560D02*
Y-1197060D01*
G01X11257340Y-879560D02*
X11438440D01*
G01X11741590Y-1197060D02*
X11584110D01*
Y-879560D01*
X11741590D01*
G01X11678600Y-1033010D02*
X11584110D01*
G01X11899070Y-1197060D02*
Y-879560D01*
X11997490D01*
X12028990Y-895440D01*
X12048680Y-916600D01*
X12056550Y-958940D01*
X12048680Y-1001270D01*
X12025050Y-1027720D01*
X11997490Y-1043610D01*
X11899070D01*
G01X11997490D02*
X12056550Y-1197060D01*
G01X12210090Y-1154740D02*
X12241590Y-1181190D01*
X12277020Y-1197060D01*
X12308520D01*
X12340010Y-1181190D01*
X12363640Y-1154740D01*
X12375450Y-1117680D01*
X12367580Y-1080650D01*
X12347890Y-1048900D01*
X12312450Y-1027720D01*
X12265210Y-1017140D01*
X12237650Y-995980D01*
X12225840Y-958940D01*
X12233720Y-921890D01*
X12253400Y-895440D01*
X12280960Y-879560D01*
X12308520D01*
X12336080Y-890140D01*
X12359700Y-916600D01*
G01X4017200Y-547060D02*
Y-229560D01*
X4095930D01*
X4127430Y-245440D01*
X4151050Y-266600D01*
X4170740Y-298350D01*
X4186490Y-335400D01*
X4190420Y-388310D01*
X4186490Y-441230D01*
X4170740Y-478270D01*
X4151050Y-510030D01*
X4127430Y-531190D01*
X4095930Y-547060D01*
X4017200D01*
G01X4340030D02*
Y-229560D01*
X4438450D01*
X4469950Y-245440D01*
X4489640Y-266600D01*
X4497510Y-308940D01*
X4489640Y-351270D01*
X4466010Y-377720D01*
X4438450Y-393610D01*
X4340030D01*
G01X4438450D02*
X4497510Y-547060D01*
G01X4686490Y-229560D02*
X4780970D01*
G01X4733730D02*
Y-547060D01*
G01X4686490D02*
X4780970D01*
G01X4969950Y-229560D02*
Y-547060D01*
X5127430D01*
G01X5284910Y-229560D02*
Y-547060D01*
X5442390D01*
G01X6080180Y-256020D02*
X6056560Y-240140D01*
X6029010Y-229560D01*
X5997510D01*
X5962070Y-245440D01*
X5934520Y-271890D01*
X5914830Y-303650D01*
X5899080Y-356560D01*
X5895140Y-404190D01*
X5903020Y-451810D01*
X5914830Y-483560D01*
X5938450Y-515320D01*
X5966010Y-536480D01*
X5993570Y-547060D01*
X6021130D01*
X6048690Y-536480D01*
X6072310Y-520610D01*
X6092000Y-499450D01*
G01X6225850Y-547060D02*
Y-229560D01*
G01X6391210D02*
Y-547060D01*
G01Y-388310D02*
X6225850D01*
G01X6525060Y-547060D02*
X6623490Y-229560D01*
X6721920Y-547060D01*
G01X6686480Y-435940D02*
X6560490D01*
G01X6859710Y-547060D02*
Y-229560D01*
X6958130D01*
X6989630Y-245440D01*
X7009320Y-266600D01*
X7017190Y-308940D01*
X7009320Y-351270D01*
X6985690Y-377720D01*
X6958130Y-393610D01*
X6859710D01*
G01X6958130D02*
X7017190Y-547060D01*
G01X7253410Y-229560D02*
Y-547060D01*
G01X7162860Y-229560D02*
X7343960D01*
G01X7568370Y-557640D02*
X7560490Y-552350D01*
Y-541770D01*
X7568370Y-536480D01*
X7576250Y-541770D01*
Y-552350D01*
X7568370Y-557640D01*
G01Y-414780D02*
X7560490Y-409480D01*
Y-398900D01*
X7568370Y-393610D01*
X7576250Y-398900D01*
Y-409480D01*
X7568370Y-414780D01*
G01X8198290Y-229560D02*
Y-547060D01*
G01X8107740Y-229560D02*
X8288840D01*
G01X8513250Y-547060D02*
X8481750Y-541770D01*
X8454200Y-520610D01*
X8430570Y-488850D01*
X8414820Y-451810D01*
X8406950Y-409480D01*
Y-367140D01*
X8414820Y-324810D01*
X8430570Y-287770D01*
X8454200Y-256020D01*
X8481750Y-234850D01*
X8513250Y-229560D01*
X8544740Y-234850D01*
X8572300Y-256020D01*
X8595930Y-287770D01*
X8611680Y-324810D01*
X8619550Y-367140D01*
Y-409480D01*
X8611680Y-451810D01*
X8595930Y-488850D01*
X8572300Y-520610D01*
X8544740Y-541770D01*
X8513250Y-547060D01*
G01X8749470D02*
Y-229560D01*
X8843960D01*
X8875450Y-245440D01*
X8899080Y-282480D01*
X8906950Y-324810D01*
X8899080Y-367140D01*
X8879390Y-398900D01*
X8843960Y-414780D01*
X8749470D01*
G01X9458130Y-229560D02*
Y-547060D01*
G01X9403010Y-335400D02*
X9513250D01*
G01X9773090Y-547060D02*
X9749470Y-541770D01*
X9725850Y-520610D01*
X9710090Y-483560D01*
X9702220Y-441230D01*
X9710090Y-398900D01*
X9725850Y-361850D01*
X9749470Y-340690D01*
X9773090Y-335400D01*
X9796710Y-340690D01*
X9820330Y-361850D01*
X9836080Y-398900D01*
X9840020Y-441230D01*
X9836080Y-483560D01*
X9820330Y-520610D01*
X9796710Y-541770D01*
X9773090Y-547060D01*
G01X10434500Y-377720D02*
X10450250Y-361850D01*
X10462060Y-335400D01*
X10469940Y-298350D01*
X10462060Y-266600D01*
X10446320Y-245440D01*
X10418760Y-229560D01*
X10312460D01*
Y-547060D01*
X10442380D01*
X10469940Y-525900D01*
X10485690Y-494140D01*
X10493560Y-457100D01*
X10485690Y-420070D01*
X10462060Y-388310D01*
X10434500Y-377720D01*
X10312460D01*
G01X10717970Y-547060D02*
X10686470Y-541770D01*
X10658920Y-520610D01*
X10635290Y-488850D01*
X10619540Y-451810D01*
X10611670Y-409480D01*
Y-367140D01*
X10619540Y-324810D01*
X10635290Y-287770D01*
X10658920Y-256020D01*
X10686470Y-234850D01*
X10717970Y-229560D01*
X10749460Y-234850D01*
X10777020Y-256020D01*
X10800650Y-287770D01*
X10816400Y-324810D01*
X10824270Y-367140D01*
Y-409480D01*
X10816400Y-451810D01*
X10800650Y-488850D01*
X10777020Y-520610D01*
X10749460Y-541770D01*
X10717970Y-547060D01*
G01X11032930Y-229560D02*
Y-547060D01*
G01X10942380Y-229560D02*
X11123480D01*
G01X11347890D02*
Y-547060D01*
G01X11257340Y-229560D02*
X11438440D01*
G01X11662850Y-547060D02*
X11631350Y-541770D01*
X11603800Y-520610D01*
X11580170Y-488850D01*
X11564420Y-451810D01*
X11556550Y-409480D01*
Y-367140D01*
X11564420Y-324810D01*
X11580170Y-287770D01*
X11603800Y-256020D01*
X11631350Y-234850D01*
X11662850Y-229560D01*
X11694340Y-234850D01*
X11721900Y-256020D01*
X11745530Y-287770D01*
X11761280Y-324810D01*
X11769150Y-367140D01*
Y-409480D01*
X11761280Y-451810D01*
X11745530Y-488850D01*
X11721900Y-520610D01*
X11694340Y-541770D01*
X11662850Y-547060D01*
G01X11875440D02*
Y-229560D01*
X11977810Y-494140D01*
X12080180Y-229560D01*
Y-547060D01*
G01X11351290Y6029810D02*
G03X3992270Y659850I-1148922J-6152911D01*
G01D02*
X3655060Y485140D01*
G01X11351290Y6029810D02*
G03X3992270Y659850I-1148922J-6152911D01*
G01D02*
X3655060Y485140D01*
G01X11351290Y6029810D02*
G03X3992270Y659850I-1148922J-6152911D01*
G01D02*
X3655060Y485140D01*
G01X5639240Y-3102060D02*
Y-2784560D01*
X5592000Y-2848060D01*
G01Y-3102060D02*
X5686480D01*
G01X5954200Y-3112640D02*
X5946320Y-3107350D01*
Y-3096770D01*
X5954200Y-3091480D01*
X5962080Y-3096770D01*
Y-3107350D01*
X5954200Y-3112640D01*
G01X6182550Y-3054450D02*
X6206160Y-3080900D01*
X6233720Y-3096770D01*
X6269160Y-3102060D01*
X6304600Y-3091480D01*
X6332150Y-3070320D01*
X6351840Y-3033270D01*
X6355770Y-2990940D01*
X6347900Y-2948610D01*
X6328210Y-2922140D01*
X6300650Y-2900980D01*
X6273100Y-2895690D01*
X6245540Y-2900980D01*
X6210110Y-2922140D01*
X6221920Y-2784560D01*
X6328210D01*
G01X6525070Y-2890400D02*
X6643170Y-3102060D01*
G01Y-2890400D02*
X6525070Y-3102060D01*
G01X6899080Y-2784560D02*
X6867580Y-2795140D01*
X6843960Y-2821600D01*
X6828210Y-2853350D01*
X6816400Y-2895690D01*
X6812470Y-2943310D01*
X6816400Y-2990940D01*
X6828210Y-3033270D01*
X6843960Y-3065030D01*
X6867580Y-3091480D01*
X6899080Y-3102060D01*
X6930570Y-3091480D01*
X6954200Y-3065030D01*
X6969950Y-3033270D01*
X6981760Y-2990940D01*
X6985690Y-2943310D01*
X6981760Y-2895690D01*
X6969950Y-2853350D01*
X6954200Y-2821600D01*
X6930570Y-2795140D01*
X6899080Y-2784560D01*
G01X7214040Y-3112640D02*
X7206160Y-3107350D01*
Y-3096770D01*
X7214040Y-3091480D01*
X7221920Y-3096770D01*
Y-3107350D01*
X7214040Y-3112640D01*
G01X7521120Y-3102060D02*
X7529000Y-3033270D01*
X7540810Y-2975070D01*
X7556560Y-2922140D01*
X7576240Y-2863940D01*
X7607740Y-2784560D01*
X7450260D01*
G01X6111680Y-2149560D02*
X6080180Y-2160140D01*
X6056560Y-2186600D01*
X6040810Y-2218350D01*
X6029000Y-2260690D01*
X6025070Y-2308310D01*
X6029000Y-2355940D01*
X6040810Y-2398270D01*
X6056560Y-2430030D01*
X6080180Y-2456480D01*
X6111680Y-2467060D01*
X6143170Y-2456480D01*
X6166800Y-2430030D01*
X6182550Y-2398270D01*
X6194360Y-2355940D01*
X6198290Y-2308310D01*
X6194360Y-2260690D01*
X6182550Y-2218350D01*
X6166800Y-2186600D01*
X6143170Y-2160140D01*
X6111680Y-2149560D01*
G01X6426640Y-2477640D02*
X6418760Y-2472350D01*
Y-2461770D01*
X6426640Y-2456480D01*
X6434520Y-2461770D01*
Y-2472350D01*
X6426640Y-2477640D01*
G01X6666790Y-2202480D02*
X6690420Y-2170730D01*
X6717980Y-2154850D01*
X6749480Y-2149560D01*
X6788840Y-2160140D01*
X6816410Y-2186600D01*
X6824280Y-2218350D01*
X6820340Y-2250110D01*
X6804590Y-2276560D01*
X6725850Y-2329480D01*
X6690420Y-2366520D01*
X6666790Y-2419450D01*
X6658920Y-2467060D01*
X6824280D01*
G01X6969950Y-2419450D02*
X6993560Y-2445900D01*
X7021120Y-2461770D01*
X7056560Y-2467060D01*
X7092000Y-2456480D01*
X7119550Y-2435320D01*
X7139240Y-2398270D01*
X7143170Y-2355940D01*
X7135300Y-2313610D01*
X7115610Y-2287140D01*
X7088050Y-2265980D01*
X7060500Y-2260690D01*
X7032940Y-2265980D01*
X6997510Y-2287140D01*
X7009320Y-2149560D01*
X7115610D01*
G01X6029000Y-1789740D02*
X6060500Y-1816190D01*
X6095930Y-1832060D01*
X6127430D01*
X6158920Y-1816190D01*
X6182550Y-1789740D01*
X6194360Y-1752680D01*
X6186490Y-1715650D01*
X6166800Y-1683900D01*
X6131360Y-1662720D01*
X6084120Y-1652140D01*
X6056560Y-1630980D01*
X6044750Y-1593940D01*
X6052630Y-1556890D01*
X6072310Y-1530440D01*
X6099870Y-1514560D01*
X6127430D01*
X6154990Y-1525140D01*
X6178610Y-1551600D01*
G01X6379400Y-1514560D02*
X6473880D01*
G01X6426640D02*
Y-1832060D01*
G01X6379400D02*
X6473880D01*
G01X6666790Y-1514560D02*
X6816410D01*
X6666790Y-1832060D01*
X6816410D01*
G01X7135300D02*
X6977820D01*
Y-1514560D01*
X7135300D01*
G01X7072310Y-1668010D02*
X6977820D01*
G01X8985690Y-1355810D02*
Y-3260810D01*
G01X9513060Y6576050D02*
G03I-110049J-2D01*
G01X9095490D02*
G03I-67479J-2D01*
G01D02*
G03I-67479J-2D01*
G01X8902950Y7015990D02*
Y6915910D01*
G01X9403080D02*
Y7101080D01*
G01X8902950Y6915910D02*
X9403080D01*
G01X8902270Y7018550D02*
X8902950Y7018460D01*
G01D02*
Y6915910D01*
G01D02*
X9403080D01*
G01X8902270Y7018550D02*
X8902950Y7018460D01*
G01D02*
Y6915910D01*
G01D02*
X9403080D01*
G01X8902270Y7018550D02*
X8902950Y7018460D01*
G01D02*
Y6915910D01*
G01X9733720Y-3102060D02*
Y-2784560D01*
X9828210D01*
X9859700Y-2800440D01*
X9883330Y-2837480D01*
X9891200Y-2879810D01*
X9883330Y-2922140D01*
X9863640Y-2953900D01*
X9828210Y-2969780D01*
X9733720D01*
G01X10048680Y-2784560D02*
Y-3102060D01*
X10206160D01*
G01X10343950D02*
X10442380Y-2784560D01*
X10540810Y-3102060D01*
G01X10505370Y-2990940D02*
X10379380D01*
G01X10757340Y-2784560D02*
Y-3102060D01*
G01X10666790Y-2784560D02*
X10847890D01*
G01X11151040Y-3102060D02*
X10993560D01*
Y-2784560D01*
X11151040D01*
G01X11088050Y-2938010D02*
X10993560D01*
G01X11300650Y-3102060D02*
Y-2784560D01*
X11379380D01*
X11410880Y-2800440D01*
X11434500Y-2821600D01*
X11454190Y-2853350D01*
X11469940Y-2890400D01*
X11473870Y-2943310D01*
X11469940Y-2996230D01*
X11454190Y-3033270D01*
X11434500Y-3065030D01*
X11410880Y-3086190D01*
X11379380Y-3102060D01*
X11300650D01*
G01X9733720Y-2467060D02*
Y-2149560D01*
X9828210D01*
X9859700Y-2165440D01*
X9883330Y-2202480D01*
X9891200Y-2244810D01*
X9883330Y-2287140D01*
X9863640Y-2318900D01*
X9828210Y-2334780D01*
X9733720D01*
G01X10048680Y-2149560D02*
Y-2467060D01*
X10206160D01*
G01X10343950D02*
X10442380Y-2149560D01*
X10540810Y-2467060D01*
G01X10505370Y-2355940D02*
X10379380D01*
G01X10757340Y-2149560D02*
Y-2467060D01*
G01X10666790Y-2149560D02*
X10847890D01*
G01X11151040Y-2467060D02*
X10993560D01*
Y-2149560D01*
X11151040D01*
G01X11088050Y-2303010D02*
X10993560D01*
G01X11300650Y-2467060D02*
Y-2149560D01*
X11379380D01*
X11410880Y-2165440D01*
X11434500Y-2186600D01*
X11454190Y-2218350D01*
X11469940Y-2255400D01*
X11473870Y-2308310D01*
X11469940Y-2361230D01*
X11454190Y-2398270D01*
X11434500Y-2430030D01*
X11410880Y-2451190D01*
X11379380Y-2467060D01*
X11300650D01*
G01X9733720Y-1832060D02*
Y-1514560D01*
X9828210D01*
X9859700Y-1530440D01*
X9883330Y-1567480D01*
X9891200Y-1609810D01*
X9883330Y-1652140D01*
X9863640Y-1683900D01*
X9828210Y-1699780D01*
X9733720D01*
G01X10048680Y-1514560D02*
Y-1832060D01*
X10206160D01*
G01X10343950D02*
X10442380Y-1514560D01*
X10540810Y-1832060D01*
G01X10505370Y-1720940D02*
X10379380D01*
G01X10757340Y-1514560D02*
Y-1832060D01*
G01X10666790Y-1514560D02*
X10847890D01*
G01X11151040Y-1832060D02*
X10993560D01*
Y-1514560D01*
X11151040D01*
G01X11088050Y-1668010D02*
X10993560D01*
G01X11300650Y-1832060D02*
Y-1514560D01*
X11379380D01*
X11410880Y-1530440D01*
X11434500Y-1551600D01*
X11454190Y-1583350D01*
X11469940Y-1620400D01*
X11473870Y-1673310D01*
X11469940Y-1726230D01*
X11454190Y-1763270D01*
X11434500Y-1795030D01*
X11410880Y-1816190D01*
X11379380Y-1832060D01*
X11300650D01*
G01X11113010Y6576050D02*
G03I-109999J-2D01*
G01X11610850Y6720330D02*
X11529310Y6503160D01*
G01D02*
X11351770Y6030720D01*
G01D02*
X11351290Y6029810D01*
G01X11610850Y6720330D02*
X11529310Y6503160D01*
G01D02*
X11351770Y6030720D01*
G01D02*
X11351290Y6029810D01*
G01X11610850Y6720330D02*
X11529310Y6503160D01*
G01D02*
X11351770Y6030720D01*
G01D02*
X11351290Y6029810D01*
G01X11272730Y7056860D02*
G02X11433380Y7031120I-1068177J-7180966D01*
G01D02*
X11434570Y7027930D01*
G01D02*
X11610850Y6720330D01*
G01X11272730Y7056860D02*
G02X11433380Y7031120I-1068177J-7180966D01*
G01D02*
X11434570Y7027930D01*
G01D02*
X11610850Y6720330D01*
G01X11272730Y7056860D02*
G02X11433380Y7031120I-1068177J-7180966D01*
G01D02*
X11434570Y7027930D01*
G01D02*
X11610850Y6720330D01*
G01X12214030Y-1355810D02*
Y-3260810D01*
G01X12883320Y-2467060D02*
Y-2149560D01*
X12836080Y-2213060D01*
G01Y-2467060D02*
X12930560D01*
G01X13131350Y-2430030D02*
X13158910Y-2456480D01*
X13190400Y-2467060D01*
X13221900Y-2456480D01*
X13249460Y-2424740D01*
X13269150Y-2377100D01*
X13277020Y-2329480D01*
Y-2271270D01*
X13269150Y-2223650D01*
X13249460Y-2181310D01*
X13225840Y-2160140D01*
X13198280Y-2149560D01*
X13166780Y-2160140D01*
X13143160Y-2181310D01*
X13127410Y-2213060D01*
X13119540Y-2255400D01*
X13127410Y-2292430D01*
X13147100Y-2329480D01*
X13170720Y-2350650D01*
X13198280Y-2355940D01*
X13229770Y-2345360D01*
X13253400Y-2318900D01*
X13277020Y-2271270D01*
G01X13446310Y-2430030D02*
X13473870Y-2456480D01*
X13505360Y-2467060D01*
X13536860Y-2456480D01*
X13564420Y-2424740D01*
X13584110Y-2377100D01*
X13591980Y-2329480D01*
Y-2271270D01*
X13584110Y-2223650D01*
X13564420Y-2181310D01*
X13540800Y-2160140D01*
X13513240Y-2149560D01*
X13481740Y-2160140D01*
X13458120Y-2181310D01*
X13442370Y-2213060D01*
X13434500Y-2255400D01*
X13442370Y-2292430D01*
X13462060Y-2329480D01*
X13485680Y-2350650D01*
X13513240Y-2355940D01*
X13544730Y-2345360D01*
X13568360Y-2318900D01*
X13591980Y-2271270D01*
G01X12883320Y-1832060D02*
X12851820Y-1826770D01*
X12824270Y-1805610D01*
X12800640Y-1773850D01*
X12784890Y-1736810D01*
X12777020Y-1694480D01*
Y-1652140D01*
X12784890Y-1609810D01*
X12800640Y-1572770D01*
X12824270Y-1541020D01*
X12851820Y-1519850D01*
X12883320Y-1514560D01*
X12914810Y-1519850D01*
X12942370Y-1541020D01*
X12966000Y-1572770D01*
X12981750Y-1609810D01*
X12989620Y-1652140D01*
Y-1694480D01*
X12981750Y-1736810D01*
X12966000Y-1773850D01*
X12942370Y-1805610D01*
X12914810Y-1826770D01*
X12883320Y-1832060D01*
G01X12914810Y-1747390D02*
X12962060Y-1832060D01*
G01X13198280Y-1514560D02*
Y-1832060D01*
G01X13107730Y-1514560D02*
X13288830D01*
G01X13513240Y-1832060D02*
Y-1689190D01*
X13434500Y-1514560D01*
G01X13591980D02*
X13513240Y-1689190D01*
G01X13245520Y-3102060D02*
Y-2784560D01*
X13099850Y-3012100D01*
X13296710D01*
M02*
