G04 ================== begin FILE IDENTIFICATION RECORD ==================*
G04 Layout Name:  C:/Users/GuoJin/Desktop/ÃðÎÃµÆ/Ö÷°å/ble-Ö÷°å-v04/ble-mosquito.brd*
G04 Film Name:    silk_bot*
G04 File Format:  Gerber RS274X*
G04 File Origin:  Cadence Allegro 16.6-2015-S108*
G04 Origin Date:  Fri Dec 31 10:12:04 2021*
G04 *
G04 Layer:  REF DES/SILKSCREEN_BOTTOM*
G04 Layer:  PACKAGE GEOMETRY/SILKSCREEN_BOTTOM*
G04 Layer:  PACKAGE GEOMETRY/ASSEMBLY_BOTTOM*
G04 Layer:  BOARD GEOMETRY/SILKSCREEN_BOTTOM*
G04 Layer:  BOARD GEOMETRY/OUTLINE*
G04 *
G04 Offset:    (0.0000 0.0000)*
G04 Mirror:    No*
G04 Mode:      Positive*
G04 Rotation:  0*
G04 FullContactRelief:  No*
G04 UndefLineWidth:     0.1000*
G04 ================== end FILE IDENTIFICATION RECORD ====================*
%FSLAX55Y55*MOMM*%
%IR0*IPPOS*OFA0.00000B0.00000*MIA0B0*SFA1.00000B1.00000*%
%ADD10C,.1*%
%ADD11C,.102*%
%ADD12C,.15*%
%ADD13C,.127*%
%ADD14C,.254*%
%ADD15C,.1524*%
G75*
%LPD*%
G75*
G54D10*
G01X3008520Y828950D02*
X3654820Y484800D01*
G01X8902860Y7015510D02*
G03X3008520Y828950I1299998J-7139835D01*
G01X3654820Y484800D02*
X3991120Y659040D01*
G01X3812860Y1105680D02*
G03I-109999J-2D01*
G01X11351590Y6030330D02*
G03X3991120Y659040I-1148731J-6154655D01*
G01X9512860Y6575680D02*
G03I-109999J-2D01*
G01X9095360D02*
G03I-67499J-2D01*
G01X9445560Y7106620D02*
G03X9402860Y7100790I757851J-5709926D01*
G01X8902860Y7015510D02*
Y6915510D01*
G01X9402860D02*
Y7100790D01*
G01X8902860Y6915510D02*
X9402860D01*
G01X9445560Y7106620D02*
X9585850D01*
G01D02*
X9755860D01*
G01D02*
X10649860D01*
G01X11112860Y6575680D02*
G03I-109999J-2D01*
G01X10819870Y7106620D02*
X10960160D01*
G01X11340110Y7043240D02*
G03X10960160Y7106620I-1137184J-5646630D01*
G01X10819870D02*
X10649860D01*
G01X11450810Y6575680D02*
G03I-67504J-2D01*
G01X11351590Y6030340D02*
X11610800Y6720030D01*
G01D02*
X11434540Y7027610D01*
G01Y7027620D02*
G03X11340100Y7043240I-1231421J-7151984D01*
G01X3655060Y485140D02*
X3008630Y829310D01*
G01D02*
X3006030Y830610D01*
G01D02*
X3006020D01*
G01D02*
X3005980Y830630D01*
G01D02*
G02X8902270Y7018550I7196976J-954628D01*
G01X3655060Y485140D02*
X3008630Y829310D01*
G01D02*
X3006030Y830610D01*
G01D02*
X3006020D01*
G01D02*
X3005980Y830630D01*
G01D02*
G02X8902270Y7018550I7196976J-954628D01*
G01X3655060Y485140D02*
X3008630Y829310D01*
G01D02*
X3006030Y830610D01*
G01D02*
X3006020D01*
G01D02*
X3005980Y830630D01*
G01D02*
G02X8902270Y7018550I7196976J-954628D01*
G01X3737590Y1713070D02*
G03I-90000J0D01*
G01X3733370Y1469340D02*
X3738280Y1470940D01*
X3743450Y1471310D01*
X3748550Y1469450D01*
X3753190Y1464380D01*
X3755830Y1457790D01*
X3756850Y1450660D01*
X3755770Y1439790D01*
X3753150Y1430610D01*
X3748620Y1422120D01*
X3744540Y1416850D01*
X3738550Y1412270D01*
X3732640Y1409920D01*
X3727470Y1409550D01*
X3723010Y1411170D01*
X3719280Y1414780D01*
X3716550Y1419150D01*
X3714810Y1424290D01*
G01X3670190Y1430400D02*
X3691900Y1490070D01*
X3695200Y1475360D01*
G01X3677820Y1427620D02*
X3662550Y1433180D01*
G01X3614180Y1450790D02*
X3617610Y1464180D01*
X3619680Y1475810D01*
X3620760Y1486680D01*
X3621560Y1498780D01*
X3621890Y1515550D01*
X3647350Y1506290D01*
G01X3522810Y1987480D02*
X3521210Y1992390D01*
X3520840Y1997560D01*
X3522700Y2002660D01*
X3527770Y2007300D01*
X3534360Y2009940D01*
X3541490Y2010960D01*
X3552360Y2009880D01*
X3561540Y2007260D01*
X3570030Y2002730D01*
X3575300Y1998650D01*
X3579880Y1992660D01*
X3582230Y1986750D01*
X3582600Y1981580D01*
X3580980Y1977120D01*
X3577370Y1973390D01*
X3573000Y1970660D01*
X3567860Y1968920D01*
G01X3561750Y1924300D02*
X3502080Y1946010D01*
X3516790Y1949310D01*
G01X3564530Y1931930D02*
X3558970Y1916660D01*
G01X3537880Y1880370D02*
X3541230Y1874100D01*
X3541360Y1868290D01*
X3537520Y1863920D01*
X3529930Y1861640D01*
X3519820Y1861710D01*
X3510410Y1863700D01*
X3499470Y1867680D01*
X3490980Y1872210D01*
X3484190Y1878290D01*
X3481600Y1883550D01*
X3481230Y1888730D01*
X3485070Y1893100D01*
X3490440Y1895470D01*
X3497330Y1895850D01*
X3505750Y1894220D01*
X3512250Y1890420D01*
X3518050Y1884700D01*
X3520640Y1879430D01*
X3520020Y1874620D01*
X3516170Y1870250D01*
X3509810Y1868240D01*
X3499470Y1867680D01*
G01X3709830Y1940740D02*
X3652280Y1967580D01*
X3645120Y1952230D01*
X3645710Y1945980D01*
X3648110Y1941120D01*
X3655210Y1936310D01*
X3663460Y1933960D01*
X3669970Y1935410D01*
X3674860Y1938370D01*
X3682010Y1953710D01*
G01X3674860Y1938370D02*
X3698380Y1916190D01*
G01X3680480Y1877820D02*
X3622930Y1904660D01*
X3637880Y1906660D01*
G01X3683920Y1885190D02*
X3677050Y1870460D01*
G01X3614340Y1861210D02*
X3606870Y1860210D01*
X3601990Y1857260D01*
X3598740Y1852790D01*
X3597790Y1845760D01*
X3600590Y1839230D01*
X3605770Y1835310D01*
X3611810Y1833240D01*
X3617750Y1833460D01*
X3633070Y1841270D01*
X3642360Y1843660D01*
X3653670Y1842870D01*
X3662870Y1840080D01*
X3650850Y1814290D01*
G01X3697850Y2571470D02*
X3608920Y2327150D01*
G01D02*
X3721670Y2286110D01*
G01X3531520Y2040720D02*
X3601370Y2232620D01*
X3683950Y2202570D01*
X3614100Y2010660D01*
X3531520Y2040720D01*
G01X3561170Y2369010D02*
X3506180Y2400760D01*
X3497710Y2386100D01*
X3497760Y2379820D01*
X3499730Y2374770D01*
X3506380Y2369360D01*
X3514390Y2366300D01*
X3521010Y2367180D01*
X3526130Y2369690D01*
X3534590Y2384360D01*
G01X3526130Y2369690D02*
X3547630Y2345550D01*
G01X3526460Y2308890D02*
X3471470Y2340640D01*
X3486530Y2341330D01*
G01X3530520Y2315930D02*
X3522400Y2301850D01*
G01X3498520Y2260500D02*
X3443530Y2292250D01*
X3458590Y2292940D01*
G01X3502580Y2267540D02*
X3494460Y2253460D01*
G01X11351290Y6029810D02*
G03X3992270Y659850I-1148922J-6152911D01*
G01D02*
X3655060Y485140D01*
G01X11351290Y6029810D02*
G03X3992270Y659850I-1148922J-6152911D01*
G01D02*
X3655060Y485140D01*
G01X11351290Y6029810D02*
G03X3992270Y659850I-1148922J-6152911D01*
G01D02*
X3655060Y485140D01*
G01X3954670Y1321780D02*
X3762770Y1391630D01*
X3792820Y1474210D01*
X3984730Y1404360D01*
X3954670Y1321780D01*
G01X3864450Y1793930D02*
X3869360Y1795530D01*
X3874530Y1795900D01*
X3879630Y1794040D01*
X3884270Y1788970D01*
X3886910Y1782380D01*
X3887930Y1775250D01*
X3886850Y1764380D01*
X3884230Y1755200D01*
X3879700Y1746710D01*
X3875620Y1741440D01*
X3869630Y1736860D01*
X3863720Y1734510D01*
X3858550Y1734140D01*
X3854090Y1735760D01*
X3850360Y1739370D01*
X3847630Y1743740D01*
X3845890Y1748880D01*
G01X3831460Y1800310D02*
X3829810Y1807670D01*
X3826440Y1812280D01*
X3821710Y1815120D01*
X3814620Y1815450D01*
X3808360Y1812100D01*
X3804910Y1806600D01*
X3803380Y1800400D01*
X3804110Y1794500D01*
X3813220Y1779920D01*
X3816420Y1770870D01*
X3816620Y1759540D01*
X3814630Y1750120D01*
X3787900Y1759850D01*
G01X3736350Y1778620D02*
X3758070Y1838290D01*
X3766050Y1786950D01*
X3734230Y1798540D01*
G01X4068670Y1633680D02*
X3876770Y1703530D01*
X3906820Y1786110D01*
X4098730Y1716260D01*
X4068670Y1633680D01*
G01X3885980Y1521880D02*
X3824640Y1538310D01*
X3831660Y1564480D01*
G01X3842610Y1605380D02*
X3903950Y1588940D01*
X3889580Y1584380D01*
G01X3840510Y1597530D02*
X3844710Y1613230D01*
G01X3935790Y1945460D02*
X3995460Y1923750D01*
X3986200Y1898290D01*
G01X3926400Y1888700D02*
X3919040Y1887050D01*
X3914430Y1883680D01*
X3911590Y1878950D01*
X3911260Y1871860D01*
X3914610Y1865600D01*
X3920110Y1862150D01*
X3926310Y1860620D01*
X3932210Y1861350D01*
X3946790Y1870460D01*
X3955840Y1873660D01*
X3967170Y1873860D01*
X3976590Y1871870D01*
X3966860Y1845140D01*
G01X3721670Y2286110D02*
X3810600Y2530430D01*
G01X4131200Y2430760D02*
G03I-90000J0D01*
G01X3964720Y2102710D02*
X3969630Y2104310D01*
X3974800Y2104680D01*
X3979900Y2102820D01*
X3984540Y2097750D01*
X3987180Y2091160D01*
X3988200Y2084030D01*
X3987120Y2073160D01*
X3984500Y2063980D01*
X3979970Y2055490D01*
X3975890Y2050220D01*
X3969900Y2045640D01*
X3963990Y2043290D01*
X3958820Y2042920D01*
X3954360Y2044540D01*
X3950630Y2048150D01*
X3947900Y2052520D01*
X3946160Y2057660D01*
G01X3901540Y2063770D02*
X3923250Y2123440D01*
X3926550Y2108730D01*
G01X3909170Y2060990D02*
X3893900Y2066550D01*
G01X3861520Y2088470D02*
X3855890Y2084890D01*
X3850350Y2083530D01*
X3844260Y2084620D01*
X3839250Y2088690D01*
X3836240Y2094290D01*
X3835590Y2102410D01*
X3837850Y2110600D01*
X3842020Y2118090D01*
X3847020Y2121910D01*
X3852920Y2124260D01*
X3857740Y2123640D01*
X3861830Y2121020D01*
X3866110Y2114960D01*
X3873610Y2141510D01*
X3856430Y2147770D01*
G01X4178080Y1941970D02*
X3986180Y2011820D01*
X4016230Y2094400D01*
X4208140Y2024550D01*
X4178080Y1941970D01*
G01X3798440Y2331110D02*
X3796840Y2336020D01*
X3796470Y2341190D01*
X3798330Y2346290D01*
X3803400Y2350930D01*
X3809990Y2353570D01*
X3817120Y2354590D01*
X3827990Y2353510D01*
X3837170Y2350890D01*
X3845660Y2346360D01*
X3850930Y2342280D01*
X3855510Y2336290D01*
X3857860Y2330380D01*
X3858230Y2325210D01*
X3856610Y2320750D01*
X3853000Y2317020D01*
X3848630Y2314290D01*
X3843490Y2312550D01*
G01X3792060Y2298120D02*
X3784700Y2296470D01*
X3780090Y2293100D01*
X3777250Y2288370D01*
X3776920Y2281280D01*
X3780270Y2275020D01*
X3785770Y2271570D01*
X3791970Y2270040D01*
X3797870Y2270770D01*
X3812450Y2279880D01*
X3821500Y2283080D01*
X3832830Y2283280D01*
X3842250Y2281290D01*
X3832520Y2254560D01*
G01X3816530Y2210650D02*
X3756860Y2232360D01*
X3771570Y2235660D01*
G01X3819310Y2218280D02*
X3813750Y2203010D01*
G01X3796710Y2399610D02*
X3883020Y2584700D01*
X3962660Y2547560D01*
X3876360Y2362470D01*
X3796710Y2399610D01*
G01X3830450Y2646870D02*
X3772900Y2673710D01*
X3767170Y2661430D01*
X3767760Y2655170D01*
X3769880Y2649700D01*
X3774200Y2643950D01*
X3779780Y2638360D01*
X3789080Y2633280D01*
X3798960Y2629420D01*
X3806820Y2628740D01*
X3814000Y2629130D01*
X3819560Y2631020D01*
X3824730Y2634590D01*
X3830450Y2646870D01*
G01X3796060Y2595640D02*
X3799140Y2589730D01*
X3800010Y2584090D01*
X3798390Y2578110D01*
X3793900Y2573480D01*
X3788060Y2570980D01*
X3779910Y2571040D01*
X3771950Y2574000D01*
X3764850Y2578810D01*
X3761490Y2584110D01*
X3759650Y2590200D01*
X3760700Y2594940D01*
X3763660Y2598790D01*
X3770070Y2602530D01*
X3744280Y2612320D01*
X3736550Y2595740D01*
G01X3810600Y2530430D02*
X3697850Y2571470D01*
G01X3962460Y2877990D02*
X3936570Y2890070D01*
X3910640Y2917110D01*
G01X3899190Y2892550D02*
X3936570Y2890070D01*
G01X3938840Y2827350D02*
X3881290Y2854190D01*
X3896240Y2856190D01*
G01X3942280Y2834720D02*
X3935410Y2819990D01*
G01X3909600Y3109990D02*
X3995910Y3295080D01*
X4075550Y3257940D01*
X3989250Y3072850D01*
X3909600Y3109990D01*
G01X4187530Y2882870D02*
X4186370Y2887890D01*
X4186460Y2893080D01*
X4188750Y2898000D01*
X4194200Y2902180D01*
X4201000Y2904240D01*
X4208190Y2904630D01*
X4218920Y2902610D01*
X4227840Y2899200D01*
X4235900Y2893940D01*
X4240800Y2889420D01*
X4244840Y2883050D01*
X4246670Y2876960D01*
X4246580Y2871770D01*
X4244580Y2867480D01*
X4240660Y2864070D01*
X4236060Y2861730D01*
X4230800Y2860450D01*
G01X4220820Y2816520D02*
X4163270Y2843360D01*
X4178220Y2845360D01*
G01X4224260Y2823890D02*
X4217390Y2809160D01*
G01X4191630Y2753910D02*
X4134080Y2780740D01*
X4185910Y2784220D01*
X4171600Y2753530D01*
G01X4171730Y2935900D02*
X4085420Y2750810D01*
X4005780Y2787950D01*
X4092080Y2973040D01*
X4171730Y2935900D01*
G01X4157240Y2659180D02*
X4099690Y2686020D01*
X4092530Y2670670D01*
X4093120Y2664420D01*
X4095520Y2659560D01*
X4102620Y2654750D01*
X4110870Y2652400D01*
X4117380Y2653850D01*
X4122270Y2656810D01*
X4129420Y2672150D01*
G01X4122270Y2656810D02*
X4145790Y2634630D01*
G01X4127890Y2596260D02*
X4070340Y2623100D01*
X4085290Y2625100D01*
G01X4131330Y2603630D02*
X4124460Y2588900D01*
G01X4100840Y2538260D02*
X4043290Y2565090D01*
X4095120Y2568570D01*
X4080810Y2537880D01*
G01X4331060Y3103140D02*
X4273510Y3129980D01*
X4266350Y3114630D01*
X4266940Y3108380D01*
X4269340Y3103520D01*
X4276440Y3098710D01*
X4284690Y3096360D01*
X4291200Y3097810D01*
X4296090Y3100770D01*
X4303240Y3116110D01*
G01X4296090Y3100770D02*
X4319610Y3078590D01*
G01X4301710Y3040220D02*
X4244160Y3067060D01*
X4259110Y3069060D01*
G01X4305150Y3047590D02*
X4298280Y3032860D01*
G01X4220540Y3016420D02*
X4224750Y3020440D01*
X4231260Y3021880D01*
X4238160Y3021660D01*
X4246700Y3019920D01*
X4255620Y3016510D01*
X4263960Y3011870D01*
X4270780Y3006450D01*
X4275390Y3001310D01*
X4278460Y2995390D01*
X4278090Y2989580D01*
X4273880Y2985570D01*
X4267370Y2984120D01*
X4260470Y2984350D01*
X4251940Y2986080D01*
X4243020Y2989500D01*
X4234670Y2994140D01*
X4227860Y2999560D01*
X4223250Y3004690D01*
X4220170Y3010620D01*
X4220540Y3016420D01*
G01X4149890Y3483040D02*
X4399890Y3916060D01*
X4832910Y3666060D01*
X4582910Y3233040D01*
X4149890Y3483040D01*
G01X3942580Y3412060D02*
X3940980Y3416970D01*
X3940610Y3422140D01*
X3942470Y3427240D01*
X3947540Y3431880D01*
X3954130Y3434520D01*
X3961260Y3435540D01*
X3972130Y3434460D01*
X3981310Y3431840D01*
X3989800Y3427310D01*
X3995070Y3423230D01*
X3999650Y3417240D01*
X4002000Y3411330D01*
X4002370Y3406160D01*
X4000750Y3401700D01*
X3997140Y3397970D01*
X3992770Y3395240D01*
X3987630Y3393500D01*
G01X3978500Y3362230D02*
X3981850Y3355960D01*
X3981980Y3350150D01*
X3978140Y3345780D01*
X3970550Y3343500D01*
X3960440Y3343570D01*
X3951030Y3345560D01*
X3940090Y3349540D01*
X3931600Y3354070D01*
X3924810Y3360150D01*
X3922220Y3365410D01*
X3921850Y3370590D01*
X3925690Y3374960D01*
X3931060Y3377330D01*
X3937950Y3377710D01*
X3946370Y3376080D01*
X3952870Y3372280D01*
X3958670Y3366560D01*
X3961260Y3361290D01*
X3960640Y3356480D01*
X3956790Y3352110D01*
X3950430Y3350100D01*
X3940090Y3349540D01*
G01X3820570Y3152760D02*
X3906880Y3337850D01*
X3986520Y3300710D01*
X3900220Y3115620D01*
X3820570Y3152760D01*
G01X4053020Y3367720D02*
X4052750Y3372880D01*
X4053730Y3377970D01*
X4056840Y3382410D01*
X4062940Y3385580D01*
X4069990Y3386430D01*
X4077140Y3385560D01*
X4087360Y3381710D01*
X4095550Y3376810D01*
X4102580Y3370230D01*
X4106610Y3364930D01*
X4109480Y3357950D01*
X4110230Y3351640D01*
X4109250Y3346550D01*
X4106530Y3342660D01*
X4102070Y3339990D01*
X4097140Y3338480D01*
X4091730Y3338140D01*
G01X4074280Y3296610D02*
X4070690Y3293330D01*
X4064980Y3290710D01*
X4058700Y3290970D01*
X4051860Y3294110D01*
X4046570Y3299470D01*
X4043700Y3306440D01*
X4044590Y3313260D01*
X4048480Y3318800D01*
X4049070Y3323350D01*
X4046680Y3329160D01*
X4041390Y3334520D01*
X4034150Y3337100D01*
X4027100Y3336250D01*
X4022260Y3333030D01*
X4020880Y3327370D01*
X4022500Y3320460D01*
X4027400Y3314540D01*
X4034250Y3311400D01*
X4040530Y3311140D01*
X4044590Y3313260D01*
X4048480Y3318800D01*
X4054570Y3321980D01*
X4062110Y3321660D01*
X4068950Y3318520D01*
X4074240Y3313160D01*
X4076640Y3307350D01*
X4076130Y3301100D01*
X4074280Y3296610D01*
G01X4757240Y3015510D02*
G03I-90000J0D01*
G01X4711600Y3137550D02*
X4813710Y3314410D01*
X4889820Y3270470D01*
X4787710Y3093610D01*
X4711600Y3137550D01*
G01X4867190Y3790860D02*
X4855410Y3746900D01*
X4850330Y3738400D01*
X4843450Y3733670D01*
X4836360Y3733380D01*
X4830370Y3737180D01*
X4826780Y3744710D01*
X4826630Y3754610D01*
X4838400Y3798570D01*
G01X4774530Y3749940D02*
X4790970Y3811280D01*
X4803400Y3760830D01*
X4770680Y3769600D01*
G01X4608810Y4235970D02*
X4608090Y4241080D01*
X4608630Y4246240D01*
X4611340Y4250940D01*
X4617140Y4254630D01*
X4624090Y4256090D01*
X4631280Y4255850D01*
X4641800Y4252900D01*
X4650390Y4248730D01*
X4657960Y4242790D01*
X4662450Y4237850D01*
X4665910Y4231160D01*
X4667210Y4224940D01*
X4666670Y4219770D01*
X4664300Y4215670D01*
X4660100Y4212620D01*
X4655310Y4210690D01*
X4649960Y4209870D01*
G01X4636190Y4166980D02*
X4581200Y4198730D01*
X4596260Y4199420D01*
G01X4640250Y4174020D02*
X4632130Y4159940D01*
G01X4602160Y4133450D02*
X4606550Y4126220D01*
X4607500Y4119410D01*
X4605370Y4113610D01*
X4601750Y4109440D01*
X4594450Y4107390D01*
X4587260Y4107640D01*
X4581420Y4110230D01*
X4575690Y4115100D01*
X4573470Y4121850D01*
X4574010Y4127020D01*
X4577060Y4132300D01*
G01X4574010Y4127020D02*
X4569230Y4125090D01*
X4562950Y4124800D01*
X4556780Y4126800D01*
X4551950Y4131150D01*
X4549070Y4136730D01*
X4549360Y4143600D01*
X4553330Y4148350D01*
X4560040Y4151510D01*
G01X4717750Y4233100D02*
X4809680Y4155970D01*
G01X4618950Y4336410D02*
X4710880Y4259280D01*
G01D02*
X4878010Y4458450D01*
G01D02*
X4786080Y4535580D01*
G01D02*
X4618950Y4336410D01*
G01X4884880Y4432270D02*
X4717750Y4233100D01*
G01X4884500Y3431800D02*
X4883340Y3436820D01*
X4883430Y3442010D01*
X4885720Y3446930D01*
X4891170Y3451110D01*
X4897970Y3453170D01*
X4905160Y3453560D01*
X4915890Y3451540D01*
X4924810Y3448130D01*
X4932870Y3442870D01*
X4937770Y3438350D01*
X4941810Y3431980D01*
X4943640Y3425890D01*
X4943550Y3420700D01*
X4941550Y3416410D01*
X4937630Y3413000D01*
X4933030Y3410660D01*
X4927770Y3409380D01*
G01X4875270Y3399480D02*
X4867800Y3398480D01*
X4862920Y3395530D01*
X4859670Y3391060D01*
X4858720Y3384030D01*
X4861520Y3377500D01*
X4866700Y3373580D01*
X4872740Y3371510D01*
X4878680Y3371730D01*
X4894000Y3379540D01*
X4903290Y3381930D01*
X4914600Y3381140D01*
X4923800Y3378350D01*
X4911780Y3352560D01*
G01X4849510Y3344230D02*
X4842040Y3343230D01*
X4837160Y3340280D01*
X4833910Y3335810D01*
X4832960Y3328780D01*
X4835760Y3322250D01*
X4840940Y3318330D01*
X4846980Y3316260D01*
X4852920Y3316480D01*
X4868240Y3324290D01*
X4877530Y3326680D01*
X4888840Y3325890D01*
X4898040Y3323100D01*
X4886020Y3297310D01*
G01X5257290Y4283080D02*
X5257470Y4288240D01*
X5258900Y4293230D01*
X5262380Y4297380D01*
X5268730Y4300010D01*
X5275830Y4300240D01*
X5282870Y4298750D01*
X5292720Y4294030D01*
X5300450Y4288420D01*
X5306880Y4281260D01*
X5310440Y4275620D01*
X5312690Y4268430D01*
X5312880Y4262080D01*
X5311460Y4257080D01*
X5308410Y4253450D01*
X5303740Y4251180D01*
X5298700Y4250110D01*
X5293280Y4250230D01*
G01X5240010Y4254260D02*
X5232540Y4255220D01*
X5227060Y4253630D01*
X5222760Y4250160D01*
X5220030Y4243610D01*
X5221040Y4236580D01*
X5225030Y4231460D01*
X5230330Y4227900D01*
X5236130Y4226570D01*
X5252940Y4230150D01*
X5262530Y4230050D01*
X5273260Y4226360D01*
X5281420Y4221280D01*
X5263140Y4199490D01*
G01X5184460Y4204500D02*
X5189560Y4207290D01*
X5196230Y4207000D01*
X5202830Y4205000D01*
X5210620Y4201110D01*
X5218360Y4195510D01*
X5225220Y4188870D01*
X5230400Y4181870D01*
X5233520Y4175710D01*
X5234960Y4169200D01*
X5233100Y4163680D01*
X5227990Y4160890D01*
X5221330Y4161180D01*
X5214720Y4163190D01*
X5206930Y4167070D01*
X5199200Y4172680D01*
X5192340Y4179320D01*
X5187160Y4186320D01*
X5184030Y4192470D01*
X5182590Y4198990D01*
X5184460Y4204500D01*
G01X5215830Y4125290D02*
X5084560Y3968850D01*
X5017240Y4025340D01*
X5148510Y4181780D01*
X5215830Y4125290D01*
G01X4809680Y4155970D02*
X4976810Y4355140D01*
G01X5196440Y4347890D02*
X5147790Y4388710D01*
X5136910Y4375740D01*
X5135860Y4369540D01*
X5136920Y4364230D01*
X5142540Y4357750D01*
X5149890Y4353340D01*
X5156560Y4353060D01*
X5162040Y4354650D01*
X5172930Y4367620D01*
G01X5162040Y4354650D02*
X5179020Y4327140D01*
G01X5151810Y4294700D02*
X5103170Y4335520D01*
X5118120Y4333580D01*
G01X5157030Y4300930D02*
X5146580Y4288480D01*
G01X5115740Y4271470D02*
X5118800Y4263600D01*
X5118560Y4256730D01*
X5115450Y4251370D01*
X5111160Y4247900D01*
X5103620Y4247150D01*
X5096580Y4248640D01*
X5091280Y4252210D01*
X5086480Y4258000D01*
X5085470Y4265040D01*
X5086900Y4270030D01*
X5090820Y4274700D01*
G01X5086900Y4270030D02*
X5081850Y4268960D01*
X5075620Y4269760D01*
X5069890Y4272810D01*
X5065890Y4277930D01*
X5064020Y4283920D01*
X5065500Y4290640D01*
X5070230Y4294630D01*
X5077390Y4296570D01*
G01X5352730Y4409580D02*
G03I-90000J0D01*
G01X5157180Y4771810D02*
X5162230Y4770730D01*
X5166890Y4768460D01*
X5170380Y4764310D01*
X5171860Y4757600D01*
X5170860Y4750570D01*
X5168170Y4743890D01*
X5161800Y4735010D01*
X5154940Y4728370D01*
X5146780Y4723290D01*
X5140600Y4720760D01*
X5133130Y4719790D01*
X5126840Y4720700D01*
X5122170Y4722980D01*
X5119120Y4726610D01*
X5117690Y4731600D01*
X5117510Y4736750D01*
X5118580Y4742070D01*
G01X5082990Y4769680D02*
X5131630Y4810490D01*
X5127130Y4796100D01*
G01X5088210Y4763450D02*
X5077760Y4775900D01*
G01X5072350Y4823520D02*
X5074980Y4831920D01*
X5075610Y4837750D01*
X5073740Y4843260D01*
X5069080Y4845540D01*
X5063660Y4845410D01*
X5057050Y4843400D01*
X5050940Y4839160D01*
X5046510Y4834560D01*
X5043390Y4828400D01*
X5041950Y4821890D01*
X5043370Y4816900D01*
X5048480Y4814100D01*
X5056390Y4814550D01*
X5065430Y4818600D01*
X5073970Y4824880D01*
X5083640Y4834770D01*
X5088010Y4841090D01*
X5091510Y4848440D01*
X5092510Y4855470D01*
X5090280Y4859790D01*
X5085610Y4862060D01*
X5079380Y4861250D01*
G01X5079070Y4693090D02*
X4987140Y4770220D01*
G01D02*
X4820010Y4571050D01*
G01D02*
X4911940Y4493920D01*
G01D02*
X5079070Y4693090D01*
G01X5025580Y4531030D02*
X5025310Y4536190D01*
X5026290Y4541280D01*
X5029400Y4545720D01*
X5035500Y4548890D01*
X5042550Y4549740D01*
X5049700Y4548870D01*
X5059920Y4545020D01*
X5068110Y4540120D01*
X5075140Y4533540D01*
X5079170Y4528240D01*
X5082040Y4521260D01*
X5082790Y4514950D01*
X5081810Y4509860D01*
X5079090Y4505970D01*
X5074630Y4503300D01*
X5069700Y4501790D01*
X5064290Y4501450D01*
G01X5010870Y4500810D02*
X5003340Y4501120D01*
X4998020Y4499060D01*
X4994040Y4495230D01*
X4991890Y4488460D01*
X4993510Y4481550D01*
X4997930Y4476790D01*
X5003520Y4473710D01*
X5009410Y4472890D01*
X5025850Y4477920D01*
X5035410Y4478660D01*
X5046420Y4475920D01*
X5054990Y4471570D01*
X5038680Y4448260D01*
G01X5010010Y4429470D02*
X5013750Y4421890D01*
X5014110Y4415020D01*
X5011480Y4409420D01*
X5007500Y4405590D01*
X5000060Y4404180D01*
X4992920Y4405050D01*
X4987320Y4408140D01*
X4982030Y4413500D01*
X4980420Y4420420D01*
X4981400Y4425520D01*
X4984900Y4430510D01*
G01X4981400Y4425520D02*
X4976470Y4424010D01*
X4970200Y4424270D01*
X4964220Y4426800D01*
X4959790Y4431550D01*
X4957400Y4437360D01*
X4958290Y4444180D01*
X4962660Y4448560D01*
X4969620Y4451130D01*
G01X4976810Y4355140D02*
X4884880Y4432270D01*
G01X5551330Y4879520D02*
X5510510Y4928160D01*
X5497540Y4917280D01*
X5495430Y4911360D01*
X5495560Y4905940D01*
X5499960Y4898580D01*
X5506440Y4892970D01*
X5512960Y4891530D01*
X5518630Y4892140D01*
X5531600Y4903030D01*
G01X5518630Y4892140D02*
X5530580Y4862100D01*
G01X5494250Y4831630D02*
X5453440Y4880270D01*
X5467830Y4875770D01*
G01X5500480Y4836850D02*
X5488030Y4826400D01*
G01X5452850Y4809320D02*
X5453140Y4802660D01*
X5451540Y4797180D01*
X5447550Y4792450D01*
X5441520Y4790150D01*
X5435170Y4790350D01*
X5427810Y4793840D01*
X5421850Y4799890D01*
X5417450Y4807250D01*
X5416640Y4813480D01*
X5417550Y4819770D01*
X5420500Y4823630D01*
X5424820Y4825870D01*
X5432210Y4826540D01*
X5412960Y4846320D01*
X5398950Y4834560D01*
G01X5637760Y4899860D02*
X5438580Y4732740D01*
G01D02*
X5515720Y4640820D01*
G01D02*
X5714900Y4807940D01*
G01X5978690Y4991180D02*
G03I-90000J0D01*
G01X5923040Y5229790D02*
G03I-90000J0D01*
G01X6133310Y5384990D02*
G03I-90000J0D01*
G01X5714900Y4807940D02*
X5637760Y4899860D01*
G01X6335830Y5226950D02*
G03I-90000J0D01*
G01X6510700Y5436590D02*
X6515480Y5434650D01*
X6519680Y5431610D01*
X6522390Y5426910D01*
X6522690Y5420050D01*
X6520480Y5413300D01*
X6516670Y5407190D01*
X6508860Y5399550D01*
X6500950Y5394200D01*
X6492030Y5390610D01*
X6485510Y5389200D01*
X6477980Y5389540D01*
X6471940Y5391530D01*
X6467740Y5394580D01*
X6465370Y5398680D01*
X6464830Y5403850D01*
X6465550Y5408950D01*
X6467520Y5414000D01*
G01X6433200Y5454410D02*
X6488190Y5486160D01*
X6461310Y5441700D01*
X6444370Y5471030D01*
G01X6403610Y5328430D02*
X6408390Y5326490D01*
X6412590Y5323450D01*
X6415300Y5318750D01*
X6415600Y5311890D01*
X6413390Y5305140D01*
X6409580Y5299030D01*
X6401770Y5291390D01*
X6393860Y5286040D01*
X6384940Y5282450D01*
X6378420Y5281040D01*
X6370890Y5281380D01*
X6364850Y5283370D01*
X6360650Y5286420D01*
X6358280Y5290520D01*
X6357740Y5295690D01*
X6358460Y5300790D01*
X6360430Y5305840D01*
G01X6330850Y5338030D02*
X6342080Y5346090D01*
X6351150Y5353670D01*
X6358960Y5361310D01*
X6367350Y5370060D01*
X6378390Y5382690D01*
X6391940Y5359230D01*
G01X6082580Y5510450D02*
X6266430Y5326600D01*
G01D02*
X6351280Y5411450D01*
G01X6692730Y5951930D02*
G03I-90000J0D01*
G01X6260430Y5708380D02*
X6175580Y5623530D01*
G01D02*
X6359430Y5439680D01*
G01D02*
X6444280Y5524530D01*
G01D02*
X6260430Y5708380D01*
G01X6167430Y5595300D02*
X6082580Y5510450D01*
G01X6351280Y5411450D02*
X6167430Y5595300D01*
G01X6610050Y5416310D02*
X6678870Y5318020D01*
G01D02*
X6891850Y5467150D01*
G01X6926000Y5980370D02*
G03I-90000J0D01*
G01X6943750Y5784420D02*
G03I-90000J0D01*
G01X7075790Y5834240D02*
X7130790Y5865990D01*
X7122320Y5880650D01*
X7116860Y5883760D01*
X7111500Y5884570D01*
X7103490Y5881510D01*
X7096840Y5876110D01*
X7094290Y5869940D01*
X7093910Y5864250D01*
X7102370Y5849580D01*
G01X7093910Y5864250D02*
X7062250Y5857700D01*
G01X7038540Y5898760D02*
X7037090Y5903390D01*
X7037130Y5909670D01*
X7040010Y5915250D01*
X7045750Y5920130D01*
X7052850Y5922660D01*
X7060380Y5922320D01*
X7066180Y5918620D01*
X7069560Y5912760D01*
X7073430Y5910300D01*
X7079700Y5910010D01*
X7086800Y5912540D01*
X7092200Y5918000D01*
X7094410Y5924760D01*
X7093530Y5930510D01*
X7088990Y5934140D01*
X7082040Y5935600D01*
X7074600Y5933660D01*
X7068870Y5928780D01*
X7065980Y5923200D01*
X7066180Y5918620D01*
X7069560Y5912760D01*
X7069860Y5905890D01*
X7066390Y5899200D01*
X7060660Y5894320D01*
X7053560Y5891790D01*
X7047290Y5892080D01*
X7041830Y5895180D01*
X7038540Y5898760D01*
G01X6986500Y5933860D02*
X7090420Y5993860D01*
G01X6856500Y6159020D02*
X6986500Y5933860D01*
G01X6699790Y5711970D02*
X6667610Y5679790D01*
X6658960Y5674970D01*
X6650640Y5674320D01*
X6644350Y5677610D01*
X6641060Y5683890D01*
X6641720Y5692220D01*
X6646540Y5700870D01*
X6678720Y5733050D01*
G01X6624360Y5715560D02*
X6616250Y5713200D01*
X6609420Y5714030D01*
X6604360Y5717600D01*
X6601280Y5722180D01*
X6601190Y5729750D01*
X6603280Y5736630D01*
X6607300Y5741600D01*
X6613490Y5745880D01*
X6620590Y5746270D01*
X6625440Y5744420D01*
X6629750Y5740110D01*
G01X6625440Y5744420D02*
X6624810Y5749540D01*
X6626150Y5755670D01*
X6629690Y5761120D01*
X6635130Y5764650D01*
X6641270Y5766000D01*
X6647830Y5763940D01*
X6651390Y5758880D01*
X6652710Y5751570D01*
G01X6948190Y5550830D02*
X6953120Y5549320D01*
X6957570Y5546650D01*
X6960680Y5542210D01*
X6961580Y5535400D01*
X6959960Y5528480D01*
X6956700Y5522060D01*
X6949590Y5513770D01*
X6942170Y5507750D01*
X6933600Y5503400D01*
X6927230Y5501420D01*
X6919690Y5501110D01*
X6913510Y5502570D01*
X6909060Y5505230D01*
X6906340Y5509120D01*
X6905350Y5514220D01*
X6905620Y5519370D01*
X6907140Y5524570D01*
G01X6874090Y5555170D02*
X6926100Y5591600D01*
X6920360Y5577660D01*
G01X6878750Y5548520D02*
X6869420Y5561830D01*
G01X6891850Y5467150D02*
X6823030Y5565440D01*
G01D02*
X6610050Y5416310D01*
G01X7120380Y6287870D02*
X7011620Y6237150D01*
G01D02*
X7121500Y6001510D01*
G01X7090420Y5993860D02*
X6960420Y6219020D01*
G01D02*
X6856500Y6159020D01*
G01X7390710Y5780390D02*
X7442730Y5816810D01*
X7434960Y5827910D01*
X7429250Y5830520D01*
X7423450Y5831430D01*
X7416310Y5830560D01*
X7408680Y5828530D01*
X7399630Y5823010D01*
X7391340Y5816390D01*
X7386830Y5809920D01*
X7383570Y5803500D01*
X7382430Y5797740D01*
X7382940Y5791490D01*
X7390710Y5780390D01*
G01X7400840Y5858170D02*
X7403710Y5865150D01*
X7403600Y5870850D01*
X7401350Y5875900D01*
X7395740Y5880230D01*
X7388680Y5881080D01*
X7382700Y5878550D01*
X7377890Y5874350D01*
X7375110Y5869100D01*
X7374210Y5851930D01*
X7371640Y5842690D01*
X7365300Y5833290D01*
X7358270Y5826710D01*
X7341960Y5850020D01*
G01X7210020Y5913830D02*
X7267570Y5940660D01*
X7260410Y5956010D01*
X7255240Y5959580D01*
X7249980Y5960860D01*
X7241730Y5958510D01*
X7234630Y5953710D01*
X7231550Y5947790D01*
X7230680Y5942150D01*
X7237830Y5926800D01*
G01X7230680Y5942150D02*
X7198570Y5938380D01*
G01X7179110Y5980130D02*
X7191000Y5987170D01*
X7200690Y5993930D01*
X7209140Y6000860D01*
X7218260Y6008850D01*
X7230360Y6020470D01*
X7241810Y5995910D01*
G01X7413750Y6011880D02*
X7409280Y6008630D01*
X7406770Y6002790D01*
X7405770Y5995320D01*
X7406450Y5987460D01*
X7408800Y5979210D01*
X7412380Y5971540D01*
X7417180Y5964440D01*
X7422770Y5958870D01*
X7429140Y5954830D01*
X7435220Y5953000D01*
X7440580Y5954330D01*
X7445050Y5957580D01*
X7447550Y5963420D01*
X7448550Y5970890D01*
X7447880Y5978750D01*
X7445530Y5986990D01*
X7441950Y5994670D01*
X7437140Y6001770D01*
X7431560Y6007340D01*
X7425190Y6011380D01*
X7419100Y6013210D01*
X7413750Y6011880D01*
G01X7425810Y5998820D02*
X7426020Y6017600D01*
G01X7475090Y5982100D02*
X7481450Y5978060D01*
X7487090Y5977190D01*
X7492450Y5978520D01*
X7497690Y5983300D01*
X7499760Y5990100D01*
X7498300Y5996430D01*
X7495000Y6001900D01*
X7490310Y6005550D01*
X7473560Y6009410D01*
X7464900Y6013550D01*
X7456750Y6021430D01*
X7451490Y6029490D01*
X7477280Y6041510D01*
G01X7639450Y6419210D02*
G03I-90000J0D01*
G01X7121500Y6001510D02*
X7230260Y6052230D01*
G01D02*
X7120380Y6287870D01*
G01X7409130Y6231790D02*
X7413730Y6229450D01*
X7417650Y6226050D01*
X7419940Y6221140D01*
X7419630Y6214270D01*
X7416840Y6207740D01*
X7412520Y6201980D01*
X7404070Y6195050D01*
X7395730Y6190410D01*
X7386520Y6187620D01*
X7379910Y6186780D01*
X7372430Y6187780D01*
X7366590Y6190280D01*
X7362670Y6193690D01*
X7360670Y6197980D01*
X7360580Y6203170D01*
X7361740Y6208200D01*
X7364150Y6213060D01*
G01X7390310Y6259640D02*
X7394350Y6266000D01*
X7395220Y6271640D01*
X7393890Y6277000D01*
X7389110Y6282240D01*
X7382310Y6284310D01*
X7375980Y6282850D01*
X7370510Y6279550D01*
X7366860Y6274860D01*
X7363000Y6258110D01*
X7358860Y6249450D01*
X7350980Y6241300D01*
X7342920Y6236040D01*
X7330900Y6261830D01*
G01X7326080Y6294710D02*
X7319570Y6296150D01*
X7314690Y6299110D01*
X7311150Y6304190D01*
X7310490Y6310610D01*
X7312330Y6316690D01*
X7317610Y6322890D01*
X7325000Y6327080D01*
X7333240Y6329430D01*
X7339470Y6328600D01*
X7345310Y6326090D01*
X7348270Y6322240D01*
X7349320Y6317500D01*
X7348060Y6310190D01*
X7372140Y6323660D01*
X7364410Y6340230D01*
G01X7252490Y6347780D02*
X7143730Y6297060D01*
G01D02*
X7253610Y6061420D01*
G01D02*
X7362370Y6112140D01*
G01D02*
X7252490Y6347780D01*
G01X7903440Y5826600D02*
G03I-90000J0D01*
G01X8106700Y5897250D02*
X8219460Y5938290D01*
G01D02*
X8130540Y6182610D01*
G01X8017780Y6141570D02*
X8106700Y5897250D01*
G01X7966040Y5834910D02*
X8078800Y5875950D01*
G01D02*
X7989880Y6120270D01*
G01X7877120Y6079230D02*
X7966040Y5834910D01*
G01X7950760Y6333110D02*
X7954210Y6336940D01*
X7958510Y6339850D01*
X7963840Y6340790D01*
X7970400Y6338720D01*
X7975990Y6334330D01*
X7980430Y6328670D01*
X7984930Y6318720D01*
X7987250Y6309450D01*
X7987570Y6299840D01*
X7986670Y6293230D01*
X7983770Y6286270D01*
X7979840Y6281280D01*
X7975540Y6278370D01*
X7970870Y6277550D01*
X7965830Y6278810D01*
X7961280Y6281230D01*
X7957210Y6284810D01*
G01X7915510Y6267780D02*
X7904480Y6330320D01*
X7914690Y6319220D01*
G01X7923510Y6269190D02*
X7907510Y6266370D01*
G01X7858960Y6311540D02*
X7853860Y6317090D01*
X7848640Y6319390D01*
X7843120Y6319490D01*
X7836810Y6316230D01*
X7833060Y6310200D01*
X7832830Y6303710D01*
X7834600Y6297570D01*
X7838190Y6292830D01*
X7853370Y6284760D01*
X7860660Y6278520D01*
X7866500Y6268800D01*
X7869490Y6259660D01*
X7841470Y6254720D01*
G01X8000170Y6366050D02*
X8041210Y6253290D01*
G01D02*
X8285530Y6342210D01*
G01D02*
X8244490Y6454970D01*
G01D02*
X8000170Y6366050D01*
G01X8033220Y6207510D02*
X8037600Y6204770D01*
X8041210Y6201040D01*
X8043060Y6195950D01*
X8042160Y6189130D01*
X8038810Y6182870D01*
X8034000Y6177520D01*
X8024980Y6171350D01*
X8016260Y6167450D01*
X8006850Y6165470D01*
X8000190Y6165210D01*
X7992830Y6166860D01*
X7987230Y6169860D01*
X7983620Y6173590D01*
X7982000Y6178050D01*
X7982370Y6183230D01*
X7983960Y6188130D01*
X7986780Y6192760D01*
G01X7992030Y6227830D02*
X7997370Y6234820D01*
X7999960Y6240090D01*
X8000100Y6245900D01*
X7996490Y6249630D01*
X7991350Y6251370D01*
X7984460Y6251740D01*
X7977260Y6249850D01*
X7971530Y6247040D01*
X7966490Y6242320D01*
X7962910Y6236690D01*
X7962540Y6231510D01*
X7966380Y6227140D01*
X7973970Y6224860D01*
X7983850Y6225570D01*
X7994020Y6228550D01*
X8006490Y6234530D01*
X8012760Y6238980D01*
X8018560Y6244690D01*
X8021910Y6250960D01*
X8021280Y6255780D01*
X8017670Y6259510D01*
X8011540Y6260880D01*
G01X8130540Y6182610D02*
X8017780Y6141570D01*
G01X7924810Y6154170D02*
X7929190Y6151430D01*
X7932800Y6147700D01*
X7934650Y6142610D01*
X7933750Y6135790D01*
X7930400Y6129530D01*
X7925590Y6124180D01*
X7916570Y6118010D01*
X7907850Y6114110D01*
X7898440Y6112130D01*
X7891780Y6111870D01*
X7884420Y6113520D01*
X7878820Y6116520D01*
X7875210Y6120250D01*
X7873590Y6124710D01*
X7873960Y6129890D01*
X7875550Y6134790D01*
X7878370Y6139420D01*
G01X7868410Y6166790D02*
X7862040Y6168800D01*
X7857440Y6172170D01*
X7854360Y6177530D01*
X7854260Y6183990D01*
X7856620Y6189890D01*
X7862420Y6195610D01*
X7870150Y6199140D01*
X7878570Y6200760D01*
X7884700Y6199390D01*
X7890300Y6196380D01*
X7892910Y6192290D01*
X7893540Y6187470D01*
X7891650Y6180290D01*
X7916810Y6191610D01*
X7910560Y6208800D01*
G01X7989880Y6120270D02*
X7877120Y6079230D01*
G01X8160210Y6597790D02*
X8217760Y6624630D01*
X8212040Y6636900D01*
X8206870Y6640470D01*
X8201310Y6642370D01*
X8194130Y6642750D01*
X8186270Y6642080D01*
X8176390Y6638220D01*
X8167080Y6633130D01*
X8161510Y6627550D01*
X8157190Y6621790D01*
X8155070Y6616320D01*
X8154490Y6610070D01*
X8160210Y6597790D01*
G01X8126860Y6669300D02*
X8184410Y6696140D01*
X8153760Y6654190D01*
X8139440Y6684890D01*
G01X8915690Y6458450D02*
X8797500Y6437630D01*
G01D02*
X8842630Y6181570D01*
G01D02*
X8960820Y6202390D01*
G01X8733190Y6034090D02*
X8794520Y6050530D01*
X8790140Y6066880D01*
X8785670Y6071300D01*
X8780710Y6073470D01*
X8772180Y6072590D01*
X8764350Y6069090D01*
X8760290Y6063790D01*
X8758450Y6058390D01*
X8762830Y6042040D01*
G01X8758450Y6058390D02*
X8726170Y6060260D01*
G01X8742790Y6100470D02*
X8748720Y6106970D01*
X8751750Y6111990D01*
X8752400Y6117780D01*
X8749120Y6121810D01*
X8744160Y6123980D01*
X8737320Y6124960D01*
X8729990Y6123690D01*
X8724030Y6121400D01*
X8718600Y6117130D01*
X8714540Y6111840D01*
X8713730Y6106710D01*
X8717170Y6102030D01*
X8724530Y6099090D01*
X8734440Y6098940D01*
X8744830Y6101020D01*
X8757770Y6105890D01*
X8764400Y6109770D01*
X8770680Y6114960D01*
X8774570Y6120910D01*
X8774360Y6125760D01*
X8771090Y6129800D01*
X8765100Y6131700D01*
G01X8681530Y6143200D02*
X8797430Y6174260D01*
G01D02*
X8730130Y6425400D01*
G01D02*
X8614230Y6394340D01*
G01D02*
X8681530Y6143200D01*
G01X8677180Y6006930D02*
X8633230Y5995150D01*
X8623320Y5995300D01*
X8615790Y5998890D01*
X8611990Y6004890D01*
X8612280Y6011980D01*
X8617010Y6018860D01*
X8625510Y6023940D01*
X8669470Y6035720D01*
G01X8651980Y6060130D02*
X8657060Y6065700D01*
X8658900Y6071100D01*
X8658520Y6076610D01*
X8654720Y6082610D01*
X8648380Y6085820D01*
X8641900Y6085480D01*
X8635940Y6083180D01*
X8631530Y6079200D01*
X8624810Y6063370D01*
X8619230Y6055570D01*
X8610060Y6048900D01*
X8601210Y6045130D01*
X8593850Y6072610D01*
G01X8514980Y6431130D02*
X8516960Y6425980D01*
X8521960Y6422040D01*
X8528920Y6419140D01*
X8536680Y6417760D01*
X8545260Y6417900D01*
X8553590Y6419370D01*
X8561700Y6422170D01*
X8568520Y6426130D01*
X8574070Y6431230D01*
X8577420Y6436640D01*
X8577520Y6442160D01*
X8575530Y6447310D01*
X8570540Y6451240D01*
X8563580Y6454140D01*
X8555820Y6455530D01*
X8547240Y6455390D01*
X8538900Y6453920D01*
X8530800Y6451120D01*
X8523980Y6447160D01*
X8518430Y6442060D01*
X8515080Y6436650D01*
X8514980Y6431130D01*
G01X8530720Y6439410D02*
X8512630Y6444470D01*
G01X8505280Y6486160D02*
X8567820Y6497190D01*
X8556720Y6486980D01*
G01X8506690Y6478160D02*
X8503870Y6494160D01*
G01X8813980Y6473080D02*
X8876510Y6484100D01*
X8874160Y6497440D01*
X8870090Y6502230D01*
X8865220Y6505500D01*
X8858380Y6507730D01*
X8850610Y6509110D01*
X8840070Y6507940D01*
X8829770Y6505430D01*
X8822940Y6501480D01*
X8817270Y6497040D01*
X8813810Y6492300D01*
X8811630Y6486420D01*
X8813980Y6473080D01*
G01X8816790Y6530310D02*
X8808780Y6533030D01*
X8803670Y6537630D01*
X8801570Y6543450D01*
X8801670Y6548970D01*
X8805940Y6555220D01*
X8811610Y6559660D01*
X8817750Y6561430D01*
X8825280Y6561380D01*
X8831310Y6557630D01*
X8834220Y6553330D01*
X8835280Y6547330D01*
G01X8834220Y6553330D02*
X8836640Y6557890D01*
X8841260Y6562140D01*
X8847280Y6564580D01*
X8853770Y6564340D01*
X8859570Y6561930D01*
X8863760Y6556480D01*
X8863770Y6550290D01*
X8860660Y6543550D01*
G01X9513060Y6576050D02*
G03I-110049J-2D01*
G01X9095490D02*
G03I-67479J-2D01*
G01D02*
G03I-67479J-2D01*
G01X9364440Y6189430D02*
X9368270Y6185980D01*
X9371180Y6181680D01*
X9372120Y6176350D01*
X9370050Y6169790D01*
X9365660Y6164200D01*
X9360000Y6159760D01*
X9350050Y6155260D01*
X9340780Y6152940D01*
X9331170Y6152620D01*
X9324560Y6153520D01*
X9317600Y6156420D01*
X9312610Y6160350D01*
X9309700Y6164650D01*
X9308880Y6169320D01*
X9310140Y6174360D01*
X9312560Y6178910D01*
X9316140Y6182980D01*
G01X9354350Y6216200D02*
X9359900Y6221300D01*
X9362200Y6226520D01*
X9362300Y6232040D01*
X9359040Y6238350D01*
X9353010Y6242100D01*
X9346520Y6242330D01*
X9340380Y6240560D01*
X9335640Y6236970D01*
X9327570Y6221790D01*
X9321330Y6214500D01*
X9311610Y6208660D01*
X9302470Y6205670D01*
X9297530Y6233690D01*
G01X8901840Y6070230D02*
X8963170Y6086670D01*
X8958790Y6103020D01*
X8954320Y6107440D01*
X8949360Y6109610D01*
X8940830Y6108730D01*
X8933000Y6105230D01*
X8928940Y6099930D01*
X8927100Y6094530D01*
X8931480Y6078180D01*
G01X8927100Y6094530D02*
X8894820Y6096400D01*
G01X8898670Y6131090D02*
X8890470Y6133100D01*
X8884980Y6137240D01*
X8882380Y6142850D01*
X8881990Y6148360D01*
X8885700Y6154960D01*
X8890960Y6159880D01*
X8896920Y6162180D01*
X8904420Y6162780D01*
X8910760Y6159570D01*
X8914040Y6155540D01*
X8915610Y6149650D01*
G01X8914040Y6155540D02*
X8916050Y6160290D01*
X8920280Y6164930D01*
X8926070Y6167880D01*
X8932550Y6168220D01*
X8938540Y6166320D01*
X8943190Y6161250D01*
X8943740Y6155090D01*
X8941230Y6148100D01*
G01X8960820Y6202390D02*
X8915690Y6458450D01*
G01X8902950Y7015990D02*
Y6915910D01*
G01X9403080D02*
Y7101080D01*
G01X8902950Y6915910D02*
X9403080D01*
G01X8902270Y7018550D02*
X8902950Y7018460D01*
G01D02*
Y6915910D01*
G01D02*
X9403080D01*
G01X8902270Y7018550D02*
X8902950Y7018460D01*
G01D02*
Y6915910D01*
G01D02*
X9403080D01*
G01X8902270Y7018550D02*
X8902950Y7018460D01*
G01D02*
Y6915910D01*
G01X9364950Y6715120D02*
Y6778620D01*
X9348010D01*
X9342590Y6775440D01*
X9339210Y6771210D01*
X9337850Y6762740D01*
X9339210Y6754280D01*
X9343270Y6748990D01*
X9348010Y6745810D01*
X9364950D01*
G01X9348010D02*
X9337850Y6715120D01*
G01X9303310Y6768040D02*
X9299250Y6774390D01*
X9294500Y6777560D01*
X9289090Y6778620D01*
X9282310Y6776500D01*
X9277570Y6771210D01*
X9276220Y6764860D01*
X9276890Y6758510D01*
X9279600Y6753220D01*
X9293150Y6742640D01*
X9299250Y6735230D01*
X9303310Y6724640D01*
X9304660Y6715120D01*
X9276220D01*
G01X9229130Y6673380D02*
Y6793390D01*
G01D02*
X8969130Y6793400D01*
G01D02*
Y6673390D01*
G01D02*
X9229130Y6673380D01*
G01X10095050Y6311470D02*
X10099370Y6314280D01*
X10104280Y6315970D01*
X10109680Y6315500D01*
X10115470Y6311800D01*
X10119730Y6306120D01*
X10122560Y6299500D01*
X10124330Y6288720D01*
X10124180Y6279170D01*
X10122000Y6269800D01*
X10119420Y6263650D01*
X10114820Y6257680D01*
X10109720Y6253880D01*
X10104820Y6252180D01*
X10100090Y6252590D01*
X10095560Y6255120D01*
X10091780Y6258630D01*
X10088780Y6263140D01*
G01X10065100Y6268400D02*
X10060410Y6261380D01*
X10054640Y6257630D01*
X10048470Y6257110D01*
X10043170Y6258640D01*
X10038230Y6264380D01*
X10035410Y6271000D01*
X10035290Y6277390D01*
X10037280Y6284650D01*
X10042470Y6289510D01*
X10047380Y6291200D01*
X10053450Y6290670D01*
G01X10047380Y6291200D02*
X10043600Y6294720D01*
X10040690Y6300280D01*
X10039890Y6306730D01*
X10041800Y6312940D01*
X10045630Y6317910D01*
X10051980Y6320550D01*
X10057960Y6318960D01*
X10063670Y6314210D01*
G01X10203350Y6543650D02*
X10266850D01*
Y6560590D01*
X10263670Y6566010D01*
X10259440Y6569390D01*
X10250970Y6570750D01*
X10242510Y6569390D01*
X10237220Y6565330D01*
X10234040Y6560590D01*
Y6543650D01*
G01Y6560590D02*
X10203350Y6570750D01*
G01X10212870Y6603260D02*
X10207580Y6607320D01*
X10204410Y6612060D01*
X10203350Y6618160D01*
X10205470Y6624260D01*
X10209700Y6629000D01*
X10217110Y6632380D01*
X10225570Y6633060D01*
X10234040Y6631710D01*
X10239330Y6628320D01*
X10243570Y6623580D01*
X10244620Y6618840D01*
X10243570Y6614100D01*
X10239330Y6608000D01*
X10266850Y6610030D01*
Y6628320D01*
G01X10358640Y6540430D02*
X10422140D01*
Y6557370D01*
X10418960Y6562790D01*
X10414730Y6566170D01*
X10406260Y6567530D01*
X10397800Y6566170D01*
X10392510Y6562110D01*
X10389330Y6557370D01*
Y6540430D01*
G01Y6557370D02*
X10358640Y6567530D01*
G01Y6623070D02*
X10422140D01*
X10376630Y6598010D01*
Y6631870D01*
G01X10167050Y6668460D02*
X10287050D01*
G01D02*
Y6928460D01*
G01D02*
X10167050D01*
G01D02*
Y6668460D01*
G01X10323700D02*
X10443700D01*
G01D02*
Y6928460D01*
G01D02*
X10323700D01*
G01D02*
Y6668460D01*
G01X11113010Y6576050D02*
G03I-109999J-2D01*
G01X11610850Y6720330D02*
X11529310Y6503160D01*
G01D02*
X11351770Y6030720D01*
G01D02*
X11351290Y6029810D01*
G01X11610850Y6720330D02*
X11529310Y6503160D01*
G01D02*
X11351770Y6030720D01*
G01D02*
X11351290Y6029810D01*
G01X11610850Y6720330D02*
X11529310Y6503160D01*
G01D02*
X11351770Y6030720D01*
G01D02*
X11351290Y6029810D01*
G01X11272730Y7056860D02*
G02X11433380Y7031120I-1068177J-7180966D01*
G01D02*
X11434570Y7027930D01*
G01D02*
X11610850Y6720330D01*
G01X11272730Y7056860D02*
G02X11433380Y7031120I-1068177J-7180966D01*
G01D02*
X11434570Y7027930D01*
G01D02*
X11610850Y6720330D01*
G01X11272730Y7056860D02*
G02X11433380Y7031120I-1068177J-7180966D01*
G01D02*
X11434570Y7027930D01*
G01D02*
X11610850Y6720330D01*
G54D11*
G01X3726340Y1755520D02*
Y1676820D01*
G01X3748730Y1755520D02*
X3703950D01*
G01X3667110Y1676820D02*
Y1755520D01*
X3643750D01*
X3635960Y1751580D01*
X3630120Y1742400D01*
X3628170Y1731910D01*
X3630120Y1721420D01*
X3634990Y1713550D01*
X3643750Y1709610D01*
X3667110D01*
G01X3587430Y1742400D02*
X3581590Y1750270D01*
X3574780Y1754210D01*
X3566990Y1755520D01*
X3557260Y1752900D01*
X3550450Y1746340D01*
X3548500Y1738470D01*
X3549470Y1730600D01*
X3553370Y1724040D01*
X3572830Y1710920D01*
X3581590Y1701740D01*
X3587430Y1688620D01*
X3589380Y1676820D01*
X3548500D01*
G01X3490240Y1755520D02*
X3498030Y1752900D01*
X3503870Y1746340D01*
X3507760Y1738470D01*
X3510680Y1727970D01*
X3511650Y1716170D01*
X3510680Y1704360D01*
X3507760Y1693870D01*
X3503870Y1686000D01*
X3498030Y1679440D01*
X3490240Y1676820D01*
X3482450Y1679440D01*
X3476610Y1686000D01*
X3472720Y1693870D01*
X3469800Y1704360D01*
X3468830Y1716170D01*
X3469800Y1727970D01*
X3472720Y1738470D01*
X3476610Y1746340D01*
X3482450Y1752900D01*
X3490240Y1755520D01*
G01X4119950Y2473210D02*
Y2394510D01*
G01X4142340Y2473210D02*
X4097560D01*
G01X4060720Y2394510D02*
Y2473210D01*
X4037360D01*
X4029570Y2469270D01*
X4023730Y2460090D01*
X4021780Y2449600D01*
X4023730Y2439110D01*
X4028600Y2431240D01*
X4037360Y2427300D01*
X4060720D01*
G01X3981040Y2460090D02*
X3975200Y2467960D01*
X3968390Y2471900D01*
X3960600Y2473210D01*
X3950870Y2470590D01*
X3944060Y2464030D01*
X3942110Y2456160D01*
X3943080Y2448290D01*
X3946980Y2441730D01*
X3966440Y2428610D01*
X3975200Y2419430D01*
X3981040Y2406310D01*
X3982990Y2394510D01*
X3942110D01*
G01X3902340Y2460090D02*
X3896500Y2467960D01*
X3889690Y2471900D01*
X3881900Y2473210D01*
X3872170Y2470590D01*
X3865360Y2464030D01*
X3863410Y2456160D01*
X3864380Y2448290D01*
X3868280Y2441730D01*
X3887740Y2428610D01*
X3896500Y2419430D01*
X3902340Y2406310D01*
X3904290Y2394510D01*
X3863410D01*
G01X4745990Y3057960D02*
Y2979260D01*
G01X4768380Y3057960D02*
X4723600D01*
G01X4686760Y2979260D02*
Y3057960D01*
X4663400D01*
X4655610Y3054020D01*
X4649770Y3044840D01*
X4647820Y3034350D01*
X4649770Y3023860D01*
X4654640Y3015990D01*
X4663400Y3012050D01*
X4686760D01*
G01X4588590Y2979260D02*
Y3057960D01*
X4600270Y3042220D01*
G01Y2979260D02*
X4576910D01*
G01X4528380Y3012050D02*
X4521570Y3021230D01*
X4515730Y3026480D01*
X4507940Y3029100D01*
X4501130Y3026480D01*
X4496260Y3021230D01*
X4492370Y3013360D01*
X4491400Y3004180D01*
X4492370Y2996310D01*
X4496260Y2988440D01*
X4502100Y2981880D01*
X4508920Y2979260D01*
X4516700Y2981880D01*
X4523520Y2989750D01*
X4527410Y3001560D01*
X4528380Y3014670D01*
X4526440Y3031730D01*
X4523520Y3040910D01*
X4518650Y3050090D01*
X4511840Y3056650D01*
X4505020Y3057960D01*
X4498210Y3055340D01*
X4493340Y3048780D01*
G01X5341480Y4452030D02*
Y4373330D01*
G01X5363870Y4452030D02*
X5319090D01*
G01X5282250Y4373330D02*
Y4452030D01*
X5258890D01*
X5251100Y4448090D01*
X5245260Y4438910D01*
X5243310Y4428420D01*
X5245260Y4417930D01*
X5250130Y4410060D01*
X5258890Y4406120D01*
X5282250D01*
G01X5202570Y4438910D02*
X5196730Y4446780D01*
X5189920Y4450720D01*
X5182130Y4452030D01*
X5172400Y4449410D01*
X5165590Y4442850D01*
X5163640Y4434980D01*
X5164610Y4427110D01*
X5168510Y4420550D01*
X5187970Y4407430D01*
X5196730Y4398250D01*
X5202570Y4385130D01*
X5204520Y4373330D01*
X5163640D01*
G01X5105380D02*
Y4452030D01*
X5117060Y4436290D01*
G01Y4373330D02*
X5093700D01*
G01X5967440Y5033630D02*
Y4954930D01*
G01X5989830Y5033630D02*
X5945050D01*
G01X5908210Y4954930D02*
Y5033630D01*
X5884850D01*
X5877060Y5029690D01*
X5871220Y5020510D01*
X5869270Y5010020D01*
X5871220Y4999530D01*
X5876090Y4991660D01*
X5884850Y4987720D01*
X5908210D01*
G01X5810040Y4954930D02*
Y5033630D01*
X5821720Y5017890D01*
G01Y4954930D02*
X5798360D01*
G01X5749830Y5020510D02*
X5743990Y5028380D01*
X5737180Y5032320D01*
X5729390Y5033630D01*
X5719660Y5031010D01*
X5712850Y5024450D01*
X5710900Y5016580D01*
X5711870Y5008710D01*
X5715770Y5002150D01*
X5735230Y4989030D01*
X5743990Y4979850D01*
X5749830Y4966730D01*
X5751780Y4954930D01*
X5710900D01*
G01X5911790Y5272240D02*
Y5193540D01*
G01X5934180Y5272240D02*
X5889400D01*
G01X5852560Y5193540D02*
Y5272240D01*
X5829200D01*
X5821410Y5268300D01*
X5815570Y5259120D01*
X5813620Y5248630D01*
X5815570Y5238140D01*
X5820440Y5230270D01*
X5829200Y5226330D01*
X5852560D01*
G01X5754390Y5193540D02*
Y5272240D01*
X5766070Y5256500D01*
G01Y5193540D02*
X5742710D01*
G01X5697100Y5209280D02*
X5691260Y5200100D01*
X5683480Y5194850D01*
X5674720Y5193540D01*
X5666930Y5194850D01*
X5659140Y5201410D01*
X5654280Y5209280D01*
X5653300Y5217150D01*
X5655250Y5226330D01*
X5662060Y5232890D01*
X5668880Y5235510D01*
X5677640D01*
G01X5668880D02*
X5663040Y5239450D01*
X5658170Y5246010D01*
X5656220Y5253880D01*
X5658170Y5261750D01*
X5663040Y5268300D01*
X5671800Y5272240D01*
X5680560Y5270930D01*
X5689320Y5265680D01*
G01X6122060Y5427440D02*
Y5348740D01*
G01X6144450Y5427440D02*
X6099670D01*
G01X6062830Y5348740D02*
Y5427440D01*
X6039470D01*
X6031680Y5423500D01*
X6025840Y5414320D01*
X6023890Y5403830D01*
X6025840Y5393340D01*
X6030710Y5385470D01*
X6039470Y5381530D01*
X6062830D01*
G01X5964660Y5348740D02*
Y5427440D01*
X5976340Y5411700D01*
G01Y5348740D02*
X5952980D01*
G01X5874280D02*
Y5427440D01*
X5910290Y5371040D01*
X5861630D01*
G01X6324580Y5269400D02*
Y5190700D01*
G01X6346970Y5269400D02*
X6302190D01*
G01X6265350Y5190700D02*
Y5269400D01*
X6241990D01*
X6234200Y5265460D01*
X6228360Y5256280D01*
X6226410Y5245790D01*
X6228360Y5235300D01*
X6233230Y5227430D01*
X6241990Y5223490D01*
X6265350D01*
G01X6167180Y5190700D02*
Y5269400D01*
X6178860Y5253660D01*
G01Y5190700D02*
X6155500D01*
G01X6109890Y5202500D02*
X6104050Y5195950D01*
X6097240Y5192010D01*
X6088480Y5190700D01*
X6079720Y5193320D01*
X6072910Y5198570D01*
X6068040Y5207750D01*
X6067070Y5218240D01*
X6069010Y5228740D01*
X6073880Y5235300D01*
X6080690Y5240540D01*
X6087510Y5241850D01*
X6094320Y5240540D01*
X6103080Y5235300D01*
X6100160Y5269400D01*
X6073880D01*
G01X6681480Y5994380D02*
Y5915680D01*
G01X6703870Y5994380D02*
X6659090D01*
G01X6622250Y5915680D02*
Y5994380D01*
X6598890D01*
X6591100Y5990440D01*
X6585260Y5981260D01*
X6583310Y5970770D01*
X6585260Y5960280D01*
X6590130Y5952410D01*
X6598890Y5948470D01*
X6622250D01*
G01X6524080Y5915680D02*
Y5994380D01*
X6535760Y5978640D01*
G01Y5915680D02*
X6512400D01*
G01X6447330D02*
X6445380Y5932730D01*
X6442460Y5947160D01*
X6438570Y5960280D01*
X6433700Y5974700D01*
X6425910Y5994380D01*
X6464850D01*
G01X6914750Y6022820D02*
Y5944120D01*
G01X6937140Y6022820D02*
X6892360D01*
G01X6855520Y5944120D02*
Y6022820D01*
X6832160D01*
X6824370Y6018880D01*
X6818530Y6009700D01*
X6816580Y5999210D01*
X6818530Y5988720D01*
X6823400Y5980850D01*
X6832160Y5976910D01*
X6855520D01*
G01X6757350Y5944120D02*
Y6022820D01*
X6769030Y6007080D01*
G01Y5944120D02*
X6745670D01*
G01X6678650D02*
X6671840Y5945430D01*
X6664050Y5949370D01*
X6659180Y5955920D01*
X6657240Y5965110D01*
X6659180Y5974290D01*
X6665020Y5982160D01*
X6673780Y5986090D01*
X6683520D01*
X6689360Y5988720D01*
X6694220Y5995270D01*
X6696170Y6004460D01*
X6693250Y6013640D01*
X6686440Y6020200D01*
X6678650Y6022820D01*
X6670860Y6020200D01*
X6664050Y6013640D01*
X6661130Y6004460D01*
X6663080Y5995270D01*
X6667940Y5988720D01*
X6673780Y5986090D01*
X6683520D01*
X6692280Y5982160D01*
X6698120Y5974290D01*
X6700060Y5965110D01*
X6698120Y5955920D01*
X6693250Y5949370D01*
X6685460Y5945430D01*
X6678650Y5944120D01*
G01X6932500Y5826870D02*
Y5748170D01*
G01X6954890Y5826870D02*
X6910110D01*
G01X6873270Y5748170D02*
Y5826870D01*
X6849910D01*
X6842120Y5822930D01*
X6836280Y5813750D01*
X6834330Y5803260D01*
X6836280Y5792770D01*
X6841150Y5784900D01*
X6849910Y5780960D01*
X6873270D01*
G01X6775100Y5748170D02*
Y5826870D01*
X6786780Y5811130D01*
G01Y5748170D02*
X6763420D01*
G01X6712950Y5757350D02*
X6706130Y5750790D01*
X6698350Y5748170D01*
X6690560Y5750790D01*
X6683750Y5758660D01*
X6678880Y5770470D01*
X6676930Y5782270D01*
Y5796700D01*
X6678880Y5808510D01*
X6683750Y5819000D01*
X6689590Y5824250D01*
X6696400Y5826870D01*
X6704190Y5824250D01*
X6710030Y5819000D01*
X6713920Y5811130D01*
X6715870Y5800640D01*
X6713920Y5791460D01*
X6709050Y5782270D01*
X6703210Y5777030D01*
X6696400Y5775710D01*
X6688610Y5778340D01*
X6682770Y5784900D01*
X6676930Y5796700D01*
G01X7892190Y5869050D02*
Y5790350D01*
G01X7914580Y5869050D02*
X7869800D01*
G01X7832960Y5790350D02*
Y5869050D01*
X7809600D01*
X7801810Y5865110D01*
X7795970Y5855930D01*
X7794020Y5845440D01*
X7795970Y5834950D01*
X7800840Y5827080D01*
X7809600Y5823140D01*
X7832960D01*
G01X7734790Y5790350D02*
Y5869050D01*
X7746470Y5853310D01*
G01Y5790350D02*
X7723110D01*
G01X7656090Y5869050D02*
X7663880Y5866430D01*
X7669720Y5859870D01*
X7673610Y5852000D01*
X7676530Y5841500D01*
X7677500Y5829700D01*
X7676530Y5817890D01*
X7673610Y5807400D01*
X7669720Y5799530D01*
X7663880Y5792970D01*
X7656090Y5790350D01*
X7648300Y5792970D01*
X7642460Y5799530D01*
X7638570Y5807400D01*
X7635650Y5817890D01*
X7634680Y5829700D01*
X7635650Y5841500D01*
X7638570Y5852000D01*
X7642460Y5859870D01*
X7648300Y5866430D01*
X7656090Y5869050D01*
G01X7628200Y6461660D02*
Y6382960D01*
G01X7650590Y6461660D02*
X7605810D01*
G01X7568970Y6382960D02*
Y6461660D01*
X7545610D01*
X7537820Y6457720D01*
X7531980Y6448540D01*
X7530030Y6438050D01*
X7531980Y6427560D01*
X7536850Y6419690D01*
X7545610Y6415750D01*
X7568970D01*
G01X7470800Y6382960D02*
Y6461660D01*
X7482480Y6445920D01*
G01Y6382960D02*
X7459120D01*
G01X7392100D02*
Y6461660D01*
X7403780Y6445920D01*
G01Y6382960D02*
X7380420D01*
G54D12*
G01X4149890Y3483040D02*
X4582910Y3233040D01*
X4832910Y3666060D01*
X4399890Y3916060D01*
X4149890Y3483040D01*
G01X6409800Y5665980D02*
X6423950Y5651840D01*
G01X7514100Y6107350D02*
X7520940Y6088550D01*
G01X8502200Y6153170D02*
X8495360Y6171970D01*
G01X8524640Y6692130D02*
X8519470Y6711450D01*
G54D13*
G01X3610330Y2319020D02*
X3595570Y2278430D01*
X3700590Y2240210D01*
X3715370Y2280790D01*
G01X3749240Y2373880D02*
X3715370Y2280790D01*
X3610330Y2319020D01*
X3704150Y2576790D01*
X3809190Y2538560D01*
X3749240Y2373880D01*
G01X3575300Y2155070D02*
X3600060Y2223090D01*
X3678820Y2194420D01*
X3654060Y2126400D01*
G01X3640160Y2088210D02*
X3615400Y2020190D01*
X3536640Y2048860D01*
X3561400Y2116880D01*
G01X3639950Y2109910D02*
X3576700Y2132930D01*
G01X3907180Y1430420D02*
X3975200Y1405660D01*
X3946530Y1326900D01*
X3878510Y1351660D01*
G01X3840320Y1365560D02*
X3772300Y1390320D01*
X3800970Y1469080D01*
X3868990Y1444320D01*
G01X3885480Y1430210D02*
X3862460Y1366960D01*
G01X3954320Y1677460D02*
X3886300Y1702220D01*
X3914970Y1780980D01*
X3982990Y1756220D01*
G01X4021180Y1742320D02*
X4089200Y1717560D01*
X4060530Y1638800D01*
X3992510Y1663560D01*
G01X3999480Y1742110D02*
X3976460Y1678860D01*
G01X4063730Y1985750D02*
X3995710Y2010510D01*
X4024380Y2089270D01*
X4092400Y2064510D01*
G01X4130590Y2050610D02*
X4198610Y2025850D01*
X4169940Y1947090D01*
X4101920Y1971850D01*
G01X4108890Y2050400D02*
X4085870Y1987150D01*
G01X3850290Y2509710D02*
X3880890Y2575320D01*
X3956850Y2539890D01*
X3926260Y2474280D01*
G01X3909090Y2437450D02*
X3878490Y2371840D01*
X3802530Y2407270D01*
X3833120Y2472880D01*
G01X3910770Y2459090D02*
X3849760Y2487530D01*
G01X4021980Y3147830D02*
X3991380Y3082220D01*
X3915420Y3117650D01*
X3946010Y3183260D01*
G01X4118150Y2825800D02*
X4087550Y2760190D01*
X4011590Y2795620D01*
X4042180Y2861230D01*
G01X4059350Y2898060D02*
X4089950Y2963670D01*
X4165910Y2928240D01*
X4135320Y2862630D01*
G01X4057670Y2876420D02*
X4118680Y2847980D01*
G01X3874150Y3262860D02*
X3904750Y3328470D01*
X3980710Y3293040D01*
X3950120Y3227430D01*
G01X3932950Y3190600D02*
X3902350Y3124990D01*
X3826390Y3160420D01*
X3856980Y3226030D01*
G01X3934630Y3212240D02*
X3873620Y3240680D01*
G01X3963180Y3220090D02*
X3993780Y3285700D01*
X4069740Y3250270D01*
X4039150Y3184660D01*
G01X4023660Y3169470D02*
X3962650Y3197910D01*
G01X4774570Y3242570D02*
X4810770Y3305270D01*
X4883360Y3263340D01*
X4847160Y3200660D01*
G01X4826850Y3165450D02*
X4790650Y3102750D01*
X4718060Y3144680D01*
X4754260Y3207360D01*
G01X4830410Y3186870D02*
X4772110Y3220520D01*
G01X4865600Y4229010D02*
X4801920Y4153130D01*
X4716310Y4224970D01*
X4779980Y4300850D01*
G01X4783500Y4368040D02*
X4711510Y4428450D01*
G01X4730160Y4462540D02*
X4793840Y4538420D01*
X4879450Y4466580D01*
X4815780Y4390700D01*
G01X4766800Y4332320D02*
X4703120Y4256440D01*
X4617510Y4328280D01*
X4681180Y4404160D01*
G01X4882300Y4264730D02*
X4810310Y4325140D01*
G01X5135570Y4032800D02*
X5089040Y3977350D01*
X5024830Y4031230D01*
X5071360Y4086680D01*
G01X5097490Y4117820D02*
X5144020Y4173270D01*
X5208230Y4119390D01*
X5161700Y4063940D01*
G01X5090260Y4097350D02*
X5141820Y4054090D01*
G01X4914520Y4661460D02*
X4986510Y4601050D01*
G01X4967860Y4566960D02*
X4904180Y4491080D01*
X4818570Y4562920D01*
X4882240Y4638800D01*
G01X4931220Y4697180D02*
X4994900Y4773060D01*
X5080510Y4701220D01*
X5016840Y4625340D01*
G01X4828960Y4359230D02*
X4892640Y4435110D01*
X4978250Y4363270D01*
X4914580Y4287390D01*
G01X5583480Y4703040D02*
X5507590Y4639370D01*
X5435750Y4724980D01*
X5645890Y4901310D01*
X5717730Y4815700D01*
X5583480Y4703040D01*
G01X6283380Y5473520D02*
X6353430Y5403480D01*
X6274400Y5324450D01*
X6204360Y5394500D01*
G01X6277600Y5541700D02*
X6344050Y5608150D01*
G01X6376380Y5586600D02*
X6446430Y5516560D01*
X6367400Y5437530D01*
X6297360Y5507580D01*
G01X6243480Y5561460D02*
X6173430Y5631500D01*
X6252460Y5710530D01*
X6322500Y5640480D01*
G01X6184600Y5428620D02*
X6251050Y5495070D01*
G01X6150480Y5448380D02*
X6080430Y5518420D01*
X6159460Y5597450D01*
X6229500Y5527400D01*
G01X6751790Y5374100D02*
X6670650Y5317280D01*
X6606540Y5408830D01*
X6687690Y5465650D01*
G01X7014390Y5749100D02*
X7265540Y5894090D01*
G01X7115890Y5573300D02*
X7367030Y5718290D01*
G01X7115390Y5574160D02*
X7015380Y5747360D01*
G01X7185070Y5641870D02*
X7108860Y5773850D01*
G01X6906020Y6081500D02*
X6856490Y6167280D01*
X6953270Y6223160D01*
X7090430Y5985600D01*
X6993650Y5929720D01*
X6906020Y6081500D01*
G01X6724730Y5479180D02*
X6778630Y5402200D01*
G01X6750110Y5509360D02*
X6831250Y5566180D01*
X6895360Y5474630D01*
X6814210Y5417810D01*
G01X7054190Y6155600D02*
X7012330Y6245380D01*
X7113620Y6292620D01*
X7229550Y6044000D01*
X7128260Y5996760D01*
X7054190Y6155600D01*
G01X7146970Y5707870D02*
X7251050Y5679960D01*
G01D02*
X7174860Y5811950D01*
G01D02*
X7146970Y5707870D01*
G01X7266530Y5892360D02*
X7366540Y5719160D01*
G01X7211610Y6185280D02*
X7296790Y6225000D01*
G01X7319800Y6193690D02*
X7361660Y6103910D01*
X7260370Y6056670D01*
X7218510Y6146450D01*
G01X7186300Y6215510D02*
X7144440Y6305290D01*
X7245730Y6352530D01*
X7287590Y6262750D01*
G01X8184160Y6023240D02*
X8218040Y5930150D01*
X8113020Y5891930D01*
X8079140Y5985020D01*
G01X8020920Y5993230D02*
X7932610Y5961080D01*
G01X8043500Y5960900D02*
X8077380Y5867810D01*
X7972360Y5829590D01*
X7938480Y5922680D01*
G01X8132070Y6517540D02*
X7859570Y6418340D01*
G01X8062980Y6707350D02*
X8131380Y6519420D01*
G01X7910990Y6626700D02*
X7963130Y6483490D01*
G01X7982610Y6652770D02*
X8034720Y6509550D01*
G01X7963130Y6483490D02*
X8008670Y6581170D01*
G01X7858880Y6420230D02*
X7790480Y6608160D01*
G01X8158490Y6311170D02*
X8126340Y6399480D01*
G01X8159540Y6419670D02*
X8252630Y6453550D01*
X8290850Y6348530D01*
X8197760Y6314650D01*
G01X8126160Y6288590D02*
X8033070Y6254710D01*
X7994850Y6359730D01*
X8087940Y6393610D01*
G01X8161580Y6055570D02*
X8073270Y6023420D01*
G01X8053080Y6056620D02*
X8019200Y6149710D01*
X8124220Y6187930D01*
X8158100Y6094840D01*
G01X7912420Y5994280D02*
X7878540Y6087370D01*
X7983560Y6125590D01*
X8017440Y6032500D01*
G01X8062640Y6708300D02*
X7790130Y6609110D01*
G01X8008670Y6581170D02*
X7910990Y6626700D01*
G01X8940810Y6292190D02*
X8958020Y6194640D01*
X8847950Y6175230D01*
X8800300Y6445380D01*
X8910370Y6464790D01*
X8940810Y6292190D01*
G01X8641980Y6306640D02*
X8616360Y6402320D01*
X8724320Y6431250D01*
X8795300Y6166280D01*
X8687340Y6137350D01*
X8641980Y6306640D01*
G01X8712290Y6675010D02*
X8837360Y6697060D01*
G01X8695440Y6736010D02*
X8827400Y6759280D01*
X8776300Y6686290D01*
X8768420Y6684900D01*
X8695440Y6736010D01*
G01X8883430Y6597040D02*
X8708130Y6566130D01*
G01D02*
X8659330Y6842860D01*
G01D02*
X8834630Y6873770D01*
G01D02*
X8883430Y6597040D01*
G01X9068200Y6311620D02*
X9040070Y6471150D01*
X9040880Y6472320D01*
X9227010Y6505130D01*
X9255480Y6343620D01*
G01X9267120Y6277640D02*
X9295250Y6118110D01*
X9294440Y6116940D01*
X9108310Y6084130D01*
X9079840Y6245640D01*
G01X9244470Y6308180D02*
X9089860Y6280910D01*
G01X9061030Y6677510D02*
X8961960D01*
X8961970Y6789270D01*
X9236300D01*
X9236290Y6677510D01*
X9061030D01*
G01X9815740Y6386910D02*
X9977740D01*
X9978740Y6385910D01*
Y6196910D01*
X9814740D01*
G01X9747740D02*
X9585740D01*
X9584740Y6197910D01*
Y6386910D01*
X9748740D01*
G01X9781740Y6213910D02*
Y6370910D01*
G01X10171170Y6836560D02*
Y6935620D01*
X10282930D01*
Y6661300D01*
X10171170D01*
Y6836560D01*
G01X10327820D02*
Y6935620D01*
X10439580D01*
Y6661300D01*
X10327820D01*
Y6836560D01*
G54D14*
G01X4609160Y3182470D02*
G03I-12703J3D01*
G54D15*
G01X3535630Y2555190D02*
X3562990Y2630370D01*
X3656960Y2596170D01*
X3588550Y2408230D01*
X3494580Y2442430D01*
X3535630Y2555190D01*
G01X3681670Y2118800D02*
X3709030Y2193980D01*
X3803000Y2159780D01*
X3734590Y1971840D01*
X3640620Y2006040D01*
X3681670Y2118800D01*
G01X3629970Y2779460D02*
X3811230Y2694940D01*
X3815450Y2704000D01*
G01X4018440Y1505590D02*
X3991080Y1430410D01*
X3897110Y1464610D01*
X3965520Y1652550D01*
X4059490Y1618350D01*
X4018440Y1505590D01*
G01X4125480Y1815210D02*
X4098120Y1740030D01*
X4004150Y1774230D01*
X4072560Y1962170D01*
X4166530Y1927970D01*
X4125480Y1815210D01*
G01X3980270Y3057460D02*
X3799010Y3141980D01*
G01X3952180Y2695830D02*
X3985990Y2768330D01*
X4076620Y2726070D01*
X3992090Y2544810D01*
X3901460Y2587070D01*
X3952180Y2695830D01*
G01X4206950Y3053980D02*
X4173140Y2981480D01*
X4082510Y3023740D01*
X4167040Y3205000D01*
X4257670Y3162740D01*
X4206950Y3053980D01*
G01X5034720Y4119990D02*
X4983290Y4058710D01*
X4906690Y4122980D01*
X5035250Y4276190D01*
X5111850Y4211920D01*
X5034720Y4119990D01*
G01X6480500Y5807400D02*
X6409800Y5878110D01*
X6303730Y5772040D01*
X6310810Y5764970D01*
G01X6565360Y5722560D02*
X6636070Y5651840D01*
X6530000Y5545780D01*
X6522940Y5552850D01*
G01X6388590Y5687190D02*
X6409800Y5665980D01*
G01X6423950Y5651840D02*
X6445160Y5630630D01*
G01X7679000Y6092870D02*
X7713200Y5998900D01*
X7572240Y5947600D01*
X7568830Y5957000D01*
G01X7637950Y6205640D02*
X7603750Y6299610D01*
X7462790Y6248300D01*
X7466220Y6238900D01*
G01X7503840Y6135540D02*
X7514100Y6107350D01*
G01X7520940Y6088550D02*
X7531200Y6060360D01*
G01X8378350Y6054890D02*
X8412550Y5960920D01*
X8553510Y6012220D01*
X8550090Y6021620D01*
G01X8337310Y6167650D02*
X8303110Y6261620D01*
X8444060Y6312920D01*
X8447480Y6303530D01*
G01X8512460Y6124980D02*
X8502200Y6153170D01*
G01X8495360Y6171970D02*
X8485100Y6200160D01*
G01X8392690Y6605020D02*
X8418580Y6508420D01*
X8563460Y6547250D01*
X8560880Y6556900D01*
G01X8361640Y6720930D02*
X8335750Y6817520D01*
X8480640Y6856340D01*
X8483230Y6846680D01*
G01X8532410Y6663160D02*
X8524640Y6692130D01*
G01X8519470Y6711450D02*
X8511700Y6740430D01*
M02*
