*
*
G04 PADS VX.2 Build Number: 5060570 generated Gerber (RS-274-X) file*
G04 PC Version=2.1*
*
%IN "Untitled"*%
*
%MOIN*%
*
%FSLAX35Y35*%
*
*
*
*
G04 PC Standard Apertures*
*
*
G04 Thermal Relief Aperture macro.*
%AMTER*
1,1,$1,0,0*
1,0,$1-$2,0,0*
21,0,$3,$4,0,0,45*
21,0,$3,$4,0,0,135*
%
*
*
G04 Annular Aperture macro.*
%AMANN*
1,1,$1,0,0*
1,0,$2,0,0*
%
*
*
G04 Odd Aperture macro.*
%AMODD*
1,1,$1,0,0*
1,0,$1-0.005,0,0*
%
*
*
G04 PC Custom Aperture Macros*
*
*
*
*
*
*
G04 PC Aperture Table*
*
%ADD010C,0.001*%
%ADD011C,0.01*%
%ADD033C,0.005*%
%ADD036R,0.04398X0.058*%
%ADD037R,0.04737X0.05524*%
%ADD038R,0.068X0.058*%
%ADD039R,0.038X0.041*%
%ADD040R,0.041X0.038*%
%ADD041R,0.04099X0.038*%
%ADD042R,0.04737X0.05918*%
%ADD043C,0.07099*%
%ADD046R,0.02768X0.06705*%
%ADD047O,0.02768X0.06705*%
%ADD048R,0.044X0.044*%
%ADD049R,0.044X0.058*%
%ADD050R,0.038X0.04099*%
%ADD051R,0.058X0.068*%
%ADD060R,0.07887X0.09855*%
%ADD061R,0.04737X0.09855*%
*
*
*
*
G04 PC Circuitry*
G04 Layer Name Untitled - circuitry*
%LPD*%
*
*
G04 PC Custom Flashes*
G04 Layer Name Untitled - flashes*
%LPD*%
*
*
G04 PC Circuitry*
G04 Layer Name Untitled - circuitry*
%LPD*%
*
G54D10*
G54D11*
G01X109869Y30987D02*
X112586Y29495D01*
X113934Y31949*
X111217Y33441*
X109869Y30987*
X112586Y29495D02*
X112586D01*
X110765Y30495D02*
X113135D01*
X110148Y31495D02*
X113685D01*
X110697Y32495D02*
X112940D01*
X110000Y30915D02*
Y31226D01*
X111000Y30366D02*
Y33046D01*
X112000Y29817D02*
Y33011D01*
X113000Y30248D02*
Y32462D01*
X112757Y36246D02*
X115475Y34754D01*
X116823Y37208*
X114105Y38700*
X112757Y36246*
X115475Y34754D02*
X115475D01*
X113654Y35754D02*
X116024D01*
X113036Y36754D02*
X116573D01*
X113586Y37754D02*
X115829D01*
X113000Y36113D02*
Y36688D01*
X114000Y35564D02*
Y38508D01*
X115000Y35014D02*
Y38209D01*
X116000Y35710D02*
Y37660D01*
X159625Y52453D02*
X155931Y55517D01*
X153761Y52902*
X157455Y49837*
X159625Y52453*
X157455Y49837D02*
X157455D01*
X156250Y50837D02*
X158285D01*
X155044Y51837D02*
X159114D01*
X153839Y52837D02*
X159162D01*
X154537Y53837D02*
X157956D01*
X155366Y54837D02*
X156751D01*
X154000Y52703D02*
Y53190D01*
X155000Y51874D02*
Y54395D01*
X156000Y51044D02*
Y55460D01*
X157000Y50215D02*
Y54630D01*
X158000Y50494D02*
Y53801D01*
X159000Y51699D02*
Y52971D01*
X155888Y60694D02*
X152406Y63582D01*
X150020Y60706*
X153502Y57817*
X155888Y60694*
X153502Y57817D02*
X153502D01*
X152296Y58817D02*
X154331D01*
X151091Y59817D02*
X155161D01*
X150112Y60817D02*
X155739D01*
X150942Y61817D02*
X154533D01*
X151771Y62817D02*
X153328D01*
X151000Y59893D02*
Y61888D01*
X152000Y59063D02*
Y63093D01*
X153000Y58234D02*
Y63089D01*
X154000Y58418D02*
Y62260D01*
X155000Y59623D02*
Y61430D01*
X151099Y54921D02*
X147617Y57810D01*
X145231Y54934*
X148713Y52045*
X151099Y54921*
X148713Y52045D02*
X148713D01*
X147508Y53045D02*
X149543D01*
X146302Y54045D02*
X150373D01*
X145324Y55045D02*
X150950D01*
X146153Y56045D02*
X149745D01*
X146983Y57045D02*
X148539D01*
X146000Y54296D02*
Y55860D01*
X147000Y53466D02*
Y57066D01*
X148000Y52637D02*
Y57492D01*
X149000Y52390D02*
Y56663D01*
X150000Y53596D02*
Y55833D01*
X151000Y54801D02*
Y55004D01*
X182469Y71670D02*
X174048Y74407D01*
X171920Y67857*
X180341Y65121*
X182469Y71670*
X180341Y65121D02*
X180341D01*
X177264Y66121D02*
X180666D01*
X174186Y67121D02*
X180991D01*
X172005Y68121D02*
X181316D01*
X172330Y69121D02*
X181641D01*
X172655Y70121D02*
X181966D01*
X172980Y71121D02*
X182291D01*
X173305Y72121D02*
X181083D01*
X173630Y73121D02*
X178005D01*
X173955Y74121D02*
X174928D01*
X172000Y67831D02*
Y68104D01*
X173000Y67506D02*
Y71182D01*
X174000Y67181D02*
Y74259D01*
X175000Y66856D02*
Y74097D01*
X176000Y66531D02*
Y73772D01*
X177000Y66206D02*
Y73447D01*
X178000Y65881D02*
Y73122D01*
X179000Y65556D02*
Y72797D01*
X180000Y65231D02*
Y72473D01*
X181000Y67148D02*
Y72148D01*
X182000Y70225D02*
Y71823D01*
X184903Y79159D02*
X176481Y81895D01*
X175326Y78341*
X183748Y75605*
X184903Y79159*
X183748Y75605D02*
X183748D01*
X180670Y76605D02*
X184073D01*
X177593Y77605D02*
X184398D01*
X175412Y78605D02*
X184723D01*
X175737Y79605D02*
X183530D01*
X176062Y80605D02*
X180453D01*
X176387Y81605D02*
X177375D01*
X176000Y78122D02*
Y80415D01*
X177000Y77797D02*
Y81726D01*
X178000Y77472D02*
Y81402D01*
X179000Y77147D02*
Y81077D01*
X180000Y76822D02*
Y80752D01*
X181000Y76497D02*
Y80427D01*
X182000Y76173D02*
Y80102D01*
X183000Y75848D02*
Y79777D01*
X184000Y76381D02*
Y79452D01*
X150119Y28221D02*
X144931Y35397D01*
X139350Y31362*
X144538Y24186*
X150119Y28221*
X144538Y24186D02*
X144538D01*
X143815Y25186D02*
X145921D01*
X143092Y26186D02*
X147305D01*
X142369Y27186D02*
X148688D01*
X141646Y28186D02*
X150071D01*
X140923Y29186D02*
X149421D01*
X140201Y30186D02*
X148698D01*
X139478Y31186D02*
X147975D01*
X140490Y32186D02*
X147252D01*
X141873Y33186D02*
X146529D01*
X143256Y34186D02*
X145807D01*
X144639Y35186D02*
X145084D01*
X140000Y30463D02*
Y31832D01*
X141000Y29080D02*
Y32555D01*
X142000Y27697D02*
Y33278D01*
X143000Y26313D02*
Y34001D01*
X144000Y24930D02*
Y34724D01*
X145000Y24520D02*
Y35302D01*
X146000Y25243D02*
Y33918D01*
X147000Y25966D02*
Y32535D01*
X148000Y26689D02*
Y31152D01*
X149000Y27412D02*
Y29768D01*
X150000Y28134D02*
Y28385D01*
X156500Y32833D02*
X151312Y40010D01*
X148284Y37821*
X153472Y30644*
X156500Y32833*
X153472Y30644D02*
X153472D01*
X152749Y31644D02*
X154855D01*
X152026Y32644D02*
X156238D01*
X151303Y33644D02*
X155914D01*
X150580Y34644D02*
X155191D01*
X149857Y35644D02*
X154468D01*
X149134Y36644D02*
X153746D01*
X148411Y37644D02*
X153023D01*
X149423Y38644D02*
X152300D01*
X150807Y39644D02*
X151577D01*
X149000Y36830D02*
Y38338D01*
X150000Y35447D02*
Y39061D01*
X151000Y34063D02*
Y39784D01*
X152000Y32680D02*
Y39059D01*
X153000Y31297D02*
Y37675D01*
X154000Y31026D02*
Y36292D01*
X155000Y31749D02*
Y34909D01*
X156000Y32472D02*
Y33525D01*
X16140Y126668D02*
X24561Y123932D01*
X26689Y130482*
X18268Y133218*
X16140Y126668*
X24352Y124000D02*
X24583D01*
X21275Y125000D02*
X24908D01*
X18197Y126000D02*
X25233D01*
X16247Y127000D02*
X25558D01*
X16572Y128000D02*
X25883D01*
X16897Y129000D02*
X26208D01*
X17222Y130000D02*
X26533D01*
X17547Y131000D02*
X25094D01*
X17872Y132000D02*
X22016D01*
X18197Y133000D02*
X18939D01*
X16140Y126668D02*
X16140D01*
X17140Y126344D02*
Y129746D01*
X18140Y126019D02*
Y132824D01*
X19140Y125694D02*
Y132935D01*
X20140Y125369D02*
Y132610D01*
X21140Y125044D02*
Y132285D01*
X22140Y124719D02*
Y131960D01*
X23140Y124394D02*
Y131635D01*
X24140Y124069D02*
Y131310D01*
X25140Y125712D02*
Y130985D01*
X26140Y128790D02*
Y130660D01*
X13706Y119180D02*
X22128Y116443D01*
X23283Y119998*
X14861Y122734*
X13706Y119180*
X20415Y117000D02*
X22309D01*
X17338Y118000D02*
X22634D01*
X14260Y119000D02*
X22959D01*
X13973Y120000D02*
X23275D01*
X14298Y121000D02*
X20198D01*
X14623Y122000D02*
X17120D01*
X13706Y119180D02*
X13706D01*
X14706Y118855D02*
Y122258D01*
X15706Y118530D02*
Y122459D01*
X16706Y118205D02*
Y122134D01*
X17706Y117880D02*
Y121809D01*
X18706Y117555D02*
Y121485D01*
X19706Y117230D02*
Y121160D01*
X20706Y116905D02*
Y120835D01*
X21706Y116580D02*
Y120510D01*
X22706Y118223D02*
Y120185D01*
X47407Y28658D02*
X52612Y35822D01*
X47041Y39870*
X41836Y32706*
X47407Y28658*
X47407*
X46031Y29658D02*
X48134D01*
X44654Y30658D02*
X48860D01*
X43278Y31658D02*
X49587D01*
X41902Y32658D02*
X50313D01*
X42528Y33658D02*
X51040D01*
X43254Y34658D02*
X51766D01*
X43981Y35658D02*
X52493D01*
X44707Y36658D02*
X51461D01*
X45434Y37658D02*
X50085D01*
X46160Y38658D02*
X48709D01*
X46887Y39658D02*
X47332D01*
X41836Y32706D02*
X41836D01*
X42836Y31980D02*
Y34083D01*
X43836Y31253D02*
Y35459D01*
X44836Y30527D02*
Y36835D01*
X45836Y29800D02*
Y38212D01*
X46836Y29074D02*
Y39588D01*
X47836Y29248D02*
Y39292D01*
X48836Y30625D02*
Y38566D01*
X49836Y32001D02*
Y37839D01*
X50836Y33377D02*
Y37113D01*
X51836Y34754D02*
Y36386D01*
X53777Y24030D02*
X58982Y31194D01*
X55959Y33391*
X50754Y26227*
X53777Y24030*
X53777*
X52401Y25030D02*
X54504D01*
X51025Y26030D02*
X55231D01*
X51338Y27030D02*
X55957D01*
X52064Y28030D02*
X56684D01*
X52791Y29030D02*
X57410D01*
X53518Y30030D02*
X58137D01*
X54244Y31030D02*
X58863D01*
X54971Y32030D02*
X57832D01*
X55697Y33030D02*
X56455D01*
X50754Y26227D02*
X50754D01*
X51754Y25500D02*
Y27603D01*
X52754Y24774D02*
Y28979D01*
X53754Y24047D02*
Y30356D01*
X54754Y25374D02*
Y31732D01*
X55754Y26751D02*
Y33109D01*
X56754Y28127D02*
Y32813D01*
X57754Y29504D02*
Y32086D01*
X58754Y30880D02*
Y31360D01*
X150903Y169860D02*
X145750Y162659D01*
X151351Y158652*
X156504Y165853*
X150903Y169860*
X150864Y159000D02*
X151601D01*
X149466Y160000D02*
X152316D01*
X148069Y161000D02*
X153031D01*
X146671Y162000D02*
X153747D01*
X145995Y163000D02*
X154462D01*
X146710Y164000D02*
X155178D01*
X147426Y165000D02*
X155893D01*
X148141Y166000D02*
X156299D01*
X148857Y167000D02*
X154901D01*
X149572Y168000D02*
X153503D01*
X150287Y169000D02*
X152105D01*
X146000Y162480D02*
Y163007D01*
X147000Y161765D02*
Y164405D01*
X148000Y161049D02*
Y165803D01*
X149000Y160334D02*
Y167201D01*
X150000Y159618D02*
Y168598D01*
X151000Y158903D02*
Y169791D01*
X152000Y159558D02*
Y169075D01*
X153000Y160956D02*
Y168360D01*
X154000Y162354D02*
Y167645D01*
X155000Y163751D02*
Y166929D01*
X156000Y165149D02*
Y166214D01*
X144499Y174442D02*
X139347Y167240D01*
X142386Y165066*
X147538Y172268*
X144499Y174442*
X141080Y166000D02*
X143054D01*
X139682Y167000D02*
X143770D01*
X139890Y168000D02*
X144485D01*
X140606Y169000D02*
X145201D01*
X141321Y170000D02*
X145916D01*
X142037Y171000D02*
X146632D01*
X142752Y172000D02*
X147347D01*
X143468Y173000D02*
X146515D01*
X144183Y174000D02*
X145117D01*
X140000Y166773D02*
Y168153D01*
X141000Y166057D02*
Y169551D01*
X142000Y165342D02*
Y170949D01*
X143000Y165924D02*
Y172347D01*
X144000Y167322D02*
Y173744D01*
X145000Y168720D02*
Y174084D01*
X146000Y170117D02*
Y173368D01*
X147000Y171515D02*
Y172653D01*
X174020Y123988D02*
X182442Y126724D01*
X180314Y133274*
X171892Y130537*
X174020Y123988*
X174016Y124000D02*
X174058D01*
X173691Y125000D02*
X177136D01*
X173366Y126000D02*
X180214D01*
X173041Y127000D02*
X182352D01*
X172716Y128000D02*
X182027D01*
X172391Y129000D02*
X181702D01*
X172066Y130000D02*
X181377D01*
X173316Y131000D02*
X181052D01*
X176394Y132000D02*
X180727D01*
X179472Y133000D02*
X180403D01*
X172000Y130205D02*
Y130572D01*
X173000Y127127D02*
Y130897D01*
X174000Y124049D02*
Y131222D01*
X175000Y124306D02*
Y131547D01*
X176000Y124631D02*
Y131872D01*
X177000Y124956D02*
Y132197D01*
X178000Y125281D02*
Y132522D01*
X179000Y125606D02*
Y132847D01*
X180000Y125931D02*
Y133172D01*
X181000Y126256D02*
Y131161D01*
X182000Y126580D02*
Y128084D01*
X176453Y116499D02*
X184875Y119235D01*
X183720Y122789*
X175298Y120053*
X176453Y116499*
X176290Y117000D02*
X177995D01*
X175966Y118000D02*
X181073D01*
X175641Y119000D02*
X184151D01*
X175316Y120000D02*
X184626D01*
X178213Y121000D02*
X184302D01*
X181290Y122000D02*
X183977D01*
X176000Y117894D02*
Y120281D01*
X177000Y116677D02*
Y120606D01*
X178000Y117002D02*
Y120931D01*
X179000Y117326D02*
Y121256D01*
X180000Y117651D02*
Y121581D01*
X181000Y117976D02*
Y121906D01*
X182000Y118301D02*
Y122231D01*
X183000Y118626D02*
Y122555D01*
X184000Y118951D02*
Y121928D01*
X48317Y170427D02*
X53522Y163263D01*
X59093Y167311*
X53888Y174475*
X48317Y170427*
X52987Y164000D02*
X54536D01*
X52260Y165000D02*
X55912D01*
X51533Y166000D02*
X57289D01*
X50807Y167000D02*
X58665D01*
X50080Y168000D02*
X58593D01*
X49354Y169000D02*
X57866D01*
X48627Y170000D02*
X57140D01*
X49105Y171000D02*
X56413D01*
X50482Y172000D02*
X55687D01*
X51858Y173000D02*
X54960D01*
X53235Y174000D02*
X54233D01*
X48317Y170427D02*
X48317D01*
X49317Y169051D02*
Y171154D01*
X50317Y167674D02*
Y171880D01*
X51317Y166298D02*
Y172607D01*
X52317Y164922D02*
Y173333D01*
X53317Y163545D02*
Y174060D01*
X54317Y163841D02*
Y173885D01*
X55317Y164567D02*
Y172509D01*
X56317Y165294D02*
Y171132D01*
X57317Y166021D02*
Y169756D01*
X58317Y166747D02*
Y168380D01*
X41947Y165799D02*
X47152Y158635D01*
X50175Y160832*
X44970Y167995*
X41947Y165799*
X46886Y159000D02*
X47654D01*
X46160Y160000D02*
X49030D01*
X45433Y161000D02*
X50053D01*
X44707Y162000D02*
X49326D01*
X43980Y163000D02*
X48599D01*
X43254Y164000D02*
X47873D01*
X42527Y165000D02*
X47146D01*
X42224Y166000D02*
X46420D01*
X43600Y167000D02*
X45693D01*
X41947Y165799D02*
X41947D01*
X42947Y164423D02*
Y166525D01*
X43947Y163046D02*
Y167252D01*
X44947Y161670D02*
Y167979D01*
X45947Y160293D02*
Y166651D01*
X46947Y158917D02*
Y165275D01*
X47947Y159213D02*
Y163898D01*
X48947Y159939D02*
Y162522D01*
X49947Y160666D02*
Y161146D01*
X15835Y72637D02*
X24256Y75373D01*
X22128Y81923*
X13706Y79187*
X15835Y72637*
X15835D02*
X15835D01*
X15510Y73637D02*
X18912D01*
X15185Y74637D02*
X21990D01*
X14860Y75637D02*
X24171D01*
X14535Y76637D02*
X23846D01*
X14210Y77637D02*
X23521D01*
X13885Y78637D02*
X23196D01*
X15093Y79637D02*
X22871D01*
X18170Y80637D02*
X22546D01*
X21248Y81637D02*
X22221D01*
X13706Y79187D02*
X13706D01*
X14706Y76109D02*
Y79511D01*
X15706Y73031D02*
Y79836D01*
X16706Y72920D02*
Y80161D01*
X17706Y73245D02*
Y80486D01*
X18706Y73570D02*
Y80811D01*
X19706Y73895D02*
Y81136D01*
X20706Y74220D02*
Y81461D01*
X21706Y74545D02*
Y81786D01*
X22706Y74870D02*
Y80143D01*
X23706Y75195D02*
Y77065D01*
X18268Y65148D02*
X26689Y67885D01*
X25535Y71439*
X17113Y68702*
X18268Y65148*
X18268*
X17943Y66148D02*
X21345D01*
X17618Y67148D02*
X24423D01*
X17293Y68148D02*
X26604D01*
X18485Y69148D02*
X26279D01*
X21563Y70148D02*
X25954D01*
X24641Y71148D02*
X25629D01*
X17113Y68702D02*
X17113D01*
X18113Y65625D02*
Y69027D01*
X19113Y65423D02*
Y69352D01*
X20113Y65748D02*
Y69677D01*
X21113Y66073D02*
Y70002D01*
X22113Y66398D02*
Y70327D01*
X23113Y66723D02*
Y70652D01*
X24113Y67048D02*
Y70977D01*
X25113Y67372D02*
Y71302D01*
X26113Y67697D02*
Y69659D01*
X105221Y65129D02*
X94698Y70036D01*
X91289Y62724*
X101812Y57817*
X105221Y65129*
X101812Y57817D02*
X101812D01*
X99667Y58817D02*
X102278D01*
X97523Y59817D02*
X102744D01*
X95378Y60817D02*
X103211D01*
X93234Y61817D02*
X103677D01*
X91332Y62817D02*
X104143D01*
X91798Y63817D02*
X104610D01*
X92265Y64817D02*
X105076D01*
X92731Y65817D02*
X103746D01*
X93197Y66817D02*
X101601D01*
X93664Y67817D02*
X99457D01*
X94130Y68817D02*
X97312D01*
X94596Y69817D02*
X95168D01*
X91289Y62724D02*
X91289D01*
X92289Y62258D02*
Y64868D01*
X93289Y61791D02*
Y67013D01*
X94289Y61325D02*
Y69157D01*
X95289Y60859D02*
Y69760D01*
X96289Y60392D02*
Y69294D01*
X97289Y59926D02*
Y68828D01*
X98289Y59460D02*
Y68361D01*
X99289Y58993D02*
Y67895D01*
X100289Y58527D02*
Y67429D01*
X101289Y58061D02*
Y66963D01*
X102289Y58840D02*
Y66496D01*
X103289Y60984D02*
Y66030D01*
X104289Y63129D02*
Y65564D01*
X86338Y24634D02*
X75815Y29541D01*
X72406Y22229*
X82929Y17322*
X86338Y24634*
X82929Y17322D02*
X82929D01*
X80784Y18322D02*
X83395D01*
X78640Y19322D02*
X83861D01*
X76495Y20322D02*
X84328D01*
X74351Y21322D02*
X84794D01*
X72449Y22322D02*
X85260D01*
X72915Y23322D02*
X85727D01*
X73382Y24322D02*
X86193D01*
X73848Y25322D02*
X84863D01*
X74314Y26322D02*
X82718D01*
X74781Y27322D02*
X80574D01*
X75247Y28322D02*
X78429D01*
X75713Y29322D02*
X76285D01*
X72406Y22229D02*
X72406D01*
X73406Y21763D02*
Y24374D01*
X74406Y21297D02*
Y26518D01*
X75406Y20830D02*
Y28663D01*
X76406Y20364D02*
Y29266D01*
X77406Y19898D02*
Y28799D01*
X78406Y19431D02*
Y28333D01*
X79406Y18965D02*
Y27867D01*
X80406Y18499D02*
Y27400D01*
X81406Y18032D02*
Y26934D01*
X82406Y17566D02*
Y26468D01*
X83406Y18345D02*
Y26001D01*
X84406Y20489D02*
Y25535D01*
X85406Y22634D02*
Y25069D01*
X97350Y27753D02*
X91822Y30331D01*
X90575Y27657*
X96103Y25080*
X97350Y27753*
X96103Y25080D02*
X96103D01*
X93958Y26080D02*
X96569D01*
X91814Y27080D02*
X97036D01*
X90772Y28080D02*
X96649D01*
X91238Y29080D02*
X94504D01*
X91705Y30080D02*
X92360D01*
X90575Y27657D02*
X90575D01*
X91575Y27191D02*
Y29802D01*
X92575Y26725D02*
Y29979D01*
X93575Y26259D02*
Y29513D01*
X94575Y25792D02*
Y29047D01*
X95575Y25326D02*
Y28580D01*
X96575Y26093D02*
Y28114D01*
X99429Y32213D02*
X93902Y34791D01*
X92655Y32117*
X98183Y29540*
X99429Y32213*
X98183Y29540D02*
X98183D01*
X96038Y30540D02*
X98649D01*
X93894Y31540D02*
X99115D01*
X92852Y32540D02*
X98729D01*
X93318Y33540D02*
X96584D01*
X93785Y34540D02*
X94440D01*
X92655Y32117D02*
X92655D01*
X93655Y31651D02*
Y34262D01*
X94655Y31185D02*
Y34439D01*
X95655Y30719D02*
Y33973D01*
X96655Y30252D02*
Y33507D01*
X97655Y29786D02*
Y33040D01*
X98655Y30553D02*
Y32574D01*
X101509Y36673D02*
X95981Y39251D01*
X94735Y36578*
X100263Y34000*
X101509Y36673*
X100263Y34000D02*
X100263D01*
X98118Y35000D02*
X100729D01*
X95974Y36000D02*
X101195D01*
X94932Y37000D02*
X100808D01*
X95398Y38000D02*
X98664D01*
X95864Y39000D02*
X96519D01*
X94735Y36578D02*
X94735D01*
X95735Y36111D02*
Y38722D01*
X96735Y35645D02*
Y38900D01*
X97735Y35179D02*
Y38433D01*
X98735Y34712D02*
Y37967D01*
X99735Y34246D02*
Y37501D01*
X100735Y35013D02*
Y37034D01*
X103589Y41133D02*
X98061Y43711D01*
X96815Y41038*
X102342Y38460*
X103589Y41133*
X102342Y38460D02*
X102342D01*
X100198Y39460D02*
X102809D01*
X98053Y40460D02*
X103275D01*
X97012Y41460D02*
X102888D01*
X97478Y42460D02*
X100744D01*
X97944Y43460D02*
X98599D01*
X96815Y41038D02*
X96815D01*
X97815Y40571D02*
Y43182D01*
X98815Y40105D02*
Y43360D01*
X99815Y39639D02*
Y42893D01*
X100815Y39173D02*
Y42427D01*
X101815Y38706D02*
Y41961D01*
X102815Y39473D02*
Y41494D01*
X105669Y45593D02*
X100141Y48171D01*
X98894Y45498*
X104422Y42920*
X105669Y45593*
X104422Y42920D02*
X104422D01*
X102278Y43920D02*
X104888D01*
X100133Y44920D02*
X105355D01*
X99091Y45920D02*
X104968D01*
X99558Y46920D02*
X102823D01*
X100024Y47920D02*
X100679D01*
X98894Y45498D02*
X98894D01*
X99894Y45032D02*
Y47642D01*
X100894Y44565D02*
Y47820D01*
X101894Y44099D02*
Y47353D01*
X102894Y43633D02*
Y46887D01*
X103894Y43166D02*
Y46421D01*
X104894Y43933D02*
Y45955D01*
X107748Y50054D02*
X102221Y52631D01*
X100974Y49958*
X106502Y47381*
X107748Y50054*
X106502Y47381D02*
X106502D01*
X104357Y48381D02*
X106968D01*
X102213Y49381D02*
X107435D01*
X101171Y50381D02*
X107048D01*
X101637Y51381D02*
X104903D01*
X102104Y52381D02*
X102759D01*
X101000Y49946D02*
Y50014D01*
X102000Y49480D02*
Y52158D01*
X103000Y49014D02*
Y52268D01*
X104000Y48547D02*
Y51802D01*
X105000Y48081D02*
Y51335D01*
X106000Y47615D02*
Y50869D01*
X107000Y48449D02*
Y50403D01*
X81955Y154128D02*
X70834Y148215D01*
X72589Y144916*
X83710Y150829*
X81955Y154128*
X72544Y145000D02*
X72748D01*
X72012Y146000D02*
X74628D01*
X71480Y147000D02*
X76509D01*
X70949Y148000D02*
X78390D01*
X72311Y149000D02*
X80271D01*
X74191Y150000D02*
X82151D01*
X76072Y151000D02*
X83619D01*
X77953Y152000D02*
X83087D01*
X79833Y153000D02*
X82555D01*
X81714Y154000D02*
X82024D01*
X70834Y148215D02*
X70834D01*
X71834Y146334D02*
Y148747D01*
X72834Y145046D02*
Y149279D01*
X73834Y145578D02*
Y149810D01*
X74834Y146110D02*
Y150342D01*
X75834Y146641D02*
Y150874D01*
X76834Y147173D02*
Y151405D01*
X77834Y147705D02*
Y151937D01*
X78834Y148236D02*
Y152469D01*
X79834Y148768D02*
Y153001D01*
X80834Y149300D02*
Y153532D01*
X81834Y149832D02*
Y154064D01*
X82834Y150363D02*
Y152475D01*
X79183Y159342D02*
X68062Y153429D01*
X69817Y150129*
X80938Y156042*
X79183Y159342*
X69354Y151000D02*
X71454D01*
X68822Y152000D02*
X73335D01*
X68290Y153000D02*
X75216D01*
X69136Y154000D02*
X77096D01*
X71017Y155000D02*
X78977D01*
X72898Y156000D02*
X80858D01*
X74779Y157000D02*
X80429D01*
X76659Y158000D02*
X79897D01*
X78540Y159000D02*
X79365D01*
X68062Y153429D02*
X68062D01*
X69062Y151548D02*
Y153961D01*
X70062Y150260D02*
Y154492D01*
X71062Y150792D02*
Y155024D01*
X72062Y151323D02*
Y155556D01*
X73062Y151855D02*
Y156087D01*
X74062Y152387D02*
Y156619D01*
X75062Y152918D02*
Y157151D01*
X76062Y153450D02*
Y157683D01*
X77062Y153982D02*
Y158214D01*
X78062Y154514D02*
Y158746D01*
X79062Y155045D02*
Y159278D01*
X80062Y155577D02*
Y157689D01*
X70968Y139368D02*
X63149Y135211D01*
X65828Y130174*
X73646Y134331*
X70968Y139368*
X65388Y131000D02*
X67382D01*
X64857Y132000D02*
X69263D01*
X64325Y133000D02*
X71143D01*
X63793Y134000D02*
X73024D01*
X63261Y135000D02*
X73290D01*
X64633Y136000D02*
X72759D01*
X66513Y137000D02*
X72227D01*
X68394Y138000D02*
X71695D01*
X70275Y139000D02*
X71164D01*
X63149Y135211D02*
X63149D01*
X64149Y133330D02*
Y135743D01*
X65149Y131450D02*
Y136275D01*
X66149Y130344D02*
Y136806D01*
X67149Y130876D02*
Y137338D01*
X68149Y131408D02*
Y137870D01*
X69149Y131940D02*
Y138401D01*
X70149Y132471D02*
Y138933D01*
X71149Y133003D02*
Y139027D01*
X72149Y133535D02*
Y137147D01*
X73149Y134066D02*
Y135266D01*
X59877Y160224D02*
X52059Y156067D01*
X54737Y151029*
X62556Y155186*
X59877Y160224*
X54221Y152000D02*
X56563D01*
X53689Y153000D02*
X58444D01*
X53158Y154000D02*
X60324D01*
X52626Y155000D02*
X62205D01*
X52094Y156000D02*
X62123D01*
X53814Y157000D02*
X61592D01*
X55694Y158000D02*
X61060D01*
X57575Y159000D02*
X60528D01*
X59456Y160000D02*
X59997D01*
X52059Y156067D02*
X52059D01*
X53059Y154186D02*
Y156599D01*
X54059Y152305D02*
Y157130D01*
X55059Y151200D02*
Y157662D01*
X56059Y151732D02*
Y158194D01*
X57059Y152264D02*
Y158725D01*
X58059Y152795D02*
Y159257D01*
X59059Y153327D02*
Y159789D01*
X60059Y153859D02*
Y159883D01*
X61059Y154390D02*
Y158002D01*
X62059Y154922D02*
Y156122D01*
G54D33*
X10915Y118824D02*
X25269Y114160D01*
Y84274*
X10915Y79611*
X10912Y79625D02*
G75*
G03Y118810I88376J19592D01*
G01X31571Y122839D02*
G03X31571I-3149J0D01*
G01Y75595D02*
G03X31571I-3149J0D01*
G01X167398Y148824D02*
G03X167398I-3937J0D01*
G01X134474Y24617D02*
G03X134474I-3347J0D01*
G54D36*
G01X44820Y96045D03*
G54D37*
X41032Y88045D03*
X48532D03*
G54D38*
X48819Y103937D03*
X37008D03*
G54D39*
X44291Y111811D03*
X38291D03*
G54D40*
X136508Y147846D03*
Y153846D03*
X108949Y164499D03*
Y170499D03*
X124303Y164499D03*
Y170499D03*
X148319Y138988D03*
Y132988D03*
X130602Y153751D03*
Y147751D03*
G54D41*
X119185Y170696D03*
Y164499D03*
X114185Y170696D03*
Y164499D03*
G54D42*
X164854Y103555D03*
X157374D03*
Y95681D03*
X164854D03*
X157374Y87807D03*
X164854D03*
Y111429D03*
X157374D03*
G54D43*
X74173Y79449D03*
X84173D03*
X94173D03*
X104173D03*
X114173D03*
X124173Y119449D03*
X114173D03*
X104173D03*
X94173D03*
X84173D03*
X74173D03*
G54D46*
X124185Y158673D03*
G54D47*
X119185D03*
X114185D03*
X109185D03*
X104185D03*
X99185D03*
X94185D03*
X89185D03*
Y136173D03*
X94185D03*
X99185D03*
X104185D03*
X109185D03*
X114185D03*
X119185D03*
X124185D03*
G54D48*
X141242Y140919D03*
X133742D03*
G54D49*
X137492Y132919D03*
G54D50*
X125299Y61614D03*
X131496D03*
X131512Y66929D03*
X125315D03*
X47823Y76389D03*
X41626D03*
X41532Y82137D03*
X47728D03*
G54D51*
X149303Y111429D03*
Y123240D03*
G54D60*
X103117Y182423D03*
X103268Y16142D03*
G54D61*
X93668Y182423D03*
X93819Y16142D03*
G74*
X0Y0D02*
M02*
