*
*
G04 PADS VX.2 Build Number: 5060570 generated Gerber (RS-274-X) file*
G04 PC Version=2.1*
*
%IN "Untitled"*%
*
%MOIN*%
*
%FSLAX35Y35*%
*
*
*
*
G04 PC Standard Apertures*
*
*
G04 Thermal Relief Aperture macro.*
%AMTER*
1,1,$1,0,0*
1,0,$1-$2,0,0*
21,0,$3,$4,0,0,45*
21,0,$3,$4,0,0,135*
%
*
*
G04 Annular Aperture macro.*
%AMANN*
1,1,$1,0,0*
1,0,$2,0,0*
%
*
*
G04 Odd Aperture macro.*
%AMODD*
1,1,$1,0,0*
1,0,$1-0.005,0,0*
%
*
*
G04 PC Custom Aperture Macros*
*
*
*
*
*
*
G04 PC Aperture Table*
*
%ADD010C,0.001*%
%ADD011C,0.01*%
%ADD012R,0.03598X0.05*%
%ADD013R,0.03937X0.04724*%
%ADD014R,0.06X0.05*%
%ADD015R,0.03X0.033*%
%ADD016R,0.033X0.03*%
%ADD017R,0.03299X0.03*%
%ADD018R,0.03937X0.05118*%
%ADD022R,0.01968X0.05905*%
%ADD023O,0.01968X0.05905*%
%ADD024R,0.036X0.036*%
%ADD025R,0.036X0.05*%
%ADD026R,0.03X0.03299*%
%ADD027R,0.05X0.06*%
%ADD033C,0.005*%
%ADD058R,0.07087X0.09055*%
%ADD059R,0.03937X0.09055*%
*
*
*
*
G04 PC Circuitry*
G04 Layer Name Untitled - circuitry*
%LPD*%
*
*
G04 PC Custom Flashes*
G04 Layer Name Untitled - flashes*
%LPD*%
*
*
G04 PC Circuitry*
G04 Layer Name Untitled - circuitry*
%LPD*%
*
G54D10*
G54D11*
G01X110412Y31145D02*
X112428Y30038D01*
X113391Y31791*
X111375Y32898*
X110412Y31145*
X112428Y30038D02*
X112428D01*
X110607Y31038D02*
X112977D01*
X110903Y32038D02*
X112941D01*
X111000Y30822D02*
Y32215D01*
X112000Y30273D02*
Y32555D01*
X113000Y31079D02*
Y32006D01*
X113301Y36404D02*
X115317Y35297D01*
X116279Y37050*
X114263Y38157*
X113301Y36404*
X115317Y35297D02*
X115317D01*
X113496Y36297D02*
X115866D01*
X113791Y37297D02*
X115830D01*
X114000Y36020D02*
Y37678D01*
X115000Y35471D02*
Y37753D01*
X116000Y36541D02*
Y37203D01*
X159062Y52400D02*
X155983Y54954D01*
X154324Y52954*
X157403Y50400*
X159062Y52400*
X157403Y50400D02*
X157403D01*
X156197Y51400D02*
X158232D01*
X154992Y52400D02*
X159062D01*
X154694Y53400D02*
X157856D01*
X155524Y54400D02*
X156651D01*
X155000Y52393D02*
Y53769D01*
X156000Y51564D02*
Y54940D01*
X157000Y50734D02*
Y54110D01*
X158000Y51120D02*
Y53281D01*
X159000Y52326D02*
Y52451D01*
X155325Y60641D02*
X152458Y63019D01*
X150583Y60759*
X153449Y58381*
X155325Y60641*
X153449Y58381D02*
X153449D01*
X152244Y59381D02*
X154279D01*
X151038Y60381D02*
X155109D01*
X151099Y61381D02*
X154433D01*
X151929Y62381D02*
X153228D01*
X151000Y60413D02*
Y61261D01*
X152000Y59583D02*
Y62467D01*
X153000Y58753D02*
Y62569D01*
X154000Y59044D02*
Y61740D01*
X155000Y60250D02*
Y60910D01*
X150536Y54869D02*
X147670Y57247D01*
X145794Y54986*
X145794D02*
X148661Y52608D01*
X150536Y54869*
X148661Y52608D02*
X148661D01*
X147456Y53608D02*
X149491D01*
X146250Y54608D02*
X150320D01*
X146311Y55608D02*
X149645D01*
X147140Y56608D02*
X148439D01*
X146000Y54816D02*
Y55234D01*
X147000Y53986D02*
Y56439D01*
X148000Y53157D02*
Y56973D01*
X149000Y53017D02*
Y56143D01*
X150000Y54222D02*
Y55313D01*
X181965Y71413D02*
X174305Y73902D01*
X172424Y68114*
X180085Y65625*
X181965Y71413*
X180085Y65625D02*
X180085D01*
X177007Y66625D02*
X180410D01*
X173929Y67625D02*
X180734D01*
X172590Y68625D02*
X181059D01*
X172915Y69625D02*
X181384D01*
X173240Y70625D02*
X181709D01*
X173564Y71625D02*
X181315D01*
X173889Y72625D02*
X178237D01*
X174214Y73625D02*
X175160D01*
X173000Y67927D02*
Y69887D01*
X174000Y67602D02*
Y72965D01*
X175000Y67277D02*
Y73677D01*
X176000Y66952D02*
Y73352D01*
X177000Y66627D02*
Y73027D01*
X178000Y66302D02*
Y72702D01*
X179000Y65977D02*
Y72377D01*
X180000Y65652D02*
Y72052D01*
X181000Y68442D02*
Y71727D01*
X184399Y78902D02*
X176738Y81391D01*
X175830Y78598*
X183491Y76109*
X184399Y78902*
X183491Y76109D02*
X183491D01*
X180413Y77109D02*
X183816D01*
X177336Y78109D02*
X184141D01*
X175996Y79109D02*
X183762D01*
X176321Y80109D02*
X180685D01*
X176646Y81109D02*
X177607D01*
X176000Y78543D02*
Y79120D01*
X177000Y78218D02*
Y81306D01*
X178000Y77893D02*
Y80981D01*
X179000Y77568D02*
Y80656D01*
X180000Y77243D02*
Y80331D01*
X181000Y76918D02*
Y80006D01*
X182000Y76593D02*
Y79681D01*
X183000Y76268D02*
Y79356D01*
X184000Y77675D02*
Y79031D01*
X149560Y28310D02*
X144841Y34838D01*
X139909Y31273*
X144628Y24744*
X149560Y28310*
X144628Y24744D02*
X144628D01*
X143905Y25744D02*
X146011D01*
X143182Y26744D02*
X147394D01*
X142459Y27744D02*
X148778D01*
X141736Y28744D02*
X149247D01*
X141013Y29744D02*
X148524D01*
X140290Y30744D02*
X147801D01*
X140562Y31744D02*
X147078D01*
X141945Y32744D02*
X146355D01*
X143328Y33744D02*
X145632D01*
X144712Y34744D02*
X144909D01*
X140000Y31146D02*
Y31339D01*
X141000Y29763D02*
Y32061D01*
X142000Y28380D02*
Y32784D01*
X143000Y26996D02*
Y33507D01*
X144000Y25613D02*
Y34230D01*
X145000Y25014D02*
Y34619D01*
X146000Y25736D02*
Y33236D01*
X147000Y26459D02*
Y31852D01*
X148000Y27182D02*
Y30469D01*
X149000Y27905D02*
Y29086D01*
X155942Y32923D02*
X151223Y39451D01*
X148842Y37731*
X153562Y31203*
X155942Y32923*
X153562Y31203D02*
X153562D01*
X152839Y32203D02*
X154945D01*
X152116Y33203D02*
X155740D01*
X151393Y34203D02*
X155017D01*
X150670Y35203D02*
X154294D01*
X149947Y36203D02*
X153571D01*
X149224Y37203D02*
X152848D01*
X149495Y38203D02*
X152125D01*
X150879Y39203D02*
X151402D01*
X149000Y37513D02*
Y37845D01*
X150000Y36129D02*
Y38567D01*
X151000Y34746D02*
Y39290D01*
X152000Y33363D02*
Y38376D01*
X153000Y31979D02*
Y36993D01*
X154000Y31520D02*
Y35609D01*
X155000Y32243D02*
Y34226D01*
X16644Y126925D02*
X24305Y124436D01*
X26185Y130225*
X18525Y132714*
X16644Y126925*
X22569Y125000D02*
X24488D01*
X19491Y126000D02*
X24813D01*
X16668Y127000D02*
X25138D01*
X16993Y128000D02*
X25462D01*
X17318Y129000D02*
X25787D01*
X17643Y130000D02*
X26112D01*
X17968Y131000D02*
X23800D01*
X18293Y132000D02*
X20722D01*
X16644Y126925D02*
X16644D01*
X17644Y126600D02*
Y130003D01*
X18644Y126275D02*
Y132675D01*
X19644Y125951D02*
Y132350D01*
X20644Y125626D02*
Y132025D01*
X21644Y125301D02*
Y131701D01*
X22644Y124976D02*
Y131376D01*
X23644Y124651D02*
Y131051D01*
X24644Y125480D02*
Y130726D01*
X25644Y128558D02*
Y130401D01*
X14210Y119437D02*
X21871Y116948D01*
X22779Y119741*
X15118Y122230*
X14210Y119437*
X21710Y117000D02*
X21888D01*
X18632Y118000D02*
X22213D01*
X15554Y119000D02*
X22538D01*
X14393Y120000D02*
X21981D01*
X14718Y121000D02*
X18903D01*
X15043Y122000D02*
X15826D01*
X14210Y119437D02*
X14210D01*
X15210Y119112D02*
Y122200D01*
X16210Y118787D02*
Y121875D01*
X17210Y118462D02*
Y121550D01*
X18210Y118137D02*
Y121225D01*
X19210Y117812D02*
Y120900D01*
X20210Y117487D02*
Y120575D01*
X21210Y117162D02*
Y120250D01*
X22210Y117991D02*
Y119925D01*
X47319Y29217D02*
X52053Y35734D01*
X47129Y39311*
X42395Y32795*
X47319Y29217*
X47319*
X45942Y30217D02*
X48045D01*
X44566Y31217D02*
X48772D01*
X43190Y32217D02*
X49498D01*
X42701Y33217D02*
X50225D01*
X43428Y34217D02*
X50951D01*
X44155Y35217D02*
X51678D01*
X44881Y36217D02*
X51388D01*
X45608Y37217D02*
X50012D01*
X46334Y38217D02*
X48635D01*
X47061Y39217D02*
X47259D01*
X42395Y32795D02*
X42395D01*
X43395Y32068D02*
Y34171D01*
X44395Y31342D02*
Y35547D01*
X45395Y30615D02*
Y36924D01*
X46395Y29889D02*
Y38300D01*
X47395Y29321D02*
Y39119D01*
X48395Y30698D02*
Y38392D01*
X49395Y32074D02*
Y37666D01*
X50395Y33451D02*
Y36939D01*
X51395Y34827D02*
Y36213D01*
X53689Y24589D02*
X58424Y31106D01*
X56048Y32832*
X51313Y26315*
X53689Y24589*
X53689*
X52313Y25589D02*
X54416D01*
X51512Y26589D02*
X55142D01*
X52238Y27589D02*
X55869D01*
X52965Y28589D02*
X56595D01*
X53691Y29589D02*
X57322D01*
X54418Y30589D02*
X58048D01*
X55144Y31589D02*
X57758D01*
X55871Y32589D02*
X56382D01*
X51313Y26315D02*
X51313D01*
X52313Y25589D02*
Y27692D01*
X53313Y24862D02*
Y29068D01*
X54313Y25448D02*
Y30444D01*
X55313Y26824D02*
Y31821D01*
X56313Y28200D02*
Y32639D01*
X57313Y29577D02*
Y31913D01*
X58313Y30953D02*
Y31186D01*
X150996Y169302D02*
X146309Y162751D01*
X151259Y159210*
X155946Y165761*
X150996Y169302*
X150154Y160000D02*
X151824D01*
X148756Y161000D02*
X152540D01*
X147358Y162000D02*
X153255D01*
X146487Y163000D02*
X153971D01*
X147202Y164000D02*
X154686D01*
X147917Y165000D02*
X155401D01*
X148633Y166000D02*
X155611D01*
X149348Y167000D02*
X154213D01*
X150064Y168000D02*
X152816D01*
X150779Y169000D02*
X151418D01*
X147000Y162256D02*
Y163718D01*
X148000Y161541D02*
Y165115D01*
X149000Y160826D02*
Y166513D01*
X150000Y160110D02*
Y167911D01*
X151000Y159395D02*
Y169299D01*
X152000Y160246D02*
Y168584D01*
X153000Y161643D02*
Y167868D01*
X154000Y163041D02*
Y167153D01*
X155000Y164439D02*
Y166437D01*
X144592Y173884D02*
X139905Y167333D01*
X142293Y165624*
X146980Y172175*
X144592Y173884*
X141768Y166000D02*
X142562D01*
X140370Y167000D02*
X143278D01*
X140382Y168000D02*
X143993D01*
X141098Y169000D02*
X144709D01*
X141813Y170000D02*
X145424D01*
X142528Y171000D02*
X146140D01*
X143244Y172000D02*
X146855D01*
X143959Y173000D02*
X145827D01*
X140000Y167265D02*
Y167466D01*
X141000Y166549D02*
Y168864D01*
X142000Y165834D02*
Y170261D01*
X143000Y166612D02*
Y171659D01*
X144000Y168009D02*
Y173057D01*
X145000Y169407D02*
Y173592D01*
X146000Y170805D02*
Y172876D01*
X174277Y124492D02*
X181938Y126981D01*
X180057Y132770*
X172396Y130280*
X174277Y124492*
X174112Y125000D02*
X175841D01*
X173787Y126000D02*
X178919D01*
X173462Y127000D02*
X181931D01*
X173137Y128000D02*
X181607D01*
X172812Y129000D02*
X181282D01*
X172487Y130000D02*
X180957D01*
X174611Y131000D02*
X180632D01*
X177688Y132000D02*
X180307D01*
X173000Y128421D02*
Y130477D01*
X174000Y125344D02*
Y130802D01*
X175000Y124727D02*
Y131126D01*
X176000Y125052D02*
Y131451D01*
X177000Y125376D02*
Y131776D01*
X178000Y125701D02*
Y132101D01*
X179000Y126026D02*
Y132426D01*
X180000Y126351D02*
Y132751D01*
X181000Y126676D02*
Y129867D01*
X176710Y117003D02*
X184371Y119492D01*
X183463Y122285*
X175802Y119796*
X176710Y117003*
X176386Y118000D02*
X179778D01*
X176061Y119000D02*
X182856D01*
X176429Y120000D02*
X184206D01*
X179507Y121000D02*
X183881D01*
X182585Y122000D02*
X183556D01*
X176000Y119188D02*
Y119860D01*
X177000Y117097D02*
Y120185D01*
X178000Y117422D02*
Y120510D01*
X179000Y117747D02*
Y120835D01*
X180000Y118072D02*
Y121160D01*
X181000Y118397D02*
Y121485D01*
X182000Y118722D02*
Y121810D01*
X183000Y119047D02*
Y122135D01*
X184000Y119372D02*
Y120634D01*
X48876Y170339D02*
X53610Y163822D01*
X58535Y167400*
X53800Y173916*
X48876Y170339*
X53481Y164000D02*
X53855D01*
X52754Y165000D02*
X55232D01*
X52028Y166000D02*
X56608D01*
X51301Y167000D02*
X57985D01*
X50575Y168000D02*
X58098D01*
X49848Y169000D02*
X57372D01*
X49122Y170000D02*
X56645D01*
X49786Y171000D02*
X55919D01*
X51162Y172000D02*
X55192D01*
X52539Y173000D02*
X54466D01*
X48876Y170339D02*
X48876D01*
X49876Y168962D02*
Y171065D01*
X50876Y167586D02*
Y171792D01*
X51876Y166210D02*
Y172518D01*
X52876Y164833D02*
Y173245D01*
X53876Y164015D02*
Y173812D01*
X54876Y164741D02*
Y172436D01*
X55876Y165468D02*
Y171059D01*
X56876Y166194D02*
Y169683D01*
X57876Y166921D02*
Y168306D01*
X42505Y165710D02*
X47240Y159194D01*
X49616Y160920*
X44882Y167437*
X42505Y165710*
X46654Y160000D02*
X48350D01*
X45928Y161000D02*
X49558D01*
X45201Y162000D02*
X48832D01*
X44475Y163000D02*
X48105D01*
X43748Y164000D02*
X47379D01*
X43022Y165000D02*
X46652D01*
X42904Y166000D02*
X45925D01*
X44280Y167000D02*
X45199D01*
X42505Y165710D02*
X42505D01*
X43505Y164334D02*
Y166437D01*
X44505Y162958D02*
Y167164D01*
X45505Y161581D02*
Y166578D01*
X46505Y160205D02*
Y165202D01*
X47505Y159386D02*
Y163825D01*
X48505Y160113D02*
Y162449D01*
X49505Y160840D02*
Y161072D01*
X16091Y73141D02*
X23752Y75630D01*
X21871Y81419*
X14210Y78930*
X16091Y73141*
X16091*
X15766Y74141D02*
X19169D01*
X15441Y75141D02*
X22247D01*
X15117Y76141D02*
X23586D01*
X14792Y77141D02*
X23261D01*
X14467Y78141D02*
X22936D01*
X14861Y79141D02*
X22611D01*
X17938Y80141D02*
X22287D01*
X21016Y81141D02*
X21962D01*
X14210Y78930D02*
X14210D01*
X15210Y75852D02*
Y79255D01*
X16210Y73180D02*
Y79580D01*
X17210Y73505D02*
Y79904D01*
X18210Y73830D02*
Y80229D01*
X19210Y74154D02*
Y80554D01*
X20210Y74479D02*
Y80879D01*
X21210Y74804D02*
Y81204D01*
X22210Y75129D02*
Y80375D01*
X23210Y75454D02*
Y77297D01*
X18525Y65652D02*
X26185Y68142D01*
X25278Y70935*
X17617Y68446*
X18525Y65652*
X18525*
X18200Y66652D02*
X21602D01*
X17875Y67652D02*
X24680D01*
X18253Y68652D02*
X26019D01*
X21331Y69652D02*
X25694D01*
X24409Y70652D02*
X25370D01*
X17617Y68446D02*
X17617D01*
X18617Y65682D02*
Y68771D01*
X19617Y66007D02*
Y69095D01*
X20617Y66332D02*
Y69420D01*
X21617Y66657D02*
Y69745D01*
X22617Y66982D02*
Y70070D01*
X23617Y67307D02*
Y70395D01*
X24617Y67632D02*
Y70720D01*
X25617Y67957D02*
Y69891D01*
X104690Y64935D02*
X94892Y69504D01*
X91820Y62917*
X101618Y58348*
X104690Y64935*
X101618Y58348D02*
X101618D01*
X99474Y59348D02*
X102085D01*
X97329Y60348D02*
X102551D01*
X95185Y61348D02*
X103017D01*
X93040Y62348D02*
X103484D01*
X92021Y63348D02*
X103950D01*
X92488Y64348D02*
X104416D01*
X92954Y65348D02*
X103804D01*
X93420Y66348D02*
X101659D01*
X93887Y67348D02*
X99515D01*
X94353Y68348D02*
X97370D01*
X94819Y69348D02*
X95226D01*
X91820Y62917D02*
X91820D01*
X92820Y62451D02*
Y65062D01*
X93820Y61985D02*
Y67206D01*
X94820Y61518D02*
Y69351D01*
X95820Y61052D02*
Y69071D01*
X96820Y60586D02*
Y68605D01*
X97820Y60119D02*
Y68139D01*
X98820Y59653D02*
Y67672D01*
X99820Y59187D02*
Y67206D01*
X100820Y58721D02*
Y66740D01*
X101820Y58781D02*
Y66273D01*
X102820Y60926D02*
Y65807D01*
X103820Y63070D02*
Y65341D01*
X85807Y24440D02*
X76009Y29009D01*
X72937Y22423*
X82735Y17854*
X85807Y24440*
X82735Y17854D02*
X82735D01*
X80591Y18854D02*
X83202D01*
X78446Y19854D02*
X83668D01*
X76302Y20854D02*
X84134D01*
X74157Y21854D02*
X84601D01*
X73138Y22854D02*
X85067D01*
X73605Y23854D02*
X85533D01*
X74071Y24854D02*
X84921D01*
X74537Y25854D02*
X82776D01*
X75004Y26854D02*
X80632D01*
X75470Y27854D02*
X78487D01*
X75936Y28854D02*
X76343D01*
X72937Y22423D02*
X72937D01*
X73937Y21956D02*
Y24567D01*
X74937Y21490D02*
Y26712D01*
X75937Y21024D02*
Y28856D01*
X76937Y20557D02*
Y28576D01*
X77937Y20091D02*
Y28110D01*
X78937Y19625D02*
Y27644D01*
X79937Y19158D02*
Y27177D01*
X80937Y18692D02*
Y26711D01*
X81937Y18226D02*
Y26245D01*
X82937Y18287D02*
Y25779D01*
X83937Y20431D02*
Y25312D01*
X84937Y22576D02*
Y24846D01*
X96818Y27560D02*
X92015Y29799D01*
X91107Y27851*
X95910Y25611*
X95910D02*
X96818Y27560D01*
X95910Y25611D02*
X95910D01*
X93765Y26611D02*
X96376D01*
X91620Y27611D02*
X96707D01*
X91461Y28611D02*
X94562D01*
X91928Y29611D02*
X92418D01*
X91107Y27851D02*
X91107D01*
X92107Y27385D02*
Y29756D01*
X93107Y26918D02*
Y29290D01*
X94107Y26452D02*
Y28824D01*
X95107Y25986D02*
Y28358D01*
X96107Y26034D02*
Y27891D01*
X98898Y32020D02*
X94095Y34259D01*
X93187Y32311*
X97989Y30071*
X98898Y32020*
X97989Y30071D02*
X97989D01*
X95845Y31071D02*
X98456D01*
X93700Y32071D02*
X98787D01*
X93541Y33071D02*
X96642D01*
X94008Y34071D02*
X94498D01*
X93187Y32311D02*
X93187D01*
X94187Y31845D02*
Y34216D01*
X95187Y31378D02*
Y33750D01*
X96187Y30912D02*
Y33284D01*
X97187Y30446D02*
Y32818D01*
X98187Y30494D02*
Y32351D01*
X100978Y36480D02*
X96175Y38719D01*
X95266Y36771*
X100069Y34532*
X100978Y36480*
X100069Y34532D02*
X100069D01*
X97925Y35532D02*
X100535D01*
X95780Y36532D02*
X100867D01*
X95621Y37532D02*
X98722D01*
X96087Y38532D02*
X96578D01*
X95266Y36771D02*
X95266D01*
X96266Y36305D02*
Y38677D01*
X97266Y35839D02*
Y38210D01*
X98266Y35372D02*
Y37744D01*
X99266Y34906D02*
Y37278D01*
X100266Y34955D02*
Y36811D01*
X103057Y40940D02*
X98255Y43179D01*
X97346Y41231*
X102149Y38992*
X103057Y40940*
X102149Y38992D02*
X102149D01*
X100004Y39992D02*
X102615D01*
X97860Y40992D02*
X102946D01*
X97701Y41992D02*
X100802D01*
X98167Y42992D02*
X98657D01*
X97346Y41231D02*
X97346D01*
X98346Y40765D02*
Y43137D01*
X99346Y40299D02*
Y42670D01*
X100346Y39832D02*
Y42204D01*
X101346Y39366D02*
Y41738D01*
X102346Y39415D02*
Y41272D01*
X105137Y45400D02*
X100334Y47640D01*
X99426Y45691*
X104229Y43452*
X105137Y45400*
X104229Y43452D02*
X104229D01*
X102084Y44452D02*
X104695D01*
X99940Y45452D02*
X105026D01*
X99781Y46452D02*
X102882D01*
X100247Y47452D02*
X100737D01*
X99426Y45691D02*
X99426D01*
X100426Y45225D02*
Y47597D01*
X101426Y44759D02*
Y47131D01*
X102426Y44292D02*
Y46664D01*
X103426Y43826D02*
Y46198D01*
X104426Y43875D02*
Y45732D01*
X107217Y49860D02*
X102414Y52100D01*
X101506Y50152*
X106308Y47912*
X107217Y49860*
X106308Y47912D02*
X106308D01*
X104164Y48912D02*
X106775D01*
X102019Y49912D02*
X107106D01*
X101860Y50912D02*
X104961D01*
X102327Y51912D02*
X102817D01*
X102000Y49921D02*
Y51212D01*
X103000Y49455D02*
Y51827D01*
X104000Y48989D02*
Y51360D01*
X105000Y48522D02*
Y50894D01*
X106000Y48056D02*
Y50428D01*
X107000Y49395D02*
Y49961D01*
X81790Y153587D02*
X71375Y148050D01*
X72754Y145457*
X83169Y150994*
X81790Y153587*
X72465Y146000D02*
X73776D01*
X71934Y147000D02*
X75657D01*
X71402Y148000D02*
X77538D01*
X73163Y149000D02*
X79419D01*
X75043Y150000D02*
X81299D01*
X76924Y151000D02*
X83166D01*
X78805Y152000D02*
X82634D01*
X80685Y153000D02*
X82102D01*
X71375Y148050D02*
X71375D01*
X72375Y146169D02*
Y148581D01*
X73375Y145787D02*
Y149113D01*
X74375Y146318D02*
Y149645D01*
X75375Y146850D02*
Y150177D01*
X76375Y147382D02*
Y150708D01*
X77375Y147914D02*
Y151240D01*
X78375Y148445D02*
Y151772D01*
X79375Y148977D02*
Y152303D01*
X80375Y149509D02*
Y152835D01*
X81375Y150040D02*
Y153367D01*
X82375Y150572D02*
Y152486D01*
X79018Y158801D02*
X68603Y153264D01*
X69982Y150670*
X80397Y156208*
X79018Y158801*
X69807Y151000D02*
X70602D01*
X69275Y152000D02*
X72483D01*
X68743Y153000D02*
X74364D01*
X69988Y154000D02*
X76244D01*
X71869Y155000D02*
X78125D01*
X73750Y156000D02*
X80006D01*
X75631Y157000D02*
X79976D01*
X77511Y158000D02*
X79444D01*
X68603Y153264D02*
X68603D01*
X69603Y151383D02*
Y153795D01*
X70603Y151001D02*
Y154327D01*
X71603Y151532D02*
Y154859D01*
X72603Y152064D02*
Y155390D01*
X73603Y152596D02*
Y155922D01*
X74603Y153127D02*
Y156454D01*
X75603Y153659D02*
Y156986D01*
X76603Y154191D02*
Y157517D01*
X77603Y154723D02*
Y158049D01*
X78603Y155254D02*
Y158581D01*
X79603Y155786D02*
Y157700D01*
X70802Y138827D02*
X63690Y135046D01*
X65993Y130715*
X73105Y134496*
X70802Y138827*
X65841Y131000D02*
X66530D01*
X65310Y132000D02*
X68411D01*
X64778Y133000D02*
X70291D01*
X64246Y134000D02*
X72172D01*
X63714Y135000D02*
X72837D01*
X65485Y136000D02*
X72306D01*
X67365Y137000D02*
X71774D01*
X69246Y138000D02*
X71242D01*
X63690Y135046D02*
X63690D01*
X64690Y133165D02*
Y135578D01*
X65690Y131284D02*
Y136109D01*
X66690Y131085D02*
Y136641D01*
X67690Y131617D02*
Y137173D01*
X68690Y132149D02*
Y137704D01*
X69690Y132680D02*
Y138236D01*
X70690Y133212D02*
Y138768D01*
X71690Y133744D02*
Y137158D01*
X72690Y134275D02*
Y135277D01*
X59712Y159683D02*
X52600Y155902D01*
X54903Y151570*
X62015Y155352*
X59712Y159683*
X54674Y152000D02*
X55711D01*
X54142Y153000D02*
X57592D01*
X53611Y154000D02*
X59472D01*
X53079Y155000D02*
X61353D01*
X52785Y156000D02*
X61670D01*
X54666Y157000D02*
X61139D01*
X56546Y158000D02*
X60607D01*
X58427Y159000D02*
X60075D01*
X52600Y155902D02*
X52600D01*
X53600Y154021D02*
Y156433D01*
X54600Y152140D02*
Y156965D01*
X55600Y151941D02*
Y157497D01*
X56600Y152473D02*
Y158028D01*
X57600Y153004D02*
Y158560D01*
X58600Y153536D02*
Y159092D01*
X59600Y154068D02*
Y159624D01*
X60600Y154599D02*
Y158014D01*
X61600Y155131D02*
Y156133D01*
G54D12*
X44820Y96045D03*
G54D13*
X41032Y88045D03*
X48532D03*
G54D14*
X48819Y103937D03*
X37008D03*
G54D15*
X44291Y111811D03*
X38291D03*
G54D16*
X136508Y147846D03*
Y153846D03*
X108949Y164499D03*
Y170499D03*
X124303Y164499D03*
Y170499D03*
X148319Y138988D03*
Y132988D03*
X130602Y153751D03*
Y147751D03*
G54D17*
X119185Y170696D03*
Y164499D03*
X114185Y170696D03*
Y164499D03*
G54D18*
X164854Y103555D03*
X157374D03*
Y95681D03*
X164854D03*
X157374Y87807D03*
X164854D03*
Y111429D03*
X157374D03*
G54D22*
X124185Y158673D03*
G54D23*
X119185D03*
X114185D03*
X109185D03*
X104185D03*
X99185D03*
X94185D03*
X89185D03*
Y136173D03*
X94185D03*
X99185D03*
X104185D03*
X109185D03*
X114185D03*
X119185D03*
X124185D03*
G54D24*
X141242Y140919D03*
X133742D03*
G54D25*
X137492Y132919D03*
G54D26*
X125299Y61614D03*
X131496D03*
X131512Y66929D03*
X125315D03*
X47823Y76389D03*
X41626D03*
X41532Y82137D03*
X47728D03*
G54D27*
X149303Y111429D03*
Y123240D03*
G54D33*
X10915Y118824D02*
X25269Y114160D01*
Y84274*
X10915Y79611*
X10912Y79625D02*
G75*
G03Y118810I88376J19592D01*
G01X31571Y122839D02*
G03X31571I-3149J0D01*
G01Y75595D02*
G03X31571I-3149J0D01*
G01X167398Y148824D02*
G03X167398I-3937J0D01*
G01X134474Y24617D02*
G03X134474I-3347J0D01*
G54D58*
G01X103117Y182423D03*
X103268Y16142D03*
G54D59*
X93668Y182423D03*
X93819Y16142D03*
G74*
X0Y0D02*
M02*
