*
*
G04 PADS VX.2 Build Number: 5060570 generated Gerber (RS-274-X) file*
G04 PC Version=2.1*
*
%IN "Untitled"*%
*
%MOIN*%
*
%FSLAX35Y35*%
*
*
*
*
G04 PC Standard Apertures*
*
*
G04 Thermal Relief Aperture macro.*
%AMTER*
1,1,$1,0,0*
1,0,$1-$2,0,0*
21,0,$3,$4,0,0,45*
21,0,$3,$4,0,0,135*
%
*
*
G04 Annular Aperture macro.*
%AMANN*
1,1,$1,0,0*
1,0,$2,0,0*
%
*
*
G04 Odd Aperture macro.*
%AMODD*
1,1,$1,0,0*
1,0,$1-0.005,0,0*
%
*
*
G04 PC Custom Aperture Macros*
*
*
*
*
*
*
G04 PC Aperture Table*
*
%ADD010C,0.001*%
%ADD011C,0.01*%
%ADD033C,0.005*%
%ADD035C,0.00394*%
%ADD052C,0.00394*%
%ADD053C,0.00787*%
%ADD054C,0.00591*%
%ADD055C,0.00591*%
*
*
*
*
G04 PC Circuitry*
G04 Layer Name Untitled - circuitry*
%LPD*%
*
*
G04 PC Custom Flashes*
G04 Layer Name Untitled - flashes*
%LPD*%
*
*
G04 PC Circuitry*
G04 Layer Name Untitled - circuitry*
%LPD*%
*
G54D10*
G01X25269Y114160D02*
Y84274D01*
X10915Y79610D02*
X25269Y84274D01*
X10915Y118824D02*
X25269Y114160D01*
X10911Y79625D02*
G75*
G03Y118810I88377J19592D01*
G01X19110Y79042D02*
X22864Y80262D01*
G54D11*
X132463Y90659D02*
G03X132483I10J-716D01*
G01X76463Y89159D02*
G03X76483I10J-716D01*
G01X104963Y89659D02*
G03X104983I10J-716D01*
G01X93673Y98449D02*
X94173Y97449D01*
X92173Y90449*
X91173Y89949*
X90673Y90949*
X92673Y97949*
X93673Y98449*
X91173Y89949D02*
X92173Y90449D01*
Y88949D02*
X93673Y89949D01*
X99673*
X100173Y88949*
X98173Y87949*
X92673*
X92173Y88949*
X94173Y99949D02*
X95173Y100449D01*
X97173Y107449*
X96673Y108449*
X95673Y107949*
X93673Y100949*
X94173Y99949*
X95673Y107949D02*
X96673Y108449D01*
X97173Y107449*
X105673D02*
X106673Y107949D01*
X107173Y106949*
X105173Y99949*
X104173Y99449*
X103673Y100449*
X105673Y107449*
X106673Y107949*
X98173Y108949D02*
X99673Y109949D01*
X105673*
X106173Y108949*
X104173Y107949*
X98673*
X98173Y108949*
X95173Y98949D02*
X95673Y97949D01*
X101173*
X103173Y98949*
X102673Y99949*
X96673*
X95173Y98949*
X102673Y97449D02*
X103673Y97949D01*
X104173Y96949*
X102173Y89949*
X101173Y89449*
X100673Y90449*
X102673Y97449*
X67173Y107449D02*
X68173Y107949D01*
X68673Y106949*
X68173Y107949D02*
X68673Y106949D01*
X66673Y99949*
X65673Y99449*
X65173Y100449*
X67173Y107449*
X68173Y107949*
X78173Y107449D02*
X78673Y106449D01*
X76673Y99449*
X75673Y98949*
X75173Y99949*
X77173Y106949*
X78173Y107449*
X77173Y106949D02*
X78173Y107449D01*
X65173Y97949D02*
X65673Y96949D01*
X63673Y89949*
X62673Y89449*
X62173Y90449*
X64173Y97449*
X65173Y97949*
X75173Y97449D02*
X75673Y96449D01*
X73673Y89449*
X72673Y88949*
X72173Y89949*
X74173Y96949*
X75173Y97449*
X66673Y98449D02*
X68173Y99449D01*
X74173*
X74673Y98449*
X72673Y97449*
X67173*
X66673Y98449*
X69673Y108449D02*
X70173Y107449D01*
X75673*
X77673Y108449*
X77173Y109449*
X71173*
X69673Y108449*
X63673Y88449D02*
X64173Y87449D01*
X69673*
X71673Y88449*
X71173Y89449*
X65173*
X63673Y88449*
X62673Y89449D02*
X63673Y89949D01*
X123173Y108949D02*
X124173Y109449D01*
X124673Y108449*
X122673Y101449*
X121673Y100949*
X121173Y101949*
X123173Y108949*
X124173Y109449*
X124673Y108449*
X134173Y108949D02*
X134673Y107949D01*
X132673Y100949*
X131673Y100449*
X131173Y101449*
X133173Y108449*
X134173Y108949*
X133173Y108449D02*
X134173Y108949D01*
X121173Y99449D02*
X121673Y98449D01*
X119673Y91449*
X118673Y90949*
X118173Y91949*
X120173Y98949*
X121173Y99449*
X131173Y98949D02*
X131673Y97949D01*
X129673Y90949*
X128673Y90449*
X128173Y91449*
X130173Y98449*
X131173Y98949*
X122673Y99949D02*
X124173Y100949D01*
X130173*
X130673Y99949*
X128673Y98949*
X123173*
X122673Y99949*
X125673Y109949D02*
X126173Y108949D01*
X131673*
X133673Y109949*
X133173Y110949*
X127173*
X125673Y109949*
X119673Y89949D02*
X120173Y88949D01*
X125673*
X127673Y89949*
X127173Y90949*
X121173*
X119673Y89949*
X118673Y90949D02*
X119673Y91449D01*
X54488Y127323D02*
X143858D01*
Y119449*
Y79449*
Y71575*
X54488*
Y79449*
Y119449*
Y127323*
X128408Y157949D02*
G03X128408I-1000J0D01*
G01X76012Y30550D02*
X88564Y57467D01*
X102839Y57600D02*
X105092Y56550D01*
X103563Y53271*
X87213Y24119D02*
X89465Y23069D01*
X90994Y26348*
X140492Y133019D02*
X142992D01*
Y138019*
X134492Y133019D02*
X131992D01*
Y138019*
X137992Y142019D02*
X136992D01*
X52266Y153522D02*
X49246Y151917D01*
X60577Y130607*
X63597Y132212*
X73203Y137320D02*
X81432Y141696D01*
X78623Y146979*
X62156Y157996D02*
X70385Y162372D01*
X73190Y157096*
X75851Y152193D02*
X75920Y152063D01*
G54D33*
X117848Y37100D02*
G03X113467Y39508I-3395J-987D01*
G01X113465D02*
X108844Y31094D01*
X108843Y31095D02*
G03X113225Y28686I3396J986D01*
G01X113226Y28687D02*
X117848Y37101D01*
X36491Y114311D02*
G03Y109311I2500J-2500D01*
G01X46091*
G03Y114311I-2500J2500*
G01X36491*
X139008Y155646D02*
G03X134008I-2500J-2500D01*
G01Y146046*
G03X139008I2500J2500*
G01Y155646*
X111449Y172299D02*
G03X106449I-2500J-2500D01*
G01Y162699*
G03X111449I2500J2500*
G01Y172299*
X126803D02*
G03X121803I-2500J-2500D01*
G01Y162699*
G03X126803I2500J2500*
G01Y172299*
X145819Y131188D02*
G03X150819I2500J2500D01*
G01Y140788*
G03X145819I-2500J-2500*
G01Y131188*
X128102Y145952D02*
G03X133102I2500J2500D01*
G01Y155552*
G03X128102I-2500J-2500*
G01Y145952*
X10915Y118824D02*
X25269Y114160D01*
Y84274*
X10915Y79611*
X10912Y79625D02*
G03Y118810I88376J19592D01*
G01X31571Y122839D02*
G03X31571I-3149J0D01*
G01Y75595D02*
G03X31571I-3149J0D01*
G01X167398Y148824D02*
G03X167398I-3937J0D01*
G01X134474Y24617D02*
G03X134474I-3347J0D01*
G01X173304Y148824D02*
G03X173304I-9843J0D01*
G01X140970Y24617D02*
G03X140970I-9843J0D01*
G54D35*
G01X121543Y168775D02*
Y173208D01*
X116819*
Y168775*
X121543Y166377D02*
Y161988D01*
X116819*
Y166377*
X116543Y168775D02*
Y173208D01*
X111819*
Y168775*
X116543Y166377D02*
Y161988D01*
X111819*
Y166377*
X171223Y69220D02*
X175116Y81202D01*
X185600Y77796*
X181707Y65814*
X171223Y69220*
X179319Y76316D02*
X181037Y72925D01*
X175925Y74586*
X179319Y76316*
X139591Y32874D02*
X149801Y40255D01*
X156259Y31321*
X146049Y23941*
X139591Y32874*
X150314Y33830D02*
X149702Y30079D01*
X146553Y34435*
X150314Y33830*
X105479Y176912D02*
X92880D01*
Y187935*
X105479*
Y176912*
X96229Y182419D02*
X98923Y185101D01*
Y179725*
X96229Y182419*
X27387Y129118D02*
X23493Y117137D01*
X13009Y120543*
X16902Y132525*
X27387Y129118*
X19290Y122023D02*
X17572Y125414D01*
X22684Y123753*
X19290Y122023*
X48553Y40112D02*
X58745Y32707D01*
X52266Y23788*
X42073Y31194*
X48553Y40112*
X52799Y30219D02*
X49044Y29633D01*
X49044D02*
X52203Y33982D01*
X52799Y30219*
X149841Y158399D02*
X139595Y165729D01*
X146009Y174695*
X156255Y167364*
X149841Y158399*
X145523Y168260D02*
X149274Y168874D01*
X146146Y164502*
X145523Y168260*
X181679Y132580D02*
X185572Y120599D01*
X175088Y117192*
X171195Y129174*
X181679Y132580*
X179299Y122081D02*
X175917Y123814D01*
X181029Y125476*
X181029D02*
X179299Y122081D01*
X58856Y165798D02*
X48664Y158393D01*
X42184Y167312*
X52376Y174717*
X58856Y165798*
X48135Y164817D02*
X48738Y168570D01*
X51898Y164221*
X48135Y164817*
X23493Y81230D02*
X27387Y69248D01*
X16902Y65841*
X13009Y77823*
X23493Y81230*
X21114Y70730D02*
X17731Y72464D01*
X22843Y74125*
X21114Y70730*
X105630Y10630D02*
X93031D01*
Y21654*
X105630*
Y10630*
X96380Y16138D02*
X99074Y18819D01*
Y13444*
X96380Y16138*
X127220Y63972D02*
X122787D01*
Y59248*
X127221*
X129618Y63972D02*
X134008D01*
Y59248*
X129618*
X129591Y64571D02*
X134024D01*
Y69295*
X129590*
X127193Y64571D02*
X122803D01*
Y69295*
X127193*
X45902Y74031D02*
X50335D01*
Y78755*
X45901*
X43504Y74031D02*
X39114D01*
Y78755*
X43504*
X43453Y84496D02*
X39020Y84495D01*
Y79771*
X43453*
X45850Y84496D02*
X50240Y84495D01*
Y79771*
X45850*
G54D52*
X158554Y55077D02*
X160150Y57002D01*
X156302Y60194*
X154723Y50459D02*
X153127Y48535D01*
X149279Y51728*
X150031Y58899D02*
X149392Y58130D01*
X41784Y95945D02*
X39284D01*
Y90945*
X47784Y95945D02*
X50284D01*
Y90945*
X44284Y86945D02*
X45284D01*
G54D53*
X33421Y107484D02*
Y100484D01*
X39960Y107579D02*
X32240D01*
Y100484*
X39960*
X45866Y107484D02*
X52362Y107485D01*
Y100484*
X45866*
X152850Y126826D02*
X145850D01*
X152945Y120287D02*
Y128007D01*
X145850Y128008*
Y120287*
X152851Y114381D02*
Y107885D01*
X145851*
X145850Y114382*
G54D54*
X167807Y100208D02*
Y106901D01*
X154421*
Y100208*
X167807*
X154421Y99027D02*
Y92334D01*
X167807*
Y99027*
X154421*
Y91153D02*
Y84460D01*
X167807*
Y91153*
X154421*
X167807Y108082D02*
Y114775D01*
X154421*
Y108082*
X167807*
X107319Y36848D02*
X106931Y36908D01*
X106479Y36851*
X106187Y36705*
X105929Y36234*
X105961Y35910*
X106155Y35497*
X106414Y35202*
X106835Y34817*
X107643Y34373*
X108193Y34224*
X108581Y34163*
X109034Y34221*
X109325Y34367*
X109584Y34838*
X109551Y35162*
X109357Y35575*
X109098Y35870*
X108354Y39496D02*
X107966Y39556D01*
X107610Y39292*
X107481Y39057*
X107448Y38615*
X107804Y38113*
X108548Y37551*
X109357Y37107*
X110068Y36868*
X110521Y36926*
X110877Y37190*
X110941Y37307*
X110974Y37749*
X110780Y38162*
X110359Y38547*
X110197Y38635*
X109648Y38785*
X109195Y38727*
X108839Y38463*
X108774Y38346*
X108742Y37904*
X108936Y37491*
X109357Y37107*
X137284Y55368D02*
Y51492D01*
Y55368D02*
X138358Y51492D01*
X139432Y55368D02*
X138358Y51492D01*
X139432Y55368D02*
Y51492D01*
X140774Y54445D02*
Y54629D01*
X140908Y54999*
X141042Y55183*
X141311Y55368*
X141847*
X142116Y55183*
X142250Y54999*
X142384Y54629*
Y54260*
X142250Y53891*
X141982Y53338*
X140640Y51492*
X140640D02*
X142519D01*
X33228Y92616D02*
Y88740D01*
Y92616D02*
X34302Y88740D01*
X35376Y92616D02*
X34302Y88740D01*
X35376Y92616D02*
Y88740D01*
X36584Y91877D02*
X36852Y92062D01*
X37255Y92616*
Y88740*
X28701Y99269D02*
Y95394D01*
Y99269D02*
X29640D01*
X30043Y99085*
X30311Y98716*
X30446Y98346*
X30580Y97793*
Y96870*
X30446Y96316*
X30311Y95947*
X30043Y95578*
X29640Y95394*
X28701*
X31788Y98531D02*
X32056Y98716D01*
X32459Y99269*
Y95394*
X30714Y112835D02*
X30580Y113204D01*
X30311Y113573*
X30043Y113757*
X29506*
X29238Y113573*
X28969Y113204*
X28835Y112835*
X28701Y112281*
Y111358*
X28835Y110805*
X28969Y110436*
X29238Y110066*
X29506Y109882*
X30043*
X30311Y110066*
X30580Y110436*
X30714Y110805*
X33667Y113757D02*
X32325D01*
X32190Y112096*
X32325Y112281*
X32727Y112466*
X33130*
X33533Y112281*
X33801Y111912*
X33935Y111358*
X33801Y110989*
X33667Y110436*
X33398Y110066*
X32996Y109882*
X32593*
X32190Y110066*
X32056Y110251*
X31922Y110620*
X143352Y154882D02*
X143218Y155251D01*
X142949Y155620*
X142681Y155805*
X142144*
X141875Y155620*
X141607Y155251*
X141473Y154882*
X141339Y154328*
Y153406*
X141473Y152852*
X141607Y152483*
X141875Y152114*
X142144Y151929*
X142681*
X142949Y152114*
X143218Y152483*
X143352Y152852*
X145902Y155805D02*
X144560Y153221D01*
X146573*
X145902Y155805D02*
Y151929D01*
X111575Y177239D02*
X111944Y177373D01*
X112313Y177641*
X112498Y177910*
Y178447*
X112313Y178715*
X111944Y178984*
X111575Y179118*
X111021Y179252*
X110098*
X109545Y179118*
X109176Y178984*
X108807Y178715*
X108622Y178447*
Y177910*
X108807Y177641*
X109176Y177373*
X109545Y177239*
X111575Y175897D02*
X111759D01*
X112128Y175762*
X112313Y175628*
X112498Y175360*
Y174823*
X112313Y174554*
X112128Y174420*
X111759Y174286*
X111390*
X111021Y174420*
X110468Y174689*
X108622Y176031*
Y174152*
X127520Y177317D02*
X127889Y177452D01*
X128258Y177720*
X128442Y177989*
Y178525*
X128258Y178794*
X127889Y179062*
X127520Y179196*
X126966Y179331*
X126043*
X125490Y179196*
X125121Y179062*
X124751Y178794*
X124567Y178525*
Y177989*
X124751Y177720*
X125121Y177452*
X125490Y177317*
X127704Y176110D02*
X127889Y175841D01*
X128442Y175438*
X124567*
X123009Y179331D02*
X119134D01*
X123009D02*
Y178123D01*
X122825Y177720*
X122640Y177586*
X122271Y177452*
X121902*
X121533Y177586*
X121348Y177720*
X121164Y178123*
Y179331*
Y178391D02*
X119134Y177452D01*
X122271Y176244D02*
X122456Y175975D01*
X123009Y175573*
X119134*
X117694Y179213D02*
X113819D01*
X117694D02*
Y178005D01*
X117510Y177602*
X117325Y177468*
X116956Y177334*
X116587*
X116218Y177468*
X116033Y177602*
X115849Y178005*
Y179213*
Y178273D02*
X113819Y177334D01*
X116772Y175991D02*
X116956D01*
X117325Y175857*
X117510Y175723*
X117694Y175455*
Y174918*
X117510Y174649*
X117325Y174515*
X116956Y174381*
X116587*
X116218Y174515*
X115664Y174783*
X113819Y176126*
Y174247*
X169528Y106356D02*
Y102480D01*
Y106356D02*
X170736D01*
X171138Y106171*
X171272Y105987*
X171407Y105618*
Y105249*
X171272Y104879*
X171138Y104695*
X170736Y104510*
X169528*
X170467D02*
X171407Y102480D01*
X172615Y105618D02*
X172883Y105802D01*
X173286Y106356*
Y102480*
X175836Y106356D02*
X174494Y103772D01*
X176507*
X175836Y106356D02*
Y102480D01*
X146260Y97104D02*
Y93228D01*
Y97104D02*
X147468D01*
X147870Y96919*
X148005Y96735*
X148139Y96366*
Y95997*
X148005Y95627*
X147870Y95443*
X147468Y95258*
X146260*
X147199D02*
X148139Y93228D01*
X149347Y96366D02*
X149615Y96550D01*
X150018Y97104*
Y93228*
X153105Y97104D02*
X151763Y93228D01*
X151226Y97104D02*
X153105D01*
X146220Y89348D02*
Y85472D01*
Y89348D02*
X147428D01*
X147831Y89163*
X147965Y88979*
X148099Y88610*
X148099D02*
Y88241D01*
X148099D02*
X147965Y87872D01*
X147831Y87687*
X147428Y87502*
X146220*
X147160D02*
X148099Y85472D01*
X149307Y88610D02*
X149576Y88794D01*
X149979Y89348*
Y85472*
X151858Y89348D02*
X151455Y89163D01*
X151321Y88794*
Y88425*
X151455Y88056*
X151723Y87872*
X152260Y87687*
X152663Y87502*
X152931Y87133*
X153065Y86764*
X153065D02*
Y86211D01*
X153065D02*
X152931Y85842D01*
X152797Y85657*
X152394Y85472*
X151858*
X151455Y85657*
X151321Y85842*
X151186Y86211*
Y86764*
X151321Y87133*
X151589Y87502*
X151992Y87687*
X152529Y87872*
X152797Y88056*
X152931Y88425*
Y88794*
X152797Y89163*
X152394Y89348*
X151858*
X60923Y124982D02*
X60738Y125385D01*
X60185Y125653*
X59262Y125787*
X58708*
X57785Y125653*
X57232Y125385*
X57047Y124982*
Y124714*
X57232Y124311*
X57785Y124043*
X58708Y123908*
X59262*
X60185Y124043*
X60738Y124311*
X60923Y124714*
Y124982*
X56309Y122700D02*
Y119882D01*
X60923Y118808D02*
Y117332D01*
X59446Y118137*
Y117734*
X59262Y117466*
X59077Y117332*
X58524Y117198*
X58155*
X57601Y117332*
X57232Y117600*
X57047Y118003*
Y118406*
X57232Y118808*
X57416Y118942*
X57785Y119077*
X60369Y114379D02*
X60738Y114513D01*
X60923Y114916*
Y115184*
X60738Y115587*
X60185Y115855*
X59262Y115990*
X58339*
X57601Y115855*
X57232Y115587*
X57047Y115184*
Y115050*
X57232Y114647*
X57601Y114379*
X58155Y114245*
X58339*
X58893Y114379*
X59262Y114647*
X59446Y115050*
Y115184*
X59262Y115587*
X58893Y115855*
X58339Y115990*
X60923Y113037D02*
X59077Y111963D01*
X57047*
X60923Y110889D02*
X59077Y111963D01*
X60923Y109681D02*
X57047Y107802D01*
X60923D02*
X57047Y109681D01*
X60923Y106326D02*
Y104850D01*
X59446Y105655*
Y105252*
X59262Y104984*
X59077Y104850*
X58524Y104715*
X58155*
X57601Y104850*
X57232Y105118*
X57047Y105521*
Y105923*
X57232Y106326*
X57416Y106460*
X57785Y106594*
X167888Y66808D02*
X166691Y63123D01*
X168222Y62625*
X170569Y65937D02*
X169371Y62252D01*
X170569Y65937D02*
X172228Y65398D01*
X169999Y64182D02*
X171020Y63850D01*
X169371Y62252D02*
X171031Y61712D01*
X173377Y65025D02*
X172179Y61339D01*
X173377Y65025D02*
X174271Y64735D01*
X174596Y64435*
X174738Y64001*
X174751Y63608*
X174708Y63040*
X174423Y62163*
X174124Y61677*
X173882Y61368*
X173513Y61100*
X173073Y61049*
X172179Y61339*
X176085Y63369D02*
X176397Y63461D01*
X176951Y63864*
X175754Y60178*
X178866Y63241D02*
X178426Y63190D01*
X178000Y62747*
X178000D02*
X177587Y61911D01*
X177416Y61384*
X177258Y60465*
X177342Y59856*
X177668Y59556*
X177924Y59473*
X178364Y59524*
X178790Y59967*
X179203Y60803*
X179374Y61330*
X179531Y62249*
X179447Y62859*
X179121Y63159*
X178866Y63241*
X158173Y33725D02*
X161317Y35992D01*
X160375Y37299*
X156525Y36011D02*
X159668Y38278D01*
X156525Y36011D02*
X155504Y37427D01*
X158022Y37091D02*
X157393Y37962D01*
X159668Y38278D02*
X158647Y39694D01*
X154797Y38406D02*
X157941Y40673D01*
X154797Y38406D02*
X154248Y39168D01*
X154162Y39603*
X154304Y40036*
X154525Y40361*
X154896Y40794*
X155644Y41334*
X156172Y41549*
X156550Y41656*
X157006Y41654*
X157391Y41435*
X157941Y40673*
X152207Y41999D02*
X155087Y42421D01*
X153910Y44054*
X152207Y41999D02*
X155350Y44266D01*
X89613Y187013D02*
X85738D01*
Y185403*
X89613Y184195D02*
X85738D01*
X89613D02*
Y182450D01*
X87768Y184195D02*
Y183121D01*
X85738Y184195D02*
Y182450D01*
X89613Y181242D02*
X85738D01*
X89613D02*
Y180302D01*
X89429Y179900*
X89060Y179631*
X88691Y179497*
X88137Y179363*
X87214*
X86661Y179497*
X86291Y179631*
X85922Y179900*
X85738Y180302*
Y181242*
X88875Y178155D02*
X89060Y177886D01*
X89613Y177484*
X85738*
X29069Y132423D02*
X30266Y136109D01*
X28734Y136607*
X26388Y133294D02*
X27586Y136980D01*
X26388Y133294D02*
X24729Y133833D01*
X26958Y135049D02*
X25937Y135381D01*
X27586Y136980D02*
X25926Y137519D01*
X23580Y134207D02*
X24777Y137893D01*
X23580Y134207D02*
X22686Y134497D01*
X22360Y134797*
X22219Y135231*
X22206Y135623*
X22249Y136191*
X22534Y137069*
X22833Y137554*
X23075Y137864*
X23444Y138132*
X23884Y138183*
X24777Y137893*
X20801Y136080D02*
X20744Y135904D01*
X20503Y135595*
X20318Y135461*
X20006Y135368*
X19495Y135534*
X19297Y135792*
X19226Y136009*
X19213Y136402*
X19327Y136753*
X19568Y137062*
X19995Y137506*
X21842Y138846*
X20054Y139427*
X64777Y29264D02*
X61642Y31541D01*
X60695Y30238*
X63120Y26983D02*
X59985Y29261D01*
X63120Y26983D02*
X62095Y25572D01*
X61627Y28068D02*
X60996Y27199D01*
X59985Y29261D02*
X58960Y27850D01*
X61385Y24594D02*
X58250Y26872D01*
X61385Y24594D02*
X60833Y23834D01*
X60447Y23617*
X59990*
X59613Y23725*
X59086Y23942*
X58340Y24484*
X57970Y24918*
X57751Y25244*
X57610Y25678*
X57697Y26112*
X58250Y26872*
X59413Y21880D02*
X58545Y20685D01*
X57824Y22205*
X57587Y21879*
X57280Y21770*
X57052*
X56525Y21987*
X56226Y22204*
X55857Y22638*
X55717Y23072*
X55804Y23506*
X56041Y23832*
X56427Y24049*
X56655*
X57032Y23941*
X133694Y169317D02*
X136845Y167061D01*
X137783Y168371*
X135335Y171609D02*
X138486Y169353D01*
X135335Y171609D02*
X136351Y173028D01*
X136835Y170535D02*
X137460Y171408D01*
X138486Y169353D02*
X139502Y170772D01*
X137054Y174010D02*
X140205Y171754D01*
X137054Y174010D02*
X137601Y174774D01*
X137985Y174994*
X138441Y174997*
X138820Y174891*
X139348Y174678*
X140098Y174141*
X140470Y173710*
X140692Y173386*
X140836Y172953*
X140752Y172518*
X140205Y171754*
X140917Y177187D02*
X141289Y176755D01*
X141433Y176322*
X141348Y175887*
X141270Y175778*
X140886Y175558*
X140429Y175555*
X139901Y175768*
X139751Y175875*
X139379Y176307*
X139235Y176740*
X139320Y177175*
X139398Y177284*
X139782Y177504*
X140238Y177507*
X140917Y177187*
X141667Y176649*
X142339Y176003*
X142633Y175463*
X142549Y175028*
X142393Y174810*
X142008Y174590*
X141630Y174695*
X168766Y135083D02*
X169964Y131397D01*
X171495Y131895*
X171447Y135954D02*
X172644Y132268D01*
X171447Y135954D02*
X173106Y136493D01*
X172017Y134199D02*
X173038Y134531D01*
X172644Y132268D02*
X174304Y132808D01*
X174255Y136867D02*
X175452Y133181D01*
X174255Y136867D02*
X175148Y137157D01*
X175588Y137106*
X175958Y136838*
X176199Y136528*
X176498Y136043*
X176783Y135166*
X176827Y134598*
X176813Y134205*
X176672Y133771*
X176346Y133471*
X175452Y133181*
X178850Y138360D02*
X177574Y137945D01*
X177959Y136324*
X178030Y136541*
X178356Y136841*
X178739Y136965*
X179179Y136914*
X179548Y136646*
X179847Y136161*
X179833Y135769*
X179877Y135201*
X179735Y134767*
X179409Y134467*
X179026Y134342*
X178587Y134393*
X178402Y134527*
X178160Y134837*
X40186Y164449D02*
X37050Y162171D01*
X37997Y160868*
X41842Y162168D02*
X38707Y159890D01*
X41842Y162168D02*
X42868Y160757D01*
X40349Y161084D02*
X40981Y160215D01*
X38707Y159890D02*
X39733Y158479D01*
X43578Y159779D02*
X40443Y157501D01*
X43578Y159779D02*
X44130Y159019D01*
X44218Y158585*
X44077Y158151*
X43857Y157826*
X43857D02*
X43488Y157391D01*
X42742Y156849*
X42215Y156632*
X41837Y156524*
X41381*
X40995Y156741*
X40443Y157501*
X45891Y155654D02*
X46111Y155979D01*
X46024Y156413*
X45866Y156631*
X45480Y156848*
X44874Y156740*
X44049Y156306*
X43302Y155763*
X42784Y155221*
X42643Y154787*
X42731Y154353*
X42809Y154244*
X43195Y154027*
X43652*
X44179Y154243*
X44328Y154352*
X44697Y154786*
X44838Y155220*
X44750Y155654*
X44671Y155763*
X44286Y155980*
X44286D02*
X43829D01*
X43302Y155763*
X30073Y62608D02*
X28875Y66294D01*
X27344Y65796*
X27392Y61737D02*
X26195Y65423D01*
X27392Y61737D02*
X25733Y61198D01*
X26822Y63492D02*
X25801Y63160D01*
X26195Y65423D02*
X24535Y64883D01*
X24584Y60824D02*
X23386Y64510D01*
X24584Y60824D02*
X23691Y60534D01*
X23251Y60585*
X22881Y60853*
X22640Y61163*
X22341Y61648*
X22056Y62525*
X22012Y63093*
X22026Y63486*
X22167Y63920*
X22493Y64220*
X23386Y64510*
X19861Y59290D02*
X19940Y63390D01*
X21648Y59870D02*
X19861Y59290D01*
X108538Y11376D02*
X112414D01*
Y12987*
X108538Y14195D02*
X112414D01*
X108538D02*
Y15939D01*
X110384Y14195D02*
Y15268D01*
X112414Y14195D02*
Y15939D01*
X108538Y17147D02*
X112414D01*
X108538D02*
Y18087D01*
X108723Y18489*
X109092Y18758*
X109461Y18892*
X110015Y19026*
X110937*
X111491Y18892*
X111860Y18758*
X112229Y18489*
X112414Y18087*
Y17147*
X108538Y20905D02*
X108723Y20503D01*
X109092Y20369*
X109461*
X109830Y20503*
X110015Y20771*
X110199Y21308*
X110384Y21711*
X110753Y21979*
X111122Y22113*
X111675*
X112045Y21979*
X112229Y21845*
X112414Y21442*
Y20905*
X112229Y20503*
X112045Y20369*
X111675Y20234*
X111122*
X110753Y20369*
X110384Y20637*
X110199Y21040*
X110015Y21576*
X109830Y21845*
X109461Y21979*
X109092*
X108723Y21845*
X108538Y21442*
Y20905*
X82520Y161356D02*
Y158588D01*
X82654Y158034*
X82922Y157665*
X83325Y157480*
X83593*
X83996Y157665*
X84264Y158034*
X84399Y158588*
Y161356*
X85607Y160618D02*
X85875Y160802D01*
X86278Y161356*
Y157480*
X125433Y132576D02*
Y129808D01*
X125567Y129254*
X125836Y128885*
X126238Y128701*
X126507*
X126909Y128885*
X127178Y129254*
X127312Y129808*
Y132576*
X130399D02*
X129057Y128701D01*
X128520Y132576D02*
X130399D01*
X169528Y113521D02*
Y109646D01*
Y113521D02*
X170736D01*
X171138Y113337*
X171272Y113152*
X171407Y112783*
Y112414*
X171272Y112045*
X171138Y111860*
X170736Y111676*
X169528*
X170467D02*
X171407Y109646D01*
X172615Y112783D02*
X172883Y112968D01*
X173286Y113521*
Y109646*
X174762Y113521D02*
X176238D01*
X175433Y112045*
X175836*
X176104Y111860*
X176238Y111676*
X176373Y111122*
Y110753*
X176238Y110199*
X175970Y109830*
X175567Y109646*
X175165*
X174762Y109830*
X174628Y110015*
X174494Y110384*
X116024Y62773D02*
Y58898D01*
Y62773D02*
X117232D01*
X117634Y62589*
X117768Y62404*
X117903Y62035*
Y61666*
X117768Y61297*
X117634Y61112*
X117232Y60928*
X116024*
X116963D02*
X117903Y58898D01*
X119379Y62773D02*
X120855D01*
X120050Y61297*
X120453*
X120721Y61112*
X120855Y60928*
X120990Y60374*
Y60005*
X120855Y59451*
X120587Y59082*
X120184Y58898*
X119782*
X119379Y59082*
X119245Y59267*
X119111Y59636*
X115827Y68915D02*
Y65039D01*
Y68915D02*
X117035D01*
X117437Y68730*
X117572Y68546*
X117706Y68177*
Y67808*
X117572Y67438*
X117437Y67254*
X117035Y67069*
X115827*
X116766D02*
X117706Y65039D01*
X120256Y68915D02*
X118914Y66331D01*
X120927*
X120256Y68915D02*
Y65039D01*
X32835Y77970D02*
Y74094D01*
Y77970D02*
X34043D01*
X34445Y77785*
X34579Y77601*
X34714Y77232*
Y76863*
X34579Y76494*
X34445Y76309*
X34043Y76125*
X32835*
X33774D02*
X34714Y74094D01*
X37666Y77970D02*
X36324D01*
X36190Y76309*
X36324Y76494*
X36727Y76678*
X37130*
X37532Y76494*
X37801Y76125*
X37935Y75571*
X37801Y75202*
X37666Y74648*
X37398Y74279*
X36995Y74094*
X36593*
X36190Y74279*
X36056Y74464*
X35922Y74833*
X32953Y84033D02*
Y80157D01*
Y84033D02*
X34161D01*
X34563Y83848*
X34698Y83664*
X34832Y83295*
Y82926*
X34698Y82557*
X34563Y82372*
X34161Y82188*
X34161D02*
X32953D01*
X33892D02*
X34832Y80157D01*
X37650Y83479D02*
X37516Y83848D01*
X37113Y84033*
X36845*
X36442Y83848*
X36174Y83295*
X36040Y82372*
Y81449*
X36174Y80711*
X36442Y80342*
X36845Y80157*
X36979*
X37382Y80342*
X37650Y80711*
X37785Y81265*
Y81449*
X37650Y82003*
X37382Y82372*
X36979Y82557*
X36845*
X36442Y82372*
X36174Y82003*
X36040Y81449*
X154606Y128127D02*
Y124252D01*
Y128127D02*
X155546D01*
X155948Y127943*
X156217Y127574*
X156351Y127205*
X156485Y126651*
Y125728*
X156351Y125175*
X156217Y124806*
X155948Y124437*
X155546Y124252*
X154606*
X157827Y127205D02*
Y127389D01*
X157962Y127758*
X158096Y127943*
X158364Y128127*
X158901*
X159170Y127943*
X159304Y127758*
X159438Y127389*
Y127020*
X159304Y126651*
X159035Y126097*
X157693Y124252*
X159572*
X154218Y137283D02*
X154084Y137653D01*
X153815Y138022*
X153547Y138206*
X153010*
X152742Y138022*
X152473Y137653*
X152339Y137283*
X152205Y136730*
Y135807*
X152339Y135253*
X152473Y134884*
X152742Y134515*
X153010Y134331*
X153547*
X153815Y134515*
X154084Y134884*
X154218Y135253*
X155694Y138206D02*
X157171D01*
X156365Y136730*
X156768*
X157037Y136545*
X157171Y136361*
X157305Y135807*
Y135438*
X157171Y134884*
X156902Y134515*
X156500Y134331*
X156097*
X155694Y134515*
X155560Y134700*
X155426Y135069*
X143312Y149528D02*
X143178Y149897D01*
X142910Y150266*
X142641Y150450*
X142105*
X141836Y150266*
X141568Y149897*
X141433Y149528*
X141299Y148974*
Y148051*
X141433Y147498*
X141568Y147128*
X141836Y146759*
X142105Y146575*
X142641*
X142910Y146759*
X143178Y147128*
X143312Y147498*
X146399Y150450D02*
X145057Y146575D01*
X144520Y150450D02*
X146399D01*
G54D55*
X86685Y155673D02*
X126685D01*
Y139173*
X86685*
Y155673*
G74*
X0Y0D02*
M02*
