*
*
G04 PADS VX.2.2 Build Number: 7607494 generated Gerber (RS-274-X) file*
G04 PC Version=2.1*
*
%IN "Untitled"*%
*
%MOIN*%
*
%FSLAX35Y35*%
*
*
*
*
G04 PC Standard Apertures*
*
*
G04 Thermal Relief Aperture macro.*
%AMTER*
1,1,$1,0,0*
1,0,$1-$2,0,0*
21,0,$3,$4,0,0,45*
21,0,$3,$4,0,0,135*
%
*
*
G04 Annular Aperture macro.*
%AMANN*
1,1,$1,0,0*
1,0,$2,0,0*
%
*
*
G04 Odd Aperture macro.*
%AMODD*
1,1,$1,0,0*
1,0,$1-0.005,0,0*
%
*
*
G04 PC Custom Aperture Macros*
*
*
*
*
*
*
G04 PC Aperture Table*
*
%ADD010C,0.001*%
%ADD011C,0.01*%
%ADD033C,0.005*%
*
*
*
*
G04 PC Circuitry*
G04 Layer Name Untitled - circuitry*
%LPD*%
*
*
G04 PC Custom Flashes*
G04 Layer Name Untitled - flashes*
%LPD*%
*
*
G04 PC Circuitry*
G04 Layer Name Untitled - circuitry*
%LPD*%
*
G54D10*
G01X25269Y114160D02*
Y84274D01*
X10915Y79610D02*
X25269Y84274D01*
X10915Y118824D02*
X25269Y114160D01*
X10911Y79625D02*
G75*
G03Y118810I88377J19592D01*
G01X19110Y79042D02*
X22864Y80262D01*
G54D11*
X70173Y79449D02*
X78173D01*
X74173Y75449D02*
Y83449D01*
X80173Y79449D02*
X88173D01*
X84173Y75449D02*
Y83449D01*
X90173Y79449D02*
X98173D01*
X94173Y75449D02*
Y83449D01*
X100173Y79449D02*
X108173D01*
X104173Y75449D02*
Y83449D01*
X110173Y79449D02*
X118173D01*
X114173Y75449D02*
Y83449D01*
X120173Y119449D02*
X128173D01*
X124173Y115449D02*
Y123449D01*
X110173Y119449D02*
X118173D01*
X114173Y115449D02*
Y123449D01*
X100173Y119449D02*
X108173D01*
X104173Y115449D02*
Y123449D01*
X90173Y119449D02*
X98173D01*
X94173Y115449D02*
Y123449D01*
X80173Y119449D02*
X88173D01*
X84173Y115449D02*
Y123449D01*
X70173Y119449D02*
X78173D01*
X74173Y115449D02*
Y123449D01*
X103874Y15843D02*
X111874Y23843D01*
X103874D02*
X111874Y15843D01*
X103874Y14031D02*
X111874Y22031D01*
X103874D02*
X111874Y14031D01*
X83480Y19780D02*
X91480Y27780D01*
X83480D02*
X91480Y19780D01*
X85409Y19346D02*
X93409Y27346D01*
X85409D02*
X93409Y19346D01*
X39228Y31709D02*
X47228Y39709D01*
X39228D02*
X47228Y31709D01*
X38087Y30252D02*
X46087Y38252D01*
X38087D02*
X46087Y30252D01*
X71864Y56508D02*
X79864Y64508D01*
X71864D02*
X79864Y56508D01*
X74346Y60567D02*
X82346Y68567D01*
X74346D02*
X82346Y60567D01*
X58598D02*
X66598Y68567D01*
X58598D02*
X66598Y60567D01*
X64504Y56630D02*
X72504Y64630D01*
X64504D02*
X72504Y56630D01*
X66472Y42850D02*
X74472Y50850D01*
X66472D02*
X74472Y42850D01*
X72378Y52693D02*
X80378Y60693D01*
X72378D02*
X80378Y52693D01*
X74346Y36945D02*
X82346Y44945D01*
X74346D02*
X82346Y36945D01*
X54465Y30488D02*
X62465Y38488D01*
X54465D02*
X62465Y30488D01*
X51866Y32260D02*
X59866Y40260D01*
X51866D02*
X59866Y32260D01*
X86157Y52693D02*
X94157Y60693D01*
X86157D02*
X94157Y52693D01*
X80252Y56630D02*
X88252Y64630D01*
X80252D02*
X88252Y56630D01*
X80252Y48756D02*
X88252Y56756D01*
X80252D02*
X88252Y48756D01*
X86157Y31039D02*
X94157Y39039D01*
X86157D02*
X94157Y31039D01*
X90094Y42850D02*
X98094Y50850D01*
X90094D02*
X98094Y42850D01*
X94583Y54031D02*
X102583Y62031D01*
X94583D02*
X102583Y54031D01*
X90134Y56118D02*
X98134Y64118D01*
X90134D02*
X98134Y56118D01*
X99622Y55016D02*
X107622Y63016D01*
X99622D02*
X107622Y55016D01*
X101315Y58756D02*
X109315Y66756D01*
X101315D02*
X109315Y58756D01*
X102732Y48008D02*
X110732Y56008D01*
X102732D02*
X110732Y48008D01*
X96787Y48717D02*
X104787Y56717D01*
X96787D02*
X104787Y48717D01*
X104071Y44150D02*
X112071Y52150D01*
X104071D02*
X112071Y44150D01*
X95921Y46827D02*
X103921Y54827D01*
X95921D02*
X103921Y46827D01*
X100016Y49189D02*
X108016Y57189D01*
X100016D02*
X108016Y49189D01*
X119661Y57654D02*
X127661Y65654D01*
X119661D02*
X127661Y57654D01*
X112417D02*
X120417Y65654D01*
X112417D02*
X120417Y57654D01*
X155055Y60567D02*
X163055Y68567D01*
X155055D02*
X163055Y60567D01*
X125528Y52693D02*
X133528Y60693D01*
X125528D02*
X133528Y52693D01*
X121591D02*
X129591Y60693D01*
X121591D02*
X129591Y52693D01*
X146906Y48835D02*
X154906Y56835D01*
X146906D02*
X154906Y48835D01*
X146039Y53205D02*
X154039Y61205D01*
X146039D02*
X154039Y53205D01*
X143205Y47772D02*
X151205Y55772D01*
X143205D02*
X151205Y47772D01*
X141157Y49425D02*
X149157Y57425D01*
X141157D02*
X149157Y49425D01*
X141709Y53126D02*
X149709Y61126D01*
X141709D02*
X149709Y53126D01*
X146079Y57614D02*
X154079Y65614D01*
X146079D02*
X154079Y57614D01*
X129386D02*
X137386Y65614D01*
X129386D02*
X137386Y57614D01*
X145961Y38047D02*
X153961Y46047D01*
X145961D02*
X153961Y38047D01*
X144307Y36709D02*
X152307Y44709D01*
X144307D02*
X152307Y36709D01*
X142496Y25094D02*
X150496Y33094D01*
X142496D02*
X150496Y25094D01*
X143638Y23480D02*
X151638Y31480D01*
X143638D02*
X151638Y23480D01*
X26472Y62457D02*
X34472Y70457D01*
X26472D02*
X34472Y62457D01*
X25646Y64307D02*
X33646Y72307D01*
X25646D02*
X33646Y64307D01*
X18559Y73480D02*
X26559Y81480D01*
X18559D02*
X26559Y73480D01*
X16748Y72929D02*
X24748Y80929D01*
X16748D02*
X24748Y72929D01*
X58598Y88126D02*
X66598Y96126D01*
X58598D02*
X66598Y88126D01*
X66472D02*
X74472Y96126D01*
X66472D02*
X74472Y88126D01*
X76315D02*
X84315Y96126D01*
X76315D02*
X84315Y88126D01*
X66472Y64504D02*
X74472Y72504D01*
X66472D02*
X74472Y64504D01*
X58598Y70409D02*
X66598Y78409D01*
X58598D02*
X66598Y70409D01*
X50724Y74346D02*
X58724Y82346D01*
X50724D02*
X58724Y74346D01*
X50724Y92063D02*
X58724Y100063D01*
X50724D02*
X58724Y92063D01*
X44504Y87220D02*
X52504Y95220D01*
X44504D02*
X52504Y87220D01*
X47496Y83992D02*
X55496Y91992D01*
X47496D02*
X55496Y83992D01*
X44583Y80646D02*
X52583Y88646D01*
X44583D02*
X52583Y80646D01*
X41591Y83992D02*
X49591Y91992D01*
X41591D02*
X49591Y83992D01*
X113441Y91945D02*
X121441Y99945D01*
X113441D02*
X121441Y91945D01*
X119425Y75606D02*
X127425Y83606D01*
X119425D02*
X127425Y75606D01*
X84189Y88126D02*
X92189Y96126D01*
X84189D02*
X92189Y88126D01*
X92063D02*
X100063Y96126D01*
X92063D02*
X100063Y88126D01*
X96000Y94031D02*
X104000Y102031D01*
X96000D02*
X104000Y94031D01*
X99937Y99937D02*
X107937Y107937D01*
X99937D02*
X107937Y99937D01*
X105843Y62535D02*
X113843Y70535D01*
X105843D02*
X113843Y62535D01*
X111748D02*
X119748Y70535D01*
X111748D02*
X119748Y62535D01*
X111748Y68441D02*
X119748Y76441D01*
X111748D02*
X119748Y68441D01*
X105843D02*
X113843Y76441D01*
X105843D02*
X113843Y68441D01*
X119622Y62535D02*
X127622Y70535D01*
X119622D02*
X127622Y62535D01*
X119622Y68441D02*
X127622Y76441D01*
X119622D02*
X127622Y68441D01*
X119622Y84189D02*
X127622Y92189D01*
X119622D02*
X127622Y84189D01*
X119622Y92063D02*
X127622Y100063D01*
X119622D02*
X127622Y92063D01*
X98441Y63677D02*
X106441Y71677D01*
X98441D02*
X106441Y63677D01*
X94031Y65606D02*
X102031Y73606D01*
X94031D02*
X102031Y65606D01*
X87142Y61039D02*
X95142Y69039D01*
X87142D02*
X95142Y61039D01*
X88559Y64071D02*
X96559Y72071D01*
X88559D02*
X96559Y64071D01*
X96091Y82192D02*
X104091Y90192D01*
X96091D02*
X104091Y82192D01*
X103965Y82153D02*
X111965Y90153D01*
X103965D02*
X111965Y82153D01*
X96091Y85736D02*
X104091Y93736D01*
X96091D02*
X104091Y85736D01*
X105933D02*
X113933Y93736D01*
X105933D02*
X113933Y85736D01*
X144740Y68835D02*
X152740Y76835D01*
X144740D02*
X152740Y68835D01*
X151118Y64504D02*
X159118Y72504D01*
X151118D02*
X159118Y64504D01*
X155055Y70409D02*
X163055Y78409D01*
X155055D02*
X163055Y70409D01*
X158992Y66472D02*
X166992Y74472D01*
X158992D02*
X166992Y66472D01*
X121591Y96000D02*
X129591Y104000D01*
X121591D02*
X129591Y96000D01*
X125528Y99937D02*
X133528Y107937D01*
X125528D02*
X133528Y99937D01*
X135370Y64504D02*
X143370Y72504D01*
X135370D02*
X143370Y64504D01*
X143244Y76315D02*
X151244Y84315D01*
X143244D02*
X151244Y76315D01*
X147181Y92063D02*
X155181Y100063D01*
X147181D02*
X155181Y92063D01*
X147181Y84189D02*
X155181Y92189D01*
X147181D02*
X155181Y84189D01*
X147181Y99937D02*
X155181Y107937D01*
X147181D02*
X155181Y99937D01*
X139307D02*
X147307Y107937D01*
X139307D02*
X147307Y99937D01*
X139307Y70409D02*
X147307Y78409D01*
X139307D02*
X147307Y70409D01*
X160961Y72378D02*
X168961Y80378D01*
X160961D02*
X168961Y72378D01*
X162929Y78283D02*
X170929Y86283D01*
X162929D02*
X170929Y78283D01*
X174425Y84268D02*
X182425Y92268D01*
X174425D02*
X182425Y84268D01*
X175055Y91039D02*
X183055Y99039D01*
X175055D02*
X183055Y91039D01*
X176276Y85764D02*
X184276Y93764D01*
X176276D02*
X184276Y85764D01*
X176669Y88913D02*
X184669Y96913D01*
X176669D02*
X184669Y88913D01*
X174740Y87614D02*
X182740Y95614D01*
X174740D02*
X182740Y87614D01*
X175764Y82220D02*
X183764Y90220D01*
X175764D02*
X183764Y82220D01*
X176827Y92811D02*
X184827Y100811D01*
X176827D02*
X184827Y92811D01*
X181787Y100370D02*
X189787Y108370D01*
X181787D02*
X189787Y100370D01*
X180134Y98717D02*
X188134Y106717D01*
X180134D02*
X188134Y98717D01*
X168205Y73756D02*
X176205Y81756D01*
X168205D02*
X176205Y73756D01*
X169031Y77220D02*
X177031Y85220D01*
X169031D02*
X177031Y77220D01*
X169898Y62063D02*
X177898Y70063D01*
X169898D02*
X177898Y62063D01*
X168126Y62614D02*
X176126Y70614D01*
X168126D02*
X176126Y62614D01*
X31827Y107811D02*
X39827Y115811D01*
X31827D02*
X39827Y107811D01*
X19307Y119819D02*
X27307Y127819D01*
X19307D02*
X27307Y119819D01*
X17457Y120606D02*
X25457Y128606D01*
X17457D02*
X25457Y120606D01*
X17614Y128953D02*
X25614Y136953D01*
X17614D02*
X25614Y128953D01*
X15843Y129543D02*
X23843Y137543D01*
X15843D02*
X23843Y129543D01*
X62535Y105843D02*
X70535Y113843D01*
X62535D02*
X70535Y105843D01*
X72378D02*
X80378Y113843D01*
X72378D02*
X80378Y105843D01*
X50724Y101906D02*
X58724Y109906D01*
X50724D02*
X58724Y101906D01*
X50724Y109780D02*
X58724Y117780D01*
X50724D02*
X58724Y109780D01*
X50724Y119622D02*
X58724Y127622D01*
X50724D02*
X58724Y119622D01*
X64976Y135449D02*
X72976Y143449D01*
X64976D02*
X72976Y135449D01*
X60803Y133362D02*
X68803Y141362D01*
X60803D02*
X68803Y133362D01*
X67969Y128205D02*
X75969Y136205D01*
X67969D02*
X75969Y128205D01*
X64819Y126512D02*
X72819Y134512D01*
X64819D02*
X72819Y126512D01*
X69858Y132260D02*
X77858Y140260D01*
X69858D02*
X77858Y132260D01*
X68559Y134701D02*
X76559Y142701D01*
X68559D02*
X76559Y134701D01*
X60173Y126787D02*
X68173Y134787D01*
X60173D02*
X68173Y126787D01*
X58795Y129504D02*
X66795Y137504D01*
X58795D02*
X66795Y129504D01*
X44622Y138677D02*
X52622Y146677D01*
X44622D02*
X52622Y138677D01*
X46748D02*
X54748Y146677D01*
X46748D02*
X54748Y138677D01*
X46748Y136472D02*
X54748Y144472D01*
X46748D02*
X54748Y136472D01*
X44622D02*
X52622Y144472D01*
X44622D02*
X52622Y136472D01*
X44622Y118795D02*
X52622Y126795D01*
X44622D02*
X52622Y118795D01*
X46748Y121000D02*
X54748Y129000D01*
X46748D02*
X54748Y121000D01*
X44622D02*
X52622Y129000D01*
X44622D02*
X52622Y121000D01*
X46748Y118795D02*
X54748Y126795D01*
X46748D02*
X54748Y118795D01*
X80252Y105843D02*
X88252Y113843D01*
X80252D02*
X88252Y105843D01*
X88126D02*
X96126Y113843D01*
X88126D02*
X96126Y105843D01*
X96000D02*
X104000Y113843D01*
X96000D02*
X104000Y105843D01*
X97665Y139909D02*
X105665Y147909D01*
X97665D02*
X105665Y139909D01*
X110185Y127704D02*
X118185Y135704D01*
X110185D02*
X118185Y127704D01*
X92390D02*
X100390Y135704D01*
X92390D02*
X100390Y127704D01*
X111957Y124476D02*
X119957Y132476D01*
X111957D02*
X119957Y124476D01*
X89555Y126169D02*
X97555Y134169D01*
X89555D02*
X97555Y126169D01*
X129465Y103874D02*
X137465Y111874D01*
X129465D02*
X137465Y103874D01*
X133402Y107811D02*
X141402Y115811D01*
X133402D02*
X141402Y107811D01*
X133402Y115685D02*
X141402Y123685D01*
X133402D02*
X141402Y115685D01*
X139307Y123559D02*
X147307Y131559D01*
X139307D02*
X147307Y123559D01*
X135370D02*
X143370Y131559D01*
X135370D02*
X143370Y123559D01*
X130409Y124307D02*
X138409Y132307D01*
X130409D02*
X138409Y124307D01*
X128283Y127969D02*
X136283Y135969D01*
X128283D02*
X136283Y127969D01*
X128323Y132260D02*
X136323Y140260D01*
X128323D02*
X136323Y132260D01*
X133362Y133520D02*
X141362Y141520D01*
X133362D02*
X141362Y133520D01*
X139307Y107811D02*
X147307Y115811D01*
X139307D02*
X147307Y107811D01*
X139307Y115685D02*
X147307Y123685D01*
X139307D02*
X147307Y115685D01*
X125618Y139830D02*
X133618Y147830D01*
X125618D02*
X133618Y139830D01*
X179819Y101630D02*
X187819Y109630D01*
X179819D02*
X187819Y101630D01*
X181433Y103441D02*
X189433Y111441D01*
X181433D02*
X189433Y103441D01*
X179583Y104858D02*
X187583Y112858D01*
X179583D02*
X187583Y104858D01*
X181079Y106669D02*
X189079Y114669D01*
X181079D02*
X189079Y106669D01*
X179189Y108087D02*
X187189Y116087D01*
X179189D02*
X187189Y108087D01*
X169071Y113520D02*
X177071Y121520D01*
X169071D02*
X177071Y113520D01*
X168362Y116551D02*
X176362Y124551D01*
X168362D02*
X176362Y116551D01*
X174701Y129780D02*
X182701Y137780D01*
X174701D02*
X182701Y129780D01*
X172890Y129189D02*
X180890Y137189D01*
X172890D02*
X180890Y129189D01*
X74346Y160961D02*
X82346Y168961D01*
X74346D02*
X82346Y160961D01*
X66472Y157024D02*
X74472Y165024D01*
X66472D02*
X74472Y157024D01*
X58598Y153520D02*
X66598Y161520D01*
X58598D02*
X66598Y153520D01*
X57890Y149504D02*
X65890Y157504D01*
X57890D02*
X65890Y149504D01*
X52299Y146630D02*
X60299Y154630D01*
X52299D02*
X60299Y146630D01*
X47890Y156709D02*
X55890Y164709D01*
X47890D02*
X55890Y156709D01*
X45567Y155016D02*
X53567Y163016D01*
X45567D02*
X53567Y155016D01*
X55449Y164307D02*
X63449Y172307D01*
X55449D02*
X63449Y164307D01*
X54386Y165843D02*
X62386Y173843D01*
X54386D02*
X62386Y165843D01*
X106787Y145449D02*
X114787Y153449D01*
X106787D02*
X114787Y145449D01*
X106709Y147496D02*
X114709Y155496D01*
X106709D02*
X114709Y147496D01*
X106748Y149543D02*
X114748Y157543D01*
X106748D02*
X114748Y149543D01*
X105134Y150724D02*
X113134Y158724D01*
X105134D02*
X113134Y150724D01*
X97969Y160961D02*
X105969Y168961D01*
X97969D02*
X105969Y160961D01*
X90094Y164898D02*
X98094Y172898D01*
X90094D02*
X98094Y164898D01*
X82220Y162929D02*
X90220Y170929D01*
X82220D02*
X90220Y162929D01*
X102299Y165724D02*
X110299Y173724D01*
X102299D02*
X110299Y165724D01*
X92850Y171591D02*
X100850Y179591D01*
X92850D02*
X100850Y171591D01*
X89819D02*
X97819Y179591D01*
X89819D02*
X97819Y171591D01*
X103520Y179504D02*
X111520Y187504D01*
X103520D02*
X111520Y179504D01*
X95894Y140893D02*
X103894Y148893D01*
X95894D02*
X103894Y140893D01*
X97665Y141917D02*
X105665Y149917D01*
X97665D02*
X105665Y141917D01*
X127496Y153087D02*
X135496Y161087D01*
X127496D02*
X135496Y153087D01*
X131433Y155055D02*
X139433Y163055D01*
X131433D02*
X139433Y155055D01*
X127496Y157024D02*
X135496Y165024D01*
X127496D02*
X135496Y157024D01*
X138126Y158480D02*
X146126Y166480D01*
X138126D02*
X146126Y158480D01*
X135291Y160291D02*
X143291Y168291D01*
X135291D02*
X143291Y160291D01*
X144307Y157969D02*
X152307Y165969D01*
X144307D02*
X152307Y157969D01*
X145449Y159583D02*
X153449Y167583D01*
X145449D02*
X153449Y159583D01*
X127311Y140893D02*
X135311Y148893D01*
X127311D02*
X135311Y140893D01*
X125618Y141917D02*
X133618Y149917D01*
X125618D02*
X133618Y141917D01*
X103520Y181394D02*
X111520Y189394D01*
X103520D02*
X111520Y181394D01*
X100000Y172000D02*
X358000D01*
X100000Y148000D02*
X358000D01*
X100000Y124000D02*
X358000D01*
X100000Y100000D02*
X358000D01*
X100000Y172000D02*
Y100000D01*
X184000Y172000D02*
Y100000D01*
X220000Y172000D02*
Y100000D01*
X256000Y172000D02*
Y100000D01*
X310000Y172000D02*
Y100000D01*
X358000Y172000D02*
Y100000D01*
X128818Y154000D02*
X130364Y156375D01*
X130727Y158375*
Y161625*
X131091Y161875*
X138182*
X138545Y161625*
Y159000*
X138182Y158750*
X130727*
X134818D02*
X135545Y157000D01*
X137455Y155125*
X139727Y154000*
X145545Y156625D02*
X144818Y157875D01*
X143727Y158750*
X142182Y160500D02*
X152273D01*
X150091Y162250D02*
Y154000D01*
X149727Y153750*
X147091Y154250*
X188818Y157000D02*
X194091D01*
X193364D02*
X192545Y155500D01*
X191455Y154625*
X189182Y153750*
X193364D02*
X191455Y154875D01*
X189545Y155500*
Y155750*
X190727Y156625*
X191455Y157875*
Y158125D02*
Y162250D01*
X189182D02*
X189909Y161000D01*
X192545D02*
X193364Y162250D01*
X194091Y160500D02*
X189182D01*
X188818Y158375D02*
X190364Y159250D01*
X191455Y160500*
X193727Y159000*
X194455D02*
X195182Y160750D01*
Y162250*
Y160750D02*
X200091D01*
X199364D02*
X198545Y158125D01*
X196727Y155125*
X194818Y153750*
X199727D02*
X198182Y155125D01*
X196364Y158125*
X195545Y160750*
X202182Y154000D02*
X213091D01*
X212273Y155125D02*
X202909D01*
X203727Y156625D02*
Y158375D01*
X204091Y158750*
X211545*
X211909Y158375*
Y156625*
X211545Y156375*
X204091*
X203727Y156625*
Y157500D02*
X211909D01*
X207818Y158750D02*
Y154000D01*
X202545Y159625D02*
X213455D01*
X203727Y160750D02*
Y161875D01*
X204091Y162250*
X211545*
X211909Y161875*
Y160750*
X211545Y160500*
X204091*
X203727Y160750*
Y161375D02*
X211909D01*
X225545Y157500D02*
X227091Y158750D01*
X228182Y160125*
X227091Y158750D02*
Y153750D01*
X231545Y155750D02*
X230091Y157250D01*
X229364Y158750D02*
X236091D01*
X234545Y159875D02*
Y154000D01*
X234182Y153750*
X232727Y154000*
X231545Y155750D02*
X230091Y157250D01*
X224818Y160750D02*
X226364Y161625D01*
X226727Y162500*
X226364Y161625D02*
X230455D01*
X228909Y160500D02*
X227455Y161625D01*
X232364Y162500D02*
X231909Y161625D01*
X230818Y160750*
X231909Y161625D02*
X236091D01*
X234545Y160500D02*
X233455Y161625D01*
X238182Y158125D02*
X248727D01*
X241182D02*
X240455Y156625D01*
X240818Y156375*
X246818*
X247182Y156125*
X246818Y154000*
X246455Y153750*
X243455Y154000*
X240091Y159875D02*
Y161625D01*
X240455Y161875*
X246818*
X247182Y161625*
Y159875*
X246818Y159625*
X240455*
X240091Y159875*
X285500Y160000D02*
Y160375D01*
X285773Y161125*
X286045Y161500*
X286591Y161875*
X287682*
X288227Y161500*
X288500Y161125*
X288773Y160375*
Y159625*
X288500Y158875*
X288227Y158500*
X287136Y157750*
Y156625*
Y154750D02*
X286864Y154375D01*
X287136Y154000*
X287409Y154375*
X287136Y154750*
X291227Y160000D02*
Y160375D01*
X291500Y161125*
X291773Y161500*
X292318Y161875*
X293409*
X293955Y161500*
X294227Y161125*
X294500Y160375*
Y159625*
X294227Y158875*
X293955Y158500*
X292864Y157750*
Y156625*
Y154750D02*
X292591Y154375D01*
X292864Y154000*
X293136Y154375*
X292864Y154750*
X326682Y161875D02*
Y154000D01*
X324773Y161875D02*
X328591D01*
X332682D02*
X332136Y161500D01*
X331591Y160750*
X331318Y160000*
X331045Y158875*
Y157000*
X331318Y155875*
X331591Y155125*
X332136Y154375*
X332682Y154000*
X333773*
X334318Y154375*
X334864Y155125*
X335136Y155875*
X335409Y157000*
Y158875*
X335136Y160000*
X334864Y160750*
X334318Y161500*
X333773Y161875*
X332682*
X337864D02*
Y154000D01*
X341136*
X106000Y136375D02*
X106545Y136750D01*
X107364Y137875*
Y130000*
X198364Y136375D02*
X198909Y136750D01*
X199727Y137875*
Y130000*
X202182Y136375D02*
X202727Y136750D01*
X203545Y137875*
Y130000*
X232000Y136000D02*
X244000D01*
X238000Y130000D02*
Y142000D01*
X264636Y137875D02*
X266818Y134125D01*
Y130000*
X269000Y137875D02*
X266818Y134125D01*
X271455Y137875D02*
Y130000D01*
Y137875D02*
X275000D01*
X271455Y134125D02*
X273636D01*
X271455Y130000D02*
X275000D01*
X281273Y136750D02*
X280727Y137500D01*
X279909Y137875*
X278818*
X278000Y137500*
X277455Y136750*
Y136000*
X277727Y135250*
X278000Y134875*
X278545Y134500*
X280182Y133750*
X280727Y133375*
X281000Y133000*
X281273Y132250*
Y131125*
X280727Y130375*
X279909Y130000*
X278818*
X278000Y130375*
X277455Y131125*
X317818Y136750D02*
Y130000D01*
X315364Y133375D02*
X320273D01*
X327636Y139375D02*
X322727Y127375D01*
X330091Y133375D02*
X335000D01*
X339091Y137875D02*
X338273Y137500D01*
X337727Y136375*
X337455Y134500*
Y133375*
X337727Y131500*
X338273Y130375*
X339091Y130000*
X339636*
X340455Y130375*
X341000Y131500*
X341273Y133375*
Y134500*
X341000Y136375*
X340455Y137500*
X339636Y137875*
X339091*
X344000Y130750D02*
X343727Y130375D01*
X344000Y130000*
X344273Y130375*
X344000Y130750*
X348364Y137875D02*
X347545Y137500D01*
X347000Y136375*
X346727Y134500*
Y133375*
X347000Y131500*
X347545Y130375*
X348364Y130000*
X348909*
X349727Y130375*
X350273Y131500*
X350545Y133375*
Y134500*
X350273Y136375*
X349727Y137500*
X348909Y137875*
X348364*
X107636Y113875D02*
X106818Y113500D01*
X106273Y112375*
X106000Y110500*
Y109375*
X106273Y107500*
X106818Y106375*
X107636Y106000*
X108182*
X109000Y106375*
X109545Y107500*
X109818Y109375*
Y110500*
X109545Y112375*
X109000Y113500*
X108182Y113875*
X107636*
X112545Y106750D02*
X112273Y106375D01*
X112545Y106000*
X112818Y106375*
X112545Y106750*
X115818Y113875D02*
X118818D01*
X117182Y110875*
X118000*
X118545Y110500*
X118818Y110125*
X119091Y109000*
Y108250*
X118818Y107125*
X118273Y106375*
X117455Y106000*
X116636*
X115818Y106375*
X115545Y106750*
X115273Y107500*
X194136Y112375D02*
X194682Y112750D01*
X195500Y113875*
Y106000*
X201500Y111250D02*
X201227Y110125D01*
X200682Y109375*
X199864Y109000*
X199591*
X198773Y109375*
X198227Y110125*
X197955Y111250*
Y111625*
X198227Y112750*
X198773Y113500*
X199591Y113875*
X199864*
X200682Y113500*
X201227Y112750*
X201500Y111250*
Y109375*
X201227Y107500*
X200682Y106375*
X199864Y106000*
X199318*
X198500Y106375*
X198227Y107125*
X207773Y113875D02*
X205045Y106000D01*
X203955Y113875D02*
X207773D01*
X232000Y106000D02*
X244000Y118000D01*
X232000D02*
X244000Y106000D01*
X264636Y113875D02*
X266818Y110125D01*
Y106000*
X269000Y113875D02*
X266818Y110125D01*
X271455Y113875D02*
Y106000D01*
Y113875D02*
X275000D01*
X271455Y110125D02*
X273636D01*
X271455Y106000D02*
X275000D01*
X281273Y112750D02*
X280727Y113500D01*
X279909Y113875*
X278818*
X278000Y113500*
X277455Y112750*
Y112000*
X277727Y111250*
X278000Y110875*
X278545Y110500*
X280182Y109750*
X280727Y109375*
X281000Y109000*
X281273Y108250*
Y107125*
X280727Y106375*
X279909Y106000*
X278818*
X278000Y106375*
X277455Y107125*
X317818Y112750D02*
Y106000D01*
X315364Y109375D02*
X320273D01*
X327636Y115375D02*
X322727Y103375D01*
X330091Y109375D02*
X335000D01*
X339091Y113875D02*
X338273Y113500D01*
X337727Y112375*
X337455Y110500*
Y109375*
X337727Y107500*
X338273Y106375*
X339091Y106000*
X339636*
X340455Y106375*
X341000Y107500*
X341273Y109375*
Y110500*
X341000Y112375*
X340455Y113500*
X339636Y113875*
X339091*
X344000Y106750D02*
X343727Y106375D01*
X344000Y106000*
X344273Y106375*
X344000Y106750*
X348364Y113875D02*
X347545Y113500D01*
X347000Y112375*
X346727Y110500*
Y109375*
X347000Y107500*
X347545Y106375*
X348364Y106000*
X348909*
X349727Y106375*
X350273Y107500*
X350545Y109375*
Y110500*
X350273Y112375*
X349727Y113500*
X348909Y113875*
X348364*
G54D33*
X10915Y118824D02*
X25269Y114160D01*
Y84274*
X10915Y79611*
X10912Y79625D02*
G03Y118810I88376J19592D01*
G01X31571Y122839D02*
G03X31571I-3149J0D01*
G01Y75595D02*
G03X31571I-3149J0D01*
G01X167398Y148824D02*
G03X167398I-3937J0D01*
G01X134474Y24617D02*
G03X134474I-3347J0D01*
G74*
G01X0Y0D02*
M02*
