M48
;FILE_FORMAT=2:4
INCH,LZ
FMAT,2
ICI,OFF
;TYPE=PLATED
T1C.01181
T2C.03937
%
M72
G90
G93X0Y0
T1C.01181F095S3
X004209Y003425
X004323Y003571
X005587Y003626
X005846Y003449
X007835Y004094
X008748Y002378
X008941Y002335
X009016Y003504
X010787Y001984
X010787Y001803
X01465Y002909
X014764Y002748
X014831Y004071
X014996Y004205
X01739Y006606
X017213Y006661
X015906Y006457
X015091Y005283
X015008Y006161
X015004Y00572
X01472Y005177
X014571Y005713
X014516Y005343
X013339Y006161
X012953Y005669
X012559Y005669
X012366Y006165
X012362Y006654
X011642Y006165
X011575Y006654
X010984Y006654
X010807Y004815
X010673Y005201
X010531Y006276
X010402Y005319
X010362Y005902
X010244Y006768
X010079Y005272
X009992Y005083
X009858Y005803
X009413Y006012
X009409Y004685
X009114Y006504
X009016Y005669
X008425Y005276
X008425Y006063
X007835Y006457
X007638Y005669
X007586Y006051
X007047Y004685
X00685Y006063
X00626Y006457
X003047Y006646
X002075Y007693
X002256Y007748
X002965Y006831
X004559Y008799
X00485Y009122
X004858Y008465
X00515Y008799
X005472Y007835
X00626Y007441
X00626Y009213
X007047Y009213
X007047Y00685
X008031Y009213
X008819Y009213
X009256Y006807
X009606Y009213
X009803Y006961
X010009Y008619
X010009Y008974
X010796Y008615
X010984Y007244
X010993Y008974
X011575Y007244
X012343Y007961
X012362Y007244
X012362Y008819
X013937Y00685
X014331Y007441
X014724Y008031
X014874Y007283
X015118Y008819
X015512Y00685
X015906Y007441
X016299Y007047
X016496Y007638
X016693Y008228
X01722Y007776
X017303Y008122
X017843Y008827
X017874Y009161
X017976Y008622
X018028Y008976
X018067Y009291
X018579Y010437
X018543Y010744
X018508Y011067
X018413Y010272
X018382Y010563
X018358Y010886
X018319Y011209
X018083Y009681
X017906Y009504
X017307Y011752
X015118Y010394
X015118Y009606
X014331Y011181
X014331Y010394
X01374Y011181
X013346Y010787
X012953Y010394
X012559Y01
X012362Y009606
X011744Y009594
X010394Y010394
X01Y010984
X01Y009803
X009213Y010984
X008425Y010984
X007638Y010984
X006654Y010984
X005472Y010591
X005472Y011378
X005472Y009606
X003583Y011181
X001984Y013354
X002146Y012461
X002161Y013295
X002331Y012382
X004862Y014047
X004862Y01228
X004862Y0125
X004862Y014268
X005075Y01228
X005075Y014047
X005075Y0125
X005075Y014268
X005472Y012362
X00628Y01335
X006417Y013079
X00648Y013736
X006882Y013051
X006898Y013945
X007197Y01322
X007256Y01387
X007386Y013626
X009356Y013017
X009639Y01317
X011419Y01317
X011596Y012848
X013228Y013197
X013232Y013626
X013441Y012831
X013736Y013752
X01374Y011969
X013937Y012756
X014331Y012756
X014331Y011969
X017236Y012055
X017689Y013319
X01787Y013378
X014945Y016358
X014831Y016197
X014213Y016248
X013929Y016429
X013543Y015906
X01315Y015709
X01315Y016102
X013131Y014489
X012962Y014383
X012962Y014592
X011079Y014945
X011075Y015354
X011071Y01515
X010913Y015472
X010197Y016496
X010167Y014592
X010167Y014391
X009989Y014489
X008622Y016693
X007835Y016496
X007047Y016102
X00626Y015752
X006189Y01535
X00563Y015063
X005189Y016071
X004957Y015902
X005839Y016984
X005945Y016831
X009382Y017559
X009409Y01689
X009685Y017559
X01063Y016972
X010752Y01835
X010752Y018539
T2C.03937F197S55
X007417Y007945
X008417Y007945
X009417Y007945
X010417Y007945
X011417Y007945
X012417Y011945
X011417Y011945
X010417Y011945
X009417Y011945
X008417Y011945
X007417Y011945
M30
