*
*
G04 PADS VX.2.2 Build Number: 7607494 generated Gerber (RS-274-X) file*
G04 PC Version=2.1*
*
%IN "Untitled"*%
*
%MOIN*%
*
%FSLAX35Y35*%
*
*
*
*
G04 PC Standard Apertures*
*
*
G04 Thermal Relief Aperture macro.*
%AMTER*
1,1,$1,0,0*
1,0,$1-$2,0,0*
21,0,$3,$4,0,0,45*
21,0,$3,$4,0,0,135*
%
*
*
G04 Annular Aperture macro.*
%AMANN*
1,1,$1,0,0*
1,0,$2,0,0*
%
*
*
G04 Odd Aperture macro.*
%AMODD*
1,1,$1,0,0*
1,0,$1-0.005,0,0*
%
*
*
G04 PC Custom Aperture Macros*
*
*
*
*
*
*
G04 PC Aperture Table*
*
%ADD010C,0.001*%
%ADD011C,0.01*%
%ADD033C,0.005*%
%ADD036R,0.04398X0.058*%
%ADD037R,0.04737X0.05524*%
%ADD038R,0.068X0.058*%
%ADD039R,0.038X0.041*%
%ADD040R,0.041X0.038*%
%ADD041R,0.04099X0.038*%
%ADD042R,0.04737X0.05918*%
%ADD043C,0.07099*%
%ADD044R,0.04737X0.09855*%
%ADD045R,0.07887X0.09855*%
%ADD046R,0.02768X0.06705*%
%ADD047O,0.02768X0.06705*%
%ADD048R,0.044X0.044*%
%ADD049R,0.044X0.058*%
%ADD050R,0.038X0.04099*%
%ADD051R,0.058X0.068*%
*
*
*
*
G04 PC Circuitry*
G04 Layer Name Untitled - circuitry*
%LPD*%
*
*
G04 PC Custom Flashes*
G04 Layer Name Untitled - flashes*
%LPD*%
*
*
G04 PC Circuitry*
G04 Layer Name Untitled - circuitry*
%LPD*%
*
G54D10*
G54D11*
G01X109869Y30987D02*
X112586Y29495D01*
X113934Y31949*
X111217Y33441*
X109869Y30987*
X112586Y29495D02*
X112586D01*
X110765Y30495D02*
X113135D01*
X110148Y31495D02*
X113685D01*
X110697Y32495D02*
X112940D01*
X110000Y30915D02*
Y31226D01*
X111000Y30366D02*
Y33046D01*
X112000Y29817D02*
Y33011D01*
X113000Y30248D02*
Y32462D01*
X112757Y36246D02*
X115475Y34754D01*
X116823Y37208*
X114105Y38700*
X112757Y36246*
X115475Y34754D02*
X115475D01*
X113654Y35754D02*
X116024D01*
X113036Y36754D02*
X116573D01*
X113586Y37754D02*
X115829D01*
X113000Y36113D02*
Y36688D01*
X114000Y35564D02*
Y38508D01*
X115000Y35014D02*
Y38209D01*
X116000Y35710D02*
Y37660D01*
X159625Y52453D02*
X155931Y55517D01*
X153761Y52902*
X157455Y49837*
X159625Y52453*
X157455Y49837D02*
X157455D01*
X156250Y50837D02*
X158285D01*
X155044Y51837D02*
X159114D01*
X153839Y52837D02*
X159162D01*
X154537Y53837D02*
X157956D01*
X155366Y54837D02*
X156751D01*
X154000Y52703D02*
Y53190D01*
X155000Y51874D02*
Y54395D01*
X156000Y51044D02*
Y55460D01*
X157000Y50215D02*
Y54630D01*
X158000Y50494D02*
Y53801D01*
X159000Y51699D02*
Y52971D01*
X155888Y60694D02*
X152406Y63582D01*
X150020Y60706*
X153502Y57817*
X155888Y60694*
X153502Y57817D02*
X153502D01*
X152296Y58817D02*
X154331D01*
X151091Y59817D02*
X155161D01*
X150112Y60817D02*
X155739D01*
X150942Y61817D02*
X154533D01*
X151771Y62817D02*
X153328D01*
X151000Y59893D02*
Y61888D01*
X152000Y59063D02*
Y63093D01*
X153000Y58234D02*
Y63089D01*
X154000Y58418D02*
Y62260D01*
X155000Y59623D02*
Y61430D01*
X151099Y54921D02*
X147617Y57810D01*
X145231Y54934*
X148713Y52045*
X151099Y54921*
X148713Y52045D02*
X148713D01*
X147508Y53045D02*
X149543D01*
X146302Y54045D02*
X150373D01*
X145324Y55045D02*
X150950D01*
X146153Y56045D02*
X149745D01*
X146983Y57045D02*
X148539D01*
X146000Y54296D02*
Y55860D01*
X147000Y53466D02*
Y57066D01*
X148000Y52637D02*
Y57492D01*
X149000Y52390D02*
Y56663D01*
X150000Y53596D02*
Y55833D01*
X151000Y54801D02*
Y55004D01*
X181479Y68637D02*
X173058Y71373D01*
X171903Y67819*
X180325Y65083*
X181479Y68637*
X180325Y65083D02*
X180325D01*
X177247Y66083D02*
X180649D01*
X174169Y67083D02*
X180974D01*
X171989Y68083D02*
X181299D01*
X172313Y69083D02*
X180107D01*
X172638Y70083D02*
X177029D01*
X172963Y71083D02*
X173952D01*
X172000Y67788D02*
Y68118D01*
X173000Y67463D02*
Y71196D01*
X174000Y67138D02*
Y71067D01*
X175000Y66813D02*
Y70742D01*
X176000Y66488D02*
Y70417D01*
X177000Y66163D02*
Y70093D01*
X178000Y65838D02*
Y69768D01*
X179000Y65513D02*
Y69443D01*
X180000Y65188D02*
Y69118D01*
X181000Y67162D02*
Y68793D01*
X184886Y79121D02*
X176464Y81857D01*
X174336Y75308*
X182758Y72571*
X184886Y79121*
X182758Y72571D02*
X182758D01*
X179680Y73571D02*
X183083D01*
X176602Y74571D02*
X183408D01*
X174422Y75571D02*
X183732D01*
X174747Y76571D02*
X184057D01*
X175072Y77571D02*
X184382D01*
X175396Y78571D02*
X184707D01*
X175721Y79571D02*
X183499D01*
X176046Y80571D02*
X180422D01*
X176371Y81571D02*
X177344D01*
X175000Y75092D02*
Y77351D01*
X176000Y74767D02*
Y80429D01*
X177000Y74442D02*
Y81683D01*
X178000Y74117D02*
Y81358D01*
X179000Y73792D02*
Y81033D01*
X180000Y73467D02*
Y80708D01*
X181000Y73143D02*
Y80384D01*
X182000Y72818D02*
Y80059D01*
X183000Y73317D02*
Y79734D01*
X184000Y76395D02*
Y79409D01*
X147531Y26355D02*
X142343Y33531D01*
X139314Y31342*
X144502Y24166*
X147531Y26355*
X144502Y24166D02*
X144502D01*
X143779Y25166D02*
X145885D01*
X143056Y26166D02*
X147269D01*
X142333Y27166D02*
X146945D01*
X141611Y28166D02*
X146222D01*
X140888Y29166D02*
X145499D01*
X140165Y30166D02*
X144776D01*
X139442Y31166D02*
X144053D01*
X140454Y32166D02*
X143330D01*
X141837Y33166D02*
X142607D01*
X140000Y30394D02*
Y31838D01*
X141000Y29010D02*
Y32560D01*
X142000Y27627D02*
Y33283D01*
X143000Y26244D02*
Y32622D01*
X144000Y24860D02*
Y31239D01*
X145000Y24525D02*
Y29856D01*
X146000Y25248D02*
Y28472D01*
X147000Y25971D02*
Y27089D01*
X156464Y32813D02*
X151277Y39989D01*
X145696Y35955*
X150883Y28778*
X156464Y32813*
X150883Y28778D02*
X150883D01*
X150160Y29778D02*
X152267D01*
X149437Y30778D02*
X153650D01*
X148715Y31778D02*
X155033D01*
X147992Y32778D02*
X156417D01*
X147269Y33778D02*
X155766D01*
X146546Y34778D02*
X155043D01*
X145823Y35778D02*
X154321D01*
X146835Y36778D02*
X153598D01*
X148218Y37778D02*
X152875D01*
X149602Y38778D02*
X152152D01*
X150985Y39778D02*
X151429D01*
X146000Y35534D02*
Y36175D01*
X147000Y34150D02*
Y36898D01*
X148000Y32767D02*
Y37621D01*
X149000Y31384D02*
Y38344D01*
X150000Y30000D02*
Y39066D01*
X151000Y28863D02*
Y39789D01*
X152000Y29586D02*
Y38988D01*
X153000Y30309D02*
Y37605D01*
X154000Y31031D02*
Y36222D01*
X155000Y31754D02*
Y34838D01*
X156000Y32477D02*
Y33455D01*
X17130Y129702D02*
X25551Y126965D01*
X26706Y130519*
X18285Y133256*
X17130Y129702*
X25444Y127000D02*
X25563D01*
X22367Y128000D02*
X25888D01*
X19289Y129000D02*
X26213D01*
X17227Y130000D02*
X26538D01*
X17552Y131000D02*
X25227D01*
X17877Y132000D02*
X22149D01*
X18201Y133000D02*
X19071D01*
X17130Y129702D02*
X17130D01*
X18130Y129377D02*
Y132779D01*
X19130Y129052D02*
Y132981D01*
X20130Y128727D02*
Y132656D01*
X21130Y128402D02*
Y132331D01*
X22130Y128077D02*
Y132006D01*
X23130Y127752D02*
Y131681D01*
X24130Y127427D02*
Y131356D01*
X25130Y127102D02*
Y131031D01*
X26130Y128745D02*
Y130707D01*
X13723Y119218D02*
X22145Y116481D01*
X24273Y123031*
X15851Y125767*
X13723Y119218*
X20549Y117000D02*
X22314D01*
X17471Y118000D02*
X22638D01*
X14393Y119000D02*
X22963D01*
X13977Y120000D02*
X23288D01*
X14302Y121000D02*
X23613D01*
X14627Y122000D02*
X23938D01*
X14952Y123000D02*
X24263D01*
X15277Y124000D02*
X21290D01*
X15602Y125000D02*
X18213D01*
X13723Y119218D02*
X13723D01*
X14723Y118893D02*
Y122295D01*
X15723Y118568D02*
Y125373D01*
X16723Y118243D02*
Y125484D01*
X17723Y117918D02*
Y125159D01*
X18723Y117593D02*
Y124834D01*
X19723Y117268D02*
Y124509D01*
X20723Y116943D02*
Y124184D01*
X21723Y116618D02*
Y123859D01*
X22723Y118261D02*
Y123534D01*
X23723Y121339D02*
Y123209D01*
X44829Y30537D02*
X50034Y37701D01*
X50034D02*
X47010Y39898D01*
X41805Y32734*
X44829Y30537*
X44829*
X43452Y31537D02*
X45555D01*
X42076Y32537D02*
X46282D01*
X42389Y33537D02*
X47008D01*
X43116Y34537D02*
X47735D01*
X43842Y35537D02*
X48461D01*
X44569Y36537D02*
X49188D01*
X45295Y37537D02*
X49914D01*
X46022Y38537D02*
X48883D01*
X46748Y39537D02*
X47506D01*
X41805Y32734D02*
X41805D01*
X42805Y32007D02*
Y34110D01*
X43805Y31281D02*
Y35487D01*
X44805Y30554D02*
Y36863D01*
X45805Y31882D02*
Y38239D01*
X46805Y33258D02*
Y39616D01*
X47805Y34634D02*
Y39320D01*
X48805Y36011D02*
Y38594D01*
X49805Y37387D02*
Y37867D01*
X53747Y24058D02*
X58952Y31222D01*
X53380Y35270*
X48175Y28106*
X53747Y24058*
X53747*
X52370Y25058D02*
X54473D01*
X50994Y26058D02*
X55200D01*
X49618Y27058D02*
X55926D01*
X48241Y28058D02*
X56653D01*
X48867Y29058D02*
X57379D01*
X49594Y30058D02*
X58106D01*
X50320Y31058D02*
X58832D01*
X51047Y32058D02*
X57801D01*
X51773Y33058D02*
X56424D01*
X52500Y34058D02*
X55048D01*
X53226Y35058D02*
X53672D01*
X48175Y28106D02*
X48175D01*
X49175Y27379D02*
Y29482D01*
X50175Y26653D02*
Y30858D01*
X51175Y25926D02*
Y32235D01*
X52175Y25200D02*
Y33611D01*
X53175Y24473D02*
Y34988D01*
X54175Y24648D02*
Y34692D01*
X55175Y26024D02*
Y33965D01*
X56175Y27401D02*
Y33239D01*
X57175Y28777D02*
Y32512D01*
X58175Y30153D02*
Y31786D01*
X153495Y168000D02*
X148343Y160799D01*
X151382Y158624*
X156534Y165826*
X153495Y168000*
X150857Y159000D02*
X151651D01*
X149459Y160000D02*
X152366D01*
X148487Y161000D02*
X153082D01*
X149202Y162000D02*
X153797D01*
X149918Y163000D02*
X154513D01*
X150633Y164000D02*
X155228D01*
X151349Y165000D02*
X155944D01*
X152064Y166000D02*
X156291D01*
X152780Y167000D02*
X154893D01*
X153495Y168000D02*
X153496D01*
X149000Y160328D02*
Y161717D01*
X150000Y159613D02*
Y163115D01*
X151000Y158897D02*
Y164513D01*
X152000Y159488D02*
Y165910D01*
X153000Y160886D02*
Y167308D01*
X154000Y162283D02*
Y167639D01*
X155000Y163681D02*
Y166924D01*
X156000Y165079D02*
Y166208D01*
X144530Y174414D02*
X139378Y167213D01*
X144978Y163206*
X150131Y170407*
X144530Y174414*
X143868Y164000D02*
X145547D01*
X142470Y165000D02*
X146262D01*
X141073Y166000D02*
X146978D01*
X139675Y167000D02*
X147693D01*
X139941Y168000D02*
X148409D01*
X140656Y169000D02*
X149124D01*
X141372Y170000D02*
X149839D01*
X142087Y171000D02*
X149303D01*
X142803Y172000D02*
X147905D01*
X143518Y173000D02*
X146507D01*
X144234Y174000D02*
X145109D01*
X140000Y166767D02*
Y168083D01*
X141000Y166052D02*
Y169480D01*
X142000Y165337D02*
Y170878D01*
X143000Y164621D02*
Y172276D01*
X144000Y163906D02*
Y173673D01*
X145000Y163236D02*
Y174078D01*
X146000Y164634D02*
Y173363D01*
X147000Y166031D02*
Y172647D01*
X148000Y167429D02*
Y171932D01*
X149000Y168827D02*
Y171216D01*
X150000Y170224D02*
Y170501D01*
X173038Y127023D02*
X181460Y129760D01*
X180305Y133314*
X171883Y130577*
X173038Y127023*
X172721Y128000D02*
X176044D01*
X172396Y129000D02*
X179122D01*
X172071Y130000D02*
X181382D01*
X173184Y131000D02*
X181057D01*
X176262Y132000D02*
X180732D01*
X179339Y133000D02*
X180407D01*
X172000Y130219D02*
Y130615D01*
X173000Y127141D02*
Y130940D01*
X174000Y127336D02*
Y131265D01*
X175000Y127661D02*
Y131590D01*
X176000Y127986D02*
Y131915D01*
X177000Y128311D02*
Y132240D01*
X178000Y128636D02*
Y132565D01*
X179000Y128960D02*
Y132890D01*
X180000Y129285D02*
Y133215D01*
X181000Y129610D02*
Y131175D01*
X176445Y116540D02*
X184866Y119276D01*
X182738Y125825*
X174317Y123089*
X176445Y116540*
X176295Y117000D02*
X177862D01*
X175970Y118000D02*
X180940D01*
X175645Y119000D02*
X184017D01*
X175320Y120000D02*
X184631D01*
X174995Y121000D02*
X184306D01*
X174670Y122000D02*
X183981D01*
X174345Y123000D02*
X183656D01*
X177120Y124000D02*
X183331D01*
X180198Y125000D02*
X183006D01*
X175000Y120986D02*
Y123311D01*
X176000Y117908D02*
Y123636D01*
X177000Y116720D02*
Y123961D01*
X178000Y117045D02*
Y124286D01*
X179000Y117370D02*
Y124611D01*
X180000Y117695D02*
Y124936D01*
X181000Y118020D02*
Y125261D01*
X182000Y118345D02*
Y125586D01*
X183000Y118669D02*
Y125020D01*
X184000Y118994D02*
Y121942D01*
X50901Y172299D02*
X56106Y165135D01*
X59129Y167332*
X53924Y174496*
X50901Y172299*
X55477Y166000D02*
X57296D01*
X54751Y167000D02*
X58673D01*
X54024Y168000D02*
X58643D01*
X53298Y169000D02*
X57917D01*
X52571Y170000D02*
X57190D01*
X51845Y171000D02*
X56464D01*
X51118Y172000D02*
X55737D01*
X51866Y173000D02*
X55011D01*
X53242Y174000D02*
X54284D01*
X50901Y172299D02*
X50901D01*
X51901Y170923D02*
Y173025D01*
X52901Y169546D02*
Y173752D01*
X53901Y168170D02*
Y174479D01*
X54901Y166793D02*
Y173151D01*
X55901Y165417D02*
Y171775D01*
X56901Y165713D02*
Y170398D01*
X57901Y166439D02*
Y169022D01*
X58901Y167166D02*
Y167646D01*
X41983Y165820D02*
X47188Y158656D01*
X52759Y162704*
X47554Y169867*
X41983Y165820*
X46937Y159000D02*
X47661D01*
X46211Y160000D02*
X49038D01*
X45484Y161000D02*
X50414D01*
X44758Y162000D02*
X51791D01*
X44031Y163000D02*
X52543D01*
X43305Y164000D02*
X51817D01*
X42578Y165000D02*
X51090D01*
X42231Y166000D02*
X50364D01*
X43607Y167000D02*
X49637D01*
X44984Y168000D02*
X48911D01*
X46360Y169000D02*
X48184D01*
X41983Y165820D02*
X41983D01*
X42983Y164443D02*
Y166546D01*
X43983Y163067D02*
Y167273D01*
X44983Y161690D02*
Y167999D01*
X45983Y160314D02*
Y168726D01*
X46983Y158938D02*
Y169452D01*
X47983Y159233D02*
Y169277D01*
X48983Y159960D02*
Y167901D01*
X49983Y160686D02*
Y166525D01*
X50983Y161413D02*
Y165148D01*
X51983Y162140D02*
Y163772D01*
X14853Y75673D02*
X23274Y78409D01*
X22120Y81963*
X13698Y79227*
X14853Y75673*
X14853*
X14528Y76673D02*
X17930D01*
X14203Y77673D02*
X21008D01*
X13878Y78673D02*
X23189D01*
X15070Y79673D02*
X22864D01*
X18148Y80673D02*
X22539D01*
X21226Y81673D02*
X22214D01*
X13698Y79227D02*
X13698D01*
X14698Y76149D02*
Y79552D01*
X15698Y75947D02*
Y79877D01*
X16698Y76272D02*
Y80202D01*
X17698Y76597D02*
Y80526D01*
X18698Y76922D02*
Y80851D01*
X19698Y77247D02*
Y81176D01*
X20698Y77572D02*
Y81501D01*
X21698Y77897D02*
Y81826D01*
X22698Y78222D02*
Y80183D01*
X18259Y65189D02*
X26681Y67925D01*
X24553Y74475*
X16131Y71738*
X18259Y65189*
X18259*
X17934Y66189D02*
X21337D01*
X17609Y67189D02*
X24414D01*
X17284Y68189D02*
X26595D01*
X16959Y69189D02*
X26270D01*
X16635Y70189D02*
X25945D01*
X16310Y71189D02*
X25620D01*
X17517Y72189D02*
X25295D01*
X20595Y73189D02*
X24971D01*
X23673Y74189D02*
X24646D01*
X16131Y71738D02*
X16131D01*
X17131Y68661D02*
Y72063D01*
X18131Y65583D02*
Y72388D01*
X19131Y65472D02*
Y72713D01*
X20131Y65797D02*
Y73038D01*
X21131Y66122D02*
Y73363D01*
X22131Y66447D02*
Y73688D01*
X23131Y66772D02*
Y74013D01*
X24131Y67097D02*
Y74338D01*
X25131Y67422D02*
Y72695D01*
X26131Y67747D02*
Y69617D01*
X105221Y65129D02*
X94698Y70036D01*
X91289Y62724*
X101812Y57817*
X105221Y65129*
X101812Y57817D02*
X101812D01*
X99667Y58817D02*
X102278D01*
X97523Y59817D02*
X102744D01*
X95378Y60817D02*
X103211D01*
X93234Y61817D02*
X103677D01*
X91332Y62817D02*
X104143D01*
X91798Y63817D02*
X104610D01*
X92265Y64817D02*
X105076D01*
X92731Y65817D02*
X103746D01*
X93197Y66817D02*
X101601D01*
X93664Y67817D02*
X99457D01*
X94130Y68817D02*
X97312D01*
X94596Y69817D02*
X95168D01*
X91289Y62724D02*
X91289D01*
X92289Y62258D02*
Y64868D01*
X93289Y61791D02*
Y67013D01*
X94289Y61325D02*
Y69157D01*
X95289Y60859D02*
Y69760D01*
X96289Y60392D02*
Y69294D01*
X97289Y59926D02*
Y68828D01*
X98289Y59460D02*
Y68361D01*
X99289Y58993D02*
Y67895D01*
X100289Y58527D02*
Y67429D01*
X101289Y58061D02*
Y66963D01*
X102289Y58840D02*
Y66496D01*
X103289Y60984D02*
Y66030D01*
X104289Y63129D02*
Y65564D01*
X86338Y24634D02*
X75815Y29541D01*
X72406Y22229*
X82929Y17322*
X86338Y24634*
X82929Y17322D02*
X82929D01*
X80784Y18322D02*
X83395D01*
X78640Y19322D02*
X83861D01*
X76495Y20322D02*
X84328D01*
X74351Y21322D02*
X84794D01*
X72449Y22322D02*
X85260D01*
X72915Y23322D02*
X85727D01*
X73382Y24322D02*
X86193D01*
X73848Y25322D02*
X84863D01*
X74314Y26322D02*
X82718D01*
X74781Y27322D02*
X80574D01*
X75247Y28322D02*
X78429D01*
X75713Y29322D02*
X76285D01*
X72406Y22229D02*
X72406D01*
X73406Y21763D02*
Y24374D01*
X74406Y21297D02*
Y26518D01*
X75406Y20830D02*
Y28663D01*
X76406Y20364D02*
Y29266D01*
X77406Y19898D02*
Y28799D01*
X78406Y19431D02*
Y28333D01*
X79406Y18965D02*
Y27867D01*
X80406Y18499D02*
Y27400D01*
X81406Y18032D02*
Y26934D01*
X82406Y17566D02*
Y26468D01*
X83406Y18345D02*
Y26001D01*
X84406Y20489D02*
Y25535D01*
X85406Y22634D02*
Y25069D01*
X97350Y27753D02*
X91822Y30331D01*
X90575Y27657*
X96103Y25080*
X97350Y27753*
X96103Y25080D02*
X96103D01*
X93958Y26080D02*
X96569D01*
X91814Y27080D02*
X97036D01*
X90772Y28080D02*
X96649D01*
X91238Y29080D02*
X94504D01*
X91705Y30080D02*
X92360D01*
X90575Y27657D02*
X90575D01*
X91575Y27191D02*
Y29802D01*
X92575Y26725D02*
Y29979D01*
X93575Y26259D02*
Y29513D01*
X94575Y25792D02*
Y29047D01*
X95575Y25326D02*
Y28580D01*
X96575Y26093D02*
Y28114D01*
X99429Y32213D02*
X93902Y34791D01*
X92655Y32117*
X98183Y29540*
X99429Y32213*
X98183Y29540D02*
X98183D01*
X96038Y30540D02*
X98649D01*
X93894Y31540D02*
X99115D01*
X92852Y32540D02*
X98729D01*
X93318Y33540D02*
X96584D01*
X93785Y34540D02*
X94440D01*
X92655Y32117D02*
X92655D01*
X93655Y31651D02*
Y34262D01*
X94655Y31185D02*
Y34439D01*
X95655Y30719D02*
Y33973D01*
X96655Y30252D02*
Y33507D01*
X97655Y29786D02*
Y33040D01*
X98655Y30553D02*
Y32574D01*
X101509Y36673D02*
X95981Y39251D01*
X94735Y36578*
X100263Y34000*
X101509Y36673*
X100263Y34000D02*
X100263D01*
X98118Y35000D02*
X100729D01*
X95974Y36000D02*
X101195D01*
X94932Y37000D02*
X100808D01*
X95398Y38000D02*
X98664D01*
X95864Y39000D02*
X96519D01*
X94735Y36578D02*
X94735D01*
X95735Y36111D02*
Y38722D01*
X96735Y35645D02*
Y38900D01*
X97735Y35179D02*
Y38433D01*
X98735Y34712D02*
Y37967D01*
X99735Y34246D02*
Y37501D01*
X100735Y35013D02*
Y37034D01*
X103589Y41133D02*
X98061Y43711D01*
X96815Y41038*
X102342Y38460*
X103589Y41133*
X102342Y38460D02*
X102342D01*
X100198Y39460D02*
X102809D01*
X98053Y40460D02*
X103275D01*
X97012Y41460D02*
X102888D01*
X97478Y42460D02*
X100744D01*
X97944Y43460D02*
X98599D01*
X96815Y41038D02*
X96815D01*
X97815Y40571D02*
Y43182D01*
X98815Y40105D02*
Y43360D01*
X99815Y39639D02*
Y42893D01*
X100815Y39173D02*
Y42427D01*
X101815Y38706D02*
Y41961D01*
X102815Y39473D02*
Y41494D01*
X105669Y45593D02*
X100141Y48171D01*
X98894Y45498*
X104422Y42920*
X105669Y45593*
X104422Y42920D02*
X104422D01*
X102278Y43920D02*
X104888D01*
X100133Y44920D02*
X105355D01*
X99091Y45920D02*
X104968D01*
X99558Y46920D02*
X102823D01*
X100024Y47920D02*
X100679D01*
X98894Y45498D02*
X98894D01*
X99894Y45032D02*
Y47642D01*
X100894Y44565D02*
Y47820D01*
X101894Y44099D02*
Y47353D01*
X102894Y43633D02*
Y46887D01*
X103894Y43166D02*
Y46421D01*
X104894Y43933D02*
Y45955D01*
X107748Y50054D02*
X102221Y52631D01*
X100974Y49958*
X106502Y47381*
X107748Y50054*
X106502Y47381D02*
X106502D01*
X104357Y48381D02*
X106968D01*
X102213Y49381D02*
X107435D01*
X101171Y50381D02*
X107048D01*
X101637Y51381D02*
X104903D01*
X102104Y52381D02*
X102759D01*
X101000Y49946D02*
Y50014D01*
X102000Y49480D02*
Y52158D01*
X103000Y49014D02*
Y52268D01*
X104000Y48547D02*
Y51802D01*
X105000Y48081D02*
Y51335D01*
X106000Y47615D02*
Y50869D01*
X107000Y48449D02*
Y50403D01*
X81955Y154128D02*
X70834Y148215D01*
X72589Y144916*
X83710Y150829*
X81955Y154128*
X72544Y145000D02*
X72748D01*
X72012Y146000D02*
X74628D01*
X71480Y147000D02*
X76509D01*
X70949Y148000D02*
X78390D01*
X72311Y149000D02*
X80271D01*
X74191Y150000D02*
X82151D01*
X76072Y151000D02*
X83619D01*
X77953Y152000D02*
X83087D01*
X79833Y153000D02*
X82555D01*
X81714Y154000D02*
X82024D01*
X70834Y148215D02*
X70834D01*
X71834Y146334D02*
Y148747D01*
X72834Y145046D02*
Y149279D01*
X73834Y145578D02*
Y149810D01*
X74834Y146110D02*
Y150342D01*
X75834Y146641D02*
Y150874D01*
X76834Y147173D02*
Y151405D01*
X77834Y147705D02*
Y151937D01*
X78834Y148236D02*
Y152469D01*
X79834Y148768D02*
Y153001D01*
X80834Y149300D02*
Y153532D01*
X81834Y149832D02*
Y154064D01*
X82834Y150363D02*
Y152475D01*
X79183Y159342D02*
X68062Y153429D01*
X69817Y150129*
X80938Y156042*
X79183Y159342*
X69354Y151000D02*
X71454D01*
X68822Y152000D02*
X73335D01*
X68290Y153000D02*
X75216D01*
X69136Y154000D02*
X77096D01*
X71017Y155000D02*
X78977D01*
X72898Y156000D02*
X80858D01*
X74779Y157000D02*
X80429D01*
X76659Y158000D02*
X79897D01*
X78540Y159000D02*
X79365D01*
X68062Y153429D02*
X68062D01*
X69062Y151548D02*
Y153961D01*
X70062Y150260D02*
Y154492D01*
X71062Y150792D02*
Y155024D01*
X72062Y151323D02*
Y155556D01*
X73062Y151855D02*
Y156087D01*
X74062Y152387D02*
Y156619D01*
X75062Y152918D02*
Y157151D01*
X76062Y153450D02*
Y157683D01*
X77062Y153982D02*
Y158214D01*
X78062Y154514D02*
Y158746D01*
X79062Y155045D02*
Y159278D01*
X80062Y155577D02*
Y157689D01*
X70968Y139368D02*
X63149Y135211D01*
X65828Y130174*
X73646Y134331*
X70968Y139368*
X65388Y131000D02*
X67382D01*
X64857Y132000D02*
X69263D01*
X64325Y133000D02*
X71143D01*
X63793Y134000D02*
X73024D01*
X63261Y135000D02*
X73290D01*
X64633Y136000D02*
X72759D01*
X66513Y137000D02*
X72227D01*
X68394Y138000D02*
X71695D01*
X70275Y139000D02*
X71164D01*
X63149Y135211D02*
X63149D01*
X64149Y133330D02*
Y135743D01*
X65149Y131450D02*
Y136275D01*
X66149Y130344D02*
Y136806D01*
X67149Y130876D02*
Y137338D01*
X68149Y131408D02*
Y137870D01*
X69149Y131940D02*
Y138401D01*
X70149Y132471D02*
Y138933D01*
X71149Y133003D02*
Y139027D01*
X72149Y133535D02*
Y137147D01*
X73149Y134066D02*
Y135266D01*
X59877Y160224D02*
X52059Y156067D01*
X54737Y151029*
X62556Y155186*
X59877Y160224*
X54221Y152000D02*
X56563D01*
X53689Y153000D02*
X58444D01*
X53158Y154000D02*
X60324D01*
X52626Y155000D02*
X62205D01*
X52094Y156000D02*
X62123D01*
X53814Y157000D02*
X61592D01*
X55694Y158000D02*
X61060D01*
X57575Y159000D02*
X60528D01*
X59456Y160000D02*
X59997D01*
X52059Y156067D02*
X52059D01*
X53059Y154186D02*
Y156599D01*
X54059Y152305D02*
Y157130D01*
X55059Y151200D02*
Y157662D01*
X56059Y151732D02*
Y158194D01*
X57059Y152264D02*
Y158725D01*
X58059Y152795D02*
Y159257D01*
X59059Y153327D02*
Y159789D01*
X60059Y153859D02*
Y159883D01*
X61059Y154390D02*
Y158002D01*
X62059Y154922D02*
Y156122D01*
G54D33*
X10915Y118824D02*
X25269Y114160D01*
Y84274*
X10915Y79611*
X10912Y79625D02*
G75*
G03Y118810I88376J19592D01*
G01X31571Y122839D02*
G03X31571I-3149J0D01*
G01Y75595D02*
G03X31571I-3149J0D01*
G01X167398Y148824D02*
G03X167398I-3937J0D01*
G01X134474Y24617D02*
G03X134474I-3347J0D01*
G54D36*
G01X44820Y96045D03*
G54D37*
X41032Y88045D03*
X48532D03*
G54D38*
X48819Y103937D03*
X37008D03*
G54D39*
X44291Y111811D03*
X38291D03*
G54D40*
X136508Y147846D03*
Y153846D03*
X108949Y164499D03*
Y170499D03*
X124303Y164499D03*
Y170499D03*
X148319Y138988D03*
Y132988D03*
X130602Y153751D03*
Y147751D03*
G54D41*
X119185Y170696D03*
Y164499D03*
X114185Y170696D03*
Y164499D03*
G54D42*
X164854Y103555D03*
X157374D03*
Y95681D03*
X164854D03*
X157374Y87807D03*
X164854D03*
Y111429D03*
X157374D03*
G54D43*
X74173Y79449D03*
X84173D03*
X94173D03*
X104173D03*
X114173D03*
X124173Y119449D03*
X114173D03*
X104173D03*
X94173D03*
X84173D03*
X74173D03*
G54D44*
X104732Y182419D03*
X104883Y16137D03*
G54D45*
X95284Y182419D03*
X95435Y16137D03*
G54D46*
X124185Y158673D03*
G54D47*
X119185D03*
X114185D03*
X109185D03*
X104185D03*
X99185D03*
X94185D03*
X89185D03*
Y136173D03*
X94185D03*
X99185D03*
X104185D03*
X109185D03*
X114185D03*
X119185D03*
X124185D03*
G54D48*
X141242Y140919D03*
X133742D03*
G54D49*
X137492Y132919D03*
G54D50*
X125299Y61614D03*
X131496D03*
X131512Y66929D03*
X125315D03*
X47823Y76389D03*
X41626D03*
X41532Y82137D03*
X47728D03*
G54D51*
X149303Y111429D03*
Y123240D03*
G74*
X0Y0D02*
M02*
