*
*
G04 PADS VX.2.2 Build Number: 7607494 generated Gerber (RS-274-X) file*
G04 PC Version=2.1*
*
%IN "Untitled"*%
*
%MOIN*%
*
%FSLAX35Y35*%
*
*
*
*
G04 PC Standard Apertures*
*
*
G04 Thermal Relief Aperture macro.*
%AMTER*
1,1,$1,0,0*
1,0,$1-$2,0,0*
21,0,$3,$4,0,0,45*
21,0,$3,$4,0,0,135*
%
*
*
G04 Annular Aperture macro.*
%AMANN*
1,1,$1,0,0*
1,0,$2,0,0*
%
*
*
G04 Odd Aperture macro.*
%AMODD*
1,1,$1,0,0*
1,0,$1-0.005,0,0*
%
*
*
G04 PC Custom Aperture Macros*
*
*
*
*
*
*
G04 PC Aperture Table*
*
%ADD010C,0.001*%
%ADD011C,0.01*%
%ADD012R,0.03598X0.05*%
%ADD013R,0.03937X0.04724*%
%ADD014R,0.06X0.05*%
%ADD015R,0.03X0.033*%
%ADD016R,0.033X0.03*%
%ADD017R,0.03299X0.03*%
%ADD018R,0.03937X0.05118*%
%ADD020R,0.03937X0.09055*%
%ADD021R,0.07087X0.09055*%
%ADD022R,0.01968X0.05905*%
%ADD023O,0.01968X0.05905*%
%ADD024R,0.036X0.036*%
%ADD025R,0.036X0.05*%
%ADD026R,0.03X0.03299*%
%ADD027R,0.05X0.06*%
%ADD033C,0.005*%
*
*
*
*
G04 PC Circuitry*
G04 Layer Name Untitled - circuitry*
%LPD*%
*
*
G04 PC Custom Flashes*
G04 Layer Name Untitled - flashes*
%LPD*%
*
*
G04 PC Circuitry*
G04 Layer Name Untitled - circuitry*
%LPD*%
*
G54D10*
G54D11*
G01X110412Y31145D02*
X112428Y30038D01*
X113391Y31791*
X111375Y32898*
X110412Y31145*
X112428Y30038D02*
X112428D01*
X110607Y31038D02*
X112977D01*
X110903Y32038D02*
X112941D01*
X111000Y30822D02*
Y32215D01*
X112000Y30273D02*
Y32555D01*
X113000Y31079D02*
Y32006D01*
X113301Y36404D02*
X115317Y35297D01*
X116279Y37050*
X114263Y38157*
X113301Y36404*
X115317Y35297D02*
X115317D01*
X113496Y36297D02*
X115866D01*
X113791Y37297D02*
X115830D01*
X114000Y36020D02*
Y37678D01*
X115000Y35471D02*
Y37753D01*
X116000Y36541D02*
Y37203D01*
X159062Y52400D02*
X155983Y54954D01*
X154324Y52954*
X157403Y50400*
X159062Y52400*
X157403Y50400D02*
X157403D01*
X156197Y51400D02*
X158232D01*
X154992Y52400D02*
X159062D01*
X154694Y53400D02*
X157856D01*
X155524Y54400D02*
X156651D01*
X155000Y52393D02*
Y53769D01*
X156000Y51564D02*
Y54940D01*
X157000Y50734D02*
Y54110D01*
X158000Y51120D02*
Y53281D01*
X159000Y52326D02*
Y52451D01*
X155325Y60641D02*
X152458Y63019D01*
X150583Y60759*
X153449Y58381*
X155325Y60641*
X153449Y58381D02*
X153449D01*
X152244Y59381D02*
X154279D01*
X151038Y60381D02*
X155109D01*
X151099Y61381D02*
X154433D01*
X151929Y62381D02*
X153228D01*
X151000Y60413D02*
Y61261D01*
X152000Y59583D02*
Y62467D01*
X153000Y58753D02*
Y62569D01*
X154000Y59044D02*
Y61740D01*
X155000Y60250D02*
Y60910D01*
X150536Y54869D02*
X147670Y57247D01*
X145794Y54986*
X145794D02*
X148661Y52608D01*
X150536Y54869*
X148661Y52608D02*
X148661D01*
X147456Y53608D02*
X149491D01*
X146250Y54608D02*
X150320D01*
X146311Y55608D02*
X149645D01*
X147140Y56608D02*
X148439D01*
X146000Y54816D02*
Y55234D01*
X147000Y53986D02*
Y56439D01*
X148000Y53157D02*
Y56973D01*
X149000Y53017D02*
Y56143D01*
X150000Y54222D02*
Y55313D01*
X180975Y68380D02*
X173314Y70869D01*
X172407Y68076*
X180068Y65587*
X180975Y68380*
X180068Y65587D02*
X180068D01*
X176990Y66587D02*
X180393D01*
X173912Y67587D02*
X180718D01*
X172573Y68587D02*
X180339D01*
X172898Y69587D02*
X177261D01*
X173223Y70587D02*
X174184D01*
X173000Y67883D02*
Y69902D01*
X174000Y67559D02*
Y70647D01*
X175000Y67234D02*
Y70322D01*
X176000Y66909D02*
Y69997D01*
X177000Y66584D02*
Y69672D01*
X178000Y66259D02*
Y69347D01*
X179000Y65934D02*
Y69022D01*
X180000Y65609D02*
Y68697D01*
X184382Y78864D02*
X176721Y81353D01*
X174840Y75565*
X182501Y73075*
X184382Y78864*
X182501Y73075D02*
X182501D01*
X179423Y74075D02*
X182826D01*
X176346Y75075D02*
X183151D01*
X175006Y76075D02*
X183476D01*
X175331Y77075D02*
X183801D01*
X175656Y78075D02*
X184126D01*
X175981Y79075D02*
X183731D01*
X176306Y80075D02*
X180654D01*
X176631Y81075D02*
X177576D01*
X175000Y75513D02*
Y76057D01*
X176000Y75188D02*
Y79134D01*
X177000Y74863D02*
Y81263D01*
X178000Y74538D02*
Y80938D01*
X179000Y74213D02*
Y80613D01*
X180000Y73888D02*
Y80288D01*
X181000Y73563D02*
Y79963D01*
X182000Y73238D02*
Y79638D01*
X183000Y74611D02*
Y79313D01*
X184000Y77689D02*
Y78988D01*
X146972Y26445D02*
X142253Y32973D01*
X139873Y31252*
X144592Y24724*
X146972Y26445*
X144592Y24724D02*
X144592D01*
X143869Y25724D02*
X145975D01*
X143146Y26724D02*
X146770D01*
X142423Y27724D02*
X146047D01*
X141700Y28724D02*
X145324D01*
X140978Y29724D02*
X144602D01*
X140255Y30724D02*
X143879D01*
X140526Y31724D02*
X143156D01*
X141909Y32724D02*
X142433D01*
X140000Y31076D02*
Y31344D01*
X141000Y29693D02*
Y32067D01*
X142000Y28310D02*
Y32790D01*
X143000Y26926D02*
Y31940D01*
X144000Y25543D02*
Y30556D01*
X145000Y25019D02*
Y29173D01*
X146000Y25742D02*
Y27790D01*
X155906Y32903D02*
X151187Y39431D01*
X146254Y35865*
X150973Y29337*
X155906Y32903*
X150973Y29337D02*
X150973D01*
X150250Y30337D02*
X152356D01*
X149527Y31337D02*
X153740D01*
X148804Y32337D02*
X155123D01*
X148082Y33337D02*
X155592D01*
X147359Y34337D02*
X154869D01*
X146636Y35337D02*
X154146D01*
X146907Y36337D02*
X153423D01*
X148290Y37337D02*
X152700D01*
X149674Y38337D02*
X151977D01*
X151057Y39337D02*
X151255D01*
X147000Y34833D02*
Y36404D01*
X148000Y33450D02*
Y37127D01*
X149000Y32066D02*
Y37850D01*
X150000Y30683D02*
Y38573D01*
X151000Y29356D02*
Y39296D01*
X152000Y30079D02*
Y38306D01*
X153000Y30802D02*
Y36922D01*
X154000Y31525D02*
Y35539D01*
X155000Y32248D02*
Y34156D01*
X17634Y129958D02*
X25295Y127469D01*
X26202Y130262*
X18541Y132752*
X17634Y129958*
X23661Y128000D02*
X25467D01*
X20583Y129000D02*
X25792D01*
X17647Y130000D02*
X26117D01*
X17972Y131000D02*
X23932D01*
X18297Y132000D02*
X20855D01*
X17634Y129958D02*
X17634D01*
X18634Y129633D02*
Y132722D01*
X19634Y129309D02*
Y132397D01*
X20634Y128984D02*
Y132072D01*
X21634Y128659D02*
Y131747D01*
X22634Y128334D02*
Y131422D01*
X23634Y128009D02*
Y131097D01*
X24634Y127684D02*
Y130772D01*
X25634Y128513D02*
Y130447D01*
X14227Y119474D02*
X21888Y116985D01*
X23769Y122774*
X16108Y125263*
X14227Y119474*
X21843Y117000D02*
X21893D01*
X18765Y118000D02*
X22218D01*
X15688Y119000D02*
X22543D01*
X14398Y120000D02*
X22868D01*
X14723Y121000D02*
X23193D01*
X15048Y122000D02*
X23518D01*
X15373Y123000D02*
X23074D01*
X15698Y124000D02*
X19996D01*
X16023Y125000D02*
X16918D01*
X14227Y119474D02*
X14227D01*
X15227Y119150D02*
Y122552D01*
X16227Y118825D02*
Y125224D01*
X17227Y118500D02*
Y124900D01*
X18227Y118175D02*
Y124575D01*
X19227Y117850D02*
Y124250D01*
X20227Y117525D02*
Y123925D01*
X21227Y117200D02*
Y123600D01*
X22227Y118029D02*
Y123275D01*
X23227Y121107D02*
Y122950D01*
X44740Y31096D02*
X49475Y37613D01*
X47099Y39339*
X42364Y32822*
X44740Y31096*
X44740*
X43364Y32096D02*
X45467D01*
X42563Y33096D02*
X46193D01*
X43289Y34096D02*
X46920D01*
X44016Y35096D02*
X47646D01*
X44742Y36096D02*
X48373D01*
X45469Y37096D02*
X49099D01*
X46196Y38096D02*
X48810D01*
X46922Y39096D02*
X47433D01*
X42364Y32822D02*
X42364D01*
X43364Y32096D02*
Y34199D01*
X44364Y31369D02*
Y35575D01*
X45364Y31955D02*
Y36952D01*
X46364Y33331D02*
Y38328D01*
X47364Y34708D02*
Y39146D01*
X48364Y36084D02*
Y38420D01*
X49364Y37460D02*
Y37693D01*
X53658Y24617D02*
X58393Y31133D01*
X53469Y34711*
X48734Y28194*
X53658Y24617*
X53658*
X52282Y25617D02*
X54385D01*
X50905Y26617D02*
X55111D01*
X49529Y27617D02*
X55838D01*
X49041Y28617D02*
X56564D01*
X49767Y29617D02*
X57291D01*
X50494Y30617D02*
X58017D01*
X51221Y31617D02*
X57728D01*
X51947Y32617D02*
X56351D01*
X52674Y33617D02*
X54975D01*
X53400Y34617D02*
X53599D01*
X48734Y28194D02*
X48734D01*
X49734Y27468D02*
Y29571D01*
X50734Y26741D02*
Y30947D01*
X51734Y26015D02*
Y32323D01*
X52734Y25288D02*
Y33700D01*
X53734Y24721D02*
Y34518D01*
X54734Y26097D02*
Y33792D01*
X55734Y27474D02*
Y33065D01*
X56734Y28850D02*
Y32339D01*
X57734Y30227D02*
Y31612D01*
X153588Y167442D02*
X148901Y160891D01*
X151289Y159182*
X155976Y165733*
X153588Y167442*
X150146Y160000D02*
X151875D01*
X148979Y161000D02*
X152590D01*
X149694Y162000D02*
X153305D01*
X150410Y163000D02*
X154021D01*
X151125Y164000D02*
X154736D01*
X151841Y165000D02*
X155452D01*
X152556Y166000D02*
X155604D01*
X153271Y167000D02*
X154206D01*
X149000Y160820D02*
Y161030D01*
X150000Y160105D02*
Y162427D01*
X151000Y159389D02*
Y163825D01*
X152000Y160175D02*
Y165223D01*
X153000Y161573D02*
Y166621D01*
X154000Y162971D02*
Y167147D01*
X155000Y164369D02*
Y166432D01*
X144623Y173856D02*
X139936Y167305D01*
X144886Y163764*
X149573Y170315*
X144623Y173856*
X144556Y164000D02*
X145055D01*
X143158Y165000D02*
X145770D01*
X141760Y166000D02*
X146486D01*
X140362Y167000D02*
X147201D01*
X140433Y168000D02*
X147917D01*
X141148Y169000D02*
X148632D01*
X141864Y170000D02*
X149348D01*
X142579Y171000D02*
X148615D01*
X143295Y172000D02*
X147217D01*
X144010Y173000D02*
X145820D01*
X140000Y167259D02*
Y167395D01*
X141000Y166544D02*
Y168793D01*
X142000Y165828D02*
Y170191D01*
X143000Y165113D02*
Y171588D01*
X144000Y164397D02*
Y172986D01*
X145000Y163923D02*
Y173586D01*
X146000Y165321D02*
Y172871D01*
X147000Y166719D02*
Y172156D01*
X148000Y168116D02*
Y171440D01*
X149000Y169514D02*
Y170725D01*
X173295Y127527D02*
X180956Y130017D01*
X180048Y132810*
X172388Y130321*
X173295Y127527*
X173142Y128000D02*
X174750D01*
X172817Y129000D02*
X177827D01*
X172492Y130000D02*
X180905D01*
X174478Y131000D02*
X180636D01*
X177556Y132000D02*
X180311D01*
X173000Y128436D02*
Y130520D01*
X174000Y127756D02*
Y130845D01*
X175000Y128081D02*
Y131170D01*
X176000Y128406D02*
Y131494D01*
X177000Y128731D02*
Y131819D01*
X178000Y129056D02*
Y132144D01*
X179000Y129381D02*
Y132469D01*
X180000Y129706D02*
Y132794D01*
X176701Y117044D02*
X184362Y119533D01*
X182481Y125321*
X174821Y122832*
X176701Y117044*
X176391Y118000D02*
X179645D01*
X176066Y119000D02*
X182723D01*
X175741Y120000D02*
X184210D01*
X175416Y121000D02*
X183886D01*
X175091Y122000D02*
X183561D01*
X175337Y123000D02*
X183236D01*
X178415Y124000D02*
X182911D01*
X181492Y125000D02*
X182586D01*
X175000Y122280D02*
Y122891D01*
X176000Y119202D02*
Y123215D01*
X177000Y117141D02*
Y123540D01*
X178000Y117465D02*
Y123865D01*
X179000Y117790D02*
Y124190D01*
X180000Y118115D02*
Y124515D01*
X181000Y118440D02*
Y124840D01*
X182000Y118765D02*
Y125165D01*
X183000Y119090D02*
Y123725D01*
X184000Y119415D02*
Y120648D01*
X51459Y172210D02*
X56194Y165694D01*
X58570Y167420*
X53836Y173937*
X51459Y172210*
X55972Y166000D02*
X56616D01*
X55245Y167000D02*
X57992D01*
X54519Y168000D02*
X58149D01*
X53792Y169000D02*
X57422D01*
X53065Y170000D02*
X56696D01*
X52339Y171000D02*
X55969D01*
X51612Y172000D02*
X55243D01*
X52546Y173000D02*
X54516D01*
X51459Y172210D02*
X51459D01*
X52459Y170834D02*
Y172937D01*
X53459Y169458D02*
Y173664D01*
X54459Y168081D02*
Y173078D01*
X55459Y166705D02*
Y171702D01*
X56459Y165887D02*
Y170325D01*
X57459Y166613D02*
Y168949D01*
X58459Y167340D02*
Y167573D01*
X42541Y165731D02*
X47276Y159214D01*
X52200Y162792*
X47466Y169309*
X42541Y165731*
X46705Y160000D02*
X48357D01*
X45979Y161000D02*
X49734D01*
X45252Y162000D02*
X51110D01*
X44526Y163000D02*
X52049D01*
X43799Y164000D02*
X51323D01*
X43073Y165000D02*
X50596D01*
X42911Y166000D02*
X49869D01*
X44288Y167000D02*
X49143D01*
X45664Y168000D02*
X48416D01*
X47041Y169000D02*
X47690D01*
X42541Y165731D02*
X42541D01*
X43541Y164355D02*
Y166458D01*
X44541Y162978D02*
Y167184D01*
X45541Y161602D02*
Y167911D01*
X46541Y160226D02*
Y168637D01*
X47541Y159407D02*
Y169204D01*
X48541Y160134D02*
Y167828D01*
X49541Y160860D02*
Y166452D01*
X50541Y161587D02*
Y165075D01*
X51541Y162313D02*
Y163699D01*
X15110Y76177D02*
X22770Y78666D01*
X21863Y81459*
X14202Y78970*
X15110Y76177*
X15110*
X14785Y77177D02*
X18187D01*
X14460Y78177D02*
X21265D01*
X14838Y79177D02*
X22604D01*
X17916Y80177D02*
X22280D01*
X20994Y81177D02*
X21955D01*
X14202Y78970D02*
X14202D01*
X15202Y76207D02*
Y79295D01*
X16202Y76532D02*
Y79620D01*
X17202Y76857D02*
Y79945D01*
X18202Y77182D02*
Y80270D01*
X19202Y77506D02*
Y80595D01*
X20202Y77831D02*
Y80920D01*
X21202Y78156D02*
Y81244D01*
X22202Y78481D02*
Y80415D01*
X18516Y65693D02*
X26177Y68182D01*
X24296Y73971*
X16635Y71482*
X18516Y65693*
X18516*
X18191Y66693D02*
X21594D01*
X17866Y67693D02*
X24671D01*
X17541Y68693D02*
X26011D01*
X17216Y69693D02*
X25686D01*
X16891Y70693D02*
X25361D01*
X17285Y71693D02*
X25036D01*
X20363Y72693D02*
X24711D01*
X23441Y73693D02*
X24386D01*
X16635Y71482D02*
X16635D01*
X17635Y68404D02*
Y71806D01*
X18635Y65732D02*
Y72131D01*
X19635Y66056D02*
Y72456D01*
X20635Y66381D02*
Y72781D01*
X21635Y66706D02*
Y73106D01*
X22635Y67031D02*
Y73431D01*
X23635Y67356D02*
Y73756D01*
X24635Y67681D02*
Y72927D01*
X25635Y68006D02*
Y69849D01*
X104690Y64935D02*
X94892Y69504D01*
X91820Y62917*
X101618Y58348*
X104690Y64935*
X101618Y58348D02*
X101618D01*
X99474Y59348D02*
X102085D01*
X97329Y60348D02*
X102551D01*
X95185Y61348D02*
X103017D01*
X93040Y62348D02*
X103484D01*
X92021Y63348D02*
X103950D01*
X92488Y64348D02*
X104416D01*
X92954Y65348D02*
X103804D01*
X93420Y66348D02*
X101659D01*
X93887Y67348D02*
X99515D01*
X94353Y68348D02*
X97370D01*
X94819Y69348D02*
X95226D01*
X91820Y62917D02*
X91820D01*
X92820Y62451D02*
Y65062D01*
X93820Y61985D02*
Y67206D01*
X94820Y61518D02*
Y69351D01*
X95820Y61052D02*
Y69071D01*
X96820Y60586D02*
Y68605D01*
X97820Y60119D02*
Y68139D01*
X98820Y59653D02*
Y67672D01*
X99820Y59187D02*
Y67206D01*
X100820Y58721D02*
Y66740D01*
X101820Y58781D02*
Y66273D01*
X102820Y60926D02*
Y65807D01*
X103820Y63070D02*
Y65341D01*
X85807Y24440D02*
X76009Y29009D01*
X72937Y22423*
X82735Y17854*
X85807Y24440*
X82735Y17854D02*
X82735D01*
X80591Y18854D02*
X83202D01*
X78446Y19854D02*
X83668D01*
X76302Y20854D02*
X84134D01*
X74157Y21854D02*
X84601D01*
X73138Y22854D02*
X85067D01*
X73605Y23854D02*
X85533D01*
X74071Y24854D02*
X84921D01*
X74537Y25854D02*
X82776D01*
X75004Y26854D02*
X80632D01*
X75470Y27854D02*
X78487D01*
X75936Y28854D02*
X76343D01*
X72937Y22423D02*
X72937D01*
X73937Y21956D02*
Y24567D01*
X74937Y21490D02*
Y26712D01*
X75937Y21024D02*
Y28856D01*
X76937Y20557D02*
Y28576D01*
X77937Y20091D02*
Y28110D01*
X78937Y19625D02*
Y27644D01*
X79937Y19158D02*
Y27177D01*
X80937Y18692D02*
Y26711D01*
X81937Y18226D02*
Y26245D01*
X82937Y18287D02*
Y25779D01*
X83937Y20431D02*
Y25312D01*
X84937Y22576D02*
Y24846D01*
X96818Y27560D02*
X92015Y29799D01*
X91107Y27851*
X95910Y25611*
X95910D02*
X96818Y27560D01*
X95910Y25611D02*
X95910D01*
X93765Y26611D02*
X96376D01*
X91620Y27611D02*
X96707D01*
X91461Y28611D02*
X94562D01*
X91928Y29611D02*
X92418D01*
X91107Y27851D02*
X91107D01*
X92107Y27385D02*
Y29756D01*
X93107Y26918D02*
Y29290D01*
X94107Y26452D02*
Y28824D01*
X95107Y25986D02*
Y28358D01*
X96107Y26034D02*
Y27891D01*
X98898Y32020D02*
X94095Y34259D01*
X93187Y32311*
X97989Y30071*
X98898Y32020*
X97989Y30071D02*
X97989D01*
X95845Y31071D02*
X98456D01*
X93700Y32071D02*
X98787D01*
X93541Y33071D02*
X96642D01*
X94008Y34071D02*
X94498D01*
X93187Y32311D02*
X93187D01*
X94187Y31845D02*
Y34216D01*
X95187Y31378D02*
Y33750D01*
X96187Y30912D02*
Y33284D01*
X97187Y30446D02*
Y32818D01*
X98187Y30494D02*
Y32351D01*
X100978Y36480D02*
X96175Y38719D01*
X95266Y36771*
X100069Y34532*
X100978Y36480*
X100069Y34532D02*
X100069D01*
X97925Y35532D02*
X100535D01*
X95780Y36532D02*
X100867D01*
X95621Y37532D02*
X98722D01*
X96087Y38532D02*
X96578D01*
X95266Y36771D02*
X95266D01*
X96266Y36305D02*
Y38677D01*
X97266Y35839D02*
Y38210D01*
X98266Y35372D02*
Y37744D01*
X99266Y34906D02*
Y37278D01*
X100266Y34955D02*
Y36811D01*
X103057Y40940D02*
X98255Y43179D01*
X97346Y41231*
X102149Y38992*
X103057Y40940*
X102149Y38992D02*
X102149D01*
X100004Y39992D02*
X102615D01*
X97860Y40992D02*
X102946D01*
X97701Y41992D02*
X100802D01*
X98167Y42992D02*
X98657D01*
X97346Y41231D02*
X97346D01*
X98346Y40765D02*
Y43137D01*
X99346Y40299D02*
Y42670D01*
X100346Y39832D02*
Y42204D01*
X101346Y39366D02*
Y41738D01*
X102346Y39415D02*
Y41272D01*
X105137Y45400D02*
X100334Y47640D01*
X99426Y45691*
X104229Y43452*
X105137Y45400*
X104229Y43452D02*
X104229D01*
X102084Y44452D02*
X104695D01*
X99940Y45452D02*
X105026D01*
X99781Y46452D02*
X102882D01*
X100247Y47452D02*
X100737D01*
X99426Y45691D02*
X99426D01*
X100426Y45225D02*
Y47597D01*
X101426Y44759D02*
Y47131D01*
X102426Y44292D02*
Y46664D01*
X103426Y43826D02*
Y46198D01*
X104426Y43875D02*
Y45732D01*
X107217Y49860D02*
X102414Y52100D01*
X101506Y50152*
X106308Y47912*
X107217Y49860*
X106308Y47912D02*
X106308D01*
X104164Y48912D02*
X106775D01*
X102019Y49912D02*
X107106D01*
X101860Y50912D02*
X104961D01*
X102327Y51912D02*
X102817D01*
X102000Y49921D02*
Y51212D01*
X103000Y49455D02*
Y51827D01*
X104000Y48989D02*
Y51360D01*
X105000Y48522D02*
Y50894D01*
X106000Y48056D02*
Y50428D01*
X107000Y49395D02*
Y49961D01*
X81790Y153587D02*
X71375Y148050D01*
X72754Y145457*
X83169Y150994*
X81790Y153587*
X72465Y146000D02*
X73776D01*
X71934Y147000D02*
X75657D01*
X71402Y148000D02*
X77538D01*
X73163Y149000D02*
X79419D01*
X75043Y150000D02*
X81299D01*
X76924Y151000D02*
X83166D01*
X78805Y152000D02*
X82634D01*
X80685Y153000D02*
X82102D01*
X71375Y148050D02*
X71375D01*
X72375Y146169D02*
Y148581D01*
X73375Y145787D02*
Y149113D01*
X74375Y146318D02*
Y149645D01*
X75375Y146850D02*
Y150177D01*
X76375Y147382D02*
Y150708D01*
X77375Y147914D02*
Y151240D01*
X78375Y148445D02*
Y151772D01*
X79375Y148977D02*
Y152303D01*
X80375Y149509D02*
Y152835D01*
X81375Y150040D02*
Y153367D01*
X82375Y150572D02*
Y152486D01*
X79018Y158801D02*
X68603Y153264D01*
X69982Y150670*
X80397Y156208*
X79018Y158801*
X69807Y151000D02*
X70602D01*
X69275Y152000D02*
X72483D01*
X68743Y153000D02*
X74364D01*
X69988Y154000D02*
X76244D01*
X71869Y155000D02*
X78125D01*
X73750Y156000D02*
X80006D01*
X75631Y157000D02*
X79976D01*
X77511Y158000D02*
X79444D01*
X68603Y153264D02*
X68603D01*
X69603Y151383D02*
Y153795D01*
X70603Y151001D02*
Y154327D01*
X71603Y151532D02*
Y154859D01*
X72603Y152064D02*
Y155390D01*
X73603Y152596D02*
Y155922D01*
X74603Y153127D02*
Y156454D01*
X75603Y153659D02*
Y156986D01*
X76603Y154191D02*
Y157517D01*
X77603Y154723D02*
Y158049D01*
X78603Y155254D02*
Y158581D01*
X79603Y155786D02*
Y157700D01*
X70802Y138827D02*
X63690Y135046D01*
X65993Y130715*
X73105Y134496*
X70802Y138827*
X65841Y131000D02*
X66530D01*
X65310Y132000D02*
X68411D01*
X64778Y133000D02*
X70291D01*
X64246Y134000D02*
X72172D01*
X63714Y135000D02*
X72837D01*
X65485Y136000D02*
X72306D01*
X67365Y137000D02*
X71774D01*
X69246Y138000D02*
X71242D01*
X63690Y135046D02*
X63690D01*
X64690Y133165D02*
Y135578D01*
X65690Y131284D02*
Y136109D01*
X66690Y131085D02*
Y136641D01*
X67690Y131617D02*
Y137173D01*
X68690Y132149D02*
Y137704D01*
X69690Y132680D02*
Y138236D01*
X70690Y133212D02*
Y138768D01*
X71690Y133744D02*
Y137158D01*
X72690Y134275D02*
Y135277D01*
X59712Y159683D02*
X52600Y155902D01*
X54903Y151570*
X62015Y155352*
X59712Y159683*
X54674Y152000D02*
X55711D01*
X54142Y153000D02*
X57592D01*
X53611Y154000D02*
X59472D01*
X53079Y155000D02*
X61353D01*
X52785Y156000D02*
X61670D01*
X54666Y157000D02*
X61139D01*
X56546Y158000D02*
X60607D01*
X58427Y159000D02*
X60075D01*
X52600Y155902D02*
X52600D01*
X53600Y154021D02*
Y156433D01*
X54600Y152140D02*
Y156965D01*
X55600Y151941D02*
Y157497D01*
X56600Y152473D02*
Y158028D01*
X57600Y153004D02*
Y158560D01*
X58600Y153536D02*
Y159092D01*
X59600Y154068D02*
Y159624D01*
X60600Y154599D02*
Y158014D01*
X61600Y155131D02*
Y156133D01*
G54D12*
X44820Y96045D03*
G54D13*
X41032Y88045D03*
X48532D03*
G54D14*
X48819Y103937D03*
X37008D03*
G54D15*
X44291Y111811D03*
X38291D03*
G54D16*
X136508Y147846D03*
Y153846D03*
X108949Y164499D03*
Y170499D03*
X124303Y164499D03*
Y170499D03*
X148319Y138988D03*
Y132988D03*
X130602Y153751D03*
Y147751D03*
G54D17*
X119185Y170696D03*
Y164499D03*
X114185Y170696D03*
Y164499D03*
G54D18*
X164854Y103555D03*
X157374D03*
Y95681D03*
X164854D03*
X157374Y87807D03*
X164854D03*
Y111429D03*
X157374D03*
G54D20*
X104732Y182419D03*
X104883Y16137D03*
G54D21*
X95284Y182419D03*
X95435Y16137D03*
G54D22*
X124185Y158673D03*
G54D23*
X119185D03*
X114185D03*
X109185D03*
X104185D03*
X99185D03*
X94185D03*
X89185D03*
Y136173D03*
X94185D03*
X99185D03*
X104185D03*
X109185D03*
X114185D03*
X119185D03*
X124185D03*
G54D24*
X141242Y140919D03*
X133742D03*
G54D25*
X137492Y132919D03*
G54D26*
X125299Y61614D03*
X131496D03*
X131512Y66929D03*
X125315D03*
X47823Y76389D03*
X41626D03*
X41532Y82137D03*
X47728D03*
G54D27*
X149303Y111429D03*
Y123240D03*
G54D33*
X10915Y118824D02*
X25269Y114160D01*
Y84274*
X10915Y79611*
X10912Y79625D02*
G75*
G03Y118810I88376J19592D01*
G01X31571Y122839D02*
G03X31571I-3149J0D01*
G01Y75595D02*
G03X31571I-3149J0D01*
G01X167398Y148824D02*
G03X167398I-3937J0D01*
G01X134474Y24617D02*
G03X134474I-3347J0D01*
G74*
G01X0Y0D02*
M02*
