*
*
G04 PADS VX.2.2 Build Number: 7607494 generated Gerber (RS-274-X) file*
G04 PC Version=2.1*
*
%IN "Untitled"*%
*
%MOIN*%
*
%FSLAX35Y35*%
*
*
*
*
G04 PC Standard Apertures*
*
*
G04 Thermal Relief Aperture macro.*
%AMTER*
1,1,$1,0,0*
1,0,$1-$2,0,0*
21,0,$3,$4,0,0,45*
21,0,$3,$4,0,0,135*
%
*
*
G04 Annular Aperture macro.*
%AMANN*
1,1,$1,0,0*
1,0,$2,0,0*
%
*
*
G04 Odd Aperture macro.*
%AMODD*
1,1,$1,0,0*
1,0,$1-0.005,0,0*
%
*
*
G04 PC Custom Aperture Macros*
*
*
*
*
*
*
G04 PC Aperture Table*
*
%ADD010C,0.001*%
%ADD011C,0.01*%
%ADD033C,0.005*%
%ADD035C,0.00394*%
%ADD052C,0.00394*%
%ADD053C,0.00787*%
%ADD054C,0.00591*%
%ADD055C,0.00591*%
*
*
*
*
G04 PC Circuitry*
G04 Layer Name Untitled - circuitry*
%LPD*%
*
*
G04 PC Custom Flashes*
G04 Layer Name Untitled - flashes*
%LPD*%
*
*
G04 PC Circuitry*
G04 Layer Name Untitled - circuitry*
%LPD*%
*
G54D10*
G01X25269Y114160D02*
Y84274D01*
X10915Y79610D02*
X25269Y84274D01*
X10915Y118824D02*
X25269Y114160D01*
X10911Y79625D02*
G75*
G03Y118810I88377J19592D01*
G01X19110Y79042D02*
X22864Y80262D01*
G54D11*
X132463Y90659D02*
G03X132483I10J-716D01*
G01X76463Y89159D02*
G03X76483I10J-716D01*
G01X104963Y89659D02*
G03X104983I10J-716D01*
G01X93673Y98449D02*
X94173Y97449D01*
X92173Y90449*
X91173Y89949*
X90673Y90949*
X92673Y97949*
X93673Y98449*
X91173Y89949D02*
X92173Y90449D01*
Y88949D02*
X93673Y89949D01*
X99673*
X100173Y88949*
X98173Y87949*
X92673*
X92173Y88949*
X94173Y99949D02*
X95173Y100449D01*
X97173Y107449*
X96673Y108449*
X95673Y107949*
X93673Y100949*
X94173Y99949*
X95673Y107949D02*
X96673Y108449D01*
X97173Y107449*
X105673D02*
X106673Y107949D01*
X107173Y106949*
X105173Y99949*
X104173Y99449*
X103673Y100449*
X105673Y107449*
X106673Y107949*
X98173Y108949D02*
X99673Y109949D01*
X105673*
X106173Y108949*
X104173Y107949*
X98673*
X98173Y108949*
X95173Y98949D02*
X95673Y97949D01*
X101173*
X103173Y98949*
X102673Y99949*
X96673*
X95173Y98949*
X102673Y97449D02*
X103673Y97949D01*
X104173Y96949*
X102173Y89949*
X101173Y89449*
X100673Y90449*
X102673Y97449*
X67173Y107449D02*
X68173Y107949D01*
X68673Y106949*
X68173Y107949D02*
X68673Y106949D01*
X66673Y99949*
X65673Y99449*
X65173Y100449*
X67173Y107449*
X68173Y107949*
X78173Y107449D02*
X78673Y106449D01*
X76673Y99449*
X75673Y98949*
X75173Y99949*
X77173Y106949*
X78173Y107449*
X77173Y106949D02*
X78173Y107449D01*
X65173Y97949D02*
X65673Y96949D01*
X63673Y89949*
X62673Y89449*
X62173Y90449*
X64173Y97449*
X65173Y97949*
X75173Y97449D02*
X75673Y96449D01*
X73673Y89449*
X72673Y88949*
X72173Y89949*
X74173Y96949*
X75173Y97449*
X66673Y98449D02*
X68173Y99449D01*
X74173*
X74673Y98449*
X72673Y97449*
X67173*
X66673Y98449*
X69673Y108449D02*
X70173Y107449D01*
X75673*
X77673Y108449*
X77173Y109449*
X71173*
X69673Y108449*
X63673Y88449D02*
X64173Y87449D01*
X69673*
X71673Y88449*
X71173Y89449*
X65173*
X63673Y88449*
X62673Y89449D02*
X63673Y89949D01*
X123173Y108949D02*
X124173Y109449D01*
X124673Y108449*
X122673Y101449*
X121673Y100949*
X121173Y101949*
X123173Y108949*
X124173Y109449*
X124673Y108449*
X134173Y108949D02*
X134673Y107949D01*
X132673Y100949*
X131673Y100449*
X131173Y101449*
X133173Y108449*
X134173Y108949*
X133173Y108449D02*
X134173Y108949D01*
X121173Y99449D02*
X121673Y98449D01*
X119673Y91449*
X118673Y90949*
X118173Y91949*
X120173Y98949*
X121173Y99449*
X131173Y98949D02*
X131673Y97949D01*
X129673Y90949*
X128673Y90449*
X128173Y91449*
X130173Y98449*
X131173Y98949*
X122673Y99949D02*
X124173Y100949D01*
X130173*
X130673Y99949*
X128673Y98949*
X123173*
X122673Y99949*
X125673Y109949D02*
X126173Y108949D01*
X131673*
X133673Y109949*
X133173Y110949*
X127173*
X125673Y109949*
X119673Y89949D02*
X120173Y88949D01*
X125673*
X127673Y89949*
X127173Y90949*
X121173*
X119673Y89949*
X118673Y90949D02*
X119673Y91449D01*
X54488Y127323D02*
X143858D01*
Y119449*
Y79449*
Y71575*
X54488*
Y79449*
Y119449*
Y127323*
X128408Y157949D02*
G03X128408I-1000J0D01*
G01X76012Y30550D02*
X88564Y57467D01*
X102839Y57600D02*
X105092Y56550D01*
X103563Y53271*
X87213Y24119D02*
X89465Y23069D01*
X90994Y26348*
X140492Y133019D02*
X142992D01*
Y138019*
X134492Y133019D02*
X131992D01*
Y138019*
X137992Y142019D02*
X136992D01*
X52266Y153522D02*
X49246Y151917D01*
X60577Y130607*
X63597Y132212*
X73203Y137320D02*
X81432Y141696D01*
X78623Y146979*
X62156Y157996D02*
X70385Y162372D01*
X73190Y157096*
X75851Y152193D02*
X75920Y152063D01*
G54D33*
X117848Y37100D02*
G03X113467Y39508I-3395J-987D01*
G01X113465D02*
X108844Y31094D01*
X108843Y31095D02*
G03X113225Y28686I3396J986D01*
G01X113226Y28687D02*
X117848Y37101D01*
X36491Y114311D02*
G03Y109311I2500J-2500D01*
G01X46091*
G03Y114311I-2500J2500*
G01X36491*
X139008Y155646D02*
G03X134008I-2500J-2500D01*
G01Y146046*
G03X139008I2500J2500*
G01Y155646*
X111449Y172299D02*
G03X106449I-2500J-2500D01*
G01Y162699*
G03X111449I2500J2500*
G01Y172299*
X126803D02*
G03X121803I-2500J-2500D01*
G01Y162699*
G03X126803I2500J2500*
G01Y172299*
X145819Y131188D02*
G03X150819I2500J2500D01*
G01Y140788*
G03X145819I-2500J-2500*
G01Y131188*
X128102Y145952D02*
G03X133102I2500J2500D01*
G01Y155552*
G03X128102I-2500J-2500*
G01Y145952*
X10915Y118824D02*
X25269Y114160D01*
Y84274*
X10915Y79611*
X10912Y79625D02*
G03Y118810I88376J19592D01*
G01X31571Y122839D02*
G03X31571I-3149J0D01*
G01Y75595D02*
G03X31571I-3149J0D01*
G01X167398Y148824D02*
G03X167398I-3937J0D01*
G01X134474Y24617D02*
G03X134474I-3347J0D01*
G01X173304Y148824D02*
G03X173304I-9843J0D01*
G01X140970Y24617D02*
G03X140970I-9843J0D01*
G54D35*
G01X121543Y168775D02*
Y173208D01*
X116819*
Y168775*
X121543Y166377D02*
Y161988D01*
X116819*
Y166377*
X116543Y168775D02*
Y173208D01*
X111819*
Y168775*
X116543Y166377D02*
Y161988D01*
X111819*
Y166377*
X171206Y69183D02*
X175099Y81164D01*
X185583Y77758*
X181690Y65776*
X171206Y69183*
X178346Y73320D02*
X180063Y69930D01*
X174951Y71591*
X178346Y73320*
X139555Y32854D02*
X149765Y40234D01*
X156223Y31301*
X146014Y23920*
X139555Y32854*
X147762Y31985D02*
X147149Y28234D01*
X144000Y32590*
X147762Y31985*
X105520Y176907D02*
X92922D01*
Y187931*
X105520*
Y176907*
X99378Y182419D02*
X102072Y185101D01*
Y179725*
X99378Y182419*
X27403Y129156D02*
X23510Y117175D01*
X13026Y120581*
X16919Y132562*
X27403Y129156*
X20263Y125018D02*
X18546Y128409D01*
X23658Y126748*
X20263Y125018*
X48522Y40140D02*
X58714Y32734D01*
X52235Y23816*
X42043Y31221*
X48522Y40140*
X50251Y32070D02*
X46495Y31484D01*
X49655Y35833*
X50251Y32070*
X149872Y158371D02*
X139626Y165702D01*
X146040Y174667*
X156286Y167337*
X149872Y158371*
X148084Y166428D02*
X151835Y167041D01*
X148708Y162669*
X148084Y166428*
X181671Y132621D02*
X185563Y120639D01*
X175079Y117233*
X171186Y129214*
X181671Y132621*
X178326Y125076D02*
X174943Y126810D01*
X180056Y128471*
X178326Y125076*
X58892Y165819D02*
X48699Y158414D01*
X42220Y167332*
X52412Y174737*
X58892Y165819*
X50683Y166668D02*
X51286Y170421D01*
X54446Y166072*
X50683Y166668*
X23485Y81270D02*
X27378Y69288D01*
X16894Y65882*
X13001Y77864*
X23485Y81270*
X20140Y73726D02*
X16758Y75459D01*
X21870Y77120*
X20140Y73726*
X105671Y10625D02*
X93073Y10626D01*
Y21649*
X105671*
Y10625*
X99529Y16138D02*
X102223Y18819D01*
Y13444*
X99529Y16138*
X127220Y63972D02*
X122787D01*
Y59248*
X127221*
X129618Y63972D02*
X134008D01*
Y59248*
X129618*
X129591Y64571D02*
X134024D01*
Y69295*
X129590*
X127193Y64571D02*
X122803D01*
Y69295*
X127193*
X45902Y74031D02*
X50335D01*
Y78755*
X45901*
X43504Y74031D02*
X39114D01*
Y78755*
X43504*
X43453Y84496D02*
X39020Y84495D01*
Y79771*
X43453*
X45850Y84496D02*
X50240Y84495D01*
Y79771*
X45850*
G54D52*
X158554Y55077D02*
X160150Y57002D01*
X156302Y60194*
X154723Y50459D02*
X153127Y48535D01*
X149279Y51728*
X150031Y58899D02*
X149392Y58130D01*
X41784Y95945D02*
X39284D01*
Y90945*
X47784Y95945D02*
X50284D01*
Y90945*
X44284Y86945D02*
X45284D01*
G54D53*
X33421Y107484D02*
Y100484D01*
X39960Y107579D02*
X32240D01*
Y100484*
X39960*
X45866Y107484D02*
X52362Y107485D01*
Y100484*
X45866*
X152850Y126826D02*
X145850D01*
X152945Y120287D02*
Y128007D01*
X145850Y128008*
Y120287*
X152851Y114381D02*
Y107885D01*
X145851*
X145850Y114382*
G54D54*
X167807Y100208D02*
Y106901D01*
X154421*
Y100208*
X167807*
X154421Y99027D02*
Y92334D01*
X167807*
Y99027*
X154421*
Y91153D02*
Y84460D01*
X167807*
Y91153*
X154421*
X167807Y108082D02*
Y114775D01*
X154421*
Y108082*
X167807*
X107319Y36848D02*
X106931Y36908D01*
X106479Y36851*
X106187Y36705*
X105929Y36234*
X105961Y35910*
X106155Y35497*
X106414Y35202*
X106835Y34817*
X107643Y34373*
X108193Y34224*
X108581Y34163*
X109034Y34221*
X109325Y34367*
X109584Y34838*
X109551Y35162*
X109357Y35575*
X109098Y35870*
X108354Y39496D02*
X107966Y39556D01*
X107610Y39292*
X107481Y39057*
X107448Y38615*
X107804Y38113*
X108548Y37551*
X109357Y37107*
X110068Y36868*
X110521Y36926*
X110877Y37190*
X110941Y37307*
X110974Y37749*
X110780Y38162*
X110359Y38547*
X110197Y38635*
X109648Y38785*
X109195Y38727*
X108839Y38463*
X108774Y38346*
X108742Y37904*
X108936Y37491*
X109357Y37107*
X144528Y49584D02*
Y45709D01*
Y49584D02*
X145601Y45709D01*
X146675Y49584D02*
X145601Y45709D01*
X146675Y49584D02*
Y45709D01*
X148017Y48661D02*
Y48846D01*
X148151Y49215*
X148286Y49400*
X148554Y49584*
X149091*
X149359Y49400*
X149494Y49215*
X149628Y48846*
Y48477*
X149494Y48108*
X149225Y47554*
X147883Y45709*
X149762*
X33228Y92616D02*
Y88740D01*
Y92616D02*
X34302Y88740D01*
X35376Y92616D02*
X34302Y88740D01*
X35376Y92616D02*
Y88740D01*
X36584Y91877D02*
X36852Y92062D01*
X37255Y92616*
Y88740*
X28701Y99269D02*
Y95394D01*
Y99269D02*
X29640D01*
X30043Y99085*
X30311Y98716*
X30446Y98346*
X30580Y97793*
Y96870*
X30446Y96316*
X30311Y95947*
X30043Y95578*
X29640Y95394*
X28701*
X31788Y98531D02*
X32056Y98716D01*
X32459Y99269*
Y95394*
X30714Y112835D02*
X30580Y113204D01*
X30311Y113573*
X30043Y113757*
X29506*
X29238Y113573*
X28969Y113204*
X28835Y112835*
X28701Y112281*
Y111358*
X28835Y110805*
X28969Y110436*
X29238Y110066*
X29506Y109882*
X30043*
X30311Y110066*
X30580Y110436*
X30714Y110805*
X33667Y113757D02*
X32325D01*
X32190Y112096*
X32325Y112281*
X32727Y112466*
X33130*
X33533Y112281*
X33801Y111912*
X33935Y111358*
X33801Y110989*
X33667Y110436*
X33398Y110066*
X32996Y109882*
X32593*
X32190Y110066*
X32056Y110251*
X31922Y110620*
X143352Y154882D02*
X143218Y155251D01*
X142949Y155620*
X142681Y155805*
X142144*
X141875Y155620*
X141607Y155251*
X141473Y154882*
X141339Y154328*
Y153406*
X141473Y152852*
X141607Y152483*
X141875Y152114*
X142144Y151929*
X142681*
X142949Y152114*
X143218Y152483*
X143352Y152852*
X145902Y155805D02*
X144560Y153221D01*
X146573*
X145902Y155805D02*
Y151929D01*
X111575Y177239D02*
X111944Y177373D01*
X112313Y177641*
X112498Y177910*
Y178447*
X112313Y178715*
X111944Y178984*
X111575Y179118*
X111021Y179252*
X110098*
X109545Y179118*
X109176Y178984*
X108807Y178715*
X108622Y178447*
Y177910*
X108807Y177641*
X109176Y177373*
X109545Y177239*
X111575Y175897D02*
X111759D01*
X112128Y175762*
X112313Y175628*
X112498Y175360*
Y174823*
X112313Y174554*
X112128Y174420*
X111759Y174286*
X111390*
X111021Y174420*
X110468Y174689*
X108622Y176031*
Y174152*
X127520Y177317D02*
X127889Y177452D01*
X128258Y177720*
X128442Y177989*
Y178525*
X128258Y178794*
X127889Y179062*
X127520Y179196*
X126966Y179331*
X126043*
X125490Y179196*
X125121Y179062*
X124751Y178794*
X124567Y178525*
Y177989*
X124751Y177720*
X125121Y177452*
X125490Y177317*
X127704Y176110D02*
X127889Y175841D01*
X128442Y175438*
X124567*
X123009Y179331D02*
X119134D01*
X123009D02*
Y178123D01*
X122825Y177720*
X122640Y177586*
X122271Y177452*
X121902*
X121533Y177586*
X121348Y177720*
X121164Y178123*
Y179331*
Y178391D02*
X119134Y177452D01*
X122271Y176244D02*
X122456Y175975D01*
X123009Y175573*
X119134*
X117694Y179213D02*
X113819D01*
X117694D02*
Y178005D01*
X117510Y177602*
X117325Y177468*
X116956Y177334*
X116587*
X116218Y177468*
X116033Y177602*
X115849Y178005*
Y179213*
Y178273D02*
X113819Y177334D01*
X116772Y175991D02*
X116956D01*
X117325Y175857*
X117510Y175723*
X117694Y175455*
Y174918*
X117510Y174649*
X117325Y174515*
X116956Y174381*
X116587*
X116218Y174515*
X115664Y174783*
X113819Y176126*
Y174247*
X169528Y106356D02*
Y102480D01*
Y106356D02*
X170736D01*
X171138Y106171*
X171272Y105987*
X171407Y105618*
Y105249*
X171272Y104879*
X171138Y104695*
X170736Y104510*
X169528*
X170467D02*
X171407Y102480D01*
X172615Y105618D02*
X172883Y105802D01*
X173286Y106356*
Y102480*
X175836Y106356D02*
X174494Y103772D01*
X176507*
X175836Y106356D02*
Y102480D01*
X146260Y97104D02*
Y93228D01*
Y97104D02*
X147468D01*
X147870Y96919*
X148005Y96735*
X148139Y96366*
Y95997*
X148005Y95627*
X147870Y95443*
X147468Y95258*
X146260*
X147199D02*
X148139Y93228D01*
X149347Y96366D02*
X149615Y96550D01*
X150018Y97104*
Y93228*
X153105Y97104D02*
X151763Y93228D01*
X151226Y97104D02*
X153105D01*
X146220Y89348D02*
Y85472D01*
Y89348D02*
X147428D01*
X147831Y89163*
X147965Y88979*
X148099Y88610*
X148099D02*
Y88241D01*
X148099D02*
X147965Y87872D01*
X147831Y87687*
X147428Y87502*
X146220*
X147160D02*
X148099Y85472D01*
X149307Y88610D02*
X149576Y88794D01*
X149979Y89348*
Y85472*
X151858Y89348D02*
X151455Y89163D01*
X151321Y88794*
Y88425*
X151455Y88056*
X151723Y87872*
X152260Y87687*
X152663Y87502*
X152931Y87133*
X153065Y86764*
X153065D02*
Y86211D01*
X153065D02*
X152931Y85842D01*
X152797Y85657*
X152394Y85472*
X151858*
X151455Y85657*
X151321Y85842*
X151186Y86211*
Y86764*
X151321Y87133*
X151589Y87502*
X151992Y87687*
X152529Y87872*
X152797Y88056*
X152931Y88425*
Y88794*
X152797Y89163*
X152394Y89348*
X151858*
X60923Y124982D02*
X60738Y125385D01*
X60185Y125653*
X59262Y125787*
X58708*
X57785Y125653*
X57232Y125385*
X57047Y124982*
Y124714*
X57232Y124311*
X57785Y124043*
X58708Y123908*
X59262*
X60185Y124043*
X60738Y124311*
X60923Y124714*
Y124982*
X56309Y122700D02*
Y119882D01*
X60923Y118808D02*
Y117332D01*
X59446Y118137*
Y117734*
X59262Y117466*
X59077Y117332*
X58524Y117198*
X58155*
X57601Y117332*
X57232Y117600*
X57047Y118003*
Y118406*
X57232Y118808*
X57416Y118942*
X57785Y119077*
X60369Y114379D02*
X60738Y114513D01*
X60923Y114916*
Y115184*
X60738Y115587*
X60185Y115855*
X59262Y115990*
X58339*
X57601Y115855*
X57232Y115587*
X57047Y115184*
Y115050*
X57232Y114647*
X57601Y114379*
X58155Y114245*
X58339*
X58893Y114379*
X59262Y114647*
X59446Y115050*
Y115184*
X59262Y115587*
X58893Y115855*
X58339Y115990*
X60923Y113037D02*
X59077Y111963D01*
X57047*
X60923Y110889D02*
X59077Y111963D01*
X60923Y109681D02*
X57047Y107802D01*
X60923D02*
X57047Y109681D01*
X60923Y106326D02*
Y104850D01*
X59446Y105655*
Y105252*
X59262Y104984*
X59077Y104850*
X58524Y104715*
X58155*
X57601Y104850*
X57232Y105118*
X57047Y105521*
Y105923*
X57232Y106326*
X57416Y106460*
X57785Y106594*
X174011Y88736D02*
X172813Y85050D01*
X174345Y84552*
X176692Y87865D02*
X175494Y84179D01*
X176692Y87865D02*
X178351Y87326D01*
X176121Y86110D02*
X177142Y85778D01*
X175494Y84179D02*
X177153Y83640D01*
X179500Y86952D02*
X178302Y83267D01*
X179500Y86952D02*
X180393Y86662D01*
X180719Y86362*
X180860Y85928*
X180874Y85536*
X180831Y84968*
X180545Y84090*
X180247Y83605*
X180005Y83295*
X179636Y83027*
X179196Y82976*
X178302Y83267*
X182208Y85296D02*
X182520Y85389D01*
X183074Y85791*
X181876Y82105*
X184989Y85169D02*
X184549Y85118D01*
X184122Y84674*
X183709Y83838*
X183538Y83312*
X183381Y82393*
X183465Y81783*
X183791Y81483*
X184046Y81400*
X184486Y81451*
X184913Y81895*
X185325Y82731*
X185497Y83258*
X185654Y84177*
X185570Y84786*
X185244Y85086*
X184989Y85169*
X140593Y20203D02*
X143736Y22470D01*
X142794Y23777*
X138944Y22489D02*
X142088Y24756D01*
X138944Y22489D02*
X137924Y23905D01*
X140441Y23569D02*
X139813Y24440D01*
X142088Y24756D02*
X141067Y26172D01*
X137217Y24884D02*
X140361Y27151D01*
X137217Y24884D02*
X136668Y25646D01*
X136582Y26081*
X136724Y26514*
X136945Y26839*
X137316Y27272*
X138064Y27812*
X138591Y28027*
X138969Y28134*
X139426Y28132*
X139811Y27913*
X140361Y27151*
X134626Y28477D02*
X137507Y28899D01*
X136329Y30532*
X134626Y28477D02*
X137770Y30744D01*
X90096Y186772D02*
X86220D01*
Y185161*
X90096Y183953D02*
X86220D01*
X90096D02*
Y182208D01*
X88250Y183953D02*
Y182879D01*
X86220Y183953D02*
Y182208D01*
X90096Y181000D02*
X86220D01*
X90096D02*
Y180061D01*
X89911Y179658*
X89542Y179390*
X89173Y179256*
X88620Y179121*
X87697*
X87143Y179256*
X86774Y179390*
X86405Y179658*
X86220Y180061*
Y181000*
X89358Y177913D02*
X89542Y177645D01*
X90096Y177242*
X86220*
X29515Y130702D02*
X30712Y134388D01*
X29181Y134885*
X26834Y131573D02*
X28032Y135259D01*
X26834Y131573D02*
X25175Y132112D01*
X27404Y133328D02*
X26383Y133660D01*
X28032Y135259D02*
X26372Y135798D01*
X24026Y132485D02*
X25223Y136171D01*
X24026Y132485D02*
X23132Y132776D01*
X22806Y133076*
X22665Y133509*
X22652Y133902*
X22695Y134470*
X22980Y135348*
X23279Y135833*
X23521Y136142*
X23890Y136410*
X24330Y136461*
X25223Y136171*
X21248Y134358D02*
X21190Y134183D01*
X20949Y133873*
X20764Y133739*
X20452Y133647*
X19941Y133812*
X19743Y134071*
X19672Y134288*
X19659Y134680*
X19773Y135031*
X20014Y135341*
X20441Y135785*
X22288Y137125*
X20501Y137706*
X64671Y28431D02*
X61535Y30709D01*
X60589Y29406*
X63014Y26150D02*
X59879Y28428D01*
X63014Y26150D02*
X61988Y24739D01*
X61521Y27235D02*
X60890Y26367D01*
X59879Y28428D02*
X58853Y27017D01*
X61278Y23762D02*
X58143Y26040D01*
X61278Y23762D02*
X60726Y23002D01*
X60340Y22784*
X59884*
X59506Y22892*
X58980Y23109*
X58233Y23652*
X57864Y24086*
X57644Y24411*
X57504Y24845*
X57591Y25280*
X57591D02*
X58143Y26040D01*
X59306Y21047D02*
X58438Y19853D01*
X57717Y21372*
X57481Y21046*
X57174Y20937*
X56945*
X56419Y21154*
X56120Y21371*
X55751Y21805*
X55610Y22239*
X55698Y22674*
X55934Y22999*
X56320Y23217*
X56548*
X56926Y23108*
X134093Y169303D02*
X137244Y167047D01*
X138182Y168357*
X135734Y171595D02*
X138885Y169339D01*
X135734Y171595D02*
X136749Y173014D01*
X137234Y170521D02*
X137859Y171394D01*
X138885Y169339D02*
X139901Y170758D01*
X137453Y173996D02*
X140604Y171740D01*
X137453Y173996D02*
X137999Y174760D01*
X138384Y174980*
X138840Y174983*
X139219Y174877*
X139747Y174664*
X140497Y174127*
X140869Y173696*
X141091Y173372*
X141235Y172939*
X141151Y172504*
X140604Y171740*
X141316Y177173D02*
X141688Y176741D01*
X141832Y176308*
X141832D02*
X141747Y175873D01*
X141669Y175764*
X141285Y175544*
X140828Y175541*
X140300Y175754*
X140150Y175861*
X139778Y176293*
X139634Y176726*
X139718Y177161*
X139796Y177270*
X140181Y177490*
X140637Y177493*
X141316Y177173*
X142066Y176635*
X142738Y175989*
X143032Y175449*
X142948Y175014*
X142791Y174796*
X142407Y174576*
X142029Y174681*
X167619Y135128D02*
X168817Y131443D01*
X168817D02*
X170348Y131940D01*
X170299Y135999D02*
X171497Y132314D01*
X170299Y135999D02*
X171959Y136539D01*
X170870Y134244D02*
X171891Y134576D01*
X171497Y132314D02*
X173157Y132853D01*
X173108Y136912D02*
X174305Y133226D01*
X173108Y136912D02*
X174001Y137202D01*
X174441Y137151*
X174811Y136883*
X175052Y136573*
X175351Y136088*
X175636Y135211*
X175680Y134643*
X175666Y134250*
X175525Y133816*
X175199Y133516*
X174305Y133226*
X177703Y138405D02*
X176427Y137990D01*
X176812Y136369*
X176883Y136586*
X177209Y136886*
X177592Y137010*
X178032Y136959*
X178401Y136691*
X178700Y136206*
X178686Y135814*
X178730Y135246*
X178588Y134812*
X178262Y134512*
X177879Y134387*
X177439Y134438*
X177255Y134572*
X177013Y134882*
X58403Y177915D02*
X55268Y175637D01*
X56214Y174334*
X60060Y175635D02*
X56924Y173357D01*
X60060Y175635D02*
X61085Y174224D01*
X58567Y174550D02*
X59198Y173682D01*
X56924Y173357D02*
X57950Y171946D01*
X61795Y173246D02*
X58660Y170968D01*
X61795Y173246D02*
X62347Y172486D01*
X62435Y172052*
X62294Y171618*
X62074Y171292*
X61705Y170858*
X60959Y170316*
X60432Y170099*
X60054Y169991*
X59598*
X59212Y170208*
X58660Y170968*
X64108Y169121D02*
X64328Y169446D01*
X64241Y169880*
X64083Y170097*
X63697Y170315*
X63091Y170206*
X62266Y169773*
X61519Y169230*
X61001Y168688*
X60860Y168254*
X60948Y167820*
X61027Y167711*
X61413Y167494*
X61869Y167493*
X62396Y167710*
X62545Y167819*
X62914Y168253*
X63055Y168687*
X62968Y169121*
X62889Y169230*
X62503Y169447*
X62046*
X61519Y169230*
X29662Y61865D02*
X28465Y65551D01*
X26933Y65053*
X26982Y60994D02*
X25784Y64680D01*
X26982Y60994D02*
X25322Y60455D01*
X26411Y62750D02*
X25390Y62418D01*
X25784Y64680D02*
X24125Y64141D01*
X24173Y60082D02*
X22976Y63768D01*
X24173Y60082D02*
X23280Y59792D01*
X22840Y59843*
X22470Y60111*
X22229Y60420*
X21930Y60905*
X21645Y61783*
X21601Y62351*
X21615Y62744*
X21756Y63177*
X22082Y63477*
X22976Y63768*
X19450Y58547D02*
X19529Y62648D01*
X21237Y59128D02*
X19450Y58547D01*
X108999Y11850D02*
X112874D01*
Y13461*
X108999Y14669D02*
X112874D01*
X108999D02*
Y16414D01*
X110844Y14669D02*
Y15743D01*
X112874Y14669D02*
Y16414D01*
X108999Y17622D02*
X112874D01*
X108999D02*
Y18561D01*
X109183Y18964*
X109552Y19232*
X109921Y19367*
X109921D02*
X110475Y19501D01*
X111398*
X111951Y19367*
X111951D02*
X112320Y19232D01*
X112689Y18964*
X112874Y18561*
Y17622*
X108999Y21380D02*
X109183Y20977D01*
X109552Y20843*
X109921*
X110290Y20977*
X110475Y21246*
X110659Y21782*
X110844Y22185*
X111213Y22453*
X111582Y22588*
X112136*
X112505Y22453*
X112689Y22319*
X112874Y21917*
Y21380*
X112689Y20977*
X112505Y20843*
X112136Y20709*
X111582*
X111213Y20843*
X110844Y21111*
X110659Y21514*
X110475Y22051*
X110290Y22319*
X109921Y22453*
X109552*
X109183Y22319*
X108999Y21917*
Y21380*
X82520Y161356D02*
Y158588D01*
X82654Y158034*
X82922Y157665*
X83325Y157480*
X83593*
X83996Y157665*
X84264Y158034*
X84399Y158588*
Y161356*
X85607Y160618D02*
X85875Y160802D01*
X86278Y161356*
Y157480*
X125433Y132576D02*
Y129808D01*
X125567Y129254*
X125836Y128885*
X126238Y128701*
X126507*
X126909Y128885*
X127178Y129254*
X127312Y129808*
Y132576*
X130399D02*
X129057Y128701D01*
X128520Y132576D02*
X130399D01*
X169528Y113521D02*
Y109646D01*
Y113521D02*
X170736D01*
X171138Y113337*
X171272Y113152*
X171407Y112783*
Y112414*
X171272Y112045*
X171138Y111860*
X170736Y111676*
X169528*
X170467D02*
X171407Y109646D01*
X172615Y112783D02*
X172883Y112968D01*
X173286Y113521*
Y109646*
X174762Y113521D02*
X176238D01*
X175433Y112045*
X175836*
X176104Y111860*
X176238Y111676*
X176373Y111122*
Y110753*
X176238Y110199*
X175970Y109830*
X175567Y109646*
X175165*
X174762Y109830*
X174628Y110015*
X174494Y110384*
X116024Y62773D02*
Y58898D01*
Y62773D02*
X117232D01*
X117634Y62589*
X117768Y62404*
X117903Y62035*
Y61666*
X117768Y61297*
X117634Y61112*
X117232Y60928*
X116024*
X116963D02*
X117903Y58898D01*
X119379Y62773D02*
X120855D01*
X120050Y61297*
X120453*
X120721Y61112*
X120855Y60928*
X120990Y60374*
Y60005*
X120855Y59451*
X120587Y59082*
X120184Y58898*
X119782*
X119379Y59082*
X119245Y59267*
X119111Y59636*
X115827Y68915D02*
Y65039D01*
Y68915D02*
X117035D01*
X117437Y68730*
X117572Y68546*
X117706Y68177*
Y67808*
X117572Y67438*
X117437Y67254*
X117035Y67069*
X115827*
X116766D02*
X117706Y65039D01*
X120256Y68915D02*
X118914Y66331D01*
X120927*
X120256Y68915D02*
Y65039D01*
X32835Y77970D02*
Y74094D01*
Y77970D02*
X34043D01*
X34445Y77785*
X34579Y77601*
X34714Y77232*
Y76863*
X34579Y76494*
X34445Y76309*
X34043Y76125*
X32835*
X33774D02*
X34714Y74094D01*
X37666Y77970D02*
X36324D01*
X36190Y76309*
X36324Y76494*
X36727Y76678*
X37130*
X37532Y76494*
X37801Y76125*
X37935Y75571*
X37801Y75202*
X37666Y74648*
X37398Y74279*
X36995Y74094*
X36593*
X36190Y74279*
X36056Y74464*
X35922Y74833*
X32953Y84033D02*
Y80157D01*
Y84033D02*
X34161D01*
X34563Y83848*
X34698Y83664*
X34832Y83295*
Y82926*
X34698Y82557*
X34563Y82372*
X34161Y82188*
X34161D02*
X32953D01*
X33892D02*
X34832Y80157D01*
X37650Y83479D02*
X37516Y83848D01*
X37113Y84033*
X36845*
X36442Y83848*
X36174Y83295*
X36040Y82372*
Y81449*
X36174Y80711*
X36442Y80342*
X36845Y80157*
X36979*
X37382Y80342*
X37650Y80711*
X37785Y81265*
Y81449*
X37650Y82003*
X37382Y82372*
X36979Y82557*
X36845*
X36442Y82372*
X36174Y82003*
X36040Y81449*
X154606Y128127D02*
Y124252D01*
Y128127D02*
X155546D01*
X155948Y127943*
X156217Y127574*
X156351Y127205*
X156485Y126651*
Y125728*
X156351Y125175*
X156217Y124806*
X155948Y124437*
X155546Y124252*
X154606*
X157827Y127205D02*
Y127389D01*
X157962Y127758*
X158096Y127943*
X158364Y128127*
X158901*
X159170Y127943*
X159304Y127758*
X159438Y127389*
Y127020*
X159304Y126651*
X159035Y126097*
X157693Y124252*
X159572*
X154218Y137283D02*
X154084Y137653D01*
X153815Y138022*
X153547Y138206*
X153010*
X152742Y138022*
X152473Y137653*
X152339Y137283*
X152205Y136730*
Y135807*
X152339Y135253*
X152473Y134884*
X152742Y134515*
X153010Y134331*
X153547*
X153815Y134515*
X154084Y134884*
X154218Y135253*
X155694Y138206D02*
X157171D01*
X156365Y136730*
X156768*
X157037Y136545*
X157171Y136361*
X157305Y135807*
Y135438*
X157171Y134884*
X156902Y134515*
X156500Y134331*
X156097*
X155694Y134515*
X155560Y134700*
X155426Y135069*
X143312Y149528D02*
X143178Y149897D01*
X142910Y150266*
X142641Y150450*
X142105*
X141836Y150266*
X141568Y149897*
X141433Y149528*
X141299Y148974*
Y148051*
X141433Y147498*
X141568Y147128*
X141836Y146759*
X142105Y146575*
X142641*
X142910Y146759*
X143178Y147128*
X143312Y147498*
X146399Y150450D02*
X145057Y146575D01*
X144520Y150450D02*
X146399D01*
G54D55*
X86685Y155673D02*
X126685D01*
Y139173*
X86685*
Y155673*
G74*
X0Y0D02*
M02*
