G04 ================== begin FILE IDENTIFICATION RECORD ==================*
G04 Layout Name:  C:/Users/GuoJin/Desktop/ÃðÎÃµÆ/µç»÷°å/µç»÷°åv04/ELC_b.brd*
G04 Film Name:    drill*
G04 File Format:  Gerber RS274X*
G04 File Origin:  Cadence Allegro 16.6-2015-S108*
G04 Origin Date:  Fri Dec 10 09:24:27 2021*
G04 *
G04 Layer:  MANUFACTURING/NCLEGEND-1-2*
G04 Layer:  MANUFACTURING/NCDRILL_LEGEND*
G04 Layer:  MANUFACTURING/NCDRILL_FIGURE*
G04 Layer:  BOARD GEOMETRY/OUTLINE*
G04 *
G04 Offset:    (0.0000 0.0000)*
G04 Mirror:    No*
G04 Mode:      Positive*
G04 Rotation:  0*
G04 FullContactRelief:  No*
G04 UndefLineWidth:     0.1000*
G04 ================== end FILE IDENTIFICATION RECORD ====================*
%FSLAX55Y55*MOMM*%
%IR0*IPPOS*OFA0.00000B0.00000*MIA0B0*SFA1.00000B1.00000*%
%AMMACRO12*
1,1,.1,.65,0.0*
20,1,.1,.65,0.0,.640125,-.112871,0.0*
1,1,.1,.640125,-.112871*
20,1,.1,.640125,-.112871,.6108,-.222313,0.0*
1,1,.1,.6108,-.222313*
20,1,.1,.6108,-.222313,.562917,-.325,0.0*
1,1,.1,.562917,-.325*
20,1,.1,.562917,-.325,.497929,-.417812,0.0*
1,1,.1,.497929,-.417812*
20,1,.1,.497929,-.417812,.417812,-.497929,0.0*
1,1,.1,.417812,-.497929*
20,1,.1,.417812,-.497929,.325,-.562917,0.0*
1,1,.1,.325,-.562917*
20,1,.1,.325,-.562917,.222313,-.6108,0.0*
1,1,.1,.222313,-.6108*
20,1,.1,.222313,-.6108,.112871,-.640125,0.0*
1,1,.1,.112871,-.640125*
20,1,.1,.112871,-.640125,0.0,-.65,0.0*
1,1,.1,0.0,-.65*
20,1,.1,0.0,-.65,-.112871,-.640125,0.0*
1,1,.1,-.112871,-.640125*
20,1,.1,-.112871,-.640125,-.222313,-.6108,0.0*
1,1,.1,-.222313,-.6108*
20,1,.1,-.222313,-.6108,-.325,-.562917,0.0*
1,1,.1,-.325,-.562917*
20,1,.1,-.325,-.562917,-.417812,-.497929,0.0*
1,1,.1,-.417812,-.497929*
20,1,.1,-.417812,-.497929,-.497929,-.417812,0.0*
1,1,.1,-.497929,-.417812*
20,1,.1,-.497929,-.417812,-.562917,-.325,0.0*
1,1,.1,-.562917,-.325*
20,1,.1,-.562917,-.325,-.6108,-.222313,0.0*
1,1,.1,-.6108,-.222313*
20,1,.1,-.6108,-.222313,-.640125,-.112871,0.0*
1,1,.1,-.640125,-.112871*
20,1,.1,-.640125,-.112871,-.65,0.0,0.0*
1,1,.1,-.65,0.0*
20,1,.1,-.65,0.0,-.640125,.112871,0.0*
1,1,.1,-.640125,.112871*
20,1,.1,-.640125,.112871,-.6108,.222313,0.0*
1,1,.1,-.6108,.222313*
20,1,.1,-.6108,.222313,-.562917,.325,0.0*
1,1,.1,-.562917,.325*
20,1,.1,-.562917,.325,-.497929,.417812,0.0*
1,1,.1,-.497929,.417812*
20,1,.1,-.497929,.417812,-.417812,.497929,0.0*
1,1,.1,-.417812,.497929*
20,1,.1,-.417812,.497929,-.325,.562917,0.0*
1,1,.1,-.325,.562917*
20,1,.1,-.325,.562917,-.222313,.6108,0.0*
1,1,.1,-.222313,.6108*
20,1,.1,-.222313,.6108,-.112871,.640125,0.0*
1,1,.1,-.112871,.640125*
20,1,.1,-.112871,.640125,0.0,.65,0.0*
1,1,.1,0.0,.65*
20,1,.1,0.0,.65,.112871,.640125,0.0*
1,1,.1,.112871,.640125*
20,1,.1,.112871,.640125,.222313,.6108,0.0*
1,1,.1,.222313,.6108*
20,1,.1,.222313,.6108,.325,.562917,0.0*
1,1,.1,.325,.562917*
20,1,.1,.325,.562917,.417812,.497929,0.0*
1,1,.1,.417812,.497929*
20,1,.1,.417812,.497929,.497929,.417812,0.0*
1,1,.1,.497929,.417812*
20,1,.1,.497929,.417812,.562917,.325,0.0*
1,1,.1,.562917,.325*
20,1,.1,.562917,.325,.6108,.222313,0.0*
1,1,.1,.6108,.222313*
20,1,.1,.6108,.222313,.640125,.112871,0.0*
1,1,.1,.640125,.112871*
20,1,.1,.640125,.112871,.65,0.0,0.0*
1,1,.1,.65,0.0*
%
%ADD12MACRO12*%
%AMMACRO10*
1,1,.1,.051777,-.125*
20,1,.1,.051777,-.125,-.051777,-.125,0.0*
1,1,.1,-.051777,-.125*
20,1,.1,-.051777,-.125,-.125,-.051777,0.0*
1,1,.1,-.125,-.051777*
20,1,.1,-.125,-.051777,-.125,.051777,0.0*
1,1,.1,-.125,.051777*
20,1,.1,-.125,.051777,-.051777,.125,0.0*
1,1,.1,-.051777,.125*
20,1,.1,-.051777,.125,.051777,.125,0.0*
1,1,.1,.051777,.125*
20,1,.1,.051777,.125,.125,.051777,0.0*
1,1,.1,.125,.051777*
20,1,.1,.125,.051777,.125,-.051777,0.0*
1,1,.1,.125,-.051777*
20,1,.1,.125,-.051777,.051777,-.125,0.0*
1,1,.1,.051777,-.125*
%
%ADD10MACRO10*%
%AMMACRO13*
1,1,.1,.45,0.0*
20,1,.1,.45,0.0,.443163,-.078142,0.0*
1,1,.1,.443163,-.078142*
20,1,.1,.443163,-.078142,.422862,-.153909,0.0*
1,1,.1,.422862,-.153909*
20,1,.1,.422862,-.153909,.389711,-.225,0.0*
1,1,.1,.389711,-.225*
20,1,.1,.389711,-.225,.34472,-.289254,0.0*
1,1,.1,.34472,-.289254*
20,1,.1,.34472,-.289254,.289254,-.34472,0.0*
1,1,.1,.289254,-.34472*
20,1,.1,.289254,-.34472,.225,-.389711,0.0*
1,1,.1,.225,-.389711*
20,1,.1,.225,-.389711,.153909,-.422862,0.0*
1,1,.1,.153909,-.422862*
20,1,.1,.153909,-.422862,.078142,-.443163,0.0*
1,1,.1,.078142,-.443163*
20,1,.1,.078142,-.443163,0.0,-.45,0.0*
1,1,.1,0.0,-.45*
20,1,.1,0.0,-.45,-.078142,-.443163,0.0*
1,1,.1,-.078142,-.443163*
20,1,.1,-.078142,-.443163,-.153909,-.422862,0.0*
1,1,.1,-.153909,-.422862*
20,1,.1,-.153909,-.422862,-.225,-.389711,0.0*
1,1,.1,-.225,-.389711*
20,1,.1,-.225,-.389711,-.289254,-.34472,0.0*
1,1,.1,-.289254,-.34472*
20,1,.1,-.289254,-.34472,-.34472,-.289254,0.0*
1,1,.1,-.34472,-.289254*
20,1,.1,-.34472,-.289254,-.389711,-.225,0.0*
1,1,.1,-.389711,-.225*
20,1,.1,-.389711,-.225,-.422862,-.153909,0.0*
1,1,.1,-.422862,-.153909*
20,1,.1,-.422862,-.153909,-.443163,-.078142,0.0*
1,1,.1,-.443163,-.078142*
20,1,.1,-.443163,-.078142,-.45,0.0,0.0*
1,1,.1,-.45,0.0*
20,1,.1,-.45,0.0,-.443163,.078142,0.0*
1,1,.1,-.443163,.078142*
20,1,.1,-.443163,.078142,-.422862,.153909,0.0*
1,1,.1,-.422862,.153909*
20,1,.1,-.422862,.153909,-.389711,.225,0.0*
1,1,.1,-.389711,.225*
20,1,.1,-.389711,.225,-.34472,.289254,0.0*
1,1,.1,-.34472,.289254*
20,1,.1,-.34472,.289254,-.289254,.34472,0.0*
1,1,.1,-.289254,.34472*
20,1,.1,-.289254,.34472,-.225,.389711,0.0*
1,1,.1,-.225,.389711*
20,1,.1,-.225,.389711,-.153909,.422862,0.0*
1,1,.1,-.153909,.422862*
20,1,.1,-.153909,.422862,-.078142,.443163,0.0*
1,1,.1,-.078142,.443163*
20,1,.1,-.078142,.443163,0.0,.45,0.0*
1,1,.1,0.0,.45*
20,1,.1,0.0,.45,.078142,.443163,0.0*
1,1,.1,.078142,.443163*
20,1,.1,.078142,.443163,.153909,.422862,0.0*
1,1,.1,.153909,.422862*
20,1,.1,.153909,.422862,.225,.389711,0.0*
1,1,.1,.225,.389711*
20,1,.1,.225,.389711,.289254,.34472,0.0*
1,1,.1,.289254,.34472*
20,1,.1,.289254,.34472,.34472,.289254,0.0*
1,1,.1,.34472,.289254*
20,1,.1,.34472,.289254,.389711,.225,0.0*
1,1,.1,.389711,.225*
20,1,.1,.389711,.225,.422862,.153909,0.0*
1,1,.1,.422862,.153909*
20,1,.1,.422862,.153909,.443163,.078142,0.0*
1,1,.1,.443163,.078142*
20,1,.1,.443163,.078142,.45,0.0,0.0*
1,1,.1,.45,0.0*
%
%ADD13MACRO13*%
%AMMACRO14*
1,1,.1,.5,0.0*
20,1,.1,.5,0.0,.492404,-.086824,0.0*
1,1,.1,.492404,-.086824*
20,1,.1,.492404,-.086824,.469846,-.17101,0.0*
1,1,.1,.469846,-.17101*
20,1,.1,.469846,-.17101,.433013,-.25,0.0*
1,1,.1,.433013,-.25*
20,1,.1,.433013,-.25,.383022,-.321394,0.0*
1,1,.1,.383022,-.321394*
20,1,.1,.383022,-.321394,.321394,-.383022,0.0*
1,1,.1,.321394,-.383022*
20,1,.1,.321394,-.383022,.25,-.433013,0.0*
1,1,.1,.25,-.433013*
20,1,.1,.25,-.433013,.17101,-.469846,0.0*
1,1,.1,.17101,-.469846*
20,1,.1,.17101,-.469846,.086824,-.492404,0.0*
1,1,.1,.086824,-.492404*
20,1,.1,.086824,-.492404,0.0,-.5,0.0*
1,1,.1,0.0,-.5*
20,1,.1,0.0,-.5,-.086824,-.492404,0.0*
1,1,.1,-.086824,-.492404*
20,1,.1,-.086824,-.492404,-.17101,-.469846,0.0*
1,1,.1,-.17101,-.469846*
20,1,.1,-.17101,-.469846,-.25,-.433013,0.0*
1,1,.1,-.25,-.433013*
20,1,.1,-.25,-.433013,-.321394,-.383022,0.0*
1,1,.1,-.321394,-.383022*
20,1,.1,-.321394,-.383022,-.383022,-.321394,0.0*
1,1,.1,-.383022,-.321394*
20,1,.1,-.383022,-.321394,-.433013,-.25,0.0*
1,1,.1,-.433013,-.25*
20,1,.1,-.433013,-.25,-.469846,-.17101,0.0*
1,1,.1,-.469846,-.17101*
20,1,.1,-.469846,-.17101,-.492404,-.086824,0.0*
1,1,.1,-.492404,-.086824*
20,1,.1,-.492404,-.086824,-.5,0.0,0.0*
1,1,.1,-.5,0.0*
20,1,.1,-.5,0.0,-.492404,.086824,0.0*
1,1,.1,-.492404,.086824*
20,1,.1,-.492404,.086824,-.469846,.17101,0.0*
1,1,.1,-.469846,.17101*
20,1,.1,-.469846,.17101,-.433013,.25,0.0*
1,1,.1,-.433013,.25*
20,1,.1,-.433013,.25,-.383022,.321394,0.0*
1,1,.1,-.383022,.321394*
20,1,.1,-.383022,.321394,-.321394,.383022,0.0*
1,1,.1,-.321394,.383022*
20,1,.1,-.321394,.383022,-.25,.433013,0.0*
1,1,.1,-.25,.433013*
20,1,.1,-.25,.433013,-.17101,.469846,0.0*
1,1,.1,-.17101,.469846*
20,1,.1,-.17101,.469846,-.086824,.492404,0.0*
1,1,.1,-.086824,.492404*
20,1,.1,-.086824,.492404,0.0,.5,0.0*
1,1,.1,0.0,.5*
20,1,.1,0.0,.5,.086824,.492404,0.0*
1,1,.1,.086824,.492404*
20,1,.1,.086824,.492404,.17101,.469846,0.0*
1,1,.1,.17101,.469846*
20,1,.1,.17101,.469846,.25,.433013,0.0*
1,1,.1,.25,.433013*
20,1,.1,.25,.433013,.321394,.383022,0.0*
1,1,.1,.321394,.383022*
20,1,.1,.321394,.383022,.383022,.321394,0.0*
1,1,.1,.383022,.321394*
20,1,.1,.383022,.321394,.433013,.25,0.0*
1,1,.1,.433013,.25*
20,1,.1,.433013,.25,.469846,.17101,0.0*
1,1,.1,.469846,.17101*
20,1,.1,.469846,.17101,.492404,.086824,0.0*
1,1,.1,.492404,.086824*
20,1,.1,.492404,.086824,.5,0.0,0.0*
1,1,.1,.5,0.0*
%
%ADD14MACRO14*%
%AMMACRO11*
1,1,.1,.55,0.0*
20,1,.1,.55,0.0,.541644,-.095506,0.0*
1,1,.1,.541644,-.095506*
20,1,.1,.541644,-.095506,.516831,-.188111,0.0*
1,1,.1,.516831,-.188111*
20,1,.1,.516831,-.188111,.476314,-.275,0.0*
1,1,.1,.476314,-.275*
20,1,.1,.476314,-.275,.421324,-.353533,0.0*
1,1,.1,.421324,-.353533*
20,1,.1,.421324,-.353533,.353533,-.421324,0.0*
1,1,.1,.353533,-.421324*
20,1,.1,.353533,-.421324,.275,-.476314,0.0*
1,1,.1,.275,-.476314*
20,1,.1,.275,-.476314,.188111,-.516831,0.0*
1,1,.1,.188111,-.516831*
20,1,.1,.188111,-.516831,.095506,-.541644,0.0*
1,1,.1,.095506,-.541644*
20,1,.1,.095506,-.541644,0.0,-.55,0.0*
1,1,.1,0.0,-.55*
20,1,.1,0.0,-.55,-.095506,-.541644,0.0*
1,1,.1,-.095506,-.541644*
20,1,.1,-.095506,-.541644,-.188111,-.516831,0.0*
1,1,.1,-.188111,-.516831*
20,1,.1,-.188111,-.516831,-.275,-.476314,0.0*
1,1,.1,-.275,-.476314*
20,1,.1,-.275,-.476314,-.353533,-.421324,0.0*
1,1,.1,-.353533,-.421324*
20,1,.1,-.353533,-.421324,-.421324,-.353533,0.0*
1,1,.1,-.421324,-.353533*
20,1,.1,-.421324,-.353533,-.476314,-.275,0.0*
1,1,.1,-.476314,-.275*
20,1,.1,-.476314,-.275,-.516831,-.188111,0.0*
1,1,.1,-.516831,-.188111*
20,1,.1,-.516831,-.188111,-.541644,-.095506,0.0*
1,1,.1,-.541644,-.095506*
20,1,.1,-.541644,-.095506,-.55,0.0,0.0*
1,1,.1,-.55,0.0*
20,1,.1,-.55,0.0,-.541644,.095506,0.0*
1,1,.1,-.541644,.095506*
20,1,.1,-.541644,.095506,-.516831,.188111,0.0*
1,1,.1,-.516831,.188111*
20,1,.1,-.516831,.188111,-.476314,.275,0.0*
1,1,.1,-.476314,.275*
20,1,.1,-.476314,.275,-.421324,.353533,0.0*
1,1,.1,-.421324,.353533*
20,1,.1,-.421324,.353533,-.353533,.421324,0.0*
1,1,.1,-.353533,.421324*
20,1,.1,-.353533,.421324,-.275,.476314,0.0*
1,1,.1,-.275,.476314*
20,1,.1,-.275,.476314,-.188111,.516831,0.0*
1,1,.1,-.188111,.516831*
20,1,.1,-.188111,.516831,-.095506,.541644,0.0*
1,1,.1,-.095506,.541644*
20,1,.1,-.095506,.541644,0.0,.55,0.0*
1,1,.1,0.0,.55*
20,1,.1,0.0,.55,.095506,.541644,0.0*
1,1,.1,.095506,.541644*
20,1,.1,.095506,.541644,.188111,.516831,0.0*
1,1,.1,.188111,.516831*
20,1,.1,.188111,.516831,.275,.476314,0.0*
1,1,.1,.275,.476314*
20,1,.1,.275,.476314,.353533,.421324,0.0*
1,1,.1,.353533,.421324*
20,1,.1,.353533,.421324,.421324,.353533,0.0*
1,1,.1,.421324,.353533*
20,1,.1,.421324,.353533,.476314,.275,0.0*
1,1,.1,.476314,.275*
20,1,.1,.476314,.275,.516831,.188111,0.0*
1,1,.1,.516831,.188111*
20,1,.1,.516831,.188111,.541644,.095506,0.0*
1,1,.1,.541644,.095506*
20,1,.1,.541644,.095506,.55,0.0,0.0*
1,1,.1,.55,0.0*
%
%ADD11MACRO11*%
%ADD15C,.1*%
G75*
%LPD*%
G75*
G54D10*
X316200Y796700D03*
X97940Y734600D03*
X129500Y796000D03*
X227500Y793500D03*
X160500Y730300D03*
X298100Y729000D03*
X81300Y1433700D03*
X77100Y1124800D03*
X113000Y1805900D03*
X85400Y2400700D03*
X84800Y2491000D03*
X88000Y2117300D03*
X472900Y253000D03*
X396100Y261700D03*
X618200Y414900D03*
X527400Y389000D03*
X401300Y784500D03*
X703700Y1121600D03*
X434500Y1649400D03*
Y1834900D03*
X847700Y1855000D03*
X839500Y2538500D03*
X1057000Y2550600D03*
X595100Y2588100D03*
X599100Y2523800D03*
X573200Y2264100D03*
X583800Y2324500D03*
X643450Y2213080D03*
X583000Y2196400D03*
X514200Y2194900D03*
X448600Y2193600D03*
X867600Y2318600D03*
X847700Y1917700D03*
X473900Y2673800D03*
X536800Y2665800D03*
X855400Y8448600D03*
X1843290Y242660D03*
X1357400Y2543100D03*
X1314900Y2580100D03*
X1546800Y2309600D03*
X1913400Y259300D03*
X1886800Y209300D03*
X2360900Y581700D03*
X2363600Y670600D03*
X2292800Y599800D03*
X2158500Y899700D03*
X2367400Y1478900D03*
X2322090Y1523850D03*
X2412900Y2083300D03*
X2486700Y2060100D03*
X2408400Y2020760D03*
X2325600Y2088300D03*
X2336800Y2032600D03*
X3368580Y1976600D03*
X3406100Y2109100D03*
X2991700Y2555200D03*
X2994850Y2621720D03*
X2929600Y2555200D03*
X2872000Y2558800D03*
X2932150Y2621440D03*
X2872900Y2621700D03*
X3458300Y1980200D03*
G54D11*
X1168100Y710700D03*
Y2060700D03*
X855400Y7863600D03*
X1676100Y710700D03*
X1422100Y2060700D03*
X1676100D03*
X2184100Y710700D03*
Y2060700D03*
G54D12*
X855400Y7668600D03*
X3822200Y651700D03*
Y931700D03*
Y1701700D03*
Y1981700D03*
G54D13*
X855400Y8253600D03*
X2718700Y1153100D03*
Y653100D03*
Y1567100D03*
Y2067100D03*
G54D14*
X855400Y8058600D03*
X3406100Y609100D03*
Y2109100D03*
G54D15*
G01X200Y200D02*
Y2800200D01*
X4000200D01*
Y1523700D01*
X3677600D01*
X3676000Y1525300D01*
Y1102200D01*
X3677600Y1100600D01*
X4000200D01*
Y200D01*
X200D01*
G01X2589100Y763600D02*
X2833600D01*
X2857600Y787600D01*
Y1030500D01*
X2845600Y1042500D01*
X2618600D01*
X2591500Y1069600D01*
Y1238000D01*
X2632600Y1279100D01*
X2833200D01*
X2834800Y1277500D01*
X2853600Y1296300D01*
Y1409000D01*
X2840800Y1421800D01*
X2321000D01*
X2308600Y1409400D01*
Y790300D01*
X2364100Y734800D01*
X2560300D01*
X2589100Y763600D01*
G01X2122400Y1943700D02*
X2849300D01*
X2869600Y1923400D01*
Y1701100D01*
X2840100Y1671600D01*
X2513200D01*
X2462800Y1621200D01*
Y1568500D01*
X2108000D01*
X2094400Y1582100D01*
Y1937900D01*
X2100200Y1943700D01*
X2122400D01*
G01X652200Y7571100D02*
Y9450100D01*
X2836600D01*
Y7571100D01*
X652200D01*
G01X1058600Y8673100D02*
Y7571100D01*
G01X652200Y7766100D02*
X2836600D01*
G01X973090Y8704850D02*
X990020Y8768350D01*
X1006950Y8704850D01*
G01X1000860Y8727070D02*
X979180D01*
G01X1032350Y8768350D02*
Y8704850D01*
X1059450D01*
G01X1088230Y8768350D02*
Y8704850D01*
X1115330D01*
G01X1198640Y8768350D02*
Y8722840D01*
X1201350Y8713310D01*
X1206770Y8706970D01*
X1213540Y8704850D01*
X1220310Y8706970D01*
X1225730Y8713310D01*
X1228440Y8722840D01*
Y8768350D01*
G01X1253840Y8704850D02*
Y8768350D01*
X1285000Y8704850D01*
Y8768350D01*
G01X1317170D02*
X1333430D01*
G01X1325300D02*
Y8704850D01*
G01X1317170D02*
X1333430D01*
G01X1381180Y8768350D02*
Y8704850D01*
G01X1365600Y8768350D02*
X1396760D01*
G01X1422840Y8713310D02*
X1428250Y8708020D01*
X1434350Y8704850D01*
X1439770D01*
X1445190Y8708020D01*
X1449250Y8713310D01*
X1451280Y8720730D01*
X1449930Y8728130D01*
X1446540Y8734480D01*
X1440450Y8738720D01*
X1432320Y8740830D01*
X1427580Y8745070D01*
X1425540Y8752470D01*
X1426900Y8759880D01*
X1430290Y8765170D01*
X1435030Y8768350D01*
X1439770D01*
X1444510Y8766230D01*
X1448580Y8760940D01*
G01X1531890Y8704850D02*
X1548820Y8768350D01*
X1565750Y8704850D01*
G01X1559660Y8727070D02*
X1537980D01*
G01X1591150Y8704850D02*
Y8768350D01*
X1608090D01*
X1613510Y8765170D01*
X1616890Y8760940D01*
X1618250Y8752470D01*
X1616890Y8744010D01*
X1612830Y8738720D01*
X1608090Y8735540D01*
X1591150D01*
G01X1608090D02*
X1618250Y8704850D01*
G01X1674130D02*
X1647030D01*
Y8768350D01*
X1674130D01*
G01X1663290Y8737660D02*
X1647030D01*
G01X1764210Y8768350D02*
X1780470D01*
G01X1772340D02*
Y8704850D01*
G01X1764210D02*
X1780470D01*
G01X1812640D02*
Y8768350D01*
X1843800Y8704850D01*
Y8768350D01*
G01X1922370Y8704850D02*
Y8768350D01*
X1939980Y8715430D01*
X1957590Y8768350D01*
Y8704850D01*
G01X1987730Y8768350D02*
X2003990D01*
G01X1995860D02*
Y8704850D01*
G01X1987730D02*
X2003990D01*
G01X2038190Y8768350D02*
Y8704850D01*
X2065290D01*
G01X2094070Y8768350D02*
Y8704850D01*
X2121170D01*
G01X2155370Y8768350D02*
X2171630D01*
G01X2163500D02*
Y8704850D01*
G01X2155370D02*
X2171630D01*
G01X2201770D02*
Y8768350D01*
X2219380Y8715430D01*
X2236990Y8768350D01*
Y8704850D01*
G01X2288810D02*
X2261710D01*
Y8768350D01*
X2288810D01*
G01X2277970Y8737660D02*
X2261710D01*
G01X2331140Y8768350D02*
Y8704850D01*
G01X2315560Y8768350D02*
X2346720D01*
G01X2400570Y8704850D02*
X2373470D01*
Y8768350D01*
X2400570D01*
G01X2389730Y8737660D02*
X2373470D01*
G01X2429350Y8704850D02*
Y8768350D01*
X2446290D01*
X2451710Y8765170D01*
X2455090Y8760940D01*
X2456450Y8752470D01*
X2455090Y8744010D01*
X2451030Y8738720D01*
X2446290Y8735540D01*
X2429350D01*
G01X2446290D02*
X2456450Y8704850D01*
G01X2484560Y8713310D02*
X2489970Y8708020D01*
X2496070Y8704850D01*
X2501490D01*
X2506910Y8708020D01*
X2510970Y8713310D01*
X2513000Y8720730D01*
X2511650Y8728130D01*
X2508260Y8734480D01*
X2502170Y8738720D01*
X2494040Y8740830D01*
X2489300Y8745070D01*
X2487260Y8752470D01*
X2488620Y8759880D01*
X2492010Y8765170D01*
X2496750Y8768350D01*
X2501490D01*
X2506230Y8766230D01*
X2510300Y8760940D01*
G01X702830Y8577850D02*
Y8641350D01*
X728570D01*
G01X719090Y8610660D02*
X702830D01*
G01X763450Y8641350D02*
X779710D01*
G01X771580D02*
Y8577850D01*
G01X763450D02*
X779710D01*
G01X831520Y8609600D02*
X845070D01*
Y8590550D01*
X841010Y8584200D01*
X836270Y8579970D01*
X829490Y8577850D01*
X822720Y8579970D01*
X817980Y8584200D01*
X813910Y8590550D01*
X811200Y8597960D01*
X809850Y8606420D01*
Y8613830D01*
X811200Y8620180D01*
X813910Y8627590D01*
X817980Y8633940D01*
X822040Y8638170D01*
X827460Y8641350D01*
X832200D01*
X837620Y8639230D01*
X841680Y8635000D01*
G01X868440Y8641350D02*
Y8595840D01*
X871150Y8586310D01*
X876570Y8579970D01*
X883340Y8577850D01*
X890110Y8579970D01*
X895530Y8586310D01*
X898240Y8595840D01*
Y8641350D01*
G01X925670Y8577850D02*
Y8641350D01*
X942610D01*
X948030Y8638170D01*
X951410Y8633940D01*
X952770Y8625470D01*
X951410Y8617010D01*
X947350Y8611720D01*
X942610Y8608540D01*
X925670D01*
G01X942610D02*
X952770Y8577850D01*
G01X1008650D02*
X981550D01*
Y8641350D01*
X1008650D01*
G01X997810Y8610660D02*
X981550D01*
G01X652200Y8673100D02*
X2836600D01*
G01X652200Y8546100D02*
X2836600D01*
G01X652200Y8351100D02*
X2836600D01*
G01X652200Y8156100D02*
X2836600D01*
G01X652200Y7961100D02*
X2836600D01*
G01X1031000Y9354850D02*
Y9418350D01*
X1044550D01*
X1049960Y9415170D01*
X1054030Y9410940D01*
X1057420Y9404590D01*
X1060120Y9397180D01*
X1060800Y9386600D01*
X1060120Y9376020D01*
X1057420Y9368610D01*
X1054030Y9362260D01*
X1049960Y9358020D01*
X1044550Y9354850D01*
X1031000D01*
G01X1088230D02*
Y9418350D01*
X1105170D01*
X1110590Y9415170D01*
X1113970Y9410940D01*
X1115330Y9402470D01*
X1113970Y9394010D01*
X1109910Y9388720D01*
X1105170Y9385540D01*
X1088230D01*
G01X1105170D02*
X1115330Y9354850D01*
G01X1149530Y9418350D02*
X1165790D01*
G01X1157660D02*
Y9354850D01*
G01X1149530D02*
X1165790D01*
G01X1199990Y9418350D02*
Y9354850D01*
X1227090D01*
G01X1255870Y9418350D02*
Y9354850D01*
X1282970D01*
G01X1396080Y9413060D02*
X1392020Y9416230D01*
X1387280Y9418350D01*
X1381860D01*
X1375760Y9415170D01*
X1371020Y9409880D01*
X1367630Y9403530D01*
X1364920Y9392950D01*
X1364250Y9383420D01*
X1365600Y9373900D01*
X1367630Y9367550D01*
X1371700Y9361200D01*
X1376440Y9356970D01*
X1381180Y9354850D01*
X1385920D01*
X1390660Y9356970D01*
X1394730Y9360140D01*
X1398110Y9364370D01*
G01X1422840Y9354850D02*
Y9418350D01*
G01X1451280D02*
Y9354850D01*
G01Y9386600D02*
X1422840D01*
G01X1476010Y9354850D02*
X1492940Y9418350D01*
X1509870Y9354850D01*
G01X1503780Y9377070D02*
X1482100D01*
G01X1535270Y9354850D02*
Y9418350D01*
X1552210D01*
X1557630Y9415170D01*
X1561010Y9410940D01*
X1562370Y9402470D01*
X1561010Y9394010D01*
X1556950Y9388720D01*
X1552210Y9385540D01*
X1535270D01*
G01X1552210D02*
X1562370Y9354850D01*
G01X1604700Y9418350D02*
Y9354850D01*
G01X1589120Y9418350D02*
X1620280D01*
G01X1660580Y9352730D02*
X1659230Y9353790D01*
Y9355910D01*
X1660580Y9356970D01*
X1661930Y9355910D01*
Y9353790D01*
X1660580Y9352730D01*
G01Y9381310D02*
X1659230Y9382370D01*
Y9384480D01*
X1660580Y9385540D01*
X1661930Y9384480D01*
Y9382370D01*
X1660580Y9381310D01*
G01X1772340Y9418350D02*
Y9354850D01*
G01X1756760Y9418350D02*
X1787920D01*
G01X1828220Y9354850D02*
X1822800Y9355910D01*
X1818060Y9360140D01*
X1814000Y9366490D01*
X1811290Y9373900D01*
X1809930Y9382370D01*
Y9390830D01*
X1811290Y9399300D01*
X1814000Y9406710D01*
X1818060Y9413060D01*
X1822800Y9417290D01*
X1828220Y9418350D01*
X1833640Y9417290D01*
X1838380Y9413060D01*
X1842440Y9406710D01*
X1845150Y9399300D01*
X1846510Y9390830D01*
Y9382370D01*
X1845150Y9373900D01*
X1842440Y9366490D01*
X1838380Y9360140D01*
X1833640Y9355910D01*
X1828220Y9354850D01*
G01X1870550D02*
Y9418350D01*
X1886810D01*
X1892230Y9415170D01*
X1896290Y9407770D01*
X1897650Y9399300D01*
X1896290Y9390830D01*
X1892910Y9384480D01*
X1886810Y9381310D01*
X1870550D01*
G01X1995860Y9418350D02*
Y9354850D01*
G01X1986380Y9397180D02*
X2005340D01*
G01X2051740Y9354850D02*
X2047680Y9355910D01*
X2043610Y9360140D01*
X2040900Y9367550D01*
X2039550Y9376020D01*
X2040900Y9384480D01*
X2043610Y9391890D01*
X2047680Y9396120D01*
X2051740Y9397180D01*
X2055800Y9396120D01*
X2059870Y9391890D01*
X2062580Y9384480D01*
X2063260Y9376020D01*
X2062580Y9367550D01*
X2059870Y9360140D01*
X2055800Y9355910D01*
X2051740Y9354850D01*
G01X2168920Y9388720D02*
X2171630Y9391890D01*
X2173660Y9397180D01*
X2175020Y9404590D01*
X2173660Y9410940D01*
X2170950Y9415170D01*
X2166210Y9418350D01*
X2147920D01*
Y9354850D01*
X2170270D01*
X2175020Y9359080D01*
X2177720Y9365430D01*
X2179080Y9372840D01*
X2177720Y9380250D01*
X2173660Y9386600D01*
X2168920Y9388720D01*
X2147920D01*
G01X2219380Y9354850D02*
X2213960Y9355910D01*
X2209220Y9360140D01*
X2205160Y9366490D01*
X2202450Y9373900D01*
X2201090Y9382370D01*
Y9390830D01*
X2202450Y9399300D01*
X2205160Y9406710D01*
X2209220Y9413060D01*
X2213960Y9417290D01*
X2219380Y9418350D01*
X2224800Y9417290D01*
X2229540Y9413060D01*
X2233600Y9406710D01*
X2236310Y9399300D01*
X2237670Y9390830D01*
Y9382370D01*
X2236310Y9373900D01*
X2233600Y9366490D01*
X2229540Y9360140D01*
X2224800Y9355910D01*
X2219380Y9354850D01*
G01X2275260Y9418350D02*
Y9354850D01*
G01X2259680Y9418350D02*
X2290840D01*
G01X2331140D02*
Y9354850D01*
G01X2315560Y9418350D02*
X2346720D01*
G01X2387020Y9354850D02*
X2381600Y9355910D01*
X2376860Y9360140D01*
X2372800Y9366490D01*
X2370090Y9373900D01*
X2368730Y9382370D01*
Y9390830D01*
X2370090Y9399300D01*
X2372800Y9406710D01*
X2376860Y9413060D01*
X2381600Y9417290D01*
X2387020Y9418350D01*
X2392440Y9417290D01*
X2397180Y9413060D01*
X2401240Y9406710D01*
X2403950Y9399300D01*
X2405310Y9390830D01*
Y9382370D01*
X2403950Y9373900D01*
X2401240Y9366490D01*
X2397180Y9360140D01*
X2392440Y9355910D01*
X2387020Y9354850D01*
G01X2425290D02*
Y9418350D01*
X2442900Y9365430D01*
X2460510Y9418350D01*
Y9354850D01*
G01X652200Y8800100D02*
X2836600D01*
G01X1429440Y7831850D02*
Y7895350D01*
X1421310Y7882650D01*
G01Y7831850D02*
X1437570D01*
G01X1485320Y7829730D02*
X1483970Y7830790D01*
Y7832910D01*
X1485320Y7833970D01*
X1486670Y7832910D01*
Y7830790D01*
X1485320Y7829730D01*
G01X1541200Y7831850D02*
Y7895350D01*
X1533070Y7882650D01*
G01Y7831850D02*
X1549330D01*
G01X1429440Y7636850D02*
Y7700350D01*
X1421310Y7687650D01*
G01Y7636850D02*
X1437570D01*
G01X1485320Y7634730D02*
X1483970Y7635790D01*
Y7637910D01*
X1485320Y7638970D01*
X1486670Y7637910D01*
Y7635790D01*
X1485320Y7634730D01*
G01X1526300Y7649550D02*
X1530360Y7642140D01*
X1535780Y7637910D01*
X1541880Y7636850D01*
X1547300Y7637910D01*
X1552720Y7643200D01*
X1556100Y7649550D01*
X1556780Y7655900D01*
X1555420Y7663310D01*
X1550680Y7668600D01*
X1545940Y7670720D01*
X1539850D01*
G01X1545940D02*
X1550010Y7673890D01*
X1553390Y7679180D01*
X1554750Y7685530D01*
X1553390Y7691880D01*
X1550010Y7697170D01*
X1543910Y7700350D01*
X1537810Y7699290D01*
X1531720Y7695060D01*
G01X1387280Y8586310D02*
X1392690Y8581020D01*
X1398790Y8577850D01*
X1404210D01*
X1409630Y8581020D01*
X1413690Y8586310D01*
X1415720Y8593730D01*
X1414370Y8601130D01*
X1410980Y8607480D01*
X1404890Y8611720D01*
X1396760Y8613830D01*
X1392020Y8618070D01*
X1389980Y8625470D01*
X1391340Y8632880D01*
X1394730Y8638170D01*
X1399470Y8641350D01*
X1404210D01*
X1408950Y8639230D01*
X1413020Y8633940D01*
G01X1449250Y8641350D02*
X1465510D01*
G01X1457380D02*
Y8577850D01*
G01X1449250D02*
X1465510D01*
G01X1500390Y8641350D02*
X1526130D01*
X1500390Y8577850D01*
X1526130D01*
G01X1582690D02*
X1555590D01*
Y8641350D01*
X1582690D01*
G01X1571850Y8610660D02*
X1555590D01*
G01X1401500Y8480350D02*
X1396080Y8478230D01*
X1392020Y8472940D01*
X1389310Y8466590D01*
X1387280Y8458120D01*
X1386600Y8448600D01*
X1387280Y8439070D01*
X1389310Y8430610D01*
X1392020Y8424260D01*
X1396080Y8418970D01*
X1401500Y8416850D01*
X1406920Y8418970D01*
X1410980Y8424260D01*
X1413690Y8430610D01*
X1415720Y8439070D01*
X1416400Y8448600D01*
X1415720Y8458120D01*
X1413690Y8466590D01*
X1410980Y8472940D01*
X1406920Y8478230D01*
X1401500Y8480350D01*
G01X1457380Y8414730D02*
X1456030Y8415790D01*
Y8417910D01*
X1457380Y8418970D01*
X1458730Y8417910D01*
Y8415790D01*
X1457380Y8414730D01*
G01X1500390Y8469770D02*
X1504450Y8476120D01*
X1509200Y8479290D01*
X1514610Y8480350D01*
X1521390Y8478230D01*
X1526130Y8472940D01*
X1527480Y8466590D01*
X1526810Y8460240D01*
X1524100Y8454950D01*
X1510550Y8444370D01*
X1504450Y8436960D01*
X1500390Y8426370D01*
X1499040Y8416850D01*
X1527480D01*
G01X1554240Y8426370D02*
X1558300Y8421080D01*
X1563040Y8417910D01*
X1569140Y8416850D01*
X1575240Y8418970D01*
X1579980Y8423200D01*
X1583360Y8430610D01*
X1584040Y8439070D01*
X1582690Y8447540D01*
X1579300Y8452830D01*
X1574560Y8457070D01*
X1569820Y8458120D01*
X1565080Y8457070D01*
X1558980Y8452830D01*
X1561010Y8480350D01*
X1579300D01*
G01X1429440Y8285350D02*
X1424020Y8283230D01*
X1419960Y8277940D01*
X1417250Y8271590D01*
X1415220Y8263120D01*
X1414540Y8253600D01*
X1415220Y8244070D01*
X1417250Y8235610D01*
X1419960Y8229260D01*
X1424020Y8223970D01*
X1429440Y8221850D01*
X1434860Y8223970D01*
X1438920Y8229260D01*
X1441630Y8235610D01*
X1443660Y8244070D01*
X1444340Y8253600D01*
X1443660Y8263120D01*
X1441630Y8271590D01*
X1438920Y8277940D01*
X1434860Y8283230D01*
X1429440Y8285350D01*
G01X1485320Y8219730D02*
X1483970Y8220790D01*
Y8222910D01*
X1485320Y8223970D01*
X1486670Y8222910D01*
Y8220790D01*
X1485320Y8219730D01*
G01X1529680Y8229260D02*
X1534430Y8223970D01*
X1539850Y8221850D01*
X1545260Y8223970D01*
X1550010Y8230310D01*
X1553390Y8239840D01*
X1554750Y8249370D01*
Y8261010D01*
X1553390Y8270530D01*
X1550010Y8279000D01*
X1545940Y8283230D01*
X1541200Y8285350D01*
X1535780Y8283230D01*
X1531720Y8279000D01*
X1529010Y8272650D01*
X1527650Y8264180D01*
X1529010Y8256780D01*
X1532390Y8249370D01*
X1536460Y8245130D01*
X1541200Y8244070D01*
X1546620Y8246190D01*
X1550680Y8251480D01*
X1554750Y8261010D01*
G01X1429440Y8026850D02*
Y8090350D01*
X1421310Y8077650D01*
G01Y8026850D02*
X1437570D01*
G01X1485320Y8024730D02*
X1483970Y8025790D01*
Y8027910D01*
X1485320Y8028970D01*
X1486670Y8027910D01*
Y8025790D01*
X1485320Y8024730D01*
G01X1541200Y8090350D02*
X1535780Y8088230D01*
X1531720Y8082940D01*
X1529010Y8076590D01*
X1526980Y8068120D01*
X1526300Y8058600D01*
X1526980Y8049070D01*
X1529010Y8040610D01*
X1531720Y8034260D01*
X1535780Y8028970D01*
X1541200Y8026850D01*
X1546620Y8028970D01*
X1550680Y8034260D01*
X1553390Y8040610D01*
X1555420Y8049070D01*
X1556100Y8058600D01*
X1555420Y8068120D01*
X1553390Y8076590D01*
X1550680Y8082940D01*
X1546620Y8088230D01*
X1541200Y8090350D01*
G01X2045810Y7831850D02*
Y7895350D01*
X2062070D01*
X2067490Y7892170D01*
X2071550Y7884770D01*
X2072910Y7876300D01*
X2071550Y7867830D01*
X2068170Y7861480D01*
X2062070Y7858310D01*
X2045810D01*
G01X2101690Y7895350D02*
Y7831850D01*
X2128790D01*
G01X2154190D02*
X2171120Y7895350D01*
X2188050Y7831850D01*
G01X2181960Y7854070D02*
X2160280D01*
G01X2227000Y7895350D02*
Y7831850D01*
G01X2211420Y7895350D02*
X2242580D01*
G01X2296430Y7831850D02*
X2269330D01*
Y7895350D01*
X2296430D01*
G01X2285590Y7864660D02*
X2269330D01*
G01X2323860Y7831850D02*
Y7895350D01*
X2337410D01*
X2342820Y7892170D01*
X2346890Y7887940D01*
X2350280Y7881590D01*
X2352980Y7874180D01*
X2353660Y7863600D01*
X2352980Y7853020D01*
X2350280Y7845610D01*
X2346890Y7839260D01*
X2342820Y7835020D01*
X2337410Y7831850D01*
X2323860D01*
G01X2045810Y7636850D02*
Y7700350D01*
X2062070D01*
X2067490Y7697170D01*
X2071550Y7689770D01*
X2072910Y7681300D01*
X2071550Y7672830D01*
X2068170Y7666480D01*
X2062070Y7663310D01*
X2045810D01*
G01X2101690Y7700350D02*
Y7636850D01*
X2128790D01*
G01X2154190D02*
X2171120Y7700350D01*
X2188050Y7636850D01*
G01X2181960Y7659070D02*
X2160280D01*
G01X2227000Y7700350D02*
Y7636850D01*
G01X2211420Y7700350D02*
X2242580D01*
G01X2296430Y7636850D02*
X2269330D01*
Y7700350D01*
X2296430D01*
G01X2285590Y7669660D02*
X2269330D01*
G01X2323860Y7636850D02*
Y7700350D01*
X2337410D01*
X2342820Y7697170D01*
X2346890Y7692940D01*
X2350280Y7686590D01*
X2352980Y7679180D01*
X2353660Y7668600D01*
X2352980Y7658020D01*
X2350280Y7650610D01*
X2346890Y7644260D01*
X2342820Y7640020D01*
X2337410Y7636850D01*
X2323860D01*
G01X1912040Y8673100D02*
Y7571100D01*
G01X2486080Y8673100D02*
Y7571100D01*
G01X2045810Y8577850D02*
Y8641350D01*
X2062070D01*
X2067490Y8638170D01*
X2071550Y8630770D01*
X2072910Y8622300D01*
X2071550Y8613830D01*
X2068170Y8607480D01*
X2062070Y8604310D01*
X2045810D01*
G01X2101690Y8641350D02*
Y8577850D01*
X2128790D01*
G01X2154190D02*
X2171120Y8641350D01*
X2188050Y8577850D01*
G01X2181960Y8600070D02*
X2160280D01*
G01X2227000Y8641350D02*
Y8577850D01*
G01X2211420Y8641350D02*
X2242580D01*
G01X2296430Y8577850D02*
X2269330D01*
Y8641350D01*
X2296430D01*
G01X2285590Y8610660D02*
X2269330D01*
G01X2323860Y8577850D02*
Y8641350D01*
X2337410D01*
X2342820Y8638170D01*
X2346890Y8633940D01*
X2350280Y8627590D01*
X2352980Y8620180D01*
X2353660Y8609600D01*
X2352980Y8599020D01*
X2350280Y8591610D01*
X2346890Y8585260D01*
X2342820Y8581020D01*
X2337410Y8577850D01*
X2323860D01*
G01X2605460D02*
X2600040Y8578910D01*
X2595300Y8583140D01*
X2591240Y8589490D01*
X2588530Y8596900D01*
X2587170Y8605370D01*
Y8613830D01*
X2588530Y8622300D01*
X2591240Y8629710D01*
X2595300Y8636060D01*
X2600040Y8640290D01*
X2605460Y8641350D01*
X2610880Y8640290D01*
X2615620Y8636060D01*
X2619680Y8629710D01*
X2622390Y8622300D01*
X2623750Y8613830D01*
Y8605370D01*
X2622390Y8596900D01*
X2619680Y8589490D01*
X2615620Y8583140D01*
X2610880Y8578910D01*
X2605460Y8577850D01*
G01X2610880Y8594780D02*
X2619010Y8577850D01*
G01X2661340Y8641350D02*
Y8577850D01*
G01X2645760Y8641350D02*
X2676920D01*
G01X2717220Y8577850D02*
Y8606420D01*
X2703670Y8641350D01*
G01X2730770D02*
X2717220Y8606420D01*
G01X2045810Y8416850D02*
Y8480350D01*
X2062070D01*
X2067490Y8477170D01*
X2071550Y8469770D01*
X2072910Y8461300D01*
X2071550Y8452830D01*
X2068170Y8446480D01*
X2062070Y8443310D01*
X2045810D01*
G01X2101690Y8480350D02*
Y8416850D01*
X2128790D01*
G01X2154190D02*
X2171120Y8480350D01*
X2188050Y8416850D01*
G01X2181960Y8439070D02*
X2160280D01*
G01X2227000Y8480350D02*
Y8416850D01*
G01X2211420Y8480350D02*
X2242580D01*
G01X2296430Y8416850D02*
X2269330D01*
Y8480350D01*
X2296430D01*
G01X2285590Y8449660D02*
X2269330D01*
G01X2323860Y8416850D02*
Y8480350D01*
X2337410D01*
X2342820Y8477170D01*
X2346890Y8472940D01*
X2350280Y8466590D01*
X2352980Y8459180D01*
X2353660Y8448600D01*
X2352980Y8438020D01*
X2350280Y8430610D01*
X2346890Y8424260D01*
X2342820Y8420020D01*
X2337410Y8416850D01*
X2323860D01*
G01X2620530Y8443310D02*
X2625270Y8450720D01*
X2629340Y8454950D01*
X2634750Y8457070D01*
X2639500Y8454950D01*
X2642880Y8450720D01*
X2645590Y8444370D01*
X2646270Y8436960D01*
X2645590Y8430610D01*
X2642880Y8424260D01*
X2638820Y8418970D01*
X2634080Y8416850D01*
X2628660Y8418970D01*
X2623920Y8425310D01*
X2621210Y8434840D01*
X2620530Y8445420D01*
X2621880Y8459180D01*
X2623920Y8466590D01*
X2627300Y8474000D01*
X2632050Y8479290D01*
X2636790Y8480350D01*
X2641530Y8478230D01*
X2644920Y8472940D01*
G01X2689280Y8416850D02*
Y8480350D01*
X2681150Y8467650D01*
G01Y8416850D02*
X2697410D01*
G01X2045810Y8221850D02*
Y8285350D01*
X2062070D01*
X2067490Y8282170D01*
X2071550Y8274770D01*
X2072910Y8266300D01*
X2071550Y8257830D01*
X2068170Y8251480D01*
X2062070Y8248310D01*
X2045810D01*
G01X2101690Y8285350D02*
Y8221850D01*
X2128790D01*
G01X2154190D02*
X2171120Y8285350D01*
X2188050Y8221850D01*
G01X2181960Y8244070D02*
X2160280D01*
G01X2227000Y8285350D02*
Y8221850D01*
G01X2211420Y8285350D02*
X2242580D01*
G01X2296430Y8221850D02*
X2269330D01*
Y8285350D01*
X2296430D01*
G01X2285590Y8254660D02*
X2269330D01*
G01X2323860Y8221850D02*
Y8285350D01*
X2337410D01*
X2342820Y8282170D01*
X2346890Y8277940D01*
X2350280Y8271590D01*
X2352980Y8264180D01*
X2353660Y8253600D01*
X2352980Y8243020D01*
X2350280Y8235610D01*
X2346890Y8229260D01*
X2342820Y8225020D01*
X2337410Y8221850D01*
X2323860D01*
G01X2045810Y8026850D02*
Y8090350D01*
X2062070D01*
X2067490Y8087170D01*
X2071550Y8079770D01*
X2072910Y8071300D01*
X2071550Y8062830D01*
X2068170Y8056480D01*
X2062070Y8053310D01*
X2045810D01*
G01X2101690Y8090350D02*
Y8026850D01*
X2128790D01*
G01X2154190D02*
X2171120Y8090350D01*
X2188050Y8026850D01*
G01X2181960Y8049070D02*
X2160280D01*
G01X2227000Y8090350D02*
Y8026850D01*
G01X2211420Y8090350D02*
X2242580D01*
G01X2296430Y8026850D02*
X2269330D01*
Y8090350D01*
X2296430D01*
G01X2285590Y8059660D02*
X2269330D01*
G01X2323860Y8026850D02*
Y8090350D01*
X2337410D01*
X2342820Y8087170D01*
X2346890Y8082940D01*
X2350280Y8076590D01*
X2352980Y8069180D01*
X2353660Y8058600D01*
X2352980Y8048020D01*
X2350280Y8040610D01*
X2346890Y8034260D01*
X2342820Y8030020D01*
X2337410Y8026850D01*
X2323860D01*
G01X2659990Y7831850D02*
X2661340Y7845610D01*
X2663370Y7857250D01*
X2666080Y7867830D01*
X2669470Y7879470D01*
X2674890Y7895350D01*
X2647790D01*
G01X2669470Y7636850D02*
Y7700350D01*
X2644410Y7654840D01*
X2678270D01*
G01X2669470Y8221850D02*
Y8285350D01*
X2644410Y8239840D01*
X2678270D01*
G01X2648470Y8079770D02*
X2652530Y8086120D01*
X2657280Y8089290D01*
X2662690Y8090350D01*
X2669470Y8088230D01*
X2674210Y8082940D01*
X2675560Y8076590D01*
X2674890Y8070240D01*
X2672180Y8064950D01*
X2658630Y8054370D01*
X2652530Y8046960D01*
X2648470Y8036370D01*
X2647120Y8026850D01*
X2675560D01*
M02*
